<svg width="97" height="78" viewBox="0 0 97 78" fill="none" xmlns="http://www.w3.org/2000/svg">
<path d="M12.9875 61.166C13.1435 60.836 13.3895 60.563 13.7255 60.347C14.0675 60.125 14.4725 60.014 14.9405 60.014C15.3845 60.014 15.7835 60.119 16.1375 60.329C16.4975 60.533 16.7765 60.827 16.9745 61.211C17.1785 61.589 17.2805 62.03 17.2805 62.534C17.2805 63.038 17.1785 63.482 16.9745 63.866C16.7765 64.25 16.4975 64.547 16.1375 64.757C15.7835 64.967 15.3845 65.072 14.9405 65.072C14.4785 65.072 14.0765 64.964 13.7345 64.748C13.3925 64.526 13.1435 64.25 12.9875 63.92V67.322H12.3665V60.086H12.9875V61.166ZM16.6415 62.534C16.6415 62.126 16.5605 61.775 16.3985 61.481C16.2425 61.181 16.0265 60.953 15.7505 60.797C15.4745 60.641 15.1625 60.563 14.8145 60.563C14.4785 60.563 14.1695 60.644 13.8875 60.806C13.6115 60.968 13.3925 61.199 13.2305 61.499C13.0685 61.799 12.9875 62.147 12.9875 62.543C12.9875 62.939 13.0685 63.287 13.2305 63.587C13.3925 63.887 13.6115 64.118 13.8875 64.28C14.1695 64.442 14.4785 64.523 14.8145 64.523C15.1625 64.523 15.4745 64.445 15.7505 64.289C16.0265 64.127 16.2425 63.896 16.3985 63.596C16.5605 63.29 16.6415 62.936 16.6415 62.534Z" fill="black"/>
<path d="M19.0697 60.959C19.2077 60.653 19.4177 60.416 19.6997 60.248C19.9877 60.08 20.3387 59.996 20.7527 59.996V60.653H20.5817C20.1257 60.653 19.7597 60.776 19.4837 61.022C19.2077 61.268 19.0697 61.679 19.0697 62.255V65H18.4397V60.086H19.0697V60.959Z" fill="black"/>
<path d="M23.8515 65.072C23.3895 65.072 22.9725 64.97 22.6005 64.766C22.2345 64.556 21.9435 64.262 21.7275 63.884C21.5175 63.5 21.4125 63.053 21.4125 62.543C21.4125 62.033 21.5205 61.589 21.7365 61.211C21.9525 60.827 22.2465 60.533 22.6185 60.329C22.9905 60.119 23.4075 60.014 23.8695 60.014C24.3315 60.014 24.7485 60.119 25.1205 60.329C25.4985 60.533 25.7925 60.827 26.0025 61.211C26.2185 61.589 26.3265 62.033 26.3265 62.543C26.3265 63.047 26.2185 63.491 26.0025 63.875C25.7865 64.259 25.4895 64.556 25.1115 64.766C24.7335 64.97 24.3135 65.072 23.8515 65.072ZM23.8515 64.523C24.1755 64.523 24.4755 64.451 24.7515 64.307C25.0275 64.157 25.2495 63.935 25.4175 63.641C25.5915 63.341 25.6785 62.975 25.6785 62.543C25.6785 62.111 25.5945 61.748 25.4265 61.454C25.2585 61.154 25.0365 60.932 24.7605 60.788C24.4845 60.638 24.1845 60.563 23.8605 60.563C23.5365 60.563 23.2365 60.638 22.9605 60.788C22.6845 60.932 22.4625 61.154 22.2945 61.454C22.1325 61.748 22.0515 62.111 22.0515 62.543C22.0515 62.975 22.1325 63.341 22.2945 63.641C22.4625 63.935 22.6815 64.157 22.9515 64.307C23.2275 64.451 23.5275 64.523 23.8515 64.523Z" fill="black"/>
<path d="M29.5359 60.014C29.9979 60.014 30.3999 60.122 30.7419 60.338C31.0839 60.554 31.3299 60.827 31.4799 61.157V60.086H32.1099V65.126C32.1099 65.576 32.0109 65.975 31.8129 66.323C31.6209 66.671 31.3509 66.938 31.0029 67.124C30.6549 67.316 30.2589 67.412 29.8149 67.412C29.1849 67.412 28.6599 67.262 28.2399 66.962C27.8259 66.662 27.5679 66.254 27.4659 65.738H28.0869C28.1949 66.08 28.3989 66.353 28.6989 66.557C29.0049 66.761 29.3769 66.863 29.8149 66.863C30.1329 66.863 30.4179 66.794 30.6699 66.656C30.9219 66.524 31.1199 66.326 31.2639 66.062C31.4079 65.798 31.4799 65.486 31.4799 65.126V63.911C31.3239 64.247 31.0749 64.526 30.7329 64.748C30.3969 64.964 29.9979 65.072 29.5359 65.072C29.0859 65.072 28.6809 64.967 28.3209 64.757C27.9669 64.547 27.6879 64.25 27.4839 63.866C27.2859 63.482 27.1869 63.038 27.1869 62.534C27.1869 62.03 27.2859 61.589 27.4839 61.211C27.6879 60.827 27.9669 60.533 28.3209 60.329C28.6809 60.119 29.0859 60.014 29.5359 60.014ZM31.4799 62.543C31.4799 62.147 31.3989 61.799 31.2369 61.499C31.0749 61.199 30.8529 60.968 30.5709 60.806C30.2949 60.644 29.9889 60.563 29.6529 60.563C29.3049 60.563 28.9929 60.641 28.7169 60.797C28.4409 60.953 28.2219 61.181 28.0599 61.481C27.9039 61.775 27.8259 62.126 27.8259 62.534C27.8259 62.936 27.9039 63.29 28.0599 63.596C28.2219 63.896 28.4409 64.127 28.7169 64.289C28.9929 64.445 29.3049 64.523 29.6529 64.523C29.9889 64.523 30.2949 64.442 30.5709 64.28C30.8529 64.118 31.0749 63.887 31.2369 63.587C31.3989 63.287 31.4799 62.939 31.4799 62.543Z" fill="black"/>
<path d="M34.1781 60.959C34.3161 60.653 34.5261 60.416 34.8081 60.248C35.0961 60.08 35.4471 59.996 35.8611 59.996V60.653H35.6901C35.2341 60.653 34.8681 60.776 34.5921 61.022C34.3161 61.268 34.1781 61.679 34.1781 62.255V65H33.5481V60.086H34.1781V60.959Z" fill="black"/>
<path d="M36.5209 62.534C36.5209 62.03 36.6199 61.589 36.8179 61.211C37.0219 60.827 37.3009 60.533 37.6549 60.329C38.0149 60.119 38.4199 60.014 38.8699 60.014C39.3379 60.014 39.7399 60.122 40.0759 60.338C40.4179 60.554 40.6639 60.83 40.8139 61.166V60.086H41.4439V65H40.8139V63.911C40.6579 64.247 40.4089 64.526 40.0669 64.748C39.7309 64.964 39.3289 65.072 38.8609 65.072C38.4169 65.072 38.0149 64.967 37.6549 64.757C37.3009 64.547 37.0219 64.25 36.8179 63.866C36.6199 63.482 36.5209 63.038 36.5209 62.534ZM40.8139 62.543C40.8139 62.147 40.7329 61.799 40.5709 61.499C40.4089 61.199 40.1869 60.968 39.9049 60.806C39.6289 60.644 39.3229 60.563 38.9869 60.563C38.6389 60.563 38.3269 60.641 38.0509 60.797C37.7749 60.953 37.5559 61.181 37.3939 61.481C37.2379 61.775 37.1599 62.126 37.1599 62.534C37.1599 62.936 37.2379 63.29 37.3939 63.596C37.5559 63.896 37.7749 64.127 38.0509 64.289C38.3269 64.445 38.6389 64.523 38.9869 64.523C39.3229 64.523 39.6289 64.442 39.9049 64.28C40.1869 64.118 40.4089 63.887 40.5709 63.587C40.7329 63.287 40.8139 62.939 40.8139 62.543Z" fill="black"/>
<path d="M48.7321 59.996C49.3081 59.996 49.7761 60.179 50.1361 60.545C50.5021 60.905 50.6851 61.43 50.6851 62.12V65H50.0641V62.192C50.0641 61.658 49.9351 61.25 49.6771 60.968C49.4191 60.686 49.0681 60.545 48.6241 60.545C48.1621 60.545 47.7931 60.698 47.5171 61.004C47.2411 61.31 47.1031 61.754 47.1031 62.336V65H46.4821V62.192C46.4821 61.658 46.3531 61.25 46.0951 60.968C45.8371 60.686 45.4831 60.545 45.0331 60.545C44.5711 60.545 44.2021 60.698 43.9261 61.004C43.6501 61.31 43.5121 61.754 43.5121 62.336V65H42.8821V60.086H43.5121V60.932C43.6681 60.626 43.8901 60.395 44.1781 60.239C44.4661 60.077 44.7871 59.996 45.1411 59.996C45.5671 59.996 45.9391 60.098 46.2571 60.302C46.5811 60.506 46.8151 60.806 46.9591 61.202C47.0911 60.812 47.3161 60.515 47.6341 60.311C47.9581 60.101 48.3241 59.996 48.7321 59.996Z" fill="black"/>
<path d="M57.209 65L55.184 62.795V65H54.554V58.34H55.184V62.282L57.164 60.086H58.046L55.715 62.534L58.064 65H57.209Z" fill="black"/>
<path d="M59.1932 59.159C59.0672 59.159 58.9592 59.114 58.8692 59.024C58.7792 58.934 58.7342 58.823 58.7342 58.691C58.7342 58.559 58.7792 58.451 58.8692 58.367C58.9592 58.277 59.0672 58.232 59.1932 58.232C59.3192 58.232 59.4272 58.277 59.5172 58.367C59.6072 58.451 59.6522 58.559 59.6522 58.691C59.6522 58.823 59.6072 58.934 59.5172 59.024C59.4272 59.114 59.3192 59.159 59.1932 59.159ZM59.5082 60.086V65H58.8782V60.086H59.5082Z" fill="black"/>
<path d="M60.6469 62.543C60.6469 62.033 60.7489 61.589 60.9529 61.211C61.1569 60.827 61.4389 60.533 61.7989 60.329C62.1589 60.119 62.5699 60.014 63.0319 60.014C63.6379 60.014 64.1359 60.164 64.5259 60.464C64.9219 60.764 65.1769 61.172 65.2909 61.688H64.6159C64.5319 61.334 64.3489 61.058 64.0669 60.86C63.7909 60.656 63.4459 60.554 63.0319 60.554C62.7019 60.554 62.4049 60.629 62.1409 60.779C61.8768 60.929 61.6669 61.154 61.5109 61.454C61.3609 61.748 61.2859 62.111 61.2859 62.543C61.2859 62.975 61.3609 63.341 61.5109 63.641C61.6669 63.941 61.8768 64.166 62.1409 64.316C62.4049 64.466 62.7019 64.541 63.0319 64.541C63.4459 64.541 63.7909 64.442 64.0669 64.244C64.3489 64.04 64.5319 63.758 64.6159 63.398H65.2909C65.1769 63.902 64.9219 64.307 64.5259 64.613C64.1299 64.919 63.6319 65.072 63.0319 65.072C62.5699 65.072 62.1589 64.97 61.7989 64.766C61.4389 64.556 61.1569 64.262 60.9529 63.884C60.7489 63.5 60.6469 63.053 60.6469 62.543Z" fill="black"/>
<path d="M69.1094 65L67.0844 62.795V65H66.4544V58.34H67.0844V62.282L69.0644 60.086H69.9464L67.6154 62.534L69.9644 65H69.1094Z" fill="black"/>
<path d="M73.8296 61.4V61.931H70.3286V61.4H73.8296Z" fill="black"/>
<path d="M77.5966 65.072C77.1346 65.072 76.7176 64.97 76.3456 64.766C75.9796 64.556 75.6886 64.262 75.4726 63.884C75.2626 63.5 75.1576 63.053 75.1576 62.543C75.1576 62.033 75.2656 61.589 75.4816 61.211C75.6976 60.827 75.9916 60.533 76.3636 60.329C76.7356 60.119 77.1526 60.014 77.6146 60.014C78.0766 60.014 78.4936 60.119 78.8656 60.329C79.2436 60.533 79.5376 60.827 79.7476 61.211C79.9636 61.589 80.0716 62.033 80.0716 62.543C80.0716 63.047 79.9636 63.491 79.7476 63.875C79.5316 64.259 79.2346 64.556 78.8566 64.766C78.4786 64.97 78.0586 65.072 77.5966 65.072ZM77.5966 64.523C77.9206 64.523 78.2206 64.451 78.4966 64.307C78.7726 64.157 78.9946 63.935 79.1626 63.641C79.3366 63.341 79.4236 62.975 79.4236 62.543C79.4236 62.111 79.3396 61.748 79.1716 61.454C79.0036 61.154 78.7816 60.932 78.5056 60.788C78.2296 60.638 77.9296 60.563 77.6056 60.563C77.2816 60.563 76.9816 60.638 76.7056 60.788C76.4296 60.932 76.2076 61.154 76.0396 61.454C75.8776 61.748 75.7966 62.111 75.7966 62.543C75.7966 62.975 75.8776 63.341 76.0396 63.641C76.2076 63.935 76.4266 64.157 76.6966 64.307C76.9726 64.451 77.2726 64.523 77.5966 64.523Z" fill="black"/>
<path d="M83.155 60.617H82.012V65H81.382V60.617H80.698V60.086H81.382V59.744C81.382 59.21 81.517 58.817 81.787 58.565C82.063 58.313 82.507 58.187 83.119 58.187V58.727C82.711 58.727 82.423 58.805 82.255 58.961C82.093 59.117 82.012 59.378 82.012 59.744V60.086H83.155V60.617Z" fill="black"/>
<path d="M86.0818 60.617H84.9388V65H84.3088V60.617H83.6248V60.086H84.3088V59.744C84.3088 59.21 84.4438 58.817 84.7138 58.565C84.9898 58.313 85.4338 58.187 86.0458 58.187V58.727C85.6378 58.727 85.3498 58.805 85.1818 58.961C85.0198 59.117 84.9388 59.378 84.9388 59.744V60.086H86.0818V60.617Z" fill="black"/>
<path d="M11.1776 74.534C11.1776 74.03 11.2796 73.589 11.4836 73.211C11.6876 72.827 11.9666 72.533 12.3206 72.329C12.6806 72.119 13.0856 72.014 13.5356 72.014C13.9676 72.014 14.3576 72.119 14.7056 72.329C15.0536 72.539 15.3086 72.812 15.4706 73.148V70.34H16.1006V77H15.4706V75.902C15.3206 76.244 15.0746 76.526 14.7326 76.748C14.3906 76.964 13.9886 77.072 13.5266 77.072C13.0766 77.072 12.6716 76.967 12.3116 76.757C11.9576 76.547 11.6786 76.25 11.4746 75.866C11.2766 75.482 11.1776 75.038 11.1776 74.534ZM15.4706 74.543C15.4706 74.147 15.3896 73.799 15.2276 73.499C15.0656 73.199 14.8436 72.968 14.5616 72.806C14.2856 72.644 13.9796 72.563 13.6436 72.563C13.2956 72.563 12.9836 72.641 12.7076 72.797C12.4316 72.953 12.2126 73.181 12.0506 73.481C11.8946 73.775 11.8166 74.126 11.8166 74.534C11.8166 74.936 11.8946 75.29 12.0506 75.596C12.2126 75.896 12.4316 76.127 12.7076 76.289C12.9836 76.445 13.2956 76.523 13.6436 76.523C13.9796 76.523 14.2856 76.442 14.5616 76.28C14.8436 76.118 15.0656 75.887 15.2276 75.587C15.3896 75.287 15.4706 74.939 15.4706 74.543Z" fill="black"/>
<path d="M17.2509 74.534C17.2509 74.03 17.3499 73.589 17.5479 73.211C17.7519 72.827 18.0309 72.533 18.3849 72.329C18.7449 72.119 19.1499 72.014 19.5999 72.014C20.0679 72.014 20.4699 72.122 20.8059 72.338C21.1479 72.554 21.3939 72.83 21.5439 73.166V72.086H22.1739V77H21.5439V75.911C21.3879 76.247 21.1389 76.526 20.7969 76.748C20.4609 76.964 20.0589 77.072 19.5909 77.072C19.1469 77.072 18.7449 76.967 18.3849 76.757C18.0309 76.547 17.7519 76.25 17.5479 75.866C17.3499 75.482 17.2509 75.038 17.2509 74.534ZM21.5439 74.543C21.5439 74.147 21.4629 73.799 21.3009 73.499C21.1389 73.199 20.9169 72.968 20.6349 72.806C20.3589 72.644 20.0529 72.563 19.7169 72.563C19.3689 72.563 19.0569 72.641 18.7809 72.797C18.5049 72.953 18.2859 73.181 18.1239 73.481C17.9679 73.775 17.8899 74.126 17.8899 74.534C17.8899 74.936 17.9679 75.29 18.1239 75.596C18.2859 75.896 18.5049 76.127 18.7809 76.289C19.0569 76.445 19.3689 76.523 19.7169 76.523C20.0529 76.523 20.3589 76.442 20.6349 76.28C20.9169 76.118 21.1389 75.887 21.3009 75.587C21.4629 75.287 21.5439 74.939 21.5439 74.543Z" fill="black"/>
<path d="M24.4311 72.617V75.668C24.4311 75.968 24.4881 76.175 24.6021 76.289C24.7161 76.403 24.9171 76.46 25.2051 76.46H25.7811V77H25.1061C24.6621 77 24.3321 76.898 24.1161 76.694C23.9001 76.484 23.7921 76.142 23.7921 75.668V72.617H23.1081V72.086H23.7921V70.853H24.4311V72.086H25.7811V72.617H24.4311Z" fill="black"/>
<path d="M31.2661 74.291C31.2661 74.507 31.2601 74.672 31.2481 74.786H27.1711C27.1891 75.158 27.2791 75.476 27.4411 75.74C27.6031 76.004 27.8161 76.205 28.0801 76.343C28.3441 76.475 28.6321 76.541 28.9441 76.541C29.3521 76.541 29.6941 76.442 29.9701 76.244C30.2521 76.046 30.4381 75.779 30.5281 75.443H31.1941C31.0741 75.923 30.8161 76.316 30.4201 76.622C30.0301 76.922 29.5381 77.072 28.9441 77.072C28.4821 77.072 28.0681 76.97 27.7021 76.766C27.3361 76.556 27.0481 76.262 26.8381 75.884C26.6341 75.5 26.5321 75.053 26.5321 74.543C26.5321 74.033 26.6341 73.586 26.8381 73.202C27.0421 72.818 27.3271 72.524 27.6931 72.32C28.0591 72.116 28.4761 72.014 28.9441 72.014C29.4121 72.014 29.8201 72.116 30.1681 72.32C30.5221 72.524 30.7921 72.8 30.9781 73.148C31.1701 73.49 31.2661 73.871 31.2661 74.291ZM30.6271 74.273C30.6331 73.907 30.5581 73.595 30.4021 73.337C30.2521 73.079 30.0451 72.884 29.7811 72.752C29.5171 72.62 29.2291 72.554 28.9171 72.554C28.4491 72.554 28.0501 72.704 27.7201 73.004C27.3901 73.304 27.2071 73.727 27.1711 74.273H30.6271Z" fill="black"/>
<path d="M36.8235 72.617H35.6805V77H35.0505V72.617H34.3665V72.086H35.0505V71.744C35.0505 71.21 35.1855 70.817 35.4555 70.565C35.7315 70.313 36.1755 70.187 36.7875 70.187V70.727C36.3795 70.727 36.0915 70.805 35.9235 70.961C35.7615 71.117 35.6805 71.378 35.6805 71.744V72.086H36.8235V72.617Z" fill="black"/>
<path d="M39.9662 77.072C39.5042 77.072 39.0872 76.97 38.7152 76.766C38.3492 76.556 38.0582 76.262 37.8422 75.884C37.6322 75.5 37.5272 75.053 37.5272 74.543C37.5272 74.033 37.6352 73.589 37.8512 73.211C38.0672 72.827 38.3612 72.533 38.7332 72.329C39.1052 72.119 39.5222 72.014 39.9842 72.014C40.4462 72.014 40.8632 72.119 41.2352 72.329C41.6132 72.533 41.9072 72.827 42.1172 73.211C42.3332 73.589 42.4412 74.033 42.4412 74.543C42.4412 75.047 42.3332 75.491 42.1172 75.875C41.9012 76.259 41.6042 76.556 41.2262 76.766C40.8482 76.97 40.4282 77.072 39.9662 77.072ZM39.9662 76.523C40.2902 76.523 40.5902 76.451 40.8662 76.307C41.1422 76.157 41.3642 75.935 41.5322 75.641C41.7062 75.341 41.7932 74.975 41.7932 74.543C41.7932 74.111 41.7092 73.748 41.5412 73.454C41.3732 73.154 41.1512 72.932 40.8752 72.788C40.5992 72.638 40.2992 72.563 39.9752 72.563C39.6512 72.563 39.3512 72.638 39.0752 72.788C38.7992 72.932 38.5772 73.154 38.4092 73.454C38.2472 73.748 38.1662 74.111 38.1662 74.543C38.1662 74.975 38.2472 75.341 38.4092 75.641C38.5772 75.935 38.7962 76.157 39.0662 76.307C39.3422 76.451 39.6422 76.523 39.9662 76.523Z" fill="black"/>
<path d="M44.2196 72.959C44.3576 72.653 44.5676 72.416 44.8496 72.248C45.1376 72.08 45.4886 71.996 45.9026 71.996V72.653H45.7316C45.2756 72.653 44.9096 72.776 44.6336 73.022C44.3576 73.268 44.2196 73.679 44.2196 74.255V77H43.5896V72.086H44.2196V72.959Z" fill="black"/>
<path d="M51.0121 77.072C50.4481 77.072 49.9861 76.943 49.6261 76.685C49.2721 76.421 49.0741 76.064 49.0321 75.614H49.6801C49.7101 75.89 49.8391 76.115 50.0671 76.289C50.3011 76.457 50.6131 76.541 51.0031 76.541C51.3451 76.541 51.6121 76.46 51.8041 76.298C52.0021 76.136 52.1011 75.935 52.1011 75.695C52.1011 75.527 52.0471 75.389 51.9391 75.281C51.8311 75.173 51.6931 75.089 51.5251 75.029C51.3631 74.963 51.1411 74.894 50.8591 74.822C50.4931 74.726 50.1961 74.63 49.9681 74.534C49.7401 74.438 49.5451 74.297 49.3831 74.111C49.2271 73.919 49.1491 73.664 49.1491 73.346C49.1491 73.106 49.2211 72.884 49.3651 72.68C49.5091 72.476 49.7131 72.314 49.9771 72.194C50.2411 72.074 50.5411 72.014 50.8771 72.014C51.4051 72.014 51.8311 72.149 52.1551 72.419C52.4791 72.683 52.6531 73.049 52.6771 73.517H52.0471C52.0291 73.229 51.9151 72.998 51.7051 72.824C51.5011 72.644 51.2191 72.554 50.8591 72.554C50.5411 72.554 50.2831 72.629 50.0851 72.779C49.8871 72.929 49.7881 73.115 49.7881 73.337C49.7881 73.529 49.8451 73.688 49.9591 73.814C50.0791 73.934 50.2261 74.03 50.4001 74.102C50.5741 74.168 50.8081 74.243 51.1021 74.327C51.4561 74.423 51.7381 74.516 51.9481 74.606C52.1581 74.696 52.3381 74.828 52.4881 75.002C52.6381 75.176 52.7161 75.407 52.7221 75.695C52.7221 75.959 52.6501 76.196 52.5061 76.406C52.3621 76.61 52.1611 76.772 51.9031 76.892C51.6451 77.012 51.3481 77.072 51.0121 77.072Z" fill="black"/>
<path d="M54.727 72.617V75.668C54.727 75.968 54.784 76.175 54.898 76.289C55.012 76.403 55.213 76.46 55.501 76.46H56.077V77H55.402C54.958 77 54.628 76.898 54.412 76.694C54.196 76.484 54.088 76.142 54.088 75.668V72.617H53.404V72.086H54.088V70.853H54.727V72.086H56.077V72.617H54.727Z" fill="black"/>
<path d="M61.373 72.086V77H60.743V76.136C60.599 76.442 60.377 76.676 60.077 76.838C59.777 77 59.441 77.081 59.069 77.081C58.481 77.081 58.001 76.901 57.629 76.541C57.257 76.175 57.071 75.647 57.071 74.957V72.086H57.692V74.885C57.692 75.419 57.824 75.827 58.088 76.109C58.358 76.391 58.724 76.532 59.186 76.532C59.66 76.532 60.038 76.382 60.32 76.082C60.602 75.782 60.743 75.341 60.743 74.759V72.086H61.373Z" fill="black"/>
<path d="M62.5233 74.534C62.5233 74.03 62.6253 73.589 62.8293 73.211C63.0333 72.827 63.3123 72.533 63.6663 72.329C64.0263 72.119 64.4313 72.014 64.8813 72.014C65.3133 72.014 65.7033 72.119 66.0513 72.329C66.3993 72.539 66.6543 72.812 66.8163 73.148V70.34H67.4463V77H66.8163V75.902C66.6663 76.244 66.4203 76.526 66.0783 76.748C65.7363 76.964 65.3343 77.072 64.8723 77.072C64.4223 77.072 64.0173 76.967 63.6573 76.757C63.3033 76.547 63.0243 76.25 62.8203 75.866C62.6223 75.482 62.5233 75.038 62.5233 74.534ZM66.8163 74.543C66.8163 74.147 66.7353 73.799 66.5733 73.499C66.4113 73.199 66.1893 72.968 65.9073 72.806C65.6313 72.644 65.3253 72.563 64.9893 72.563C64.6413 72.563 64.3293 72.641 64.0533 72.797C63.7773 72.953 63.5583 73.181 63.3963 73.481C63.2403 73.775 63.1623 74.126 63.1623 74.534C63.1623 74.936 63.2403 75.29 63.3963 75.596C63.5583 75.896 63.7773 76.127 64.0533 76.289C64.3293 76.445 64.6413 76.523 64.9893 76.523C65.3253 76.523 65.6313 76.442 65.9073 76.28C66.1893 76.118 66.4113 75.887 66.5733 75.587C66.7353 75.287 66.8163 74.939 66.8163 74.543Z" fill="black"/>
<path d="M73.3306 74.291C73.3306 74.507 73.3246 74.672 73.3126 74.786H69.2356C69.2536 75.158 69.3436 75.476 69.5056 75.74C69.6676 76.004 69.8806 76.205 70.1446 76.343C70.4086 76.475 70.6966 76.541 71.0086 76.541C71.4166 76.541 71.7586 76.442 72.0346 76.244C72.3166 76.046 72.5026 75.779 72.5926 75.443H73.2586C73.1386 75.923 72.8806 76.316 72.4846 76.622C72.0946 76.922 71.6026 77.072 71.0086 77.072C70.5466 77.072 70.1326 76.97 69.7666 76.766C69.4006 76.556 69.1126 76.262 68.9026 75.884C68.6986 75.5 68.5966 75.053 68.5966 74.543C68.5966 74.033 68.6986 73.586 68.9026 73.202C69.1066 72.818 69.3916 72.524 69.7576 72.32C70.1236 72.116 70.5406 72.014 71.0086 72.014C71.4766 72.014 71.8846 72.116 72.2326 72.32C72.5866 72.524 72.8566 72.8 73.0426 73.148C73.2346 73.49 73.3306 73.871 73.3306 74.291ZM72.6916 74.273C72.6976 73.907 72.6226 73.595 72.4666 73.337C72.3166 73.079 72.1096 72.884 71.8456 72.752C71.5816 72.62 71.2936 72.554 70.9816 72.554C70.5136 72.554 70.1146 72.704 69.7846 73.004C69.4546 73.304 69.2716 73.727 69.2356 74.273H72.6916Z" fill="black"/>
<path d="M76.7872 71.996C77.3752 71.996 77.8552 72.179 78.2272 72.545C78.5992 72.905 78.7852 73.43 78.7852 74.12V77H78.1642V74.192C78.1642 73.658 78.0292 73.25 77.7592 72.968C77.4952 72.686 77.1322 72.545 76.6702 72.545C76.1962 72.545 75.8182 72.695 75.5362 72.995C75.2542 73.295 75.1132 73.736 75.1132 74.318V77H74.4832V72.086H75.1132V72.923C75.2692 72.623 75.4942 72.395 75.7882 72.239C76.0822 72.077 76.4152 71.996 76.7872 71.996Z" fill="black"/>
<path d="M80.9975 72.617V75.668C80.9975 75.968 81.0545 76.175 81.1685 76.289C81.2825 76.403 81.4835 76.46 81.7715 76.46H82.3475V77H81.6725C81.2285 77 80.8985 76.898 80.6825 76.694C80.4665 76.484 80.3585 76.142 80.3585 75.668V72.617H79.6745V72.086H80.3585V70.853H80.9975V72.086H82.3475V72.617H80.9975Z" fill="black"/>
<path d="M85.0785 77.072C84.5145 77.072 84.0525 76.943 83.6925 76.685C83.3385 76.421 83.1405 76.064 83.0985 75.614H83.7465C83.7765 75.89 83.9055 76.115 84.1335 76.289C84.3675 76.457 84.6795 76.541 85.0695 76.541C85.4115 76.541 85.6785 76.46 85.8705 76.298C86.0685 76.136 86.1675 75.935 86.1675 75.695C86.1675 75.527 86.1135 75.389 86.0055 75.281C85.8975 75.173 85.7595 75.089 85.5915 75.029C85.4295 74.963 85.2075 74.894 84.9255 74.822C84.5595 74.726 84.2625 74.63 84.0345 74.534C83.8065 74.438 83.6115 74.297 83.4495 74.111C83.2935 73.919 83.2155 73.664 83.2155 73.346C83.2155 73.106 83.2875 72.884 83.4315 72.68C83.5755 72.476 83.7795 72.314 84.0435 72.194C84.3075 72.074 84.6075 72.014 84.9435 72.014C85.4715 72.014 85.8975 72.149 86.2215 72.419C86.5455 72.683 86.7195 73.049 86.7435 73.517H86.1135C86.0955 73.229 85.9815 72.998 85.7715 72.824C85.5675 72.644 85.2855 72.554 84.9255 72.554C84.6075 72.554 84.3495 72.629 84.1515 72.779C83.9535 72.929 83.8545 73.115 83.8545 73.337C83.8545 73.529 83.9115 73.688 84.0255 73.814C84.1455 73.934 84.2925 74.03 84.4665 74.102C84.6405 74.168 84.8745 74.243 85.1685 74.327C85.5225 74.423 85.8045 74.516 86.0145 74.606C86.2245 74.696 86.4045 74.828 86.5545 75.002C86.7045 75.176 86.7825 75.407 86.7885 75.695C86.7885 75.959 86.7165 76.196 86.5725 76.406C86.4285 76.61 86.2275 76.772 85.9695 76.892C85.7115 77.012 85.4145 77.072 85.0785 77.072Z" fill="black"/>
<path fill-rule="evenodd" clip-rule="evenodd" d="M2 47.5C2 47.2239 2.22386 47 2.5 47H96.5C96.7761 47 97 47.2239 97 47.5C97 47.7761 96.7761 48 96.5 48H2.5C2.22386 48 2 47.7761 2 47.5Z" fill="black"/>
<path d="M5.04881 37C4.66481 37 4.47281 36.84 4.47281 36.52V35.944C4.47281 35.624 4.63281 35.416 4.95281 35.32C5.97681 34.936 6.69681 34.6 7.11281 34.312C7.52881 34.024 7.80081 33.688 7.92881 33.304C8.08881 32.888 8.16881 32.312 8.16881 31.576V12.232H4.71281C4.36081 12.232 4.18481 12.072 4.18481 11.752V10.696C4.18481 10.376 4.36081 10.216 4.71281 10.216H7.88081C10.5688 10.216 12.9528 9.656 15.0328 8.536C17.1128 7.416 18.3768 6.024 18.8248 4.36C18.8888 4.104 18.9528 3.944 19.0168 3.88C19.1128 3.784 19.2568 3.736 19.4488 3.736H20.5048C20.8568 3.736 21.0328 3.928 21.0328 4.312V31.576C21.0328 32.408 21.1128 33.032 21.2728 33.448C21.4648 33.832 21.7848 34.168 22.2328 34.456C22.6808 34.712 23.3528 35 24.2488 35.32C24.5688 35.416 24.7288 35.624 24.7288 35.944V36.52C24.7288 36.84 24.5368 37 24.1528 37H5.04881Z" fill="#7AE2FE"/>
<path d="M39.2477 37.816C34.9277 37.816 31.5197 36.328 29.0237 33.352C26.5277 30.344 25.2797 26.248 25.2797 21.064C25.2797 15.624 26.4637 11.464 28.8317 8.584C31.2317 5.704 34.7037 4.264 39.2477 4.264C43.7917 4.264 47.2477 5.704 49.6157 8.584C52.0157 11.464 53.2157 15.624 53.2157 21.064C53.2157 26.248 51.9677 30.344 49.4717 33.352C46.9757 36.328 43.5677 37.816 39.2477 37.816ZM39.2477 35.368C39.8237 35.368 40.1117 34.936 40.1117 34.072V8.008C40.1117 7.144 39.8237 6.712 39.2477 6.712C38.6717 6.712 38.3837 7.144 38.3837 8.008V34.072C38.3837 34.936 38.6717 35.368 39.2477 35.368Z" fill="#7AE2FE"/>
<path d="M59.1557 37.816C57.5557 37.816 56.2437 37.384 55.2197 36.52C54.2277 35.656 53.7317 34.536 53.7317 33.16C53.7317 31.784 54.2277 30.664 55.2197 29.8C56.2437 28.936 57.5557 28.504 59.1557 28.504C60.7557 28.504 62.0517 28.936 63.0437 29.8C64.0677 30.664 64.5797 31.784 64.5797 33.16C64.5797 34.536 64.0677 35.656 63.0437 36.52C62.0517 37.384 60.7557 37.816 59.1557 37.816Z" fill="#7AE2FE"/>
<path d="M75.3617 37C74.9777 37 74.7857 36.84 74.7857 36.52V35.944C74.7857 35.624 74.9457 35.416 75.2657 35.32C76.2897 34.936 77.0097 34.6 77.4257 34.312C77.8417 34.024 78.1137 33.688 78.2417 33.304C78.4017 32.888 78.4817 32.312 78.4817 31.576V28.024H77.0417C76.1777 28.728 75.1697 29.432 74.0177 30.136C72.4497 31.064 71.0257 31.528 69.7457 31.528C68.5617 31.528 67.5857 31.192 66.8177 30.52C66.0817 29.848 65.7137 28.968 65.7137 27.88C65.7137 26.856 66.0497 26.008 66.7217 25.336C67.4257 24.632 68.2897 24.28 69.3137 24.28C70.0177 24.312 70.6417 24.472 71.1857 24.76C71.7617 25.048 72.2737 25.352 72.7217 25.672C73.1697 25.96 73.5857 26.12 73.9697 26.152C74.9297 25.32 75.4097 24.248 75.4097 22.936C75.3777 22.04 75.1377 21.144 74.6897 20.248C74.2737 19.32 73.7617 18.376 73.1537 17.416C72.5777 16.456 72.0657 15.48 71.6177 14.488C71.2017 13.496 70.9777 12.472 70.9457 11.416C70.9457 9.144 71.7777 7.304 73.4417 5.896C75.1057 4.488 77.2657 3.784 79.9217 3.784C82.3537 3.784 84.2897 4.472 85.7297 5.848C87.2017 7.192 87.9377 8.952 87.9377 11.128C87.9377 12.216 87.6657 13.448 87.1217 14.824C86.5777 16.168 85.8097 17.512 84.8177 18.856C84.2737 19.56 83.7297 20.216 83.1857 20.824C82.6417 21.432 81.6177 22.488 80.1137 23.992C79.6017 24.504 79.2497 24.888 79.0577 25.144C78.8977 25.368 78.8177 25.576 78.8177 25.768C78.8177 25.96 78.8977 26.136 79.0577 26.296C79.2497 26.456 79.4737 26.536 79.7297 26.536C81.8097 24.776 83.6017 22.952 85.1057 21.064C86.1617 19.72 86.9937 18.504 87.6017 17.416C88.2417 16.296 88.7697 15.096 89.1857 13.816C89.2177 13.656 89.2657 13.544 89.3297 13.48C89.4257 13.416 89.5697 13.384 89.7617 13.384H90.6737C90.9297 13.384 91.1057 13.432 91.2017 13.528C91.2977 13.624 91.3457 13.8 91.3457 14.056V26.152H94.8017C95.1857 26.152 95.3777 26.312 95.3777 26.632V27.544C95.3777 27.864 95.1857 28.024 94.8017 28.024H91.3457V31.576C91.3457 32.408 91.4257 33.032 91.5857 33.448C91.7777 33.832 92.0977 34.168 92.5457 34.456C92.9937 34.712 93.6657 35 94.5617 35.32C94.8817 35.416 95.0417 35.624 95.0417 35.944V36.52C95.0417 36.84 94.8497 37 94.4657 37H75.3617Z" fill="#7AE2FE"/>
<path fill-rule="evenodd" clip-rule="evenodd" d="M5.92881 31.304C5.80081 31.688 5.52881 32.024 5.11281 32.312C4.69681 32.6 3.97681 32.936 2.95281 33.32C2.63281 33.416 2.47281 33.624 2.47281 33.944V34.52C2.47281 34.84 2.66481 35 3.04881 35H22.1528C22.5368 35 22.7288 34.84 22.7288 34.52V33.944C22.7288 33.624 22.5688 33.416 22.2488 33.32C21.3528 33 20.6808 32.712 20.2328 32.456C19.7848 32.168 19.4648 31.832 19.2728 31.448C19.1128 31.032 19.0328 30.408 19.0328 29.576V2.312C19.0328 1.928 18.8568 1.736 18.5048 1.736H17.4488C17.2568 1.736 17.1128 1.784 17.0168 1.88C16.9528 1.944 16.8888 2.104 16.8248 2.36C16.3768 4.024 15.1128 5.416 13.0328 6.536C10.9528 7.656 8.56881 8.216 5.88081 8.216H2.71281C2.36081 8.216 2.18481 8.376 2.18481 8.696V9.752C2.18481 10.072 2.36081 10.232 2.71281 10.232H6.16881V29.576C6.16881 30.312 6.08881 30.888 5.92881 31.304ZM4.8106 11.5902V29.576C4.8106 30.2395 4.73486 30.6247 4.66113 30.8164L4.65005 30.8452L4.6403 30.8745C4.62633 30.9164 4.5754 31.0321 4.3397 31.1953C4.0744 31.379 3.50011 31.6627 2.50934 32.0357C2.16615 32.1475 1.79743 32.3544 1.51626 32.7199C1.21637 33.1097 1.1146 33.5519 1.1146 33.944V34.52C1.1146 34.9611 1.25875 35.5163 1.7473 35.9234C2.18843 36.291 2.70164 36.3582 3.04881 36.3582H22.1528C22.5 36.3582 23.0132 36.291 23.4543 35.9234C23.9429 35.5163 24.087 34.9611 24.087 34.52V33.944C24.087 33.5519 23.9853 33.1097 23.6854 32.7199C23.4008 32.35 23.0266 32.1425 22.6799 32.0317C21.848 31.7337 21.2821 31.4866 20.9384 31.2947C20.7082 31.1421 20.5855 31.0043 20.5185 30.8959C20.4557 30.6891 20.391 30.2776 20.391 29.576V2.312C20.391 1.9385 20.3079 1.40503 19.902 0.962221C19.4756 0.49704 18.922 0.37779 18.5048 0.37779H17.4488C17.0475 0.37779 16.497 0.479046 16.0564 0.919594C15.824 1.15205 15.7095 1.41926 15.6597 1.54357C15.5981 1.69757 15.5499 1.86123 15.5106 2.01703C15.1889 3.19851 14.2605 4.33235 12.3889 5.34013C10.5326 6.33964 8.37537 6.85779 5.88081 6.85779H2.71281C2.35778 6.85779 1.83801 6.9357 1.40318 7.33101C0.94379 7.74863 0.826599 8.29151 0.826599 8.696V9.752C0.826599 10.1565 0.94379 10.6994 1.40318 11.117C1.83801 11.5123 2.35778 11.5902 2.71281 11.5902H4.8106ZM25.983 32.2248L25.9784 32.2193C23.2224 28.8979 21.9215 24.4606 21.9215 19.064C21.9215 13.4497 23.1408 8.93437 25.7826 5.72139L25.7883 5.71448C28.501 2.4592 32.3946 0.905788 37.2477 0.905788C42.0984 0.905788 45.9798 2.4581 48.6619 5.71793C51.3378 8.93113 52.5739 13.4481 52.5739 19.064C52.5739 24.4606 51.273 28.8979 48.5169 32.2193L48.5123 32.2248C45.7273 35.5454 41.9185 37.1742 37.2477 37.1742C32.5769 37.1742 28.7681 35.5454 25.983 32.2248ZM47.6157 6.584C45.2477 3.704 41.7917 2.264 37.2477 2.264C32.7037 2.264 29.2317 3.704 26.8317 6.584C24.4637 9.464 23.2797 13.624 23.2797 19.064C23.2797 24.248 24.5277 28.344 27.0237 31.352C29.5197 34.328 32.9277 35.816 37.2477 35.816C41.5677 35.816 44.9757 34.328 47.4717 31.352C49.9677 28.344 51.2157 24.248 51.2157 19.064C51.2157 13.624 50.0157 9.464 47.6157 6.584ZM52.3357 35.5512L52.3276 35.5442C51.0243 34.409 50.3735 32.9082 50.3735 31.16C50.3735 29.4118 51.0243 27.911 52.3276 26.7758L52.3357 26.7688L52.3438 26.7619C53.6584 25.6528 55.3002 25.1458 57.1557 25.1458C59.0058 25.1458 60.6391 25.6502 61.9278 26.7689C62.1596 26.9652 62.3716 27.1727 62.5635 27.3908C62.4241 26.9153 62.3555 26.4095 62.3555 25.88C62.3555 24.5266 62.8136 23.3233 63.7613 22.3756C64.728 21.4089 65.941 20.9218 67.3137 20.9218H67.3445L67.3754 20.9232C68.2451 20.9627 69.065 21.1624 69.8065 21.5519C70.418 21.8584 70.9778 22.1886 71.4808 22.5452C71.5101 22.5636 71.5383 22.5808 71.5655 22.5967C71.8869 22.1428 72.0476 21.6101 72.0514 20.96C72.0237 20.2876 71.8417 19.589 71.4749 18.8554L71.462 18.8298L71.4503 18.8036C71.0637 17.9412 70.5835 17.0542 70.0062 16.1427L69.9975 16.1289L69.989 16.1148C69.3867 15.1109 68.8501 14.0883 68.3799 13.047L68.3723 13.0302L68.3652 13.0133C67.8859 11.8705 67.6252 10.6826 67.5881 9.45714L67.5875 9.43657V9.416C67.5875 6.76386 68.5809 4.53749 70.5644 2.85916C72.5241 1.20095 75.0174 0.425789 77.9217 0.425789C80.6158 0.425789 82.9121 1.19419 84.6569 2.85538C86.4306 4.48065 87.2959 6.61481 87.2959 9.128C87.2959 9.43874 87.2775 9.75497 87.2417 10.0764C87.4375 10.0355 87.6182 10.0258 87.7617 10.0258H88.6737C89.0049 10.0258 89.6633 10.0688 90.1621 10.5676C90.6609 11.0664 90.7039 11.7248 90.7039 12.056V22.7938H92.8017C93.1488 22.7938 93.6621 22.861 94.1032 23.2286C94.5918 23.6357 94.7359 24.1909 94.7359 24.632V25.544C94.7359 25.9851 94.5918 26.5403 94.1032 26.9474C93.6621 27.315 93.1488 27.3822 92.8017 27.3822H90.7039V29.576C90.7039 30.2776 90.7686 30.6891 90.8314 30.8958C90.8984 31.0043 91.021 31.1421 91.2513 31.2947C91.595 31.4866 92.1609 31.7337 92.9928 32.0317C93.3395 32.1425 93.7137 32.35 93.9982 32.7199C94.2981 33.1097 94.3999 33.5519 94.3999 33.944V34.52C94.3999 34.9611 94.2558 35.5163 93.7672 35.9234C93.3261 36.291 92.8129 36.3582 92.4657 36.3582H73.3617C73.0145 36.3582 72.5013 36.291 72.0602 35.9234C71.5716 35.5163 71.4275 34.9611 71.4275 34.52V33.944C71.4275 33.5519 71.5292 33.1097 71.8291 32.7199C72.1103 32.3544 72.479 32.1475 72.8221 32.0357C73.813 31.6627 74.3873 31.379 74.6526 31.1953C74.8883 31.0321 74.9392 30.9164 74.9532 30.8745L74.9629 30.8452L74.974 30.8164C75.0477 30.6247 75.1235 30.2395 75.1235 29.576V27.6822C74.3971 28.2251 73.5972 28.7625 72.7259 29.2949L72.7177 29.2999L72.7094 29.3048C71.0159 30.3071 69.351 30.8862 67.7457 30.8862C66.2886 30.8862 64.9779 30.465 63.9233 29.5422L63.9125 29.5327L63.9019 29.523C63.8127 29.4416 63.7274 29.3579 63.6461 29.2721C63.8403 29.8599 63.9379 30.4913 63.9379 31.16C63.9379 32.9201 63.2616 34.4219 61.9278 35.5511C60.6391 36.6698 59.0058 37.1742 57.1557 37.1742C55.3002 37.1742 53.6584 36.6672 52.3438 35.5581L52.3357 35.5512ZM61.0437 34.52C62.0677 33.656 62.5797 32.536 62.5797 31.16C62.5797 29.784 62.0677 28.664 61.0437 27.8C60.0517 26.936 58.7557 26.504 57.1557 26.504C55.5557 26.504 54.2437 26.936 53.2197 27.8C52.2277 28.664 51.7317 29.784 51.7317 31.16C51.7317 32.536 52.2277 33.656 53.2197 34.52C54.2437 35.384 55.5557 35.816 57.1557 35.816C58.7557 35.816 60.0517 35.384 61.0437 34.52ZM76.4817 26.024V29.576C76.4817 30.312 76.4017 30.888 76.2417 31.304C76.1137 31.688 75.8417 32.024 75.4257 32.312C75.0097 32.6 74.2897 32.936 73.2657 33.32C72.9457 33.416 72.7857 33.624 72.7857 33.944V34.52C72.7857 34.84 72.9777 35 73.3617 35H92.4657C92.8497 35 93.0417 34.84 93.0417 34.52V33.944C93.0417 33.624 92.8817 33.416 92.5617 33.32C91.6657 33 90.9937 32.712 90.5457 32.456C90.0977 32.168 89.7777 31.832 89.5857 31.448C89.4257 31.032 89.3457 30.408 89.3457 29.576V26.024H92.8017C93.1857 26.024 93.3777 25.864 93.3777 25.544V24.632C93.3777 24.312 93.1857 24.152 92.8017 24.152H89.3457V12.056C89.3457 11.8 89.2977 11.624 89.2017 11.528C89.1057 11.432 88.9297 11.384 88.6737 11.384H87.7617C87.5697 11.384 87.4257 11.416 87.3297 11.48C87.2657 11.544 87.2177 11.656 87.1857 11.816C86.7697 13.096 86.2417 14.296 85.6017 15.416C84.9937 16.504 84.1617 17.72 83.1057 19.064C81.6017 20.952 79.8097 22.776 77.7297 24.536C77.4737 24.536 77.2497 24.456 77.0577 24.296C76.8977 24.136 76.8177 23.96 76.8177 23.768C76.8177 23.6853 76.8325 23.5995 76.8623 23.5109C76.8654 23.5014 76.8688 23.4918 76.8723 23.4823C76.9122 23.3739 76.974 23.2611 77.0577 23.144C77.2497 22.888 77.6017 22.504 78.1137 21.992C79.6177 20.488 80.6417 19.432 81.1857 18.824C81.7297 18.216 82.2737 17.56 82.8177 16.856C83.8097 15.512 84.5777 14.168 85.1217 12.824C85.6657 11.448 85.9377 10.216 85.9377 9.128C85.9377 6.952 85.2017 5.192 83.7297 3.848C82.2897 2.472 80.3537 1.784 77.9217 1.784C75.2657 1.784 73.1057 2.488 71.4417 3.896C69.7777 5.304 68.9457 7.144 68.9457 9.416C68.9777 10.472 69.2017 11.496 69.6177 12.488C70.0657 13.48 70.5777 14.456 71.1537 15.416C71.7617 16.376 72.2737 17.32 72.6897 18.248C73.1377 19.144 73.3777 20.04 73.4097 20.936C73.4097 22.248 72.9297 23.32 71.9697 24.152C71.5857 24.12 71.1697 23.96 70.7217 23.672C70.2737 23.352 69.7617 23.048 69.1857 22.76C68.6417 22.472 68.0177 22.312 67.3137 22.28C66.2897 22.28 65.4257 22.632 64.7217 23.336C64.0497 24.008 63.7137 24.856 63.7137 25.88C63.7137 26.968 64.0817 27.848 64.8177 28.52C65.5857 29.192 66.5617 29.528 67.7457 29.528C69.0257 29.528 70.4497 29.064 72.0177 28.136C73.1697 27.432 74.1777 26.728 75.0417 26.024H76.4817ZM38.1117 32.072C38.1117 32.936 37.8237 33.368 37.2477 33.368C36.6717 33.368 36.3837 32.936 36.3837 32.072V6.008C36.3837 5.144 36.6717 4.712 37.2477 4.712C37.8237 4.712 38.1117 5.144 38.1117 6.008V32.072Z" fill="black"/>
</svg>
