<svg width="95" height="78" viewBox="0 0 95 78" fill="none" xmlns="http://www.w3.org/2000/svg">
<path d="M17.0858 62.543C17.0858 62.033 17.1878 61.589 17.3918 61.211C17.5958 60.827 17.8778 60.533 18.2378 60.329C18.5978 60.119 19.0088 60.014 19.4708 60.014C20.0768 60.014 20.5748 60.164 20.9648 60.464C21.3608 60.764 21.6158 61.172 21.7298 61.688H21.0548C20.9708 61.334 20.7878 61.058 20.5058 60.86C20.2298 60.656 19.8848 60.554 19.4708 60.554C19.1408 60.554 18.8438 60.629 18.5798 60.779C18.3158 60.929 18.1058 61.154 17.9498 61.454C17.7998 61.748 17.7248 62.111 17.7248 62.543C17.7248 62.975 17.7998 63.341 17.9498 63.641C18.1058 63.941 18.3158 64.166 18.5798 64.316C18.8438 64.466 19.1408 64.541 19.4708 64.541C19.8848 64.541 20.2298 64.442 20.5058 64.244C20.7878 64.04 20.9708 63.758 21.0548 63.398H21.7298C21.6158 63.902 21.3608 64.307 20.9648 64.613C20.5688 64.919 20.0708 65.072 19.4708 65.072C19.0088 65.072 18.5978 64.97 18.2378 64.766C17.8778 64.556 17.5958 64.262 17.3918 63.884C17.1878 63.5 17.0858 63.053 17.0858 62.543Z" fill="black"/>
<path d="M22.6053 62.534C22.6053 62.03 22.7043 61.589 22.9023 61.211C23.1063 60.827 23.3853 60.533 23.7393 60.329C24.0993 60.119 24.5043 60.014 24.9543 60.014C25.4223 60.014 25.8243 60.122 26.1603 60.338C26.5023 60.554 26.7483 60.83 26.8983 61.166V60.086H27.5283V65H26.8983V63.911C26.7423 64.247 26.4933 64.526 26.1514 64.748C25.8153 64.964 25.4133 65.072 24.9453 65.072C24.5013 65.072 24.0993 64.967 23.7393 64.757C23.3853 64.547 23.1063 64.25 22.9023 63.866C22.7043 63.482 22.6053 63.038 22.6053 62.534ZM26.8983 62.543C26.8983 62.147 26.8173 61.799 26.6553 61.499C26.4933 61.199 26.2713 60.968 25.9893 60.806C25.7133 60.644 25.4074 60.563 25.0714 60.563C24.7233 60.563 24.4113 60.641 24.1353 60.797C23.8593 60.953 23.6403 61.181 23.4783 61.481C23.3223 61.775 23.2443 62.126 23.2443 62.534C23.2443 62.936 23.3223 63.29 23.4783 63.596C23.6403 63.896 23.8593 64.127 24.1353 64.289C24.4113 64.445 24.7233 64.523 25.0714 64.523C25.4074 64.523 25.7133 64.442 25.9893 64.28C26.2713 64.118 26.4933 63.887 26.6553 63.587C26.8173 63.287 26.8983 62.939 26.8983 62.543Z" fill="black"/>
<path d="M29.5966 60.959C29.7346 60.653 29.9446 60.416 30.2266 60.248C30.5146 60.08 30.8656 59.996 31.2796 59.996V60.653H31.1086C30.6526 60.653 30.2866 60.776 30.0106 61.022C29.7346 61.268 29.5966 61.679 29.5966 62.255V65H28.9666V60.086H29.5966V60.959Z" fill="black"/>
<path d="M33.0463 60.617V63.668C33.0463 63.968 33.1033 64.175 33.2173 64.289C33.3313 64.403 33.5323 64.46 33.8203 64.46H34.3963V65H33.7213C33.2773 65 32.9473 64.898 32.7313 64.694C32.5153 64.484 32.4073 64.142 32.4073 63.668V60.617H31.7233V60.086H32.4073V58.853H33.0463V60.086H34.3963V60.617H33.0463Z" fill="black"/>
<path d="M37.1273 65.072C36.5633 65.072 36.1013 64.943 35.7413 64.685C35.3873 64.421 35.1893 64.064 35.1473 63.614H35.7953C35.8253 63.89 35.9543 64.115 36.1823 64.289C36.4163 64.457 36.7283 64.541 37.1183 64.541C37.4603 64.541 37.7273 64.46 37.9193 64.298C38.1173 64.136 38.2163 63.935 38.2163 63.695C38.2163 63.527 38.1623 63.389 38.0543 63.281C37.9463 63.173 37.8083 63.089 37.6403 63.029C37.4783 62.963 37.2563 62.894 36.9743 62.822C36.6083 62.726 36.3113 62.63 36.0833 62.534C35.8553 62.438 35.6603 62.297 35.4983 62.111C35.3423 61.919 35.2643 61.664 35.2643 61.346C35.2643 61.106 35.3363 60.884 35.4803 60.68C35.6243 60.476 35.8283 60.314 36.0923 60.194C36.3563 60.074 36.6563 60.014 36.9923 60.014C37.5203 60.014 37.9463 60.149 38.2703 60.419C38.5943 60.683 38.7683 61.049 38.7923 61.517H38.1623C38.1443 61.229 38.0303 60.998 37.8203 60.824C37.6163 60.644 37.3343 60.554 36.9743 60.554C36.6563 60.554 36.3983 60.629 36.2003 60.779C36.0023 60.929 35.9033 61.115 35.9033 61.337C35.9033 61.529 35.9603 61.688 36.0743 61.814C36.1943 61.934 36.3413 62.03 36.5153 62.102C36.6893 62.168 36.9233 62.243 37.2173 62.327C37.5713 62.423 37.8533 62.516 38.0633 62.606C38.2733 62.696 38.4533 62.828 38.6033 63.002C38.7533 63.176 38.8313 63.407 38.8373 63.695C38.8373 63.959 38.7653 64.196 38.6213 64.406C38.4773 64.61 38.2763 64.772 38.0183 64.892C37.7603 65.012 37.4633 65.072 37.1273 65.072Z" fill="black"/>
<path d="M44.644 65.072C44.182 65.072 43.765 64.97 43.393 64.766C43.027 64.556 42.736 64.262 42.52 63.884C42.31 63.5 42.205 63.053 42.205 62.543C42.205 62.033 42.313 61.589 42.529 61.211C42.745 60.827 43.039 60.533 43.411 60.329C43.783 60.119 44.2 60.014 44.662 60.014C45.124 60.014 45.541 60.119 45.913 60.329C46.291 60.533 46.585 60.827 46.795 61.211C47.011 61.589 47.119 62.033 47.119 62.543C47.119 63.047 47.011 63.491 46.795 63.875C46.579 64.259 46.282 64.556 45.904 64.766C45.526 64.97 45.106 65.072 44.644 65.072ZM44.644 64.523C44.968 64.523 45.268 64.451 45.544 64.307C45.82 64.157 46.042 63.935 46.21 63.641C46.384 63.341 46.471 62.975 46.471 62.543C46.471 62.111 46.387 61.748 46.219 61.454C46.051 61.154 45.829 60.932 45.553 60.788C45.277 60.638 44.977 60.563 44.653 60.563C44.329 60.563 44.029 60.638 43.753 60.788C43.477 60.932 43.255 61.154 43.087 61.454C42.925 61.748 42.844 62.111 42.844 62.543C42.844 62.975 42.925 63.341 43.087 63.641C43.255 63.935 43.474 64.157 43.744 64.307C44.02 64.451 44.32 64.523 44.644 64.523Z" fill="black"/>
<path d="M48.8884 61.166C49.0444 60.836 49.2904 60.563 49.6264 60.347C49.9684 60.125 50.3734 60.014 50.8414 60.014C51.2854 60.014 51.6844 60.119 52.0384 60.329C52.3984 60.533 52.6774 60.827 52.8754 61.211C53.0794 61.589 53.1814 62.03 53.1814 62.534C53.1814 63.038 53.0794 63.482 52.8754 63.866C52.6774 64.25 52.3984 64.547 52.0384 64.757C51.6844 64.967 51.2854 65.072 50.8414 65.072C50.3794 65.072 49.9774 64.964 49.6354 64.748C49.2934 64.526 49.0444 64.25 48.8884 63.92V67.322H48.2674V60.086H48.8884V61.166ZM52.5424 62.534C52.5424 62.126 52.4614 61.775 52.2994 61.481C52.1434 61.181 51.9274 60.953 51.6514 60.797C51.3754 60.641 51.0634 60.563 50.7154 60.563C50.3794 60.563 50.0704 60.644 49.7884 60.806C49.5124 60.968 49.2934 61.199 49.1314 61.499C48.9694 61.799 48.8884 62.147 48.8884 62.543C48.8884 62.939 48.9694 63.287 49.1314 63.587C49.2934 63.887 49.5124 64.118 49.7884 64.28C50.0704 64.442 50.3794 64.523 50.7154 64.523C51.0634 64.523 51.3754 64.445 51.6514 64.289C51.9274 64.127 52.1434 63.896 52.2994 63.596C52.4614 63.29 52.5424 62.936 52.5424 62.534Z" fill="black"/>
<path d="M58.7866 62.291C58.7866 62.507 58.7806 62.672 58.7686 62.786H54.6916C54.7096 63.158 54.7996 63.476 54.9616 63.74C55.1236 64.004 55.3366 64.205 55.6006 64.343C55.8646 64.475 56.1526 64.541 56.4646 64.541C56.8726 64.541 57.2146 64.442 57.4906 64.244C57.7726 64.046 57.9586 63.779 58.0486 63.443H58.7146C58.5946 63.923 58.3366 64.316 57.9406 64.622C57.5506 64.922 57.0586 65.072 56.4646 65.072C56.0026 65.072 55.5886 64.97 55.2226 64.766C54.8566 64.556 54.5686 64.262 54.3586 63.884C54.1546 63.5 54.0526 63.053 54.0526 62.543C54.0526 62.033 54.1546 61.586 54.3586 61.202C54.5626 60.818 54.8476 60.524 55.2136 60.32C55.5796 60.116 55.9966 60.014 56.4646 60.014C56.9326 60.014 57.3406 60.116 57.6886 60.32C58.0426 60.524 58.3126 60.8 58.4986 61.148C58.6906 61.49 58.7866 61.871 58.7866 62.291ZM58.1476 62.273C58.1536 61.907 58.0786 61.595 57.9226 61.337C57.7726 61.079 57.5656 60.884 57.3016 60.752C57.0376 60.62 56.7496 60.554 56.4376 60.554C55.9696 60.554 55.5706 60.704 55.2406 61.004C54.9106 61.304 54.7276 61.727 54.6916 62.273H58.1476Z" fill="black"/>
<path d="M62.2433 59.996C62.8313 59.996 63.3113 60.179 63.6833 60.545C64.0553 60.905 64.2412 61.43 64.2412 62.12V65H63.6203V62.192C63.6203 61.658 63.4853 61.25 63.2153 60.968C62.9513 60.686 62.5883 60.545 62.1263 60.545C61.6523 60.545 61.2742 60.695 60.9922 60.995C60.7102 61.295 60.5692 61.736 60.5692 62.318V65H59.9393V60.086H60.5692V60.923C60.7252 60.623 60.9503 60.395 61.2443 60.239C61.5383 60.077 61.8713 59.996 62.2433 59.996Z" fill="black"/>
<path d="M70.0393 60.617H68.8963V65H68.2663V60.617H67.5823V60.086H68.2663V59.744C68.2663 59.21 68.4013 58.817 68.6713 58.565C68.9473 58.313 69.3913 58.187 70.0033 58.187V58.727C69.5953 58.727 69.3073 58.805 69.1393 58.961C68.9773 59.117 68.8963 59.378 68.8963 59.744V60.086H70.0393V60.617Z" fill="black"/>
<path d="M73.182 65.072C72.72 65.072 72.303 64.97 71.931 64.766C71.565 64.556 71.274 64.262 71.058 63.884C70.848 63.5 70.743 63.053 70.743 62.543C70.743 62.033 70.851 61.589 71.067 61.211C71.283 60.827 71.577 60.533 71.949 60.329C72.321 60.119 72.738 60.014 73.2 60.014C73.662 60.014 74.079 60.119 74.451 60.329C74.829 60.533 75.123 60.827 75.333 61.211C75.549 61.589 75.657 62.033 75.657 62.543C75.657 63.047 75.549 63.491 75.333 63.875C75.117 64.259 74.82 64.556 74.442 64.766C74.064 64.97 73.644 65.072 73.182 65.072ZM73.182 64.523C73.506 64.523 73.806 64.451 74.082 64.307C74.358 64.157 74.58 63.935 74.748 63.641C74.922 63.341 75.009 62.975 75.009 62.543C75.009 62.111 74.925 61.748 74.757 61.454C74.589 61.154 74.367 60.932 74.091 60.788C73.815 60.638 73.515 60.563 73.191 60.563C72.867 60.563 72.567 60.638 72.291 60.788C72.015 60.932 71.793 61.154 71.625 61.454C71.463 61.748 71.382 62.111 71.382 62.543C71.382 62.975 71.463 63.341 71.625 63.641C71.793 63.935 72.012 64.157 72.282 64.307C72.558 64.451 72.858 64.523 73.182 64.523Z" fill="black"/>
<path d="M77.4355 60.959C77.5735 60.653 77.7835 60.416 78.0655 60.248C78.3535 60.08 78.7045 59.996 79.1185 59.996V60.653H78.9475C78.4915 60.653 78.1255 60.776 77.8495 61.022C77.5735 61.268 77.4355 61.679 77.4355 62.255V65H76.8055V60.086H77.4355V60.959Z" fill="black"/>
<path d="M16.9105 72.086L15.3715 77H14.7415L13.3825 72.878L12.0235 77H11.3845L9.84546 72.086H10.4845L11.7085 76.361L13.0855 72.086H13.7155L15.0745 76.37L16.2895 72.086H16.9105Z" fill="black"/>
<path d="M17.4813 74.534C17.4813 74.03 17.5803 73.589 17.7783 73.211C17.9823 72.827 18.2613 72.533 18.6153 72.329C18.9753 72.119 19.3803 72.014 19.8303 72.014C20.2983 72.014 20.7003 72.122 21.0363 72.338C21.3783 72.554 21.6243 72.83 21.7743 73.166V72.086H22.4043V77H21.7743V75.911C21.6183 76.247 21.3693 76.526 21.0273 76.748C20.6913 76.964 20.2893 77.072 19.8213 77.072C19.3773 77.072 18.9753 76.967 18.6153 76.757C18.2613 76.547 17.9823 76.25 17.7783 75.866C17.5803 75.482 17.4813 75.038 17.4813 74.534ZM21.7743 74.543C21.7743 74.147 21.6933 73.799 21.5313 73.499C21.3693 73.199 21.1473 72.968 20.8653 72.806C20.5893 72.644 20.2833 72.563 19.9473 72.563C19.5993 72.563 19.2873 72.641 19.0113 72.797C18.7353 72.953 18.5163 73.181 18.3543 73.481C18.1983 73.775 18.1203 74.126 18.1203 74.534C18.1203 74.936 18.1983 75.29 18.3543 75.596C18.5163 75.896 18.7353 76.127 19.0113 76.289C19.2873 76.445 19.5993 76.523 19.9473 76.523C20.2833 76.523 20.5893 76.442 20.8653 76.28C21.1473 76.118 21.3693 75.887 21.5313 75.587C21.6933 75.287 21.7743 74.939 21.7743 74.543Z" fill="black"/>
<path d="M24.1576 71.159C24.0316 71.159 23.9236 71.114 23.8336 71.024C23.7436 70.934 23.6986 70.823 23.6986 70.691C23.6986 70.559 23.7436 70.451 23.8336 70.367C23.9236 70.277 24.0316 70.232 24.1576 70.232C24.2836 70.232 24.3916 70.277 24.4816 70.367C24.5716 70.451 24.6166 70.559 24.6166 70.691C24.6166 70.823 24.5716 70.934 24.4816 71.024C24.3916 71.114 24.2836 71.159 24.1576 71.159ZM24.4726 72.086V77H23.8426V72.086H24.4726Z" fill="black"/>
<path d="M26.7182 72.617V75.668C26.7182 75.968 26.7752 76.175 26.8892 76.289C27.0032 76.403 27.2042 76.46 27.4922 76.46H28.0682V77H27.3932C26.9492 77 26.6192 76.898 26.4032 76.694C26.1872 76.484 26.0792 76.142 26.0792 75.668V72.617H25.3952V72.086H26.0792V70.853H26.7182V72.086H28.0682V72.617H26.7182Z" fill="black"/>
<path d="M29.7372 70.34V77H29.1072V70.34H29.7372Z" fill="black"/>
<path d="M31.4789 71.159C31.3529 71.159 31.2449 71.114 31.1549 71.024C31.0649 70.934 31.0199 70.823 31.0199 70.691C31.0199 70.559 31.0649 70.451 31.1549 70.367C31.2449 70.277 31.3529 70.232 31.4789 70.232C31.6049 70.232 31.7129 70.277 31.8029 70.367C31.8929 70.451 31.9379 70.559 31.9379 70.691C31.9379 70.823 31.8929 70.934 31.8029 71.024C31.7129 71.114 31.6049 71.159 31.4789 71.159ZM31.7939 72.086V77H31.1639V72.086H31.7939Z" fill="black"/>
<path d="M34.9125 77.072C34.3485 77.072 33.8865 76.943 33.5265 76.685C33.1725 76.421 32.9745 76.064 32.9325 75.614H33.5805C33.6105 75.89 33.7395 76.115 33.9675 76.289C34.2015 76.457 34.5135 76.541 34.9035 76.541C35.2455 76.541 35.5125 76.46 35.7045 76.298C35.9025 76.136 36.0015 75.935 36.0015 75.695C36.0015 75.527 35.9475 75.389 35.8395 75.281C35.7315 75.173 35.5935 75.089 35.4255 75.029C35.2635 74.963 35.0415 74.894 34.7595 74.822C34.3935 74.726 34.0965 74.63 33.8685 74.534C33.6405 74.438 33.4455 74.297 33.2835 74.111C33.1275 73.919 33.0495 73.664 33.0495 73.346C33.0495 73.106 33.1215 72.884 33.2655 72.68C33.4095 72.476 33.6135 72.314 33.8775 72.194C34.1415 72.074 34.4415 72.014 34.7775 72.014C35.3055 72.014 35.7315 72.149 36.0555 72.419C36.3795 72.683 36.5535 73.049 36.5775 73.517H35.9475C35.9295 73.229 35.8155 72.998 35.6055 72.824C35.4015 72.644 35.1195 72.554 34.7595 72.554C34.4415 72.554 34.1835 72.629 33.9855 72.779C33.7875 72.929 33.6885 73.115 33.6885 73.337C33.6885 73.529 33.7455 73.688 33.8595 73.814C33.9795 73.934 34.1265 74.03 34.3005 74.102C34.4745 74.168 34.7085 74.243 35.0025 74.327C35.3565 74.423 35.6385 74.516 35.8485 74.606C36.0585 74.696 36.2385 74.828 36.3885 75.002C36.5385 75.176 36.6165 75.407 36.6225 75.695C36.6225 75.959 36.5505 76.196 36.4065 76.406C36.2625 76.61 36.0615 76.772 35.8035 76.892C35.5455 77.012 35.2485 77.072 34.9125 77.072Z" fill="black"/>
<path d="M38.6274 72.617V75.668C38.6274 75.968 38.6844 76.175 38.7984 76.289C38.9124 76.403 39.1134 76.46 39.4014 76.46H39.9774V77H39.3024C38.8584 77 38.5284 76.898 38.3124 76.694C38.0964 76.484 37.9884 76.142 37.9884 75.668V72.617H37.3044V72.086H37.9884V70.853H38.6274V72.086H39.9774V72.617H38.6274Z" fill="black"/>
<path d="M49.3361 71.996C49.9121 71.996 50.3801 72.179 50.7401 72.545C51.1061 72.905 51.2891 73.43 51.2891 74.12V77H50.6681V74.192C50.6681 73.658 50.5391 73.25 50.2811 72.968C50.0231 72.686 49.6721 72.545 49.2281 72.545C48.7661 72.545 48.3971 72.698 48.1211 73.004C47.8451 73.31 47.7071 73.754 47.7071 74.336V77H47.0861V74.192C47.0861 73.658 46.9571 73.25 46.6991 72.968C46.4411 72.686 46.0871 72.545 45.6371 72.545C45.1751 72.545 44.8061 72.698 44.5301 73.004C44.2541 73.31 44.1161 73.754 44.1161 74.336V77H43.4861V72.086H44.1161V72.932C44.2721 72.626 44.4941 72.395 44.7821 72.239C45.0701 72.077 45.3911 71.996 45.7451 71.996C46.1711 71.996 46.5431 72.098 46.8611 72.302C47.1851 72.506 47.4191 72.806 47.5631 73.202C47.6951 72.812 47.9201 72.515 48.2381 72.311C48.5621 72.101 48.9281 71.996 49.3361 71.996Z" fill="black"/>
<path d="M57.1343 74.291C57.1343 74.507 57.1283 74.672 57.1163 74.786H53.0393C53.0573 75.158 53.1473 75.476 53.3093 75.74C53.4713 76.004 53.6843 76.205 53.9483 76.343C54.2123 76.475 54.5003 76.541 54.8123 76.541C55.2203 76.541 55.5623 76.442 55.8383 76.244C56.1203 76.046 56.3063 75.779 56.3963 75.443H57.0623C56.9423 75.923 56.6843 76.316 56.2883 76.622C55.8983 76.922 55.4063 77.072 54.8123 77.072C54.3503 77.072 53.9363 76.97 53.5703 76.766C53.2043 76.556 52.9163 76.262 52.7063 75.884C52.5023 75.5 52.4003 75.053 52.4003 74.543C52.4003 74.033 52.5023 73.586 52.7063 73.202C52.9103 72.818 53.1953 72.524 53.5613 72.32C53.9273 72.116 54.3443 72.014 54.8123 72.014C55.2803 72.014 55.6883 72.116 56.0363 72.32C56.3903 72.524 56.6603 72.8 56.8463 73.148C57.0383 73.49 57.1343 73.871 57.1343 74.291ZM56.4953 74.273C56.5013 73.907 56.4263 73.595 56.2703 73.337C56.1203 73.079 55.9133 72.884 55.6493 72.752C55.3853 72.62 55.0973 72.554 54.7853 72.554C54.3173 72.554 53.9183 72.704 53.5883 73.004C53.2583 73.304 53.0753 73.727 53.0393 74.273H56.4953Z" fill="black"/>
<path d="M64.1369 71.996C64.7129 71.996 65.1809 72.179 65.5409 72.545C65.9069 72.905 66.0899 73.43 66.0899 74.12V77H65.4689V74.192C65.4689 73.658 65.3399 73.25 65.0819 72.968C64.8239 72.686 64.4729 72.545 64.0289 72.545C63.5669 72.545 63.1979 72.698 62.9219 73.004C62.6459 73.31 62.5079 73.754 62.5079 74.336V77H61.8869V74.192C61.8869 73.658 61.7579 73.25 61.4999 72.968C61.2419 72.686 60.8879 72.545 60.4379 72.545C59.9759 72.545 59.6069 72.698 59.3309 73.004C59.0549 73.31 58.9169 73.754 58.9169 74.336V77H58.2869V72.086H58.9169V72.932C59.0729 72.626 59.2949 72.395 59.5829 72.239C59.8709 72.077 60.1919 71.996 60.5459 71.996C60.9719 71.996 61.3439 72.098 61.6619 72.302C61.9859 72.506 62.2199 72.806 62.3639 73.202C62.4959 72.812 62.7209 72.515 63.0389 72.311C63.3629 72.101 63.7289 71.996 64.1369 71.996Z" fill="black"/>
<path d="M68.1101 73.175C68.2721 72.833 68.5211 72.554 68.8571 72.338C69.1991 72.122 69.6011 72.014 70.0631 72.014C70.5131 72.014 70.9151 72.119 71.2691 72.329C71.6231 72.533 71.8991 72.827 72.0971 73.211C72.3011 73.589 72.4031 74.03 72.4031 74.534C72.4031 75.038 72.3011 75.482 72.0971 75.866C71.8991 76.25 71.6201 76.547 71.2601 76.757C70.9061 76.967 70.5071 77.072 70.0631 77.072C69.5951 77.072 69.1901 76.967 68.8481 76.757C68.5121 76.541 68.2661 76.262 68.1101 75.92V77H67.4891V70.34H68.1101V73.175ZM71.7641 74.534C71.7641 74.126 71.6831 73.775 71.5211 73.481C71.3651 73.181 71.1491 72.953 70.8731 72.797C70.5971 72.641 70.2851 72.563 69.9371 72.563C69.6011 72.563 69.2921 72.644 69.0101 72.806C68.7341 72.968 68.5151 73.199 68.3531 73.499C68.1911 73.799 68.1101 74.147 68.1101 74.543C68.1101 74.939 68.1911 75.287 68.3531 75.587C68.5151 75.887 68.7341 76.118 69.0101 76.28C69.2921 76.442 69.6011 76.523 69.9371 76.523C70.2851 76.523 70.5971 76.445 70.8731 76.289C71.1491 76.127 71.3651 75.896 71.5211 75.596C71.6831 75.29 71.7641 74.936 71.7641 74.534Z" fill="black"/>
<path d="M78.0083 74.291C78.0083 74.507 78.0023 74.672 77.9903 74.786H73.9133C73.9313 75.158 74.0213 75.476 74.1833 75.74C74.3453 76.004 74.5583 76.205 74.8223 76.343C75.0863 76.475 75.3743 76.541 75.6863 76.541C76.0943 76.541 76.4363 76.442 76.7123 76.244C76.9943 76.046 77.1803 75.779 77.2703 75.443H77.9363C77.8163 75.923 77.5583 76.316 77.1623 76.622C76.7723 76.922 76.2803 77.072 75.6863 77.072C75.2243 77.072 74.8103 76.97 74.4443 76.766C74.0783 76.556 73.7903 76.262 73.5803 75.884C73.3763 75.5 73.2743 75.053 73.2743 74.543C73.2743 74.033 73.3763 73.586 73.5803 73.202C73.7843 72.818 74.0693 72.524 74.4353 72.32C74.8013 72.116 75.2183 72.014 75.6863 72.014C76.1543 72.014 76.5623 72.116 76.9103 72.32C77.2643 72.524 77.5343 72.8 77.7203 73.148C77.9123 73.49 78.0083 73.871 78.0083 74.291ZM77.3693 74.273C77.3753 73.907 77.3003 73.595 77.1443 73.337C76.9943 73.079 76.7873 72.884 76.5233 72.752C76.2593 72.62 75.9713 72.554 75.6593 72.554C75.1913 72.554 74.7923 72.704 74.4623 73.004C74.1323 73.304 73.9493 73.727 73.9133 74.273H77.3693Z" fill="black"/>
<path d="M79.7909 72.959C79.9289 72.653 80.1389 72.416 80.4209 72.248C80.7089 72.08 81.0599 71.996 81.4739 71.996V72.653H81.3029C80.8469 72.653 80.4809 72.776 80.2049 73.022C79.9289 73.268 79.7909 73.679 79.7909 74.255V77H79.1609V72.086H79.7909V72.959Z" fill="black"/>
<path d="M84.1137 77.072C83.5497 77.072 83.0877 76.943 82.7277 76.685C82.3737 76.421 82.1757 76.064 82.1337 75.614H82.7817C82.8117 75.89 82.9407 76.115 83.1687 76.289C83.4027 76.457 83.7147 76.541 84.1047 76.541C84.4467 76.541 84.7137 76.46 84.9057 76.298C85.1037 76.136 85.2027 75.935 85.2027 75.695C85.2027 75.527 85.1487 75.389 85.0407 75.281C84.9327 75.173 84.7947 75.089 84.6267 75.029C84.4647 74.963 84.2427 74.894 83.9607 74.822C83.5947 74.726 83.2977 74.63 83.0697 74.534C82.8417 74.438 82.6467 74.297 82.4847 74.111C82.3287 73.919 82.2507 73.664 82.2507 73.346C82.2507 73.106 82.3227 72.884 82.4667 72.68C82.6107 72.476 82.8147 72.314 83.0787 72.194C83.3427 72.074 83.6427 72.014 83.9787 72.014C84.5067 72.014 84.9327 72.149 85.2567 72.419C85.5807 72.683 85.7547 73.049 85.7787 73.517H85.1487C85.1307 73.229 85.0167 72.998 84.8067 72.824C84.6027 72.644 84.3207 72.554 83.9607 72.554C83.6427 72.554 83.3847 72.629 83.1867 72.779C82.9887 72.929 82.8897 73.115 82.8897 73.337C82.8897 73.529 82.9467 73.688 83.0607 73.814C83.1807 73.934 83.3277 74.03 83.5017 74.102C83.6757 74.168 83.9097 74.243 84.2037 74.327C84.5577 74.423 84.8397 74.516 85.0497 74.606C85.2597 74.696 85.4397 74.828 85.5897 75.002C85.7397 75.176 85.8177 75.407 85.8237 75.695C85.8237 75.959 85.7517 76.196 85.6077 76.406C85.4637 76.61 85.2627 76.772 85.0047 76.892C84.7467 77.012 84.4497 77.072 84.1137 77.072Z" fill="black"/>
<path fill-rule="evenodd" clip-rule="evenodd" d="M0 47.5C0 47.2239 0.223858 47 0.5 47H94.5C94.7761 47 95 47.2239 95 47.5C95 47.7761 94.7761 48 94.5 48H0.5C0.223858 48 0 47.7761 0 47.5Z" fill="black"/>
<path d="M17.4546 35.368C18.0306 35.368 18.3186 34.936 18.3186 34.072V21.592C18.3186 20.728 18.0306 20.296 17.4546 20.296C16.8786 20.296 16.5906 20.728 16.5906 21.592V34.072C16.5906 34.936 16.8786 35.368 17.4546 35.368ZM17.4546 18.184C18.0306 18.184 18.3186 17.752 18.3186 16.888V8.008C18.3186 7.144 18.0306 6.712 17.4546 6.712C16.8786 6.712 16.5906 7.144 16.5906 8.008V16.888C16.5906 17.752 16.8786 18.184 17.4546 18.184ZM17.4546 37.816C13.4546 37.816 10.1906 36.904 7.66258 35.08C5.16658 33.256 3.91858 30.888 3.91858 27.976C3.91858 25.768 4.73458 23.848 6.36658 22.216C7.99858 20.552 10.0626 19.56 12.5586 19.24C10.2866 18.856 8.47858 18.056 7.13458 16.84C5.82258 15.592 5.16658 14.104 5.16658 12.376C5.16658 9.88 6.27058 7.912 8.47858 6.472C10.6866 5 13.6786 4.264 17.4546 4.264C21.2306 4.264 24.2226 5 26.4306 6.472C28.6386 7.912 29.7426 9.88 29.7426 12.376C29.7426 14.104 29.0706 15.592 27.7266 16.84C26.4146 18.056 24.6226 18.856 22.3506 19.24C24.8466 19.56 26.9106 20.552 28.5426 22.216C30.1746 23.848 30.9906 25.768 30.9906 27.976C30.9906 30.888 29.7266 33.256 27.1986 35.08C24.7026 36.904 21.4546 37.816 17.4546 37.816Z" fill="#F5D801"/>
<path d="M37.4766 37.816C35.8766 37.816 34.5646 37.384 33.5406 36.52C32.5486 35.656 32.0526 34.536 32.0526 33.16C32.0526 31.784 32.5486 30.664 33.5406 29.8C34.5646 28.936 35.8766 28.504 37.4766 28.504C39.0766 28.504 40.3726 28.936 41.3646 29.8C42.3886 30.664 42.9006 31.784 42.9006 33.16C42.9006 34.536 42.3886 35.656 41.3646 36.52C40.3726 37.384 39.0766 37.816 37.4766 37.816Z" fill="#F5D801"/>
<path d="M45.6666 37C45.2826 37 45.0906 36.84 45.0906 36.52V35.944C45.0906 35.624 45.2506 35.416 45.5706 35.32C46.5946 34.936 47.3146 34.6 47.7306 34.312C48.1466 34.024 48.4186 33.688 48.5466 33.304C48.7066 32.888 48.7866 32.312 48.7866 31.576V12.232H45.3306C44.9786 12.232 44.8026 12.072 44.8026 11.752V10.696C44.8026 10.376 44.9786 10.216 45.3306 10.216H48.4986C51.1866 10.216 53.5706 9.656 55.6506 8.536C57.7306 7.416 58.9946 6.024 59.4426 4.36C59.5066 4.104 59.5706 3.944 59.6346 3.88C59.7306 3.784 59.8746 3.736 60.0666 3.736H61.1226C61.4746 3.736 61.6506 3.928 61.6506 4.312V31.576C61.6506 32.408 61.7306 33.032 61.8906 33.448C62.0826 33.832 62.4026 34.168 62.8506 34.456C63.2986 34.712 63.9706 35 64.8666 35.32C65.1866 35.416 65.3466 35.624 65.3466 35.944V36.52C65.3466 36.84 65.1546 37 64.7706 37H45.6666Z" fill="#F5D801"/>
<path d="M81.0655 29.08C81.0655 30.584 80.5535 31.784 79.5295 32.68C78.5375 33.576 77.1615 34.024 75.4015 34.024H75.1135C74.9215 34.216 74.8255 34.44 74.8255 34.696C74.8255 35.176 75.2255 35.416 76.0255 35.416C77.9455 35.416 79.5295 34.824 80.7775 33.64C82.0255 32.424 82.6495 30.872 82.6495 28.984C82.6495 27.832 82.3615 26.664 81.7855 25.48C81.2415 24.264 80.5215 23.256 79.6255 22.456C78.4415 22.616 77.3215 22.696 76.2655 22.696C72.8415 22.696 70.2015 21.976 68.3455 20.536C66.4895 19.096 65.5615 17.032 65.5615 14.344C65.5615 12.488 66.0895 10.792 67.1455 9.256C68.2015 7.72 69.6895 6.504 71.6095 5.608C73.5615 4.712 75.8495 4.264 78.4735 4.264C83.2415 4.264 86.9055 5.672 89.4655 8.488C92.0255 11.304 93.3055 15.304 93.3055 20.488C93.3055 23.912 92.6815 26.936 91.4335 29.56C90.2175 32.184 88.4415 34.216 86.1055 35.656C83.8015 37.096 81.0015 37.816 77.7055 37.816C75.6895 37.816 73.8495 37.48 72.1855 36.808C70.5215 36.136 69.1775 35.176 68.1535 33.928C67.1295 32.68 66.6175 31.304 66.6175 29.8C66.6175 27.88 67.2895 26.376 68.6335 25.288C70.0095 24.2 71.8655 23.656 74.2015 23.656C76.4095 23.656 78.1055 24.136 79.2895 25.096C80.4735 26.024 81.0655 27.352 81.0655 29.08ZM78.8575 6.712C78.2815 6.712 77.9935 7.144 77.9935 8.008V18.76C77.9935 19.624 78.2815 20.056 78.8575 20.056C79.4335 20.056 79.7215 19.624 79.7215 18.76V8.008C79.7215 7.144 79.4335 6.712 78.8575 6.712Z" fill="#F5D801"/>
<path fill-rule="evenodd" clip-rule="evenodd" d="M4.86786 34.1814L4.86119 34.1766C2.0405 32.1153 0.560364 29.3518 0.560364 25.976C0.560364 23.3921 1.53071 21.1332 3.40153 19.2602C4.22418 18.4224 5.14224 17.737 6.1497 17.2023C5.44562 16.8211 4.80192 16.3706 4.22333 15.8472L4.21076 15.8358L4.19848 15.8241C2.63143 14.3335 1.80836 12.4955 1.80836 10.376C1.80836 7.39323 3.16798 5.01181 5.73083 3.33813C8.23707 1.66945 11.522 0.905788 15.4546 0.905788C19.3872 0.905788 22.672 1.66944 25.1783 3.3381C27.7412 5.01178 29.1008 7.39321 29.1008 10.376C29.1008 12.5069 28.2524 14.348 26.6508 15.8353L26.6498 15.8362C26.0821 16.3624 25.447 16.8147 24.7497 17.1971C25.761 17.7326 26.6824 18.4197 27.5077 19.2603C29.3785 21.1333 30.3488 23.3922 30.3488 25.976C30.3488 26.3635 30.3291 26.743 30.2899 27.1141C30.4034 26.998 30.5229 26.8852 30.6485 26.7758L30.6566 26.7688L30.6647 26.7619C31.9793 25.6528 33.6211 25.1458 35.4766 25.1458C37.3266 25.1458 38.96 25.6502 40.2487 26.7689C41.5825 27.8981 42.2588 29.3999 42.2588 31.16C42.2588 31.7701 42.1775 32.3492 42.0158 32.8924C42.0512 32.834 42.0905 32.7764 42.134 32.7199C42.4152 32.3544 42.7839 32.1475 43.1271 32.0357C44.1179 31.6627 44.6922 31.379 44.9575 31.1953C45.1932 31.0321 45.2441 30.9164 45.2581 30.8745L45.2678 30.8452L45.2789 30.8164C45.3526 30.6247 45.4284 30.2395 45.4284 29.576V11.5902H43.3306C42.9755 11.5902 42.4558 11.5123 42.0209 11.117C41.5616 10.6994 41.4444 10.1565 41.4444 9.752V8.696C41.4444 8.29151 41.5616 7.74863 42.0209 7.33101C42.4558 6.9357 42.9755 6.85779 43.3306 6.85779H46.4986C48.9931 6.85779 51.1504 6.33964 53.0066 5.34013C54.8782 4.33236 55.8067 3.19854 56.1283 2.01707C56.1677 1.86126 56.2159 1.69759 56.2775 1.54357C56.3272 1.41926 56.4417 1.15206 56.6742 0.919605C57.1147 0.479057 57.6652 0.37779 58.0666 0.37779H59.1226C59.5398 0.37779 60.0934 0.49704 60.5198 0.962221C60.9257 1.40503 61.0088 1.9385 61.0088 2.312V29.576C61.0088 30.2776 61.0735 30.6891 61.1363 30.8959C61.2033 31.0043 61.3259 31.1421 61.5562 31.2947C61.8999 31.4866 62.4657 31.7337 63.2977 32.0317C63.6443 32.1425 64.0186 32.35 64.3031 32.7199C64.603 33.1097 64.7048 33.5519 64.7048 33.944V34.52C64.7048 34.9611 64.5606 35.5163 64.0721 35.9234C63.631 36.291 63.1177 36.3582 62.7706 36.3582H43.6666C43.3194 36.3582 42.8062 36.291 42.3651 35.9234C41.8765 35.5163 41.7324 34.9611 41.7324 34.52V33.944C41.7324 33.8228 41.7421 33.6967 41.7644 33.569C41.4286 34.315 40.9226 34.9806 40.2487 35.5511C38.96 36.6698 37.3266 37.1742 35.4766 37.1742C33.6211 37.1742 31.9793 36.6672 30.6647 35.5581L30.6566 35.5512L30.6485 35.5442C29.4213 34.4753 28.7725 33.0821 28.701 31.4635C28.0095 32.4719 27.105 33.3788 25.9967 34.179C23.2084 36.2153 19.6563 37.1742 15.4546 37.1742C11.2502 37.1742 7.68519 36.2142 4.86786 34.1814ZM25.1986 33.08C27.7266 31.256 28.9906 28.888 28.9906 25.976C28.9906 23.768 28.1746 21.848 26.5426 20.216C25.5544 19.2084 24.4078 18.4473 23.1028 17.9324C22.2527 17.5971 21.3352 17.3662 20.3506 17.24C21.3596 17.0695 22.274 16.8169 23.0936 16.4822C24.1196 16.0634 24.9972 15.516 25.7266 14.84C27.0706 13.592 27.7426 12.104 27.7426 10.376C27.7426 7.88 26.6386 5.912 24.4306 4.472C22.2226 3 19.2306 2.264 15.4546 2.264C11.6786 2.264 8.68657 3 6.47857 4.472C4.27057 5.912 3.16657 7.88 3.16657 10.376C3.16657 12.104 3.82257 13.592 5.13457 14.84C5.88273 15.5169 6.77467 16.0649 7.81039 16.484C8.63525 16.8178 9.55131 17.0698 10.5586 17.24C9.57275 17.3664 8.65431 17.5976 7.80326 17.9337C6.49956 18.4484 5.35399 19.2092 4.36657 20.216C2.73457 21.848 1.91857 23.768 1.91857 25.976C1.91857 28.888 3.16657 31.256 5.66257 33.08C8.19057 34.904 11.4546 35.816 15.4546 35.816C19.4546 35.816 22.7026 34.904 25.1986 33.08ZM39.3646 34.52C40.3886 33.656 40.9006 32.536 40.9006 31.16C40.9006 29.784 40.3886 28.664 39.3646 27.8C38.3726 26.936 37.0766 26.504 35.4766 26.504C33.8766 26.504 32.5646 26.936 31.5406 27.8C30.5486 28.664 30.0526 29.784 30.0526 31.16C30.0526 32.536 30.5486 33.656 31.5406 34.52C32.5646 35.384 33.8766 35.816 35.4766 35.816C37.0766 35.816 38.3726 35.384 39.3646 34.52ZM60.8506 32.456C60.4026 32.168 60.0826 31.832 59.8906 31.448C59.7306 31.032 59.6506 30.408 59.6506 29.576V2.312C59.6506 1.928 59.4746 1.736 59.1226 1.736H58.0666C57.8746 1.736 57.7306 1.784 57.6346 1.88C57.5706 1.944 57.5066 2.104 57.4426 2.36C56.9946 4.024 55.7306 5.416 53.6506 6.536C51.5706 7.656 49.1866 8.216 46.4986 8.216H43.3306C42.9786 8.216 42.8026 8.376 42.8026 8.696V9.752C42.8026 10.072 42.9786 10.232 43.3306 10.232H46.7866V29.576C46.7866 30.312 46.7066 30.888 46.5466 31.304C46.4186 31.688 46.1466 32.024 45.7306 32.312C45.3146 32.6 44.5946 32.936 43.5706 33.32C43.2506 33.416 43.0906 33.624 43.0906 33.944V34.52C43.0906 34.84 43.2826 35 43.6666 35H62.7706C63.1546 35 63.3466 34.84 63.3466 34.52V33.944C63.3466 33.624 63.1866 33.416 62.8666 33.32C61.9706 33 61.2986 32.712 60.8506 32.456ZM15.9754 5.71659C15.9754 5.71658 15.9752 5.71704 15.9749 5.71796ZM14.9343 5.71819C14.9339 5.71713 14.9338 5.71658 14.9338 5.71659ZM77.5294 30.68C78.5535 29.784 79.0655 28.584 79.0655 27.08C79.0655 25.352 78.4734 24.024 77.2895 23.096C76.7131 22.6287 76.0155 22.2752 75.1966 22.0353C74.9019 21.949 74.5915 21.8775 74.2654 21.8206C73.636 21.7109 72.948 21.656 72.2015 21.656C71.644 21.656 71.1139 21.687 70.6112 21.7489C69.007 21.9466 67.6811 22.4596 66.6335 23.288C65.2895 24.376 64.6174 25.88 64.6174 27.8C64.6174 29.304 65.1294 30.68 66.1535 31.928C67.1775 33.176 68.5215 34.136 70.1854 34.808C71.8494 35.48 73.6895 35.816 75.7055 35.816C79.0014 35.816 81.8015 35.096 84.1055 33.656C86.4415 32.216 88.2175 30.184 89.4334 27.56C90.6814 24.936 91.3055 21.912 91.3055 18.488C91.3055 13.304 90.0255 9.304 87.4655 6.488C84.9054 3.672 81.2414 2.264 76.4734 2.264C73.8494 2.264 71.5614 2.712 69.6095 3.608C67.6895 4.504 66.2014 5.72 65.1454 7.256C64.0894 8.792 63.5614 10.488 63.5614 12.344C63.5614 15.032 64.4894 17.096 66.3455 18.536C67.4874 19.422 68.9261 20.0354 70.6615 20.3763C71.1512 20.4724 71.6645 20.5469 72.2015 20.5997C72.8545 20.6639 73.5425 20.696 74.2654 20.696C74.6205 20.696 74.9828 20.687 75.3523 20.6689C76.0818 20.6332 76.8395 20.5622 77.6255 20.456C78.5215 21.256 79.2414 22.264 79.7855 23.48C80.3615 24.664 80.6495 25.832 80.6495 26.984C80.6495 28.872 80.0255 30.424 78.7775 31.64C77.5294 32.824 75.9454 33.416 74.0255 33.416C73.8495 33.416 73.6929 33.4044 73.5557 33.3812C73.5013 33.372 73.4498 33.3609 73.4015 33.3481C73.289 33.3181 73.193 33.2783 73.1134 33.2287C72.9214 33.1087 72.8254 32.9311 72.8254 32.696C72.8254 32.44 72.9214 32.216 73.1134 32.024H73.4015C75.1615 32.024 76.5375 31.576 77.5294 30.68ZM67.964 20.9995C67.0622 20.6367 66.2429 20.1755 65.5129 19.6091C63.2746 17.8725 62.2032 15.383 62.2032 12.344C62.2032 10.212 62.8153 8.2479 64.0262 6.48653C65.2374 4.72484 66.9262 3.36138 69.0351 2.37721L69.0428 2.37359C71.2075 1.38001 73.6963 0.905788 76.4734 0.905788C81.5204 0.905788 85.5907 2.40663 88.4704 5.57437C91.3291 8.71887 92.6637 13.0898 92.6637 18.488C92.6637 22.0756 92.0097 25.3028 90.6629 28.1373C89.3418 30.9851 87.3934 33.2238 84.8216 34.8101C82.2605 36.4096 79.1998 37.1742 75.7055 37.1742C73.5366 37.1742 71.5212 36.8122 69.6768 36.0674C67.8259 35.3199 66.2873 34.2324 65.1035 32.7895C63.8959 31.3178 63.2592 29.6421 63.2592 27.8C63.2592 25.5215 64.0784 23.6089 65.7789 22.2323L65.7849 22.2274L65.791 22.2226C66.4432 21.707 67.1703 21.3021 67.964 20.9995ZM16.3186 32.072C16.3186 32.936 16.0306 33.368 15.4546 33.368C14.8786 33.368 14.5906 32.936 14.5906 32.072V19.592C14.5906 18.728 14.8786 18.296 15.4546 18.296C16.0306 18.296 16.3186 18.728 16.3186 19.592V32.072ZM16.3186 14.888C16.3186 15.752 16.0306 16.184 15.4546 16.184C14.8786 16.184 14.5906 15.752 14.5906 14.888V6.008C14.5906 5.144 14.8786 4.712 15.4546 4.712C16.0306 4.712 16.3186 5.144 16.3186 6.008V14.888ZM75.9934 6.008C75.9934 5.144 76.2814 4.712 76.8575 4.712C77.4334 4.712 77.7215 5.144 77.7215 6.008V16.76C77.7215 17.624 77.4334 18.056 76.8575 18.056C76.2814 18.056 75.9934 17.624 75.9934 16.76V6.008Z" fill="black"/>
</svg>
