<svg width="102" height="76" viewBox="0 0 102 76" fill="none" xmlns="http://www.w3.org/2000/svg">
<path d="M22.0858 60.543C22.0858 60.033 22.1878 59.589 22.3918 59.211C22.5958 58.827 22.8778 58.533 23.2378 58.329C23.5978 58.119 24.0088 58.014 24.4708 58.014C25.0768 58.014 25.5748 58.164 25.9648 58.464C26.3608 58.764 26.6158 59.172 26.7298 59.688H26.0548C25.9708 59.334 25.7878 59.058 25.5058 58.86C25.2298 58.656 24.8848 58.554 24.4708 58.554C24.1408 58.554 23.8438 58.629 23.5798 58.779C23.3158 58.929 23.1058 59.154 22.9498 59.454C22.7998 59.748 22.7248 60.111 22.7248 60.543C22.7248 60.975 22.7998 61.341 22.9498 61.641C23.1058 61.941 23.3158 62.166 23.5798 62.316C23.8438 62.466 24.1408 62.541 24.4708 62.541C24.8848 62.541 25.2298 62.442 25.5058 62.244C25.7878 62.04 25.9708 61.758 26.0548 61.398H26.7298C26.6158 61.902 26.3608 62.307 25.9648 62.613C25.5688 62.919 25.0708 63.072 24.4708 63.072C24.0088 63.072 23.5978 62.97 23.2378 62.766C22.8778 62.556 22.5958 62.262 22.3918 61.884C22.1878 61.5 22.0858 61.053 22.0858 60.543Z" fill="black"/>
<path d="M27.6053 60.534C27.6053 60.03 27.7043 59.589 27.9023 59.211C28.1063 58.827 28.3853 58.533 28.7393 58.329C29.0993 58.119 29.5043 58.014 29.9543 58.014C30.4223 58.014 30.8243 58.122 31.1603 58.338C31.5023 58.554 31.7483 58.83 31.8983 59.166V58.086H32.5283V63H31.8983V61.911C31.7423 62.247 31.4933 62.526 31.1513 62.748C30.8153 62.964 30.4133 63.072 29.9453 63.072C29.5013 63.072 29.0993 62.967 28.7393 62.757C28.3853 62.547 28.1063 62.25 27.9023 61.866C27.7043 61.482 27.6053 61.038 27.6053 60.534ZM31.8983 60.543C31.8983 60.147 31.8173 59.799 31.6553 59.499C31.4933 59.199 31.2713 58.968 30.9893 58.806C30.7133 58.644 30.4073 58.563 30.0713 58.563C29.7233 58.563 29.4113 58.641 29.1353 58.797C28.8593 58.953 28.6403 59.181 28.4783 59.481C28.3223 59.775 28.2443 60.126 28.2443 60.534C28.2443 60.936 28.3223 61.29 28.4783 61.596C28.6403 61.896 28.8593 62.127 29.1353 62.289C29.4113 62.445 29.7233 62.523 30.0713 62.523C30.4073 62.523 30.7133 62.442 30.9893 62.28C31.2713 62.118 31.4933 61.887 31.6553 61.587C31.8173 61.287 31.8983 60.939 31.8983 60.543Z" fill="black"/>
<path d="M34.5966 58.959C34.7346 58.653 34.9446 58.416 35.2266 58.248C35.5146 58.08 35.8656 57.996 36.2796 57.996V58.653H36.1086C35.6526 58.653 35.2866 58.776 35.0106 59.022C34.7346 59.268 34.5966 59.679 34.5966 60.255V63H33.9666V58.086H34.5966V58.959Z" fill="black"/>
<path d="M38.0463 58.617V61.668C38.0463 61.968 38.1033 62.175 38.2173 62.289C38.3313 62.403 38.5323 62.46 38.8203 62.46H39.3963V63H38.7213C38.2773 63 37.9473 62.898 37.7313 62.694C37.5153 62.484 37.4073 62.142 37.4073 61.668V58.617H36.7233V58.086H37.4073V56.853H38.0463V58.086H39.3963V58.617H38.0463Z" fill="black"/>
<path d="M42.1273 63.072C41.5633 63.072 41.1013 62.943 40.7413 62.685C40.3873 62.421 40.1893 62.064 40.1473 61.614H40.7953C40.8253 61.89 40.9543 62.115 41.1823 62.289C41.4163 62.457 41.7283 62.541 42.1183 62.541C42.4603 62.541 42.7273 62.46 42.9193 62.298C43.1173 62.136 43.2163 61.935 43.2163 61.695C43.2163 61.527 43.1623 61.389 43.0543 61.281C42.9463 61.173 42.8083 61.089 42.6403 61.029C42.4783 60.963 42.2563 60.894 41.9743 60.822C41.6083 60.726 41.3113 60.63 41.0833 60.534C40.8553 60.438 40.6603 60.297 40.4983 60.111C40.3423 59.919 40.2643 59.664 40.2643 59.346C40.2643 59.106 40.3363 58.884 40.4803 58.68C40.6243 58.476 40.8283 58.314 41.0923 58.194C41.3563 58.074 41.6563 58.014 41.9923 58.014C42.5203 58.014 42.9463 58.149 43.2703 58.419C43.5943 58.683 43.7683 59.049 43.7923 59.517H43.1623C43.1443 59.229 43.0303 58.998 42.8203 58.824C42.6163 58.644 42.3343 58.554 41.9743 58.554C41.6563 58.554 41.3983 58.629 41.2003 58.779C41.0023 58.929 40.9033 59.115 40.9033 59.337C40.9033 59.529 40.9603 59.688 41.0743 59.814C41.1943 59.934 41.3413 60.03 41.5153 60.102C41.6893 60.168 41.9233 60.243 42.2173 60.327C42.5713 60.423 42.8533 60.516 43.0633 60.606C43.2733 60.696 43.4533 60.828 43.6033 61.002C43.7533 61.176 43.8313 61.407 43.8373 61.695C43.8373 61.959 43.7653 62.196 43.6213 62.406C43.4773 62.61 43.2763 62.772 43.0183 62.892C42.7603 63.012 42.4633 63.072 42.1273 63.072Z" fill="black"/>
<path d="M49.644 63.072C49.182 63.072 48.765 62.97 48.393 62.766C48.027 62.556 47.736 62.262 47.52 61.884C47.31 61.5 47.205 61.053 47.205 60.543C47.205 60.033 47.313 59.589 47.529 59.211C47.745 58.827 48.039 58.533 48.411 58.329C48.783 58.119 49.2 58.014 49.662 58.014C50.124 58.014 50.541 58.119 50.913 58.329C51.291 58.533 51.585 58.827 51.795 59.211C52.011 59.589 52.119 60.033 52.119 60.543C52.119 61.047 52.011 61.491 51.795 61.875C51.579 62.259 51.282 62.556 50.904 62.766C50.526 62.97 50.106 63.072 49.644 63.072ZM49.644 62.523C49.968 62.523 50.268 62.451 50.544 62.307C50.82 62.157 51.042 61.935 51.21 61.641C51.384 61.341 51.471 60.975 51.471 60.543C51.471 60.111 51.387 59.748 51.219 59.454C51.051 59.154 50.829 58.932 50.553 58.788C50.277 58.638 49.977 58.563 49.653 58.563C49.329 58.563 49.029 58.638 48.753 58.788C48.477 58.932 48.255 59.154 48.087 59.454C47.925 59.748 47.844 60.111 47.844 60.543C47.844 60.975 47.925 61.341 48.087 61.641C48.255 61.935 48.474 62.157 48.744 62.307C49.02 62.451 49.32 62.523 49.644 62.523Z" fill="black"/>
<path d="M53.8884 59.166C54.0444 58.836 54.2904 58.563 54.6264 58.347C54.9684 58.125 55.3734 58.014 55.8414 58.014C56.2854 58.014 56.6844 58.119 57.0384 58.329C57.3984 58.533 57.6774 58.827 57.8754 59.211C58.0794 59.589 58.1814 60.03 58.1814 60.534C58.1814 61.038 58.0794 61.482 57.8754 61.866C57.6774 62.25 57.3984 62.547 57.0384 62.757C56.6844 62.967 56.2854 63.072 55.8414 63.072C55.3794 63.072 54.9774 62.964 54.6354 62.748C54.2934 62.526 54.0444 62.25 53.8884 61.92V65.322H53.2674V58.086H53.8884V59.166ZM57.5424 60.534C57.5424 60.126 57.4614 59.775 57.2994 59.481C57.1434 59.181 56.9274 58.953 56.6514 58.797C56.3754 58.641 56.0634 58.563 55.7154 58.563C55.3794 58.563 55.0704 58.644 54.7884 58.806C54.5124 58.968 54.2934 59.199 54.1314 59.499C53.9694 59.799 53.8884 60.147 53.8884 60.543C53.8884 60.939 53.9694 61.287 54.1314 61.587C54.2934 61.887 54.5124 62.118 54.7884 62.28C55.0704 62.442 55.3794 62.523 55.7154 62.523C56.0634 62.523 56.3754 62.445 56.6514 62.289C56.9274 62.127 57.1434 61.896 57.2994 61.596C57.4614 61.29 57.5424 60.936 57.5424 60.534Z" fill="black"/>
<path d="M63.7866 60.291C63.7866 60.507 63.7806 60.672 63.7686 60.786H59.6916C59.7096 61.158 59.7996 61.476 59.9616 61.74C60.1236 62.004 60.3366 62.205 60.6006 62.343C60.8646 62.475 61.1526 62.541 61.4646 62.541C61.8726 62.541 62.2146 62.442 62.4906 62.244C62.7726 62.046 62.9586 61.779 63.0486 61.443H63.7146C63.5946 61.923 63.3366 62.316 62.9406 62.622C62.5506 62.922 62.0586 63.072 61.4646 63.072C61.0026 63.072 60.5886 62.97 60.2226 62.766C59.8566 62.556 59.5686 62.262 59.3586 61.884C59.1546 61.5 59.0526 61.053 59.0526 60.543C59.0526 60.033 59.1546 59.586 59.3586 59.202C59.5626 58.818 59.8476 58.524 60.2136 58.32C60.5796 58.116 60.9966 58.014 61.4646 58.014C61.9326 58.014 62.3406 58.116 62.6886 58.32C63.0426 58.524 63.3126 58.8 63.4986 59.148C63.6906 59.49 63.7866 59.871 63.7866 60.291ZM63.1476 60.273C63.1536 59.907 63.0786 59.595 62.9226 59.337C62.7726 59.079 62.5656 58.884 62.3016 58.752C62.0376 58.62 61.7496 58.554 61.4376 58.554C60.9696 58.554 60.5706 58.704 60.2406 59.004C59.9106 59.304 59.7276 59.727 59.6916 60.273H63.1476Z" fill="black"/>
<path d="M67.2432 57.996C67.8312 57.996 68.3112 58.179 68.6832 58.545C69.0552 58.905 69.2412 59.43 69.2412 60.12V63H68.6202V60.192C68.6202 59.658 68.4852 59.25 68.2152 58.968C67.9512 58.686 67.5882 58.545 67.1262 58.545C66.6522 58.545 66.2742 58.695 65.9922 58.995C65.7102 59.295 65.5692 59.736 65.5692 60.318V63H64.9392V58.086H65.5692V58.923C65.7252 58.623 65.9502 58.395 66.2442 58.239C66.5382 58.077 66.8712 57.996 67.2432 57.996Z" fill="black"/>
<path d="M75.0393 58.617H73.8963V63H73.2663V58.617H72.5823V58.086H73.2663V57.744C73.2663 57.21 73.4013 56.817 73.6713 56.565C73.9473 56.313 74.3913 56.187 75.0033 56.187V56.727C74.5953 56.727 74.3073 56.805 74.1393 56.961C73.9773 57.117 73.8963 57.378 73.8963 57.744V58.086H75.0393V58.617Z" fill="black"/>
<path d="M78.182 63.072C77.72 63.072 77.303 62.97 76.931 62.766C76.565 62.556 76.274 62.262 76.058 61.884C75.848 61.5 75.743 61.053 75.743 60.543C75.743 60.033 75.851 59.589 76.067 59.211C76.283 58.827 76.577 58.533 76.949 58.329C77.321 58.119 77.738 58.014 78.2 58.014C78.662 58.014 79.079 58.119 79.451 58.329C79.829 58.533 80.123 58.827 80.333 59.211C80.549 59.589 80.657 60.033 80.657 60.543C80.657 61.047 80.549 61.491 80.333 61.875C80.117 62.259 79.82 62.556 79.442 62.766C79.064 62.97 78.644 63.072 78.182 63.072ZM78.182 62.523C78.506 62.523 78.806 62.451 79.082 62.307C79.358 62.157 79.58 61.935 79.748 61.641C79.922 61.341 80.009 60.975 80.009 60.543C80.009 60.111 79.925 59.748 79.757 59.454C79.589 59.154 79.367 58.932 79.091 58.788C78.815 58.638 78.515 58.563 78.191 58.563C77.867 58.563 77.567 58.638 77.291 58.788C77.015 58.932 76.793 59.154 76.625 59.454C76.463 59.748 76.382 60.111 76.382 60.543C76.382 60.975 76.463 61.341 76.625 61.641C76.793 61.935 77.012 62.157 77.282 62.307C77.558 62.451 77.858 62.523 78.182 62.523Z" fill="black"/>
<path d="M82.4355 58.959C82.5735 58.653 82.7835 58.416 83.0655 58.248C83.3535 58.08 83.7045 57.996 84.1185 57.996V58.653H83.9475C83.4915 58.653 83.1255 58.776 82.8495 59.022C82.5735 59.268 82.4355 59.679 82.4355 60.255V63H81.8055V58.086H82.4355V58.959Z" fill="black"/>
<path d="M29.815 69.996C30.403 69.996 30.883 70.179 31.255 70.545C31.627 70.905 31.813 71.43 31.813 72.12V75H31.192V72.192C31.192 71.658 31.057 71.25 30.787 70.968C30.523 70.686 30.16 70.545 29.698 70.545C29.224 70.545 28.846 70.695 28.564 70.995C28.282 71.295 28.141 71.736 28.141 72.318V75H27.511V70.086H28.141V70.923C28.297 70.623 28.522 70.395 28.816 70.239C29.11 70.077 29.443 69.996 29.815 69.996Z" fill="black"/>
<path d="M35.3573 75.072C34.8953 75.072 34.4783 74.97 34.1063 74.766C33.7403 74.556 33.4493 74.262 33.2333 73.884C33.0233 73.5 32.9183 73.053 32.9183 72.543C32.9183 72.033 33.0263 71.589 33.2423 71.211C33.4583 70.827 33.7523 70.533 34.1243 70.329C34.4963 70.119 34.9133 70.014 35.3753 70.014C35.8373 70.014 36.2543 70.119 36.6263 70.329C37.0043 70.533 37.2983 70.827 37.5083 71.211C37.7243 71.589 37.8323 72.033 37.8323 72.543C37.8323 73.047 37.7243 73.491 37.5083 73.875C37.2923 74.259 36.9953 74.556 36.6173 74.766C36.2393 74.97 35.8193 75.072 35.3573 75.072ZM35.3573 74.523C35.6813 74.523 35.9813 74.451 36.2573 74.307C36.5333 74.157 36.7553 73.935 36.9233 73.641C37.0973 73.341 37.1843 72.975 37.1843 72.543C37.1843 72.111 37.1003 71.748 36.9323 71.454C36.7643 71.154 36.5423 70.932 36.2663 70.788C35.9903 70.638 35.6903 70.563 35.3663 70.563C35.0423 70.563 34.7423 70.638 34.4663 70.788C34.1903 70.932 33.9683 71.154 33.8003 71.454C33.6383 71.748 33.5573 72.111 33.5573 72.543C33.5573 72.975 33.6383 73.341 33.8003 73.641C33.9683 73.935 34.1873 74.157 34.4573 74.307C34.7333 74.451 35.0333 74.523 35.3573 74.523Z" fill="black"/>
<path d="M41.2848 69.996C41.8728 69.996 42.3528 70.179 42.7248 70.545C43.0968 70.905 43.2827 71.43 43.2827 72.12V75H42.6618V72.192C42.6618 71.658 42.5268 71.25 42.2568 70.968C41.9928 70.686 41.6298 70.545 41.1678 70.545C40.6938 70.545 40.3157 70.695 40.0337 70.995C39.7517 71.295 39.6107 71.736 39.6107 72.318V75H38.9808V70.086H39.6107V70.923C39.7667 70.623 39.9918 70.395 40.2858 70.239C40.5798 70.077 40.9128 69.996 41.2848 69.996Z" fill="black"/>
<path d="M47.7271 71.4V71.931H44.2261V71.4H47.7271Z" fill="black"/>
<path d="M55.8231 70.086L54.2841 75H53.6541L52.2951 70.878L50.9361 75H50.2971L48.7581 70.086H49.3971L50.6211 74.361L51.9981 70.086H52.6281L53.9871 74.37L55.2021 70.086H55.8231Z" fill="black"/>
<path d="M56.3939 72.534C56.3939 72.03 56.4929 71.589 56.6909 71.211C56.8949 70.827 57.1739 70.533 57.5279 70.329C57.8879 70.119 58.2929 70.014 58.7429 70.014C59.2109 70.014 59.6129 70.122 59.9489 70.338C60.2909 70.554 60.5369 70.83 60.6869 71.166V70.086H61.3169V75H60.6869V73.911C60.5309 74.247 60.2819 74.526 59.9399 74.748C59.6039 74.964 59.2019 75.072 58.7339 75.072C58.2899 75.072 57.8879 74.967 57.5279 74.757C57.1739 74.547 56.8949 74.25 56.6909 73.866C56.4929 73.482 56.3939 73.038 56.3939 72.534ZM60.6869 72.543C60.6869 72.147 60.6059 71.799 60.4439 71.499C60.2819 71.199 60.0599 70.968 59.7779 70.806C59.5019 70.644 59.1959 70.563 58.8599 70.563C58.5119 70.563 58.1999 70.641 57.9239 70.797C57.6479 70.953 57.4289 71.181 57.2669 71.481C57.1109 71.775 57.0329 72.126 57.0329 72.534C57.0329 72.936 57.1109 73.29 57.2669 73.596C57.4289 73.896 57.6479 74.127 57.9239 74.289C58.1999 74.445 58.5119 74.523 58.8599 74.523C59.1959 74.523 59.5019 74.442 59.7779 74.28C60.0599 74.118 60.2819 73.887 60.4439 73.587C60.6059 73.287 60.6869 72.939 60.6869 72.543Z" fill="black"/>
<path d="M63.0702 69.159C62.9442 69.159 62.8362 69.114 62.7462 69.024C62.6562 68.934 62.6112 68.823 62.6112 68.691C62.6112 68.559 62.6562 68.451 62.7462 68.367C62.8362 68.277 62.9442 68.232 63.0702 68.232C63.1962 68.232 63.3042 68.277 63.3942 68.367C63.4842 68.451 63.5292 68.559 63.5292 68.691C63.5292 68.823 63.4842 68.934 63.3942 69.024C63.3042 69.114 63.1962 69.159 63.0702 69.159ZM63.3852 70.086V75H62.7552V70.086H63.3852Z" fill="black"/>
<path d="M65.6308 70.617V73.668C65.6308 73.968 65.6878 74.175 65.8018 74.289C65.9158 74.403 66.1168 74.46 66.4048 74.46H66.9808V75H66.3058C65.8618 75 65.5318 74.898 65.3158 74.694C65.0998 74.484 64.9918 74.142 64.9918 73.668V70.617H64.3078V70.086H64.9918V68.853H65.6308V70.086H66.9808V70.617H65.6308Z" fill="black"/>
<path d="M68.6498 68.34V75H68.0198V68.34H68.6498Z" fill="black"/>
<path d="M70.3915 69.159C70.2655 69.159 70.1575 69.114 70.0675 69.024C69.9775 68.934 69.9324 68.823 69.9324 68.691C69.9324 68.559 69.9775 68.451 70.0675 68.367C70.1575 68.277 70.2655 68.232 70.3915 68.232C70.5175 68.232 70.6255 68.277 70.7155 68.367C70.8055 68.451 70.8505 68.559 70.8505 68.691C70.8505 68.823 70.8055 68.934 70.7155 69.024C70.6255 69.114 70.5175 69.159 70.3915 69.159ZM70.7065 70.086V75H70.0765V70.086H70.7065Z" fill="black"/>
<path d="M73.8251 75.072C73.2611 75.072 72.7991 74.943 72.4391 74.685C72.0851 74.421 71.8871 74.064 71.8451 73.614H72.4931C72.5231 73.89 72.6521 74.115 72.8801 74.289C73.1141 74.457 73.4261 74.541 73.8161 74.541C74.1581 74.541 74.4251 74.46 74.6171 74.298C74.8151 74.136 74.9141 73.935 74.9141 73.695C74.9141 73.527 74.8601 73.389 74.7521 73.281C74.6441 73.173 74.5061 73.089 74.3381 73.029C74.1761 72.963 73.9541 72.894 73.6721 72.822C73.3061 72.726 73.0091 72.63 72.7811 72.534C72.5531 72.438 72.3581 72.297 72.1961 72.111C72.0401 71.919 71.9621 71.664 71.9621 71.346C71.9621 71.106 72.0341 70.884 72.1781 70.68C72.3221 70.476 72.5261 70.314 72.7901 70.194C73.0541 70.074 73.3541 70.014 73.6901 70.014C74.2181 70.014 74.6441 70.149 74.9681 70.419C75.2921 70.683 75.4661 71.049 75.4901 71.517H74.8601C74.8421 71.229 74.7281 70.998 74.5181 70.824C74.3141 70.644 74.0321 70.554 73.6721 70.554C73.3541 70.554 73.0961 70.629 72.8981 70.779C72.7001 70.929 72.6011 71.115 72.6011 71.337C72.6011 71.529 72.6581 71.688 72.7721 71.814C72.8921 71.934 73.0391 72.03 73.2131 72.102C73.3871 72.168 73.6211 72.243 73.9151 72.327C74.2691 72.423 74.5511 72.516 74.7611 72.606C74.9711 72.696 75.1511 72.828 75.3011 73.002C75.4511 73.176 75.5291 73.407 75.5351 73.695C75.5351 73.959 75.4631 74.196 75.3191 74.406C75.1751 74.61 74.9741 74.772 74.7161 74.892C74.4581 75.012 74.1611 75.072 73.8251 75.072Z" fill="black"/>
<path d="M77.54 70.617V73.668C77.54 73.968 77.597 74.175 77.711 74.289C77.825 74.403 78.026 74.46 78.314 74.46H78.89V75H78.215C77.771 75 77.441 74.898 77.225 74.694C77.009 74.484 76.901 74.142 76.901 73.668V70.617H76.217V70.086H76.901V68.853H77.54V70.086H78.89V70.617H77.54Z" fill="black"/>
<path fill-rule="evenodd" clip-rule="evenodd" d="M5 45.5C5 45.2239 5.22386 45 5.5 45H99.5C99.7761 45 100 45.2239 100 45.5C100 45.7761 99.7761 46 99.5 46H5.5C5.22386 46 5 45.7761 5 45.5Z" fill="black"/>
<path d="M19.7235 28.915C19.7235 30.4503 19.2008 31.6753 18.1555 32.59C17.1428 33.5047 15.7382 33.962 13.9415 33.962H13.6475C13.4515 34.158 13.3535 34.3867 13.3535 34.648C13.3535 35.138 13.7618 35.383 14.5785 35.383C16.5385 35.383 18.1555 34.7787 19.4295 33.57C20.7035 32.3287 21.3405 30.7443 21.3405 28.817C21.3405 27.641 21.0465 26.4487 20.4585 25.24C19.9032 23.9987 19.1682 22.9697 18.2535 22.153C17.0448 22.3163 15.9015 22.398 14.8235 22.398C11.3282 22.398 8.63315 21.663 6.73848 20.193C4.84382 18.723 3.89648 16.616 3.89648 13.872C3.89648 11.9773 4.43548 10.246 5.51348 8.678C6.59148 7.11 8.11048 5.86867 10.0705 4.954C12.0632 4.03933 14.3988 3.582 17.0775 3.582C21.9448 3.582 25.6852 5.01933 28.2985 7.894C30.9118 10.7687 32.2185 14.852 32.2185 20.144C32.2185 23.6393 31.5815 26.7263 30.3075 29.405C29.0662 32.0837 27.2532 34.158 24.8685 35.628C22.5165 37.098 19.6582 37.833 16.2935 37.833C14.2355 37.833 12.3572 37.49 10.6585 36.804C8.95982 36.118 7.58782 35.138 6.54248 33.864C5.49715 32.59 4.97448 31.1853 4.97448 29.65C4.97448 27.69 5.66048 26.1547 7.03248 25.044C8.43715 23.9333 10.3318 23.378 12.7165 23.378C14.9705 23.378 16.7018 23.868 17.9105 24.848C19.1192 25.7953 19.7235 27.151 19.7235 28.915ZM17.4695 6.081C16.8815 6.081 16.5875 6.522 16.5875 7.404V18.38C16.5875 19.262 16.8815 19.703 17.4695 19.703C18.0575 19.703 18.3515 19.262 18.3515 18.38V7.404C18.3515 6.522 18.0575 6.081 17.4695 6.081Z" fill="#F97242"/>
<path d="M37.8642 37.833C36.2309 37.833 34.8915 37.392 33.8462 36.51C32.8335 35.628 32.3272 34.4847 32.3272 33.08C32.3272 31.6753 32.8335 30.532 33.8462 29.65C34.8915 28.768 36.2309 28.327 37.8642 28.327C39.4975 28.327 40.8205 28.768 41.8332 29.65C42.8785 30.532 43.4012 31.6753 43.4012 33.08C43.4012 34.4847 42.8785 35.628 41.8332 36.51C40.8205 37.392 39.4975 37.833 37.8642 37.833Z" fill="#F97242"/>
<path d="M49.5434 26.367C49.5434 25.779 49.6904 25.3217 49.9844 24.995C50.2784 24.6357 50.6868 24.456 51.2094 24.456C51.6014 24.456 52.0261 24.5703 52.4834 24.799C52.9734 24.995 53.5288 25.24 54.1494 25.534C54.8028 25.7953 55.5868 26.0403 56.5014 26.269C57.4161 26.465 58.5104 26.563 59.7844 26.563C61.6791 26.563 63.4758 26.2037 65.1744 25.485C66.9058 24.7663 68.1961 23.8353 69.0454 22.692C69.2088 22.4633 69.3068 22.3327 69.3394 22.3C69.4048 22.2673 69.4701 22.251 69.5354 22.251H70.3684C70.5971 22.251 70.7441 22.3653 70.8094 22.594C70.9074 22.79 70.9564 23.2147 70.9564 23.868C70.9564 28.1473 69.9274 31.5447 67.8694 34.06C65.8441 36.5753 63.0838 37.833 59.5884 37.833C57.4651 37.833 55.5868 37.49 53.9534 36.804C52.3201 36.0853 50.8338 34.9583 49.4944 33.423C49.2004 33.423 48.9718 33.5863 48.8084 33.913C48.6778 34.207 48.5144 34.8603 48.3184 35.873C48.2531 36.2977 48.1714 36.5917 48.0734 36.755C47.9754 36.9183 47.7958 37 47.5344 37H46.3094C45.9174 37 45.7214 36.7387 45.7214 36.216V26.514C45.7214 24.946 45.9338 23.7373 46.3584 22.888C46.7831 22.0387 47.4854 21.4017 48.4654 20.977C49.4781 20.5197 50.8828 20.193 52.6794 19.997C55.1948 19.703 57.1384 18.919 58.5104 17.645C59.8824 16.371 60.5684 14.6887 60.5684 12.598C60.5684 10.6707 59.9314 9.10266 58.6574 7.894C57.3834 6.65266 55.7664 6.032 53.8064 6.032C52.9898 6.032 52.5814 6.277 52.5814 6.767C52.5814 7.02833 52.6794 7.257 52.8754 7.453H53.1694C54.9661 7.453 56.3708 7.91033 57.3834 8.825C58.4288 9.73966 58.9514 10.9647 58.9514 12.5C58.9514 14.264 58.2818 15.7013 56.9424 16.812C55.6358 17.9227 53.9208 18.478 51.7974 18.478C49.5108 18.478 47.6651 17.8737 46.2604 16.665C44.8884 15.4237 44.2024 13.7903 44.2024 11.765C44.2024 10.2297 44.7088 8.84133 45.7214 7.6C46.7341 6.35867 48.1878 5.37867 50.0824 4.66C51.9771 3.94133 54.1658 3.582 56.6484 3.582C59.5231 3.582 62.0221 4.00666 64.1454 4.856C66.2688 5.67266 67.9021 6.88133 69.0454 8.482C70.2214 10.0827 70.8094 11.9773 70.8094 14.166C70.8094 16.126 70.3521 17.9227 69.4374 19.556C68.5228 21.1893 67.2161 22.496 65.5174 23.476C63.8188 24.456 61.8914 24.946 59.7354 24.946C58.6248 24.946 57.5958 24.8317 56.6484 24.603C55.7338 24.3743 54.9008 24.113 54.1494 23.819C53.4308 23.525 52.7774 23.2637 52.1894 23.035C51.6014 22.8063 51.0788 22.692 50.6214 22.692C49.7721 22.692 49.1024 23.035 48.6124 23.721C48.1551 24.407 47.9264 25.3707 47.9264 26.612V31.414C48.0571 31.5447 48.2531 31.61 48.5144 31.61C49.2004 31.61 49.5434 31.267 49.5434 30.581V26.367Z" fill="#F97242"/>
<path d="M87.5004 37.833C83.0904 37.833 79.6114 36.314 77.0634 33.276C74.5154 30.2053 73.2414 26.024 73.2414 20.732C73.2414 15.1787 74.4501 10.932 76.8674 7.992C79.3174 5.052 82.8618 3.582 87.5004 3.582C92.1391 3.582 95.6671 5.052 98.0844 7.992C100.534 10.932 101.759 15.1787 101.759 20.732C101.759 26.024 100.485 30.2053 97.9374 33.276C95.3894 36.314 91.9104 37.833 87.5004 37.833ZM87.5004 35.334C88.0884 35.334 88.3824 34.893 88.3824 34.011V7.404C88.3824 6.522 88.0884 6.081 87.5004 6.081C86.9124 6.081 86.6184 6.522 86.6184 7.404V34.011C86.6184 34.893 86.9124 35.334 87.5004 35.334Z" fill="#F97242"/>
<path fill-rule="evenodd" clip-rule="evenodd" d="M16.1555 30.59C17.2008 29.6753 17.7235 28.4503 17.7235 26.915C17.7235 25.151 17.1191 23.7953 15.9105 22.848C15.3018 22.3545 14.5606 21.9852 13.6868 21.7402C13.4121 21.6632 13.1244 21.5985 12.8235 21.546C12.1809 21.434 11.4786 21.378 10.7165 21.378C10.1829 21.378 9.67387 21.4058 9.18936 21.4614C7.50848 21.6543 6.12285 22.1818 5.03248 23.044C3.66048 24.1547 2.97448 25.69 2.97448 27.65C2.97448 29.1853 3.49714 30.59 4.54248 31.864C5.58781 33.138 6.95981 34.118 8.65848 34.804C10.3571 35.49 12.2355 35.833 14.2935 35.833C17.6581 35.833 20.5165 35.098 22.8685 33.628C25.2531 32.158 27.0661 30.0837 28.3075 27.405C29.5815 24.7263 30.2185 21.6393 30.2185 18.144C30.2185 12.852 28.9118 8.76867 26.2985 5.894C23.6851 3.01933 19.9448 1.582 15.0775 1.582C12.3988 1.582 10.0631 2.03933 8.07048 2.954C6.11048 3.86866 4.59148 5.11 3.51348 6.678C2.43548 8.246 1.89648 9.97733 1.89648 11.872C1.89648 14.616 2.84381 16.723 4.73848 18.193C5.92522 19.1137 7.42596 19.7461 9.2407 20.0902C9.71149 20.1794 10.2034 20.2493 10.7165 20.2997C11.3831 20.3652 12.0855 20.398 12.8235 20.398C13.1554 20.398 13.4935 20.3903 13.8377 20.3748C14.6117 20.34 15.4169 20.266 16.2535 20.153C17.1681 20.9697 17.9031 21.9987 18.4585 23.24C19.0465 24.4487 19.3405 25.641 19.3405 26.817C19.3405 28.7443 18.7035 30.3287 17.4295 31.57C16.1555 32.7787 14.5385 33.383 12.5785 33.383C12.3397 33.383 12.1359 33.3621 11.9669 33.3202C11.9584 33.3181 11.9499 33.3159 11.9415 33.3136C11.8267 33.2831 11.7287 33.2425 11.6475 33.1917C11.4515 33.0693 11.3535 32.8881 11.3535 32.648C11.3535 32.3867 11.4515 32.158 11.6475 31.962H11.9415C13.7381 31.962 15.1428 31.5047 16.1555 30.59ZM6.46898 20.7086C5.52391 20.335 4.66709 19.8567 3.9059 19.2661C1.62892 17.4995 0.538269 14.967 0.538269 11.872C0.538269 9.70131 1.16132 7.7019 2.39426 5.90854C3.62742 4.11484 5.34719 2.72604 7.49611 1.72321L7.50387 1.71959L7.50388 1.71962C9.70919 0.707342 12.2457 0.223789 15.0775 0.223789C20.2238 0.223789 24.3704 1.75396 27.3035 4.98037C30.2154 8.18354 31.5767 12.6378 31.5767 18.144C31.5767 21.8028 30.9098 25.093 29.537 27.9822C28.1906 30.8847 26.2052 33.1658 23.5846 34.7821C20.9755 36.4116 17.8565 37.1912 14.2935 37.1912C12.0826 37.1912 10.0289 36.8222 8.14988 36.0634C6.26428 35.3019 4.69769 34.1944 3.49248 32.7255C2.26357 31.2278 1.61627 29.5234 1.61627 27.65C1.61627 25.3315 2.44947 23.3875 4.1779 21.9883L4.18395 21.9834L4.19007 21.9786C4.87193 21.4394 5.63462 21.0192 6.46898 20.7086ZM30.9622 35.5412L30.9542 35.5342C29.6301 34.381 28.969 32.8568 28.969 31.08C28.969 29.3032 29.6301 27.779 30.9542 26.6258L30.9622 26.6188L30.9703 26.6119C32.3062 25.4848 33.9754 24.9688 35.8642 24.9688C37.7476 24.9688 39.4079 25.4822 40.7173 26.6189C41.4771 27.2621 42.0268 28.0241 42.3632 28.8847V24.514C42.3632 22.8561 42.5824 21.403 43.1436 20.2806C43.7275 19.1129 44.6863 18.2699 45.9158 17.7349C46.1539 17.6278 46.4064 17.5282 46.6728 17.4359C45.4379 17.0908 44.3307 16.5173 43.3745 15.6945L43.3617 15.6835L43.3492 15.6722C41.6638 14.1473 40.8442 12.1335 40.8442 9.765C40.8442 7.90241 41.4679 6.21381 42.669 4.74144C43.8675 3.27236 45.5412 2.1713 47.6007 1.39008C49.6796 0.601542 52.037 0.223789 54.6484 0.223789C57.6495 0.223789 60.3241 0.666178 62.6413 1.59152C64.9661 2.4872 66.8263 3.84175 68.1454 5.68525C69.5065 7.54126 70.1676 9.72232 70.1676 12.166C70.1676 14.347 69.6561 16.3739 68.6225 18.2196C68.4936 18.4498 68.3578 18.6742 68.2152 18.8928H68.3684C68.7142 18.8928 69.1218 18.9829 69.484 19.2646C69.6615 19.4026 69.7963 19.562 69.898 19.7259C69.8881 19.3982 69.8832 19.0669 69.8832 18.732C69.8832 13.0044 71.1272 8.40237 73.8183 5.12939L73.824 5.12248C76.5868 1.80722 80.5527 0.223789 85.5004 0.223789C90.4457 0.223789 94.3989 1.80597 97.1304 5.12555C99.8565 8.39877 101.118 13.0025 101.118 18.732C101.118 24.2366 99.7907 28.7592 96.9827 32.1433L96.9781 32.1488C94.1411 35.5314 90.2612 37.1912 85.5004 37.1912C80.7397 37.1912 76.8598 35.5314 74.0228 32.1488L74.0182 32.1433C72.0727 29.7987 70.8382 26.9076 70.2633 23.5221C70.024 27.281 68.9436 30.4457 66.9237 32.9164C64.6174 35.7779 61.4541 37.1912 57.5884 37.1912C55.3196 37.1912 53.2569 36.8246 51.4275 36.0562L51.4169 36.0518L51.4064 36.0472C50.0879 35.467 48.8704 34.6571 47.752 33.6322C47.7215 33.7781 47.6897 33.9361 47.6567 34.1065C47.5894 34.5357 47.4795 35.0514 47.2381 35.4538C46.8073 36.1717 46.0744 36.3582 45.5344 36.3582H44.3094C43.782 36.3582 43.189 36.1618 42.7819 35.6189C42.4298 35.1495 42.3632 34.6079 42.3632 34.216V33.2753C42.0268 34.136 41.477 34.898 40.7171 35.5412C39.4078 36.6778 37.7475 37.1912 35.8642 37.1912C33.9754 37.1912 32.3062 36.6752 30.9703 35.5481L30.9622 35.5412ZM39.8332 34.51C40.8785 33.628 41.4012 32.4847 41.4012 31.08C41.4012 29.6753 40.8785 28.532 39.8332 27.65C38.8205 26.768 37.4975 26.327 35.8642 26.327C34.2309 26.327 32.8915 26.768 31.8462 27.65C30.8335 28.532 30.3272 29.6753 30.3272 31.08C30.3272 32.4847 30.8335 33.628 31.8462 34.51C32.8915 35.392 34.2309 35.833 35.8642 35.833C37.4975 35.833 38.8205 35.392 39.8332 34.51ZM46.3184 33.873C46.4306 33.2936 46.532 32.8318 46.6228 32.4877C46.6659 32.3242 46.7066 32.1872 46.7449 32.0769C46.7669 32.0135 46.788 31.9589 46.8084 31.913C46.9718 31.5863 47.2004 31.423 47.4944 31.423C48.8338 32.9583 50.3201 34.0853 51.9534 34.804C53.5868 35.49 55.4651 35.833 57.5884 35.833C61.0838 35.833 63.8441 34.5753 65.8694 32.06C67.9274 29.5447 68.9564 26.1473 68.9564 21.868C68.9564 21.2147 68.9074 20.79 68.8094 20.594C68.7441 20.3653 68.5971 20.251 68.3684 20.251H67.5354C67.4701 20.251 67.4048 20.2673 67.3394 20.3C67.3068 20.3327 67.2088 20.4633 67.0454 20.692C66.1961 21.8353 64.9058 22.7663 63.1744 23.485C61.4758 24.2037 59.6791 24.563 57.7844 24.563C56.5104 24.563 55.4161 24.465 54.5014 24.269C53.5868 24.0403 52.8028 23.7953 52.1494 23.534C51.5288 23.24 50.9734 22.995 50.4834 22.799C50.0261 22.5703 49.6014 22.456 49.2094 22.456C48.6868 22.456 48.2784 22.6357 47.9844 22.995C47.6904 23.3217 47.5434 23.779 47.5434 24.367V28.581C47.5434 28.925 47.4572 29.1828 47.2846 29.3543C47.2633 29.3755 47.2406 29.3954 47.2166 29.414C47.0479 29.5447 46.8138 29.61 46.5144 29.61C46.2531 29.61 46.0571 29.5447 45.9264 29.414V24.612C45.9264 23.3707 46.1551 22.407 46.6124 21.721C47.1024 21.035 47.7721 20.692 48.6214 20.692C49.0788 20.692 49.6014 20.8063 50.1894 21.035C50.7774 21.2637 51.4308 21.525 52.1494 21.819C52.9008 22.113 53.7338 22.3743 54.6484 22.603C55.5958 22.8317 56.6248 22.946 57.7354 22.946C59.8914 22.946 61.8188 22.456 63.5174 21.476C65.2161 20.496 66.5228 19.1893 67.4374 17.556C68.3521 15.9227 68.8094 14.126 68.8094 12.166C68.8094 9.97733 68.2214 8.08266 67.0454 6.482C65.9021 4.88133 64.2688 3.67266 62.1454 2.856C60.0221 2.00666 57.5231 1.582 54.6484 1.582C52.1658 1.582 49.9771 1.94133 48.0824 2.66C46.1878 3.37867 44.7341 4.35867 43.7214 5.6C42.7088 6.84133 42.2024 8.22966 42.2024 9.765C42.2024 11.7903 42.8884 13.4237 44.2604 14.665C45.6651 15.8737 47.5108 16.478 49.7974 16.478C51.9208 16.478 53.6358 15.9227 54.9424 14.812C56.2818 13.7013 56.9514 12.264 56.9514 10.5C56.9514 8.96466 56.4288 7.73967 55.3834 6.825C54.3708 5.91033 52.9661 5.453 51.1694 5.453H50.8754C50.6794 5.257 50.5814 5.02833 50.5814 4.767C50.5814 4.52695 50.6794 4.3457 50.8754 4.22325C50.9566 4.17253 51.0546 4.1319 51.1694 4.10135C51.1778 4.09912 51.1863 4.09694 51.1949 4.09482C51.3638 4.05293 51.5677 4.032 51.8064 4.032C53.7664 4.032 55.3834 4.65266 56.6574 5.894C57.9314 7.10266 58.5684 8.67067 58.5684 10.598C58.5684 12.6887 57.8824 14.371 56.5104 15.645C55.1384 16.919 53.1948 17.703 50.6794 17.997C48.8828 18.193 47.4781 18.5197 46.4654 18.977C45.4854 19.4017 44.7831 20.0387 44.3584 20.888C43.9338 21.7373 43.7214 22.946 43.7214 24.514V34.216C43.7214 34.7387 43.9174 35 44.3094 35H45.5344C45.7958 35 45.9754 34.9183 46.0734 34.755C46.1714 34.5917 46.2531 34.2977 46.3184 33.873ZM14.5875 5.404C14.5875 4.522 14.8815 4.081 15.4695 4.081C16.0575 4.081 16.3515 4.522 16.3515 5.404V16.38C16.3515 17.262 16.0575 17.703 15.4695 17.703C14.8815 17.703 14.5875 17.262 14.5875 16.38V5.404ZM75.0634 31.276C77.6114 34.314 81.0904 35.833 85.5004 35.833C89.9104 35.833 93.3894 34.314 95.9374 31.276C98.4854 28.2053 99.7594 24.024 99.7594 18.732C99.7594 13.1787 98.5344 8.932 96.0844 5.992C93.6671 3.052 90.1391 1.582 85.5004 1.582C80.8618 1.582 77.3174 3.052 74.8674 5.992C72.4501 8.932 71.2414 13.1787 71.2414 18.732C71.2414 24.024 72.5154 28.2053 75.0634 31.276ZM86.3824 32.011C86.3824 32.893 86.0884 33.334 85.5004 33.334C84.9124 33.334 84.6184 32.893 84.6184 32.011V5.404C84.6184 4.522 84.9124 4.081 85.5004 4.081C86.0884 4.081 86.3824 4.522 86.3824 5.404V32.011Z" fill="black"/>
</svg>
