<svg width="45" height="45" viewBox="0 0 45 45" fill="none" xmlns="http://www.w3.org/2000/svg">
<path d="M20.3636 32.0159C20.3636 32.2813 20.2615 32.5358 20.0796 32.7234C19.8978 32.9111 19.6511 33.0165 19.3939 33.0165H5.81818C5.60485 33.0165 5.40121 33.2166 5.22667 33.3467L1.93939 36.0184V20.0083C1.93939 19.7429 2.04156 19.4884 2.22341 19.3007C2.40527 19.113 2.65191 19.0076 2.90909 19.0076H6.65212V17.0063H2.90909C2.13755 17.0063 1.39761 17.3226 0.852053 17.8856C0.306493 18.4486 0 19.2121 0 20.0083V38.0197C0.0014432 38.2055 0.0530104 38.3873 0.148923 38.5446C0.244835 38.7018 0.381302 38.8285 0.54303 38.9102C0.69884 38.9834 0.870629 39.0126 1.04095 38.995C1.21126 38.9775 1.37403 38.9137 1.51273 38.8102L6.50667 35.0178H19.5394C19.9069 35.029 20.2728 34.9622 20.6143 34.8216C20.9558 34.681 21.2656 34.4695 21.5247 34.2003C21.7838 33.9311 21.9866 33.6098 22.1204 33.2564C22.2543 32.9031 22.3165 32.5251 22.303 32.1459V31.0152H20.3636V32.0159Z" fill="#2EB77D"/>
<path d="M29.0909 19.2278V28.954L25.697 26.2222C25.5277 26.0867 25.3197 26.0128 25.1055 26.0121H11.6364C11.3792 26.0121 11.1326 25.9067 10.9507 25.719C10.7689 25.5314 10.6667 25.2769 10.6667 25.0115V13.0039C10.6667 12.7385 10.7689 12.484 10.9507 12.2963C11.1326 12.1086 11.3792 12.0032 11.6364 12.0032H19.8788C19.8813 11.3265 19.9727 10.6533 20.1503 10.002H11.6364C10.8648 10.002 10.1249 10.3182 9.57935 10.8812C9.03379 11.4442 8.72729 12.2077 8.72729 13.0039V25.0115C8.72729 25.8076 9.03379 26.5712 9.57935 27.1341C10.1249 27.6971 10.8648 28.0134 11.6364 28.0134H24.7758L29.4109 31.7257C29.5487 31.8309 29.7111 31.8964 29.8814 31.9158C30.0517 31.9351 30.224 31.9075 30.3806 31.8358C30.5456 31.7547 30.6851 31.6271 30.7829 31.4678C30.8807 31.3084 30.9328 31.1238 30.9334 30.9352V18.3773C30.3608 18.7483 29.7406 19.0347 29.0909 19.2278V19.2278Z" fill="#2EB77D"/>
<path d="M27.1515 17.0063C29.8292 17.0063 31.9999 14.7663 31.9999 12.0032C31.9999 9.24 29.8292 7 27.1515 7C24.4737 7 22.303 9.24 22.303 12.0032C22.303 14.7663 24.4737 17.0063 27.1515 17.0063Z" fill="#2EB77D"/>
</svg>
