<svg width="191" height="182" viewBox="0 0 191 182" fill="none" xmlns="http://www.w3.org/2000/svg">
<g filter="url(#filter0_ddd_1143_20802)">
<mask id="path-1-outside-1_1143_20802" maskUnits="userSpaceOnUse" x="-1.47399" y="1.57994" width="199.98" height="176.784" fill="black">
<rect fill="white" x="-1.47399" y="1.57994" width="199.98" height="176.784"/>
<path fill-rule="evenodd" clip-rule="evenodd" d="M130.695 44.5891L130.284 38.7128C129.798 31.7572 131.848 26.0303 136.434 21.5319C141.015 16.9536 147.342 14.3821 155.417 13.8174C161.813 13.3702 167.102 14.326 171.284 16.6848C175.466 19.0435 177.705 22.3416 178.001 26.5789C178.253 30.1766 176.972 33.1182 174.16 35.4037C171.427 37.6837 167.582 38.9969 162.625 39.3436C157.908 39.6734 154.166 39.0112 151.399 37.3568C148.632 35.7025 147.137 33.2763 146.913 30.0784C146.746 27.6799 147.491 25.6996 149.149 24.1375C150.802 22.4955 153.147 21.5683 156.185 21.3558C156.334 21.1848 156.4 20.9793 156.383 20.7395C156.446 20.494 156.472 20.2914 156.461 20.1315C156.383 19.0122 155.504 18.5112 153.825 18.6286C150.707 18.8467 148.107 20.1532 146.025 22.5483C144.018 24.8579 143.123 27.5717 143.341 30.6897C143.749 36.526 147.649 40.5917 155.04 42.8867L171.349 41.7463C172.309 41.6792 172.816 42.0454 172.872 42.8449L173.023 45.0035C173.079 45.803 172.627 46.2363 171.668 46.3034L159.676 47.1419C160.605 47.8 161.258 48.5176 161.634 49.2947C162.004 49.9919 162.242 51.1 162.348 52.619L165.627 99.5091C165.722 100.868 165.472 101.89 164.877 102.574C164.357 103.173 163.337 103.526 161.818 103.632L156.587 103.998C155.829 102.659 154.883 101.409 153.752 100.254C150.776 97.1401 146.941 94.9808 142.397 93.689C139.763 92.8776 136.969 92.3833 134.024 92.1905L131.014 49.1462L122.979 49.708C122.02 49.7751 121.512 49.4089 121.456 48.6094L121.305 46.4508C121.249 45.6513 121.701 45.218 122.66 45.1509L130.695 44.5891ZM56.0563 39.2034L60.1204 97.323C61.6316 96.9622 63.2236 96.7261 64.8889 96.6096C72.9809 96.0438 79.7965 98.7417 84.9704 104.716C86.3094 106.242 87.483 107.925 88.4981 109.755C90.6541 109.904 92.9724 109.892 95.453 109.719C95.7295 109.699 96.0041 109.678 96.2768 109.655C99.0568 105.079 102.894 101.304 107.723 98.3334C112.163 95.5712 117.149 93.7443 122.638 92.8134C124.893 87.5911 125.764 81.3242 125.253 74.0125C124.593 64.5785 122.037 57.3258 117.585 52.2544C113.128 47.1029 107.341 44.776 100.226 45.2736C94.3896 45.6817 89.9099 47.6821 86.7869 51.2747L85.0342 26.2107C84.9392 24.8516 84.5523 23.9145 83.8736 23.3996C83.2692 22.7992 82.2075 22.5521 80.6885 22.6583L49.6283 24.8302C48.6689 24.8973 48.2172 25.3306 48.2731 26.1301L48.3737 27.5692C48.3961 27.889 48.4956 28.1632 48.6723 28.3919C48.7634 28.5462 49.1 28.7636 49.682 29.0443C51.93 30.1725 53.5069 31.4682 54.4126 32.9314C55.3127 34.3145 55.8606 36.4052 56.0563 39.2034ZM84.2871 109.22C84.2876 109.22 84.2881 109.22 84.2886 109.22C83.7249 108.397 83.1217 107.619 82.479 106.887C78.0214 101.736 72.2349 99.4088 65.1195 99.9064C64.6935 99.9362 64.2747 99.9745 63.8632 100.021C63.1447 100.103 62.4482 100.21 61.7737 100.344C57.5415 101.18 54.1767 103.035 51.6793 105.908L49.9267 80.8437C49.8316 79.4846 49.4448 78.5475 48.766 78.0326C48.1617 77.4322 47.1 77.185 45.5809 77.2913L14.5208 79.4632C13.5614 79.5303 13.1096 79.9636 13.1655 80.7631L13.2662 82.2022C13.2885 82.5219 13.3881 82.7962 13.5647 83.0248C13.6559 83.1792 13.9924 83.3966 14.5744 83.6773C16.8225 84.8055 18.3994 86.1012 19.3051 87.5643C20.2052 88.9475 20.7531 91.0382 20.9488 93.8364L25.8126 163.392C25.8629 164.112 25.9792 164.626 26.1615 164.934C26.4181 165.157 26.8262 165.249 27.3858 165.21L30.3839 165.001C30.9436 164.961 31.3377 164.854 31.5664 164.677C31.7895 164.42 31.9214 164.009 31.9622 163.444C32.4693 160.356 32.852 158.361 33.1103 157.459C33.443 156.472 33.9291 155.955 34.5687 155.911C38.3436 159.342 42.1658 161.726 46.0352 163.063C49.979 164.313 54.7491 164.743 60.3455 164.352C70.6589 163.63 78.3726 160.199 83.4866 154.057C88.6749 147.829 90.8945 139.359 90.1453 128.646C89.5809 120.573 87.6281 114.098 84.2871 109.22ZM151.377 102.551C151.912 103.097 152.397 103.667 152.83 104.26L152.828 104.26C154.422 106.446 155.318 108.953 155.516 111.782C155.823 116.18 154.521 119.966 151.61 123.142C148.773 126.233 144.957 127.946 140.16 128.281C135.683 128.595 131.784 127.421 128.465 124.761C125.22 122.015 123.45 118.524 123.153 114.286C122.935 111.168 123.836 108.535 125.854 106.385C127.873 104.235 130.562 103.043 133.92 102.808C134.131 102.392 134.223 101.984 134.195 101.584C134.117 100.464 133.239 99.9635 131.56 100.081C128.042 100.327 125.099 101.898 122.731 104.796C120.357 107.613 119.301 110.9 119.564 114.658C119.799 118.016 120.813 121.038 122.608 123.724C124.403 126.411 126.801 128.533 129.802 130.09C132.877 131.562 136.254 132.17 139.932 131.913C143.209 131.683 146.051 130.963 148.457 129.75C150.937 128.452 153.327 126.437 155.626 123.705C156.073 123.192 156.373 122.89 156.527 122.799C156.756 122.622 157.07 122.52 157.47 122.492L159.029 122.383C159.908 122.321 160.404 123.09 160.516 124.689C160.935 130.685 159.919 136.259 157.467 141.412C155.09 146.479 151.486 150.667 146.656 153.978C141.821 157.208 136.165 159.05 129.689 159.503C123.533 159.933 117.887 159.042 112.752 156.831C107.61 154.539 103.433 151.095 100.219 146.5C97.0057 141.904 95.178 136.448 94.7364 130.132C94.3115 124.056 95.3704 118.519 97.9131 113.521C100.45 108.442 104.299 104.317 109.46 101.144C114.695 97.8859 120.831 96.0108 127.866 95.5188C130.096 95.3629 132.226 95.3635 134.257 95.5205L134.257 95.5202C136.815 95.7179 139.215 96.1638 141.458 96.8579C145.556 98.0175 148.863 99.9153 151.377 102.551ZM91.6911 59.3675C91.5569 57.4487 90.7303 56.5424 89.2113 56.6487C88.3319 56.7102 87.6747 57.0775 87.2397 57.7506L90.4347 103.441C90.9591 104.048 91.6611 104.32 92.5405 104.258C94.0595 104.152 94.752 103.14 94.6178 101.221L91.6911 59.3675ZM54.1038 111.282C55.6228 111.175 56.4494 112.082 56.5836 114L59.5103 155.854C59.6444 157.773 58.952 158.785 57.433 158.891C56.5535 158.953 55.8516 158.681 55.3272 158.074L52.1322 112.384C52.5671 111.71 53.2243 111.343 54.1038 111.282Z"/>
</mask>
<path fill-rule="evenodd" clip-rule="evenodd" d="M130.695 44.5891L130.284 38.7128C129.798 31.7572 131.848 26.0303 136.434 21.5319C141.015 16.9536 147.342 14.3821 155.417 13.8174C161.813 13.3702 167.102 14.326 171.284 16.6848C175.466 19.0435 177.705 22.3416 178.001 26.5789C178.253 30.1766 176.972 33.1182 174.16 35.4037C171.427 37.6837 167.582 38.9969 162.625 39.3436C157.908 39.6734 154.166 39.0112 151.399 37.3568C148.632 35.7025 147.137 33.2763 146.913 30.0784C146.746 27.6799 147.491 25.6996 149.149 24.1375C150.802 22.4955 153.147 21.5683 156.185 21.3558C156.334 21.1848 156.4 20.9793 156.383 20.7395C156.446 20.494 156.472 20.2914 156.461 20.1315C156.383 19.0122 155.504 18.5112 153.825 18.6286C150.707 18.8467 148.107 20.1532 146.025 22.5483C144.018 24.8579 143.123 27.5717 143.341 30.6897C143.749 36.526 147.649 40.5917 155.04 42.8867L171.349 41.7463C172.309 41.6792 172.816 42.0454 172.872 42.8449L173.023 45.0035C173.079 45.803 172.627 46.2363 171.668 46.3034L159.676 47.1419C160.605 47.8 161.258 48.5176 161.634 49.2947C162.004 49.9919 162.242 51.1 162.348 52.619L165.627 99.5091C165.722 100.868 165.472 101.89 164.877 102.574C164.357 103.173 163.337 103.526 161.818 103.632L156.587 103.998C155.829 102.659 154.883 101.409 153.752 100.254C150.776 97.1401 146.941 94.9808 142.397 93.689C139.763 92.8776 136.969 92.3833 134.024 92.1905L131.014 49.1462L122.979 49.708C122.02 49.7751 121.512 49.4089 121.456 48.6094L121.305 46.4508C121.249 45.6513 121.701 45.218 122.66 45.1509L130.695 44.5891ZM56.0563 39.2034L60.1204 97.323C61.6316 96.9622 63.2236 96.7261 64.8889 96.6096C72.9809 96.0438 79.7965 98.7417 84.9704 104.716C86.3094 106.242 87.483 107.925 88.4981 109.755C90.6541 109.904 92.9724 109.892 95.453 109.719C95.7295 109.699 96.0041 109.678 96.2768 109.655C99.0568 105.079 102.894 101.304 107.723 98.3334C112.163 95.5712 117.149 93.7443 122.638 92.8134C124.893 87.5911 125.764 81.3242 125.253 74.0125C124.593 64.5785 122.037 57.3258 117.585 52.2544C113.128 47.1029 107.341 44.776 100.226 45.2736C94.3896 45.6817 89.9099 47.6821 86.7869 51.2747L85.0342 26.2107C84.9392 24.8516 84.5523 23.9145 83.8736 23.3996C83.2692 22.7992 82.2075 22.5521 80.6885 22.6583L49.6283 24.8302C48.6689 24.8973 48.2172 25.3306 48.2731 26.1301L48.3737 27.5692C48.3961 27.889 48.4956 28.1632 48.6723 28.3919C48.7634 28.5462 49.1 28.7636 49.682 29.0443C51.93 30.1725 53.5069 31.4682 54.4126 32.9314C55.3127 34.3145 55.8606 36.4052 56.0563 39.2034ZM84.2871 109.22C84.2876 109.22 84.2881 109.22 84.2886 109.22C83.7249 108.397 83.1217 107.619 82.479 106.887C78.0214 101.736 72.2349 99.4088 65.1195 99.9064C64.6935 99.9362 64.2747 99.9745 63.8632 100.021C63.1447 100.103 62.4482 100.21 61.7737 100.344C57.5415 101.18 54.1767 103.035 51.6793 105.908L49.9267 80.8437C49.8316 79.4846 49.4448 78.5475 48.766 78.0326C48.1617 77.4322 47.1 77.185 45.5809 77.2913L14.5208 79.4632C13.5614 79.5303 13.1096 79.9636 13.1655 80.7631L13.2662 82.2022C13.2885 82.5219 13.3881 82.7962 13.5647 83.0248C13.6559 83.1792 13.9924 83.3966 14.5744 83.6773C16.8225 84.8055 18.3994 86.1012 19.3051 87.5643C20.2052 88.9475 20.7531 91.0382 20.9488 93.8364L25.8126 163.392C25.8629 164.112 25.9792 164.626 26.1615 164.934C26.4181 165.157 26.8262 165.249 27.3858 165.21L30.3839 165.001C30.9436 164.961 31.3377 164.854 31.5664 164.677C31.7895 164.42 31.9214 164.009 31.9622 163.444C32.4693 160.356 32.852 158.361 33.1103 157.459C33.443 156.472 33.9291 155.955 34.5687 155.911C38.3436 159.342 42.1658 161.726 46.0352 163.063C49.979 164.313 54.7491 164.743 60.3455 164.352C70.6589 163.63 78.3726 160.199 83.4866 154.057C88.6749 147.829 90.8945 139.359 90.1453 128.646C89.5809 120.573 87.6281 114.098 84.2871 109.22ZM151.377 102.551C151.912 103.097 152.397 103.667 152.83 104.26L152.828 104.26C154.422 106.446 155.318 108.953 155.516 111.782C155.823 116.18 154.521 119.966 151.61 123.142C148.773 126.233 144.957 127.946 140.16 128.281C135.683 128.595 131.784 127.421 128.465 124.761C125.22 122.015 123.45 118.524 123.153 114.286C122.935 111.168 123.836 108.535 125.854 106.385C127.873 104.235 130.562 103.043 133.92 102.808C134.131 102.392 134.223 101.984 134.195 101.584C134.117 100.464 133.239 99.9635 131.56 100.081C128.042 100.327 125.099 101.898 122.731 104.796C120.357 107.613 119.301 110.9 119.564 114.658C119.799 118.016 120.813 121.038 122.608 123.724C124.403 126.411 126.801 128.533 129.802 130.09C132.877 131.562 136.254 132.17 139.932 131.913C143.209 131.683 146.051 130.963 148.457 129.75C150.937 128.452 153.327 126.437 155.626 123.705C156.073 123.192 156.373 122.89 156.527 122.799C156.756 122.622 157.07 122.52 157.47 122.492L159.029 122.383C159.908 122.321 160.404 123.09 160.516 124.689C160.935 130.685 159.919 136.259 157.467 141.412C155.09 146.479 151.486 150.667 146.656 153.978C141.821 157.208 136.165 159.05 129.689 159.503C123.533 159.933 117.887 159.042 112.752 156.831C107.61 154.539 103.433 151.095 100.219 146.5C97.0057 141.904 95.178 136.448 94.7364 130.132C94.3115 124.056 95.3704 118.519 97.9131 113.521C100.45 108.442 104.299 104.317 109.46 101.144C114.695 97.8859 120.831 96.0108 127.866 95.5188C130.096 95.3629 132.226 95.3635 134.257 95.5205L134.257 95.5202C136.815 95.7179 139.215 96.1638 141.458 96.8579C145.556 98.0175 148.863 99.9153 151.377 102.551ZM91.6911 59.3675C91.5569 57.4487 90.7303 56.5424 89.2113 56.6487C88.3319 56.7102 87.6747 57.0775 87.2397 57.7506L90.4347 103.441C90.9591 104.048 91.6611 104.32 92.5405 104.258C94.0595 104.152 94.752 103.14 94.6178 101.221L91.6911 59.3675ZM54.1038 111.282C55.6228 111.175 56.4494 112.082 56.5836 114L59.5103 155.854C59.6444 157.773 58.952 158.785 57.433 158.891C56.5535 158.953 55.8516 158.681 55.3272 158.074L52.1322 112.384C52.5671 111.71 53.2243 111.343 54.1038 111.282Z" fill="#2EB77D"/>
<path d="M130.284 38.7128L140.26 38.0152L130.284 38.7128ZM130.695 44.5891L131.393 54.5647L141.368 53.8671L140.671 43.8915L130.695 44.5891ZM136.434 21.5319L143.436 28.671L143.47 28.638L143.503 28.6047L136.434 21.5319ZM171.284 16.6848L166.371 25.3948L166.371 25.3948L171.284 16.6848ZM174.16 35.4037L167.853 27.6428L167.803 27.6836L167.753 27.7251L174.16 35.4037ZM149.149 24.1375L156.006 31.4165L156.103 31.3252L156.197 31.2314L149.149 24.1375ZM156.185 21.3558L156.883 31.3315L161.015 31.0425L163.732 27.9166L156.185 21.3558ZM156.383 20.7395L146.699 18.2468L146.294 19.8183L146.408 21.437L156.383 20.7395ZM146.025 22.5483L153.572 29.1089L153.572 29.1089L146.025 22.5483ZM155.04 42.8867L152.074 52.4369L153.866 52.9932L155.737 52.8624L155.04 42.8867ZM172.872 42.8449L182.848 42.1474L182.848 42.1473L172.872 42.8449ZM173.023 45.0035L163.048 45.701L163.048 45.7011L173.023 45.0035ZM159.676 47.1419L158.978 37.1663L131.032 39.1205L153.898 55.3043L159.676 47.1419ZM161.634 49.2947L152.631 53.6472L152.713 53.8171L152.801 53.9837L161.634 49.2947ZM162.348 52.619L172.324 51.9215L162.348 52.619ZM165.627 99.5091L155.652 100.207L165.627 99.5091ZM164.877 102.574L157.33 96.0137L157.33 96.0138L164.877 102.574ZM161.818 103.632L162.516 113.607L161.818 103.632ZM156.587 103.998L147.885 108.926L150.993 114.413L157.284 113.973L156.587 103.998ZM153.752 100.254L146.523 107.163L146.565 107.207L146.606 107.249L153.752 100.254ZM142.397 93.689L139.453 103.246L139.557 103.278L139.662 103.308L142.397 93.689ZM134.024 92.1905L124.048 92.888L124.657 101.598L133.37 102.169L134.024 92.1905ZM131.014 49.1462L140.99 48.4486L140.292 38.473L130.316 39.1705L131.014 49.1462ZM60.1204 97.323L50.1448 98.0206L50.9678 109.79L62.443 107.05L60.1204 97.323ZM56.0563 39.2034L66.0319 38.5059L56.0563 39.2034ZM84.9704 104.716L77.4112 111.262L77.4317 111.286L77.4524 111.31L84.9704 104.716ZM88.4981 109.755L79.753 114.605L82.388 119.356L87.808 119.731L88.4981 109.755ZM96.2768 109.655L97.1253 119.619L102.186 119.188L104.823 114.847L96.2768 109.655ZM107.723 98.3334L112.962 106.851L112.984 106.838L113.005 106.825L107.723 98.3334ZM122.638 92.8134L124.31 102.673L129.666 101.764L131.819 96.7767L122.638 92.8134ZM117.585 52.2544L110.023 58.7978L110.047 58.8247L110.07 58.8515L117.585 52.2544ZM86.7869 51.2747L76.8112 51.9723L78.4953 76.0556L94.334 57.8353L86.7869 51.2747ZM85.0342 26.2107L75.0586 26.9083L75.0586 26.9083L85.0342 26.2107ZM83.8736 23.3996L76.8255 30.4936L77.2984 30.9635L77.8295 31.3664L83.8736 23.3996ZM48.2731 26.1301L58.2487 25.4325L48.2731 26.1301ZM48.3737 27.5692L38.3981 28.2667L48.3737 27.5692ZM48.6723 28.3919L57.2828 23.3068L56.9662 22.7706L56.5855 22.2779L48.6723 28.3919ZM49.682 29.0443L54.1675 20.1067L54.0968 20.0713L54.0256 20.037L49.682 29.0443ZM54.4126 32.9314L45.9099 38.1948L45.9694 38.2909L46.0311 38.3857L54.4126 32.9314ZM84.2886 109.22L82.4018 119.04L106.276 123.627L92.5392 103.57L84.2886 109.22ZM84.2871 109.22L86.1739 99.3994L62.2994 94.8124L76.0366 114.87L84.2871 109.22ZM82.479 106.887L74.917 113.431L74.9403 113.458L74.9639 113.484L82.479 106.887ZM63.8632 100.021L62.7345 90.0851L62.7344 90.0851L63.8632 100.021ZM61.7737 100.344L63.7128 110.154L63.7133 110.154L61.7737 100.344ZM51.6793 105.908L41.7037 106.605L43.3878 130.689L59.2264 112.468L51.6793 105.908ZM48.766 78.0326L41.7179 85.1266L42.1909 85.5965L42.722 85.9994L48.766 78.0326ZM13.5647 83.0248L22.1753 77.9397L21.8586 77.4036L21.478 76.9109L13.5647 83.0248ZM14.5744 83.6773L19.0599 74.7397L18.9893 74.7043L18.9181 74.6699L14.5744 83.6773ZM19.3051 87.5643L10.8024 92.8277L10.8619 92.9239L10.9236 93.0187L19.3051 87.5643ZM20.9488 93.8364L10.9732 94.534L20.9488 93.8364ZM25.8126 163.392L35.7882 162.695L25.8126 163.392ZM26.1615 164.934L17.5509 170.019L18.3761 171.417L19.6009 172.481L26.1615 164.934ZM31.5664 164.677L37.6804 172.59L38.4639 171.985L39.1135 171.237L31.5664 164.677ZM31.9622 163.444L22.0944 161.824L22.0209 162.271L21.9882 162.724L31.9622 163.444ZM33.1103 157.459L23.6338 154.266L23.5603 154.484L23.4969 154.705L33.1103 157.459ZM34.5687 155.911L41.2953 148.511L38.1336 145.637L33.8711 145.935L34.5687 155.911ZM46.0352 163.063L42.771 172.515L42.8912 172.556L43.0123 172.595L46.0352 163.063ZM83.4866 154.057L75.8035 147.656L75.8016 147.658L83.4866 154.057ZM152.83 104.26L153.527 114.236L171.563 112.975L160.909 98.3676L152.83 104.26ZM151.377 102.551L144.14 109.453L144.19 109.505L144.24 109.556L151.377 102.551ZM152.828 104.26L152.131 94.2848L134.095 95.546L144.749 110.153L152.828 104.26ZM151.61 123.142L158.977 129.904L158.982 129.899L151.61 123.142ZM128.465 124.761L122.006 132.395L122.107 132.481L122.211 132.564L128.465 124.761ZM125.854 106.385L133.144 113.231L133.144 113.231L125.854 106.385ZM133.92 102.808L134.617 112.784L140.265 112.389L142.832 107.342L133.92 102.808ZM122.731 104.796L130.378 111.239L130.426 111.182L130.473 111.125L122.731 104.796ZM122.608 123.724L114.293 129.279L114.293 129.279L122.608 123.724ZM129.802 130.09L125.195 138.966L125.339 139.041L125.484 139.11L129.802 130.09ZM148.457 129.75L152.958 138.68L153.027 138.645L153.095 138.61L148.457 129.75ZM155.626 123.705L148.079 117.144L148.027 117.204L147.976 117.265L155.626 123.705ZM156.527 122.799L161.612 131.409L162.148 131.092L162.641 130.712L156.527 122.799ZM157.47 122.492L156.772 112.516L157.47 122.492ZM159.029 122.383L159.726 132.358L159.029 122.383ZM157.467 141.412L148.437 137.115L148.426 137.14L148.414 137.164L157.467 141.412ZM146.656 153.978L152.211 162.293L152.261 162.26L152.31 162.226L146.656 153.978ZM112.752 156.831L108.68 165.964L108.738 165.99L108.796 166.015L112.752 156.831ZM100.219 146.5L92.0241 152.23L92.0241 152.23L100.219 146.5ZM97.9131 113.521L106.826 118.055L106.843 118.023L106.859 117.99L97.9131 113.521ZM109.46 101.144L114.697 109.663L114.721 109.649L114.744 109.634L109.46 101.144ZM134.257 95.5205L133.486 105.491L145.041 106.384L144.232 94.8229L134.257 95.5205ZM134.257 95.5202L135.027 85.55L123.473 84.6569L124.281 96.2178L134.257 95.5202ZM141.458 96.8579L138.502 106.411L138.619 106.447L138.736 106.48L141.458 96.8579ZM91.6911 59.3675L81.7155 60.0651L81.7155 60.0651L91.6911 59.3675ZM87.2397 57.7506L78.8406 52.3233L77.0315 55.123L77.2641 58.4482L87.2397 57.7506ZM90.4347 103.441L80.4591 104.139L80.6916 107.464L82.8727 109.985L90.4347 103.441ZM94.6178 101.221L104.593 100.523L104.593 100.523L94.6178 101.221ZM56.5836 114L46.608 114.698L56.5836 114ZM59.5103 155.854L69.4859 155.156L59.5103 155.854ZM55.3272 158.074L45.3516 158.772L45.5841 162.097L47.7653 164.618L55.3272 158.074ZM52.1322 112.384L43.7331 106.956L41.924 109.756L42.1565 113.081L52.1322 112.384ZM120.309 39.4104L120.72 45.2866L140.671 43.8915L140.26 38.0152L120.309 39.4104ZM129.432 14.3928C122.561 21.1323 119.638 29.8157 120.309 39.4104L140.26 38.0152C139.958 33.6988 141.135 30.9282 143.436 28.671L129.432 14.3928ZM154.72 3.84181C144.862 4.53112 136.044 7.78276 129.365 14.4591L143.503 28.6047C145.985 26.1244 149.823 24.2331 156.115 23.7931L154.72 3.84181ZM176.197 7.97476C169.824 4.38032 162.428 3.30278 154.72 3.84181L156.115 23.7931C161.198 23.4376 164.38 24.2716 166.371 25.3948L176.197 7.97476ZM187.977 25.8813C187.413 17.8104 182.858 11.7319 176.197 7.97475L166.371 25.3948C167.39 25.9693 167.733 26.4068 167.826 26.5444C167.889 26.6364 167.992 26.7994 168.026 27.2764L187.977 25.8813ZM180.466 43.1646C185.791 38.8375 188.457 32.747 187.977 25.8813L168.026 27.2764C168.041 27.4904 168.026 27.59 168.024 27.5997C168.024 27.6046 168.031 27.5597 168.061 27.4918C168.09 27.4241 168.116 27.3914 168.109 27.4011C168.098 27.4148 168.029 27.5003 167.853 27.6428L180.466 43.1646ZM163.323 49.3192C169.569 48.8824 175.692 47.1486 180.566 43.0824L167.753 27.7251C167.162 28.2188 165.595 29.1115 161.928 29.3679L163.323 49.3192ZM146.268 45.9397C151.434 49.0286 157.471 49.7284 163.323 49.3192L161.928 29.3679C158.345 29.6184 156.898 28.9937 156.531 28.774L146.268 45.9397ZM136.938 30.7759C137.391 37.2582 140.713 42.6184 146.268 45.9397L156.531 28.774C156.424 28.7101 156.422 28.6941 156.478 28.748C156.538 28.8054 156.628 28.907 156.716 29.0498C156.804 29.1927 156.856 29.3221 156.883 29.4093C156.908 29.4918 156.897 29.4926 156.889 29.3808L136.938 30.7759ZM142.292 16.8586C138.316 20.6047 136.574 25.5759 136.938 30.7759L156.889 29.3808C156.892 29.4205 156.904 29.7886 156.706 30.3166C156.501 30.8606 156.2 31.2342 156.006 31.4165L142.292 16.8586ZM155.488 11.3802C150.805 11.7077 145.922 13.247 142.101 17.0437L156.197 31.2314C156.101 31.3269 156.005 31.4009 155.925 31.4527C155.846 31.5034 155.805 31.5178 155.824 31.5102C155.871 31.4919 156.181 31.3806 156.883 31.3315L155.488 11.3802ZM146.408 21.437C146.337 20.4326 146.427 19.2557 146.825 18.0163C147.227 16.7649 147.87 15.6792 148.638 14.7951L163.732 27.9166C165.735 25.6129 166.548 22.7492 166.359 20.0419L146.408 21.437ZM146.486 20.829C146.435 20.1016 146.482 19.514 146.531 19.1308C146.582 18.7371 146.651 18.4344 146.699 18.2468L166.068 23.2321C166.262 22.4777 166.554 21.1029 166.437 19.4339L146.486 20.829ZM154.523 28.6043C154.42 28.6115 154.032 28.6329 153.452 28.5459C152.875 28.4595 151.896 28.2337 150.791 27.6035C149.615 26.9335 148.473 25.901 147.642 24.4931C146.834 23.1251 146.554 21.8021 146.486 20.829L166.437 19.4339C166.195 15.9683 164.396 12.3381 160.697 10.2291C157.745 8.54611 154.761 8.53882 153.128 8.653L154.523 28.6043ZM153.572 29.1089C153.837 28.8049 153.993 28.7247 154.027 28.7073C154.059 28.6914 154.186 28.6279 154.523 28.6043L153.128 8.653C147.319 9.0592 142.27 11.6255 138.478 15.9878L153.572 29.1089ZM153.317 29.9921C153.29 29.6063 153.341 29.4599 153.346 29.4473C153.348 29.4391 153.377 29.3334 153.572 29.1089L138.478 15.9878C134.689 20.3464 132.967 25.687 133.365 31.3873L153.317 29.9921ZM158.005 33.3366C155.35 32.5122 154.21 31.6334 153.789 31.1941C153.525 30.9189 153.364 30.6743 153.317 29.9921L133.365 31.3873C133.726 36.5414 135.719 41.2478 139.355 45.0383C142.833 48.6647 147.338 50.9662 152.074 52.4369L158.005 33.3366ZM170.652 31.7706L154.342 32.9111L155.737 52.8624L172.047 51.7219L170.652 31.7706ZM182.848 42.1473C182.676 39.6831 181.605 36.2446 178.3 33.8605C175.363 31.7423 172.271 31.6574 170.652 31.7706L172.047 51.7219C171.387 51.768 169.028 51.8327 166.599 50.0807C163.802 48.0628 163.013 45.2071 162.897 43.5424L182.848 42.1473ZM182.999 44.306L182.848 42.1474L162.897 43.5424L163.048 45.701L182.999 44.306ZM172.365 56.279C173.985 56.1658 177.035 55.6513 179.648 53.145C182.589 50.3241 183.171 46.77 182.999 44.3059L163.048 45.7011C162.931 44.0365 163.315 41.0988 165.804 38.7111C167.965 36.6382 170.31 36.3739 170.97 36.3277L172.365 56.279ZM160.373 57.1176L172.365 56.279L170.97 36.3277L158.978 37.1663L160.373 57.1176ZM170.637 44.9422C169.327 42.233 167.336 40.3126 165.453 38.9795L153.898 55.3043C153.875 55.2874 153.189 54.8021 152.631 53.6472L170.637 44.9422ZM172.324 51.9215C172.194 50.0645 171.854 47.2192 170.466 44.6057L152.801 53.9837C152.593 53.5915 152.474 53.2758 152.41 53.0877C152.345 52.8959 152.319 52.7753 152.313 52.75C152.306 52.7153 152.342 52.88 152.373 53.3166L172.324 51.9215ZM175.603 98.8116L172.324 51.9215L152.373 53.3166L155.652 100.207L175.603 98.8116ZM172.424 109.135C175.466 105.637 175.791 101.503 175.603 98.8116L155.652 100.207C155.647 100.142 155.616 99.659 155.797 98.9188C155.99 98.1303 156.427 97.053 157.33 96.0137L172.424 109.135ZM162.516 113.607C164.526 113.467 169.131 112.923 172.425 109.135L157.33 96.0138C158.56 94.5994 159.882 94.0347 160.455 93.8365C161.037 93.6353 161.333 93.6413 161.121 93.6562L162.516 113.607ZM157.284 113.973L162.516 113.607L161.121 93.6562L155.889 94.022L157.284 113.973ZM146.606 107.249C147.159 107.814 147.573 108.374 147.885 108.926L165.288 99.0696C164.084 96.944 162.607 95.004 160.898 93.2579L146.606 107.249ZM139.662 103.308C142.786 104.196 144.972 105.54 146.523 107.163L160.981 93.3441C156.581 88.7403 151.096 85.7658 145.131 84.0701L139.662 103.308ZM133.37 102.169C135.614 102.316 137.633 102.685 139.453 103.246L145.341 84.1322C141.893 83.07 138.324 82.4507 134.677 82.2119L133.37 102.169ZM121.038 49.8437L124.048 92.888L143.999 91.4929L140.99 48.4486L121.038 49.8437ZM123.677 59.6836L131.711 59.1218L130.316 39.1705L122.281 39.7324L123.677 59.6836ZM111.48 49.307C111.653 51.771 112.723 55.2095 116.028 57.5937C118.965 59.712 122.057 59.7969 123.677 59.6836L122.281 39.7324C122.941 39.6862 125.3 39.6216 127.729 41.3736C130.527 43.3916 131.315 46.2473 131.432 47.9118L111.48 49.307ZM111.33 47.1483L111.48 49.307L131.432 47.9118L131.281 45.7532L111.33 47.1483ZM121.963 35.1753C120.343 35.2885 117.293 35.803 114.68 38.3093C111.739 41.1302 111.157 44.6843 111.33 47.1483L131.281 45.7532C131.397 47.4177 131.013 50.3554 128.524 52.7431C126.363 54.8161 124.018 55.0804 123.358 55.1266L121.963 35.1753ZM129.998 34.6134L121.963 35.1753L123.358 55.1266L131.393 54.5647L129.998 34.6134ZM70.0961 96.6255L66.0319 38.5059L46.0807 39.901L50.1448 98.0206L70.0961 96.6255ZM64.1914 86.634C62.0319 86.785 59.8927 87.0963 57.7979 87.5965L62.443 107.05C63.3705 106.828 64.4152 106.667 65.5865 106.585L64.1914 86.634ZM92.5296 98.1692C85.1836 89.6869 75.2463 85.861 64.1914 86.634L65.5865 106.585C70.7156 106.227 74.4094 107.796 77.4112 111.262L92.5296 98.1692ZM97.2433 104.905C95.9011 102.485 94.3221 100.213 92.4884 98.1219L77.4524 111.31C78.2967 112.272 79.065 113.364 79.753 114.605L97.2433 104.905ZM94.7555 99.743C92.6696 99.8888 90.8195 99.8918 89.1883 99.7789L87.808 119.731C90.4886 119.917 93.2752 119.895 96.1506 119.694L94.7555 99.743ZM95.4283 99.6909C95.2064 99.7097 94.9821 99.7271 94.7555 99.743L96.1506 119.694C96.4768 119.671 96.8017 119.646 97.1253 119.619L95.4283 99.6909ZM102.484 89.8156C96.4094 93.552 91.3958 98.4301 87.7307 104.462L104.823 114.847C106.718 111.729 109.378 109.056 112.962 106.851L102.484 89.8156ZM120.966 82.9542C114.314 84.0823 108.081 86.3336 102.441 89.8421L113.005 106.825C116.245 104.809 119.985 103.406 124.31 102.673L120.966 82.9542ZM115.277 74.7101C115.708 80.8732 114.922 85.4576 113.457 88.8502L131.819 96.7767C134.864 89.7247 135.82 81.7752 135.228 73.315L115.277 74.7101ZM110.07 58.8515C112.6 61.733 114.71 66.6027 115.277 74.7101L135.228 73.315C134.476 62.5544 131.475 52.9186 125.101 45.6572L110.07 58.8515ZM100.923 55.2492C105.072 54.9591 107.736 56.1546 110.023 58.7978L125.147 45.7109C118.519 38.0512 109.611 34.5929 99.5283 35.2979L100.923 55.2492ZM94.334 57.8353C95.3351 56.6836 97.0893 55.5173 100.923 55.2492L99.5283 35.2979C91.6899 35.8461 84.4847 38.6805 79.2398 44.7142L94.334 57.8353ZM75.0586 26.9083L76.8112 51.9723L96.7625 50.5772L95.0098 25.5131L75.0586 26.9083ZM77.8295 31.3664C76.5047 30.3613 75.7852 29.166 75.4296 28.3049C75.0992 27.5045 75.062 26.9566 75.0586 26.9083L95.0098 25.5131C94.8321 22.9718 93.9678 18.5056 89.9176 15.4329L77.8295 31.3664ZM81.386 32.6339C81.5137 32.625 81.0969 32.6758 80.357 32.5036C79.5781 32.3223 78.1617 31.8212 76.8255 30.4936L90.9216 16.3057C87.1368 12.5453 82.2683 12.5234 79.9909 12.6826L81.386 32.6339ZM50.3259 34.8058L81.386 32.6339L79.9909 12.6826L48.9307 14.8546L50.3259 34.8058ZM58.2487 25.4325C58.3651 27.0971 57.9814 30.0348 55.4921 32.4224C53.3308 34.4954 50.9858 34.7597 50.3259 34.8058L48.9307 14.8546C47.3114 14.9678 44.2608 15.4823 41.6478 17.9886C38.7068 20.8095 38.1251 24.3636 38.2974 26.8276L58.2487 25.4325ZM58.3493 26.8716L58.2487 25.4325L38.2974 26.8276L38.3981 28.2667L58.3493 26.8716ZM56.5855 22.2779C57.7462 23.7802 58.2496 25.4458 58.3493 26.8716L38.3981 28.2667C38.5425 30.3321 39.245 32.5462 40.759 34.5058L56.5855 22.2779ZM54.0256 20.037C53.9119 19.9821 54.0958 20.062 54.4204 20.2717C54.585 20.3781 54.9311 20.6107 55.3472 20.9724C55.6909 21.2711 56.5365 22.043 57.2828 23.3068L40.0617 33.4769C41.4031 35.7483 43.3238 36.9134 43.5657 37.0697C44.2268 37.4969 44.87 37.8258 45.3383 38.0517L54.0256 20.037ZM62.9154 27.668C60.6859 24.0664 57.3509 21.7044 54.1675 20.1067L45.1965 37.9819C45.8033 38.2864 46.1022 38.5064 46.2022 38.5886C46.2958 38.6656 46.1311 38.5522 45.9099 38.1948L62.9154 27.668ZM66.0319 38.5059C65.7904 35.0523 65.0595 30.958 62.7941 27.477L46.0311 38.3857C45.7481 37.9507 45.7437 37.7603 45.8253 38.0718C45.9031 38.3686 46.0142 38.95 46.0807 39.901L66.0319 38.5059ZM86.1754 99.3997C86.1815 99.4008 86.1864 99.4018 86.1894 99.4024C86.1921 99.4029 86.1944 99.4033 86.1938 99.4032C86.1938 99.4032 86.1936 99.4032 86.1934 99.4031C86.1932 99.4031 86.1929 99.403 86.1924 99.4029C86.1916 99.4028 86.1903 99.4025 86.1886 99.4022C86.1854 99.4016 86.1803 99.4006 86.1739 99.3994L82.4003 119.04C82.3942 119.039 82.3893 119.038 82.3864 119.037C82.3837 119.037 82.3814 119.036 82.3819 119.037C82.3819 119.037 82.3821 119.037 82.3823 119.037C82.3825 119.037 82.3829 119.037 82.3833 119.037C82.3841 119.037 82.3855 119.037 82.3871 119.038C82.3903 119.038 82.3955 119.039 82.4018 119.04L86.1754 99.3997ZM74.9639 113.484C75.3365 113.909 75.6949 114.369 76.038 114.87L92.5392 103.57C91.7549 102.424 90.907 101.33 89.9941 100.29L74.9639 113.484ZM65.817 109.882C69.9655 109.592 72.6299 110.787 74.917 113.431L90.041 100.344C83.413 92.6841 74.5044 89.2257 64.4219 89.9308L65.817 109.882ZM64.9919 109.957C65.2558 109.927 65.5307 109.902 65.817 109.882L64.4219 89.9308C63.8562 89.9703 63.2936 90.0216 62.7345 90.0851L64.9919 109.957ZM63.7133 110.154C64.1059 110.076 64.5314 110.01 64.992 109.957L62.7344 90.0851C61.7579 90.1961 60.7905 90.3445 59.8342 90.5336L63.7133 110.154ZM59.2264 112.468C60.0752 111.492 61.3535 110.62 63.7128 110.154L59.8346 90.5335C53.7294 91.7402 48.2781 94.5779 44.1322 99.3471L59.2264 112.468ZM39.9511 81.5413L41.7037 106.605L61.655 105.21L59.9023 80.1461L39.9511 81.5413ZM42.722 85.9994C41.3972 84.9943 40.6776 83.799 40.3221 82.9379C39.9916 82.1375 39.9544 81.5896 39.9511 81.5413L59.9023 80.1461C59.7246 77.6048 58.8602 73.1385 54.81 70.0658L42.722 85.9994ZM46.2785 87.2669C46.4061 87.258 45.9894 87.3088 45.2495 87.1366C44.4706 86.9553 43.0542 86.4542 41.7179 85.1266L55.8141 70.9387C52.0293 67.1783 47.1608 67.1564 44.8834 67.3156L46.2785 87.2669ZM15.2183 89.4388L46.2785 87.2669L44.8834 67.3156L13.8232 69.4876L15.2183 89.4388ZM23.1412 80.0655C23.2576 81.7301 22.8739 84.6678 20.3846 87.0554C18.2233 89.1284 15.8783 89.3927 15.2183 89.4388L13.8232 69.4876C12.2039 69.6008 9.15328 70.1153 6.54029 72.6216C3.59922 75.4425 3.01761 78.9966 3.18991 81.4606L23.1412 80.0655ZM23.2418 81.5046L23.1412 80.0655L3.18991 81.4606L3.29054 82.8997L23.2418 81.5046ZM21.478 76.9109C22.6386 78.4132 23.1421 80.0788 23.2418 81.5046L3.29054 82.8997C3.43497 84.9651 4.13746 87.1792 5.65148 89.1388L21.478 76.9109ZM18.9181 74.6699C18.8044 74.6151 18.9883 74.6949 19.3129 74.9047C19.4775 75.0111 19.8236 75.2437 20.2397 75.6054C20.5833 75.9041 21.4289 76.6759 22.1753 77.9397L4.95419 88.11C6.29557 90.3813 8.21622 91.5464 8.45813 91.7027C9.11925 92.1299 9.76247 92.4588 10.2308 92.6847L18.9181 74.6699ZM27.8078 82.3009C25.5784 78.6994 22.2434 76.3374 19.0599 74.7397L10.0889 92.6149C10.6957 92.9194 10.9947 93.1394 11.0947 93.2216C11.1883 93.2985 11.0236 93.1852 10.8024 92.8277L27.8078 82.3009ZM30.9244 93.1389C30.6829 89.6853 29.9519 85.591 27.6866 82.11L10.9236 93.0187C10.6405 92.5837 10.6361 92.3933 10.7178 92.7048C10.7955 93.0015 10.9067 93.583 10.9732 94.534L30.9244 93.1389ZM35.7882 162.695L30.9244 93.1389L10.9732 94.534L15.837 164.09L35.7882 162.695ZM34.772 159.849C35.3944 160.903 35.6174 161.785 35.6911 162.111C35.7373 162.315 35.761 162.468 35.7727 162.555C35.7847 162.644 35.7881 162.693 35.7882 162.695L15.837 164.09C15.9073 165.096 16.1207 167.598 17.5509 170.019L34.772 159.849ZM26.6883 155.235C27.0711 155.208 27.8524 155.189 28.8583 155.415C29.9013 155.65 31.3451 156.19 32.722 157.387L19.6009 172.481C22.8254 175.284 26.5113 175.296 28.0834 175.186L26.6883 155.235ZM29.6864 155.025L26.6883 155.235L28.0834 175.186L31.0815 174.976L29.6864 155.025ZM25.4524 156.764C26.7053 155.796 27.879 155.404 28.4589 155.245C29.0822 155.075 29.5336 155.036 29.6864 155.025L31.0815 174.976C32.056 174.908 34.9958 174.664 37.6804 172.59L25.4524 156.764ZM21.9882 162.724C22.0084 162.444 22.0719 161.865 22.3115 161.119C22.5522 160.369 23.0378 159.245 24.0193 158.116L39.1135 171.237C41.4262 168.577 41.8341 165.578 41.9363 164.164L21.9882 162.724ZM23.4969 154.705C23.0477 156.274 22.5782 158.877 22.0944 161.824L41.8301 165.064C42.076 163.567 42.2824 162.392 42.4505 161.515C42.6347 160.555 42.7261 160.204 42.7237 160.212L23.4969 154.705ZM33.8711 145.935C26.9948 146.416 24.3584 152.115 23.6338 154.266L42.5869 160.652C42.4914 160.935 42.1001 162.024 41.0033 163.188C39.7201 164.55 37.7275 165.714 35.2663 165.886L33.8711 145.935ZM49.2994 153.61C46.9851 152.811 44.3064 151.249 41.2953 148.511L27.842 163.31C32.3808 167.436 37.3464 170.642 42.771 172.515L49.2994 153.61ZM59.6479 154.376C54.889 154.709 51.4562 154.291 49.0581 153.53L43.0123 172.595C48.5017 174.336 54.6091 174.777 61.0431 174.327L59.6479 154.376ZM75.8016 147.658C72.9054 151.137 68.0811 153.786 59.6479 154.376L61.0431 174.327C73.2367 173.475 83.8398 169.261 91.1715 160.455L75.8016 147.658ZM80.1697 129.343C80.799 138.343 78.8608 143.986 75.8035 147.656L91.1696 160.458C98.4889 151.672 100.99 140.374 100.121 127.948L80.1697 129.343ZM76.0366 114.87C78.0679 117.836 79.6855 122.418 80.1697 129.343L100.121 127.948C99.4762 118.728 97.1883 110.36 92.5376 103.569L76.0366 114.87ZM160.909 98.3676C160.178 97.3654 159.376 96.4258 158.514 95.547L144.24 109.556C144.449 109.769 144.616 109.969 144.75 110.153L160.909 98.3676ZM153.526 114.236L153.527 114.236L152.132 94.2847L152.131 94.2848L153.526 114.236ZM144.749 110.153C145.18 110.744 145.467 111.43 145.54 112.48L165.491 111.085C165.169 106.476 163.665 102.148 160.908 98.3676L144.749 110.153ZM145.54 112.48C145.661 114.212 145.248 115.284 144.238 116.386L158.982 129.899C163.795 124.648 165.985 118.147 165.491 111.085L145.54 112.48ZM144.243 116.38C143.391 117.309 142.108 118.121 139.462 118.306L140.857 138.257C147.805 137.771 154.156 135.157 158.977 129.904L144.243 116.38ZM139.462 118.306C137.341 118.454 135.961 117.953 134.719 116.958L122.211 132.564C127.608 136.889 134.024 138.735 140.857 138.257L139.462 118.306ZM134.924 117.127C133.738 116.123 133.237 115.132 133.129 113.589L113.178 114.984C113.662 121.915 116.703 127.907 122.006 132.395L134.924 117.127ZM133.129 113.589C133.115 113.386 133.124 113.266 133.13 113.217C133.135 113.17 133.139 113.172 133.127 113.207C133.115 113.243 133.098 113.277 133.086 113.297C133.075 113.316 133.085 113.293 133.144 113.231L118.565 99.5391C114.515 103.852 112.778 109.274 113.178 114.984L133.129 113.589ZM133.144 113.231C133.193 113.178 133.391 112.87 134.617 112.784L133.222 92.8325C127.733 93.2164 122.554 95.2919 118.565 99.5391L133.144 113.231ZM142.832 107.342C143.728 105.583 144.345 103.376 144.171 100.886L124.22 102.281C124.102 100.591 124.535 99.2007 125.007 98.2739L142.832 107.342ZM144.171 100.886C143.929 97.4206 142.13 93.7904 138.431 91.6814C135.479 89.9984 132.495 89.9911 130.862 90.1053L132.257 110.057C132.154 110.064 131.766 110.085 131.186 109.998C130.609 109.912 129.63 109.686 128.525 109.056C127.35 108.386 126.208 107.353 125.376 105.945C124.568 104.577 124.288 103.254 124.22 102.281L144.171 100.886ZM130.862 90.1053C124.411 90.5564 118.982 93.581 114.988 98.4667L130.473 111.125C131.216 110.216 131.673 110.097 132.257 110.057L130.862 90.1053ZM115.083 98.3519C110.993 103.206 109.149 109.07 109.588 115.355L129.54 113.96C129.454 112.73 129.72 112.02 130.378 111.239L115.083 98.3519ZM109.588 115.355C109.939 120.374 111.49 125.084 114.293 129.279L130.923 118.169C130.137 116.992 129.658 115.658 129.54 113.96L109.588 115.355ZM114.293 129.279C117.068 133.434 120.77 136.669 125.195 138.966L134.408 121.215C132.831 120.396 131.737 119.388 130.923 118.169L114.293 129.279ZM125.484 139.11C130.246 141.39 135.37 142.256 140.629 141.888L139.234 121.937C137.138 122.084 135.508 121.735 134.119 121.07L125.484 139.11ZM140.629 141.888C144.948 141.586 149.137 140.606 152.958 138.68L143.956 120.82C142.966 121.319 141.471 121.781 139.234 121.937L140.629 141.888ZM153.095 138.61C156.996 136.567 160.361 133.609 163.277 130.145L147.976 117.265C146.293 119.265 144.878 120.336 143.82 120.89L153.095 138.61ZM163.173 130.266C163.326 130.091 163.35 130.071 163.28 130.142C163.245 130.177 163.12 130.301 162.927 130.468C162.828 130.555 162.677 130.681 162.484 130.826C162.3 130.965 162.003 131.178 161.612 131.409L151.442 114.188C150.15 114.951 149.247 115.89 149.092 116.045C148.722 116.418 148.373 116.806 148.079 117.144L163.173 130.266ZM162.641 130.712C160.811 132.126 159.001 132.409 158.167 132.467L156.772 112.516C155.139 112.63 152.701 113.118 150.413 114.885L162.641 130.712ZM158.167 132.467L159.726 132.358L158.331 112.407L156.772 112.516L158.167 132.467ZM159.726 132.358C158.384 132.452 156.714 132.244 155.043 131.385C153.391 130.535 152.307 129.342 151.655 128.332C151.039 127.375 150.781 126.547 150.674 126.13C150.561 125.692 150.542 125.415 150.54 125.386L170.491 123.991C170.394 122.604 170.077 119.995 168.465 117.494C167.565 116.1 166.185 114.626 164.19 113.599C162.175 112.563 160.113 112.282 158.331 112.407L159.726 132.358ZM150.54 125.386C150.846 129.759 150.109 133.602 148.437 137.115L166.497 145.708C169.729 138.916 171.024 131.611 170.491 123.991L150.54 125.386ZM148.414 137.164C146.829 140.543 144.434 143.377 141.003 145.729L152.31 162.226C158.538 157.957 163.351 152.415 166.52 145.659L148.414 137.164ZM141.101 145.663C137.876 147.818 133.938 149.181 128.992 149.527L130.387 169.478C138.392 168.918 145.766 166.599 152.211 162.293L141.101 145.663ZM128.992 149.527C124.26 149.858 120.23 149.163 116.707 147.646L108.796 166.015C115.545 168.921 122.807 170.008 130.387 169.478L128.992 149.527ZM116.823 147.697C113.333 146.141 110.584 143.871 108.414 140.769L92.0241 152.23C96.2821 158.319 101.888 162.937 108.68 165.964L116.823 147.697ZM108.414 140.769C106.368 137.843 105.044 134.181 104.712 129.435L84.7607 130.83C85.3121 138.715 87.6428 145.965 92.0241 152.23L108.414 140.769ZM104.712 129.435C104.402 125.005 105.175 121.3 106.826 118.055L89.0002 108.986C85.5654 115.738 84.2207 123.107 84.7607 130.83L104.712 129.435ZM106.859 117.99C108.505 114.695 111.015 111.927 114.697 109.663L104.223 92.6253C97.5837 96.707 92.3953 102.19 88.9675 109.051L106.859 117.99ZM114.744 109.634C118.407 107.355 122.92 105.889 128.564 105.494L127.169 85.5432C118.742 86.1324 110.984 88.4173 104.176 92.6543L114.744 109.634ZM128.564 105.494C130.351 105.369 131.988 105.375 133.486 105.491L135.028 85.5503C132.464 85.352 129.841 85.3563 127.169 85.5432L128.564 105.494ZM124.281 96.2178L124.281 96.2181L144.232 94.8229L144.232 94.8227L124.281 96.2178ZM144.414 87.3049C141.398 86.3716 138.259 85.7998 135.027 85.55L133.486 105.49C135.37 105.636 137.032 105.956 138.502 106.411L144.414 87.3049ZM158.613 95.6497C154.669 91.5148 149.706 88.7989 144.181 87.2357L138.736 106.48C141.407 107.236 143.056 108.316 144.14 109.453L158.613 95.6497ZM89.9089 66.6243C88.4303 66.7277 85.7195 66.3308 83.5822 63.9875C81.8277 62.0639 81.7217 60.1534 81.7155 60.0651L101.667 58.6699C101.526 56.6628 100.94 53.3398 98.3589 50.5099C95.395 47.2603 91.5114 46.4634 88.5138 46.673L89.9089 66.6243ZM95.6387 63.1779C95.0288 64.1219 94.1261 65.0351 92.9376 65.6994C91.7796 66.3466 90.6884 66.5698 89.9089 66.6243L88.5138 46.673C84.8569 46.9287 81.1719 48.7155 78.8406 52.3233L95.6387 63.1779ZM100.41 102.744L97.2153 57.053L77.2641 58.4482L80.4591 104.139L100.41 102.744ZM91.8429 94.2827C92.6224 94.2282 93.7341 94.2973 94.9709 94.7771C96.2403 95.2695 97.2613 96.0482 97.9967 96.8981L82.8727 109.985C85.6834 113.233 89.5812 114.49 93.2381 114.234L91.8429 94.2827ZM84.6422 101.918C84.636 101.83 84.4751 99.9234 85.9448 97.7743C87.7351 95.1563 90.3643 94.3861 91.8429 94.2827L93.2381 114.234C96.2357 114.024 99.9706 112.695 102.453 109.064C104.616 105.903 104.734 102.53 104.593 100.523L84.6422 101.918ZM81.7155 60.0651L84.6422 101.918L104.593 100.523L101.667 58.6699L81.7155 60.0651ZM66.5592 113.303C66.4189 111.296 65.8325 107.973 63.2514 105.143C60.2874 101.893 56.4038 101.096 53.4062 101.306L54.8013 121.257C53.3228 121.361 50.612 120.964 48.4746 118.621C46.7201 116.697 46.6141 114.786 46.608 114.698L66.5592 113.303ZM69.4859 155.156L66.5592 113.303L46.608 114.698L49.5346 156.551L69.4859 155.156ZM58.1305 168.867C61.1282 168.657 64.8631 167.328 67.3459 163.697C69.508 160.536 69.6262 157.163 69.4859 155.156L49.5346 156.551C49.5284 156.463 49.3675 154.556 50.8372 152.407C52.6276 149.789 55.2568 149.019 56.7354 148.916L58.1305 168.867ZM47.7653 164.618C50.5759 167.866 54.4735 169.123 58.1305 168.867L56.7354 148.916C57.5149 148.861 58.6266 148.93 59.8634 149.41C61.1328 149.902 62.1538 150.681 62.8891 151.531L47.7653 164.618ZM42.1565 113.081L45.3516 158.772L65.3028 157.377L62.1078 111.686L42.1565 113.081ZM53.4062 101.306C49.7493 101.562 46.0644 103.349 43.7331 106.956L60.5312 117.811C59.9213 118.755 59.0186 119.668 57.83 120.332C56.672 120.98 55.5808 121.203 54.8013 121.257L53.4062 101.306Z" fill="white" mask="url(#path-1-outside-1_1143_20802)"/>
</g>
<defs>
<filter id="filter0_ddd_1143_20802" x="0.766387" y="0.11379" width="189.662" height="181.494" filterUnits="userSpaceOnUse" color-interpolation-filters="sRGB">
<feFlood flood-opacity="0" result="BackgroundImageFix"/>
<feColorMatrix in="SourceAlpha" type="matrix" values="0 0 0 0 0 0 0 0 0 0 0 0 0 0 0 0 0 0 127 0" result="hardAlpha"/>
<feOffset dy="-2"/>
<feGaussianBlur stdDeviation="0.798574"/>
<feColorMatrix type="matrix" values="0 0 0 0 0 0 0 0 0 0 0 0 0 0 0 0 0 0 0.03 0"/>
<feBlend mode="normal" in2="BackgroundImageFix" result="effect1_dropShadow_1143_20802"/>
<feColorMatrix in="SourceAlpha" type="matrix" values="0 0 0 0 0 0 0 0 0 0 0 0 0 0 0 0 0 0 127 0" result="hardAlpha"/>
<feOffset dy="3.99287"/>
<feGaussianBlur stdDeviation="1.19786"/>
<feColorMatrix type="matrix" values="0 0 0 0 0 0 0 0 0 0 0 0 0 0 0 0 0 0 0.12 0"/>
<feBlend mode="normal" in2="effect1_dropShadow_1143_20802" result="effect2_dropShadow_1143_20802"/>
<feColorMatrix in="SourceAlpha" type="matrix" values="0 0 0 0 0 0 0 0 0 0 0 0 0 0 0 0 0 0 127 0" result="hardAlpha"/>
<feOffset dy="1.59715"/>
<feGaussianBlur stdDeviation="1"/>
<feColorMatrix type="matrix" values="0 0 0 0 0 0 0 0 0 0 0 0 0 0 0 0 0 0 0.25 0"/>
<feBlend mode="normal" in2="effect2_dropShadow_1143_20802" result="effect3_dropShadow_1143_20802"/>
<feBlend mode="normal" in="SourceGraphic" in2="effect3_dropShadow_1143_20802" result="shape"/>
</filter>
</defs>
</svg>
