<svg width="499" height="408" viewBox="0 0 499 408" fill="none" xmlns="http://www.w3.org/2000/svg">
<g filter="url(#filter0_dd_1206_23382)">
<path d="M479.54 164.414C472.925 158.38 463.941 155.334 454.247 155.842L432.334 156.99C436.019 147.591 437.552 136.622 436.903 124.244C436.769 119.318 435.451 114.496 433.061 110.186C432.344 108.909 431.52 107.694 430.598 106.556C429.995 100.576 428.178 94.7819 425.258 89.5279C422.339 84.274 418.379 79.6707 413.62 75.9996C404.429 68.6656 392.937 65.0205 380.306 65.4412C379.461 58.3284 376.004 51.7829 370.607 47.074C366.732 43.6455 359.684 39.3928 349.041 39.9506L313.844 41.7952C298.73 42.5873 287.498 54.9279 288.283 69.8957L288.311 70.4339C286.735 70.4149 285.136 70.4352 283.522 70.5198C271.441 71.1529 260.48 74.3622 250.943 80.0554C247.494 82.0847 244.248 84.4405 241.249 87.0902C230.057 78.1533 215.47 74.0862 197.862 75.009C190.357 75.328 182.935 76.711 175.818 79.1166L175.802 78.8063C175.358 70.3347 171.839 62.9257 165.857 57.8045C161.995 54.3753 154.947 50.1227 144.303 50.6805L108.441 52.5599C104.483 52.7296 100.611 53.7704 97.1013 55.6081C93.5915 57.4459 90.5303 60.0354 88.136 63.192C87.6879 62.7583 87.2401 62.331 86.7614 61.918C82.8692 58.5221 75.8212 54.2695 65.1779 54.8273L29.9807 56.6719C14.8673 57.4639 3.63512 69.8045 4.41955 84.7723L4.50483 86.3995C4.75541 91.3339 6.35373 96.1052 9.12607 100.195C10.3028 101.941 11.6869 103.537 13.2481 104.95L17.1049 178.542C17.2166 180.868 17.5888 183.174 18.2144 185.417C17.5715 185.99 16.9552 186.587 16.3532 187.216C13.5078 190.215 11.3084 193.766 9.89122 197.649C8.47407 201.533 7.86937 205.666 8.11456 209.793L8.24265 212.237C8.42985 216.366 9.46313 220.412 11.2784 224.125C13.0937 227.838 15.6524 231.139 18.7958 233.822C19.2542 234.211 19.7246 234.586 20.2008 234.949L22.1715 272.552C22.2109 273.305 22.2498 274.046 22.3579 274.777L26.0524 345.273C26.1471 347.095 26.6004 348.882 27.3864 350.529C28.1724 352.176 29.2756 353.652 30.6329 354.873C31.9901 356.093 33.5748 357.034 35.2961 357.641C37.0175 358.248 38.8417 358.51 40.6642 358.411L62.4955 357.267C64.5231 357.468 66.5631 357.514 68.5977 357.404C70.5799 357.301 72.5511 357.045 74.4938 356.638L82.1803 356.235C82.8134 356.202 83.4073 355.919 83.8315 355.448C84.2557 354.977 84.4754 354.356 84.4422 353.723C94.8828 357.161 106.256 356.365 116.115 351.505C121.386 353.452 126.994 354.318 132.606 354.051C138.219 353.784 143.72 352.39 148.782 349.951C153.458 351.604 158.42 352.294 163.37 351.98L180.016 351.108C182.101 351.306 184.197 351.348 186.289 351.236C188.38 351.126 190.461 350.864 192.514 350.453L193.179 350.418L193.174 350.329C195.609 349.795 197.988 349.033 200.28 348.052C200.308 348.581 200.545 349.078 200.938 349.432C201.332 349.786 201.85 349.97 202.379 349.942L210.433 349.52C212.399 349.722 214.378 349.772 216.351 349.667C218.376 349.564 220.389 349.306 222.374 348.894L264.435 346.69C265.644 346.627 266.828 347.046 267.728 347.856C268.628 348.666 269.169 349.801 269.232 351.01C269.358 353.37 270.415 355.584 272.171 357.166C273.928 358.748 276.241 359.567 278.601 359.445L318.287 357.366C320.729 357.238 323.02 356.145 324.656 354.328C326.292 352.511 327.139 350.119 327.011 347.677L326.627 340.345C334.107 336.335 340.03 329.936 343.451 322.169C345.798 316.741 347.011 310.891 347.015 304.978C347.02 299.065 345.816 293.213 343.478 287.782L344.186 287.484C349.608 289.193 355.27 290.022 360.955 289.938C364.341 298.267 370.229 305.339 377.806 310.178L377.911 310.249L378.022 310.319C387.55 316.455 398.927 319.23 411.811 318.554C420.916 318.077 429.174 315.74 436.37 311.661C443.978 307.453 450.461 301.177 455.638 292.982C459.511 286.938 463 279.359 466.296 269.821C473.325 249.6 478.951 232.645 482.982 219.425C489.345 198.623 490.282 192.517 489.978 186.711C489.586 178.19 485.833 170.172 479.54 164.414Z" fill="white"/>
</g>
<path d="M109.726 82.6566C112.255 83.9759 114.026 85.4724 115.041 87.1461C116.03 88.7323 116.607 91.1104 116.773 94.2804L119.907 154.075C120.292 161.416 122.446 166.981 126.369 170.771C130.372 174.463 135.864 176.129 142.846 175.767C150.094 175.387 155.563 173.147 159.255 169.047C162.947 164.947 164.603 159.273 164.223 152.026C164.229 150.92 164.034 149.822 163.647 148.786C163.43 148.163 163.052 147.859 162.508 147.887L160.197 148.008C159.981 147.993 159.766 148.042 159.578 148.149C159.391 148.256 159.239 148.416 159.143 148.61C158.867 149.498 158.731 150.424 158.74 151.354C158.492 153.64 158.205 155.109 157.879 155.761C157.759 156.079 157.541 156.351 157.256 156.537C156.972 156.723 156.635 156.814 156.296 156.797C156.015 156.829 155.732 156.776 155.482 156.644C155.233 156.512 155.029 156.307 154.898 156.057C154.501 155.071 154.305 154.014 154.323 152.951L150.507 80.1385C150.426 78.5978 150.008 77.5298 149.253 76.9345C148.56 76.2259 147.352 75.9167 145.63 76.0069L109.768 77.8864C108.686 77.9431 108.165 78.4275 108.213 79.3329L108.298 80.9601C108.306 81.2976 108.419 81.6243 108.62 81.8956C108.927 82.2285 109.305 82.4885 109.726 82.6566V82.6566Z" fill="#2EB77D"/>
<path d="M315.161 71.89C317.68 73.2097 319.439 74.7069 320.437 76.3815C321.43 77.9675 322.01 80.3454 322.176 83.5154L326.191 160.127C326.343 163.027 327.96 164.396 331.041 164.234L355.487 162.953C357.12 162.868 358.282 162.489 358.97 161.818C359.662 161.05 359.966 159.897 359.881 158.361L358.494 131.895C358.123 125.891 358.776 119.867 360.424 114.081C362.122 108.447 364.526 104.089 367.636 101.005C370.561 98.0152 374.513 96.249 378.691 96.064C379.324 96.0007 379.959 96.1605 380.486 96.5159C380.749 96.6195 380.975 96.8003 381.133 97.0345C381.292 97.2686 381.376 97.5453 381.374 97.828C381.42 98.4187 381.258 99.0067 380.915 99.4901C374.845 99.8082 370.138 102.87 366.794 108.674C363.462 114.394 362.036 121.829 362.516 130.98C363.061 141.393 365.662 149.432 370.319 155.097C374.975 160.668 381.197 163.25 388.984 162.842C396.582 162.444 402.395 158.965 406.424 152.405C410.434 145.744 412.145 136.798 411.557 125.566C411.481 124.116 411.298 123.173 411.002 122.731C410.886 122.507 410.701 122.327 410.474 122.216C410.248 122.106 409.992 122.071 409.744 122.118L408.111 122.203C407.727 122.202 407.353 122.317 407.036 122.533C406.654 122.828 406.308 123.165 406.003 123.539C401.293 129.136 395.051 132.138 387.276 132.546C384.345 132.709 381.41 132.309 378.63 131.367C376.219 130.625 373.983 129.403 372.055 127.775C370.43 126.318 369.581 124.775 369.495 123.142C369.409 121.508 370.133 120.657 371.678 120.576C375.059 126.206 380.463 128.829 387.893 128.444C393.334 128.159 397.683 126.341 400.94 122.992C404.197 119.643 405.701 115.431 405.452 110.356C405.363 107.532 404.636 104.764 403.325 102.261C402.014 99.7579 400.153 97.5841 397.882 95.9026C393.237 92.1463 387.434 90.4505 380.473 90.8153C375.471 91.0103 370.611 92.5361 366.394 95.2355C362.352 97.9035 359.148 101.662 357.153 106.075L355.231 69.3837C355.15 67.843 354.73 66.7751 353.971 66.18C353.291 65.4876 352.09 65.1866 350.368 65.2768L315.171 67.1214C314.082 67.1785 313.561 67.6629 313.609 68.5683L313.694 70.1955C313.705 70.5335 313.82 70.86 314.022 71.1306C314.339 71.4668 314.728 71.7265 315.161 71.89V71.89Z" fill="#2EB77D"/>
<path d="M385.738 232.305C385.385 231.317 384.722 230.469 383.849 229.888C382.975 229.307 381.937 229.024 380.889 229.08L378.578 229.201C377.777 229.237 376.995 229.452 376.288 229.829L375.812 220.762C375.188 208.84 371.233 199.765 364.07 193.804C357.061 187.88 347.15 185.206 334.613 185.863C324.236 186.407 315.797 188.931 309.565 193.334C302.733 198.047 299.469 204.218 299.859 211.664C300.156 217.331 302.49 221.894 306.845 225.266C308.64 226.603 310.65 227.627 312.787 228.294C309.405 229.37 306.281 231.134 303.612 233.473C302.287 234.676 301.169 236.088 300.301 237.653C300.214 237.369 300.11 237.09 299.99 236.818C299.637 235.83 298.975 234.982 298.101 234.401C297.228 233.82 296.19 233.536 295.142 233.593L292.831 233.714C292.03 233.75 291.247 233.964 290.54 234.342L287.137 169.412C287.115 168.988 287.094 168.583 287.01 168.193C293.387 167.777 299.559 165.773 304.964 162.364C310.314 158.915 314.628 154.082 317.45 148.377C320.337 142.527 321.64 136.023 321.229 129.513C321.134 127.702 320.589 126.822 319.592 126.875L317.826 126.967C317.443 126.966 317.068 127.081 316.751 127.297C316.365 127.589 316.016 127.927 315.712 128.303C313.43 131.051 310.633 133.326 307.479 135.001C304.429 136.383 301.134 137.143 297.787 137.236C293.844 137.499 289.902 136.72 286.355 134.978C283.103 133.251 280.347 130.72 278.351 127.626C276.369 124.534 275.243 120.972 275.086 117.303C274.945 115.297 275.207 113.283 275.857 111.38C276.506 109.478 277.53 107.724 278.867 106.223C280.085 104.696 281.615 103.446 283.354 102.557C285.093 101.668 287.001 101.159 288.952 101.066C290.856 100.966 291.841 101.549 291.907 102.815C291.922 103.298 291.807 103.775 291.573 104.198C287.774 104.397 284.708 105.692 282.374 108.083C281.229 109.246 280.35 110.643 279.794 112.178C279.239 113.712 279.022 115.349 279.158 116.975C279.242 119.263 279.802 121.508 280.802 123.568C281.802 125.627 283.22 127.456 284.965 128.937C288.639 132 293.362 133.511 298.132 133.148C303.564 132.864 307.911 131.002 311.172 127.564C312.806 125.883 314.065 123.874 314.866 121.671C315.666 119.467 315.99 117.119 315.816 114.781C315.665 110.828 314.062 107.069 311.313 104.224C308.522 101.195 304.808 98.9839 300.173 97.5888C295.217 96.049 290.018 95.4431 284.841 95.8019C276.872 96.2195 269.892 98.2213 263.9 101.807C258.243 105.039 253.626 109.819 250.591 115.583C247.585 121.358 246.236 127.852 246.692 134.346C247.068 141.522 249.027 147.734 252.57 152.983C255.118 156.798 258.419 160.052 262.27 162.544L243.276 163.54C246.233 159.478 247.541 154.144 247.199 147.538C247.202 146.478 247.009 145.427 246.63 144.438C246.413 143.814 246.035 143.51 245.491 143.539L243.18 143.66C242.964 143.645 242.748 143.694 242.559 143.801C242.37 143.908 242.217 144.068 242.119 144.261C241.851 145.151 241.717 146.076 241.724 147.006C241.683 148.456 241.436 149.893 240.988 151.273C240.855 151.618 240.62 151.915 240.315 152.124C240.01 152.334 239.649 152.447 239.279 152.448C238.998 152.481 238.715 152.427 238.465 152.295C238.216 152.163 238.012 151.959 237.881 151.708C237.484 150.722 237.288 149.666 237.306 148.602L236.416 131.615C235.846 120.741 232.379 112.657 226.015 107.361C219.731 102.061 210.791 99.7123 199.196 100.316C189.487 100.825 181.795 103.09 176.118 107.112C170.419 111.043 167.73 116.051 168.049 122.138C168.286 126.663 170.107 130.245 173.513 132.886C176.914 135.433 181.38 136.562 186.909 136.273C192.346 135.988 196.707 134.396 199.992 131.498C203.382 128.595 204.968 125.06 204.75 120.894C204.715 119.262 204.328 117.657 203.615 116.189C202.903 114.721 201.882 113.424 200.622 112.387C198.059 110.252 194.874 109.285 191.067 109.484C190.788 109.09 190.623 108.626 190.59 108.144C190.524 106.878 191.443 106.195 193.346 106.095C195.296 105.984 197.248 106.291 199.07 106.993C200.892 107.696 202.544 108.779 203.915 110.17C205.398 111.507 206.597 113.129 207.441 114.939C208.285 116.749 208.757 118.71 208.829 120.705C209.375 131.127 201.369 137.86 184.809 140.903C178.335 142.152 173.574 144.173 170.524 146.966C167.571 149.66 166.214 153.23 166.451 157.674C166.541 160.142 167.205 162.554 168.388 164.721C165.89 165.531 163.571 166.815 161.558 168.502C159.695 170.122 158.226 172.146 157.262 174.419C156.297 176.692 155.863 179.155 155.993 181.621C156.122 184.087 156.811 186.491 158.008 188.651C159.204 190.811 160.877 192.67 162.899 194.087L162.958 194.122C164.329 195.028 165.81 195.757 167.363 196.291L156.005 196.887C153.554 197.015 151.74 198.38 151.107 200.35C146.323 197.388 140.603 196.056 134.056 196.399C129.664 196.556 125.354 197.631 121.403 199.557C118.914 200.763 116.622 202.341 114.607 204.237C110.965 201.253 105.936 199.771 99.5984 199.875L99.6714 199.814C101.68 198.294 103.276 196.295 104.311 193.999C105.347 191.703 105.789 189.183 105.598 186.672C105.49 184.316 104.884 182.01 103.822 179.905C102.76 177.799 101.265 175.942 99.4345 174.456C102.646 172.771 105.514 170.499 107.889 167.759C113.875 160.817 116.549 151.274 115.913 139.13C115.352 128.442 112.604 120.184 107.668 114.357C102.724 108.44 96.2306 105.691 88.1893 106.108C81.5707 106.455 76.4615 108.627 72.8617 112.625L71.3751 84.2599C71.2945 82.7214 70.8702 81.6516 70.1152 81.0563C69.3602 80.4609 68.2283 80.0631 66.5061 80.1534L31.3089 81.998C30.2199 82.0551 29.6993 82.5395 29.7467 83.4449L29.832 85.0721C29.8438 85.409 29.9559 85.7348 30.154 86.0076C30.4718 86.3399 30.858 86.5991 31.2859 86.7672C33.8057 88.087 35.5645 89.5842 36.5623 91.2588C37.5512 92.845 38.1309 95.223 38.3012 98.3928L42.4321 177.214C42.4265 177.818 42.5509 178.415 42.7969 178.967C43.1955 179.251 43.6885 179.371 44.1731 179.301L47.5732 179.123C48.0454 179.136 48.512 179.017 48.9202 178.779C49.2171 178.376 49.3804 177.89 49.387 177.39C50.0214 173.907 50.494 171.658 50.8048 170.642C51.2036 169.53 51.7639 168.954 52.4857 168.916C54.1761 170.509 55.9824 171.974 57.8898 173.3C55.847 174.503 53.9515 175.941 52.2415 177.583C46.139 183.375 43.3131 190.876 43.785 199.879L43.935 202.741L38.5974 203.021C35.4317 203.187 33.2825 205.426 33.4417 208.465L33.5698 210.909C33.7291 213.948 36.0753 215.952 39.2664 215.785L44.6039 215.505L47.524 271.223C47.654 273.705 48.3911 275.654 49.7327 277.025L49.9073 277.206L50.1125 277.367C51.6288 278.557 53.6817 279.084 56.379 278.943L82.1421 277.593C84.9407 277.446 86.9443 276.668 88.2516 275.203C89.5588 273.737 90.2711 271.58 90.1361 269.003L87.3507 215.855C87.31 214.992 87.2162 214.132 87.0697 213.28L88.2917 213.216C89.2109 213.774 89.9977 214.526 90.5975 215.419L90.6459 215.492C91.006 216.064 91.6348 217.523 91.8067 220.803L94.3206 268.771C94.584 273.798 97.8184 276.758 102.757 276.5L130.344 275.054C135.536 274.782 138.601 271.491 138.338 266.464L137.084 242.549C137.047 241.317 136.831 240.096 136.444 238.926C137.775 239.024 139.112 239.037 140.445 238.964C146.777 238.632 151.984 236.588 155.998 232.854C157.597 231.333 158.919 229.545 159.905 227.57L160.997 248.407C161.431 256.701 163.993 263.176 168.614 267.639L168.674 267.699C173.45 272.096 179.923 274.094 187.933 273.674C196.164 273.242 202.594 270.556 206.967 265.692C209.752 262.539 211.616 258.681 212.357 254.54C213.407 256.788 214.689 258.919 216.183 260.898C221.836 268.1 229.392 271.501 238.629 271.017C246.227 270.619 252.41 267.438 256.689 261.753C261.67 267.016 268.375 269.458 276.682 269.023C284.704 268.602 290.899 265.909 295.1 261.016C297.062 258.717 298.545 256.049 299.463 253.169C300.751 256.741 303.107 259.83 306.212 262.015C310.885 265.402 316.863 266.936 323.974 266.563C329.096 266.295 333.451 264.962 336.872 262.637C339.017 261.197 340.897 259.398 342.428 257.317C347.363 262.557 354.066 264.961 362.43 264.522C370.452 264.102 376.647 261.409 380.848 256.516C385.048 251.623 387.028 244.936 386.597 236.705C386.584 235.198 386.293 233.706 385.738 232.305V232.305ZM198.809 145.033C198.714 143.222 199.437 142.276 200.978 142.195C201.4 142.161 201.825 142.232 202.213 142.401C202.602 142.57 202.943 142.832 203.206 143.164L203.833 155.125C203.608 155.484 203.296 155.782 202.927 155.992C202.558 156.202 202.143 156.317 201.718 156.327C200.182 156.408 199.364 155.543 199.265 153.732L198.809 145.033ZM163.589 181.201C163.465 179.892 163.668 178.572 164.178 177.36C164.688 176.148 165.491 175.081 166.513 174.254C168.579 172.483 171.442 171.38 175.116 170.972C178.598 172.804 182.812 173.616 187.757 173.408C188.79 174.153 189.637 175.127 190.233 176.253C190.829 177.379 191.157 178.627 191.193 179.901C191.228 181.174 190.97 182.439 190.437 183.596C189.905 184.754 189.113 185.773 188.123 186.575C185.747 188.604 182.285 189.77 177.821 190.004C173.357 190.238 169.775 189.492 167.197 187.786C166.101 187.07 165.198 186.094 164.569 184.945C163.939 183.797 163.603 182.511 163.589 181.201V181.201ZM92.4712 178.846C96.0607 180.95 97.7982 183.576 97.9827 187.096C98.1009 188.392 97.8782 189.697 97.3366 190.88C96.7949 192.063 95.9533 193.084 94.8951 193.842C92.4051 195.877 88.7109 196.985 83.9495 197.234C79.4161 197.472 75.8973 196.837 73.4887 195.338C72.5429 194.813 71.7538 194.046 71.2019 193.116C70.65 192.185 70.3552 191.125 70.3478 190.043C70.2693 189.363 70.3564 188.675 70.6015 188.036C70.8466 187.398 71.2426 186.828 71.7555 186.376L71.8278 186.302C73.0368 185.14 74.907 184.484 77.4396 184.351L79.0099 184.268L80.0658 183.096C80.7434 182.344 81.1611 181.394 81.2571 180.386C81.3564 179.925 81.3957 179.454 81.374 178.983L81.5197 178.975C84.4901 178.828 87.4427 178.429 90.3457 177.783C91.0761 178.091 91.7861 178.446 92.4712 178.846ZM73.2482 120.002C73.4955 119.63 73.8305 119.325 74.2237 119.114C74.6168 118.903 75.0559 118.792 75.5022 118.791C77.2159 118.702 78.1319 119.744 78.25 121.917L80.6723 168.138C79.2667 168.091 77.8072 168.104 76.3129 168.182L75.7747 168.21L73.2482 120.002ZM82.5755 269.386C82.5931 269.557 82.6021 269.728 82.6024 269.899C82.339 269.942 82.0733 269.969 81.8066 269.979L55.9422 271.334C55.6759 271.352 55.4088 271.353 55.1424 271.338C55.1351 271.199 55.1261 271.028 55.1155 270.825L51.3765 199.481C51.0215 192.706 53.0191 187.332 57.5017 183.097C59.0542 181.605 60.8087 180.337 62.7137 179.332C61.2963 180.916 60.2102 182.767 59.5195 184.777C58.8289 186.787 58.5476 188.914 58.6923 191.035C59.1309 199.405 64.6063 204.178 70.3164 206.888L78.4003 212.858C78.8031 213.109 79.1375 213.456 79.3738 213.867L79.4308 213.985C79.6679 214.713 79.7829 215.475 79.7712 216.24L82.5755 269.386ZM130.778 266.86C130.786 267.021 130.784 267.182 130.771 267.343C130.513 267.408 130.249 267.445 129.983 267.454L102.378 268.901C102.252 268.915 102.125 268.922 101.998 268.921C101.965 268.746 101.945 268.568 101.938 268.39L99.4235 220.404C99.2364 216.833 98.5725 214.099 97.407 211.97C98.1431 211.484 98.7351 210.809 99.1213 210.016C99.5074 209.223 99.6736 208.341 99.6024 207.461C105.399 207.348 109.267 208.815 111.404 211.922L114.087 215.864C113.524 217.942 113.302 220.098 113.431 222.247C113.6 226.49 115.11 230.569 117.743 233.9L117.831 234.01C120.738 237.286 124.443 239.754 128.587 241.173C128.824 241.253 129.053 241.355 129.27 241.48L129.325 241.559C129.433 242.01 129.493 242.471 129.505 242.934L130.778 266.86ZM150.775 227.337C148.137 229.806 144.625 231.126 140.085 231.364C135.546 231.602 131.982 230.716 129.152 228.699C127.958 227.908 126.97 226.842 126.273 225.591C125.575 224.339 125.188 222.938 125.144 221.506C125.036 220.405 125.171 219.293 125.541 218.25C125.911 217.207 126.506 216.258 127.285 215.471C128.935 213.771 131.117 212.876 133.953 212.727L136.112 212.614L137.117 210.708C137.679 209.682 137.947 208.521 137.894 207.353C137.839 206.096 137.364 204.894 136.546 203.938C141.319 204.018 145.258 205.278 148.532 207.786C150.23 209.017 151.622 210.622 152.6 212.478C153.578 214.334 154.116 216.39 154.172 218.487C154.309 220.124 154.073 221.772 153.482 223.305C152.89 224.838 151.958 226.217 150.756 227.338L150.775 227.337ZM201.33 260.61C198.33 263.942 193.809 265.747 187.553 266.075C181.608 266.386 177.134 265.091 173.886 262.112C170.715 259.028 168.942 254.276 168.612 247.983L166.981 216.863C166.78 213.026 166.03 210.107 164.692 207.948C163.794 206.504 162.639 205.237 161.283 204.21L192.264 202.586C192.531 202.57 192.798 202.573 193.064 202.595C193.082 202.761 193.091 202.928 193.09 203.095L195.405 247.258C195.523 249.512 195.839 250.936 196.469 252.046C196.95 252.91 197.667 253.618 198.536 254.09C199.405 254.561 200.39 254.776 201.376 254.71C202.656 254.664 203.882 254.185 204.854 253.353C204.346 256.046 203.122 258.553 201.311 260.611L201.33 260.61ZM207.332 232.056C207.443 234.189 207.627 236.237 207.883 238.217C207.672 238.197 207.459 238.191 207.247 238.199L204.936 238.321C204.135 238.356 203.353 238.571 202.645 238.948L200.745 202.694C200.611 200.123 199.765 198.161 198.23 196.858C196.695 195.554 194.639 194.843 191.897 194.987L188.795 195.149C190.344 194.422 191.79 193.493 193.094 192.384C195.026 190.839 196.557 188.85 197.557 186.588C198.557 184.325 198.996 181.854 198.838 179.385C198.728 176.635 197.902 173.96 196.444 171.625C197.416 171.211 198.346 170.705 199.222 170.115C202.204 168.143 204.636 165.154 206.517 161.149C210.811 168.466 217.532 171.885 226.679 171.406C231.17 171.17 234.942 170.16 237.993 168.375C238.004 168.584 237.977 168.801 237.988 169.01L238.074 170.644C238.108 171.372 238.257 172.091 238.515 172.773L238.845 173.613L239.511 174.213C240.133 174.735 240.822 175.171 241.56 175.508C243.408 176.478 244.714 177.54 245.333 178.574L245.375 178.648C245.736 179.226 246.371 180.678 246.543 183.958L247.007 192.822C243.146 191.394 239.024 190.807 234.917 191.1C225.515 191.593 218.275 195.668 213.388 203.206C208.708 210.353 206.684 220.058 207.313 232.057L207.332 232.056ZM238.219 263.42C231.501 263.772 226.247 261.412 222.192 256.247C217.903 250.605 215.445 242.335 214.885 231.66C214.342 221.295 215.958 213.115 219.699 207.345C223.223 201.891 228.312 199.059 235.239 198.696C240.817 198.403 245.103 199.62 248.335 202.409C245.549 202.79 242.655 204.885 242.91 209.747L244.883 247.395C245.185 253.157 249.443 254.571 252.55 254.015C249.554 260.07 244.981 263.065 238.219 263.42ZM289.317 256.063C286.488 259.385 282.217 261.114 276.265 261.426C268.667 261.824 263.196 259.069 259.564 253.012L257.518 249.59L254.057 183.545C253.856 179.708 253.106 176.789 251.768 174.637C250.872 173.189 249.716 171.92 248.359 170.892L278.662 169.304C278.927 169.287 279.192 169.291 279.456 169.313C279.477 169.479 279.486 169.646 279.482 169.813L283.298 242.626C283.416 244.874 283.739 246.304 284.362 247.408C284.842 248.273 285.559 248.984 286.428 249.456C287.297 249.929 288.283 250.145 289.27 250.078C290.545 250.029 291.768 249.554 292.742 248.728C292.255 251.423 291.084 253.948 289.342 256.061L289.317 256.063ZM332.622 256.294C330.324 257.862 327.278 258.752 323.562 258.947C318.231 259.226 313.897 258.184 310.668 255.813C309.22 254.789 308.035 253.436 307.209 251.867C306.383 250.297 305.939 248.554 305.915 246.78C305.741 243.463 306.649 241.028 308.768 239.075C311.258 236.78 315.434 235.056 321.142 233.983C324.541 233.386 327.884 232.508 331.138 231.357C330.733 232.393 330.563 233.506 330.642 234.615L331.098 243.315C331.334 247.816 334.51 249.669 337.549 249.51C337.835 249.494 338.119 249.462 338.401 249.414C337.129 252.178 335.143 254.552 332.648 256.293L332.622 256.294ZM333.09 217.979C330.426 220.316 326.898 221.574 322.295 221.815C317.692 222.056 314.039 221.168 311.429 219.21C308.818 217.252 307.613 214.718 307.432 211.267C307.182 206.506 309.222 202.793 313.898 199.57C316.594 197.719 319.574 196.321 322.722 195.432C322.467 196.151 322.358 196.915 322.401 197.677C322.468 198.845 322.857 199.971 323.524 200.932L324.723 202.723L326.876 202.61C329.719 202.461 331.982 203.124 333.801 204.641C334.657 205.343 335.348 206.224 335.825 207.223C336.302 208.222 336.553 209.313 336.561 210.42C336.743 213.414 335.65 215.807 333.116 217.978L333.09 217.979ZM375.065 251.569C372.236 254.891 367.965 256.62 362.013 256.932C354.333 257.334 348.875 254.592 345.333 248.549L343.243 245.014L342.513 231.085L341.701 230.112C340.814 229.032 339.599 228.271 338.241 227.944C346.638 222.691 348.519 215.685 348.213 209.841C348.118 207.371 347.531 204.944 346.487 202.703C345.443 200.461 343.962 198.451 342.132 196.789C340.737 195.433 339.144 194.297 337.409 193.418C346.767 193.289 354.064 195.383 359.133 199.669C364.696 204.298 367.649 211.343 368.165 221.195L369.056 238.183C369.172 240.399 369.503 241.873 370.119 242.971C370.602 243.834 371.319 244.542 372.188 245.013C373.056 245.485 374.041 245.7 375.027 245.634C376.303 245.585 377.525 245.11 378.499 244.284C378.004 246.963 376.83 249.471 375.09 251.567L375.065 251.569Z" fill="#2EB77D"/>
<path d="M455.575 181.168L417.117 183.183C414.236 183.334 412.225 185.173 411.979 187.764C410.317 186.681 408.483 185.888 406.555 185.419C403.166 184.467 398.306 184.169 391.708 184.515L370.511 185.626C367.345 185.792 365.189 188.032 365.349 191.071L365.434 192.698C365.495 193.857 366.028 196.032 368.862 197.534C370.142 198.175 371.331 198.984 372.397 199.939L372.531 200.065C373.209 200.709 373.735 201.498 374.067 202.372L394.218 249.003C395.673 252.526 397.001 254.723 398.474 256.062C394.975 256.852 391.721 258.485 388.997 260.819C387.03 262.478 385.482 264.577 384.476 266.946C383.471 269.315 383.037 271.887 383.21 274.455C383.532 280.603 386.372 285.476 391.691 288.962C396.677 292.161 402.999 293.582 410.483 293.19C415.208 293.047 419.831 291.781 423.971 289.499C427.873 287.389 431.337 283.945 434.231 279.323C437.026 274.987 439.672 269.153 442.318 261.484C449.248 241.554 454.762 224.897 458.713 211.98C464.137 194.331 464.74 189.963 464.638 188.02C464.466 184.499 461.988 180.832 455.575 181.168ZM416.876 275.014L416.737 275.148C415.6 276.224 413.715 276.843 411.119 276.979L408.776 277.102L407.835 279.253C407.432 280.185 407.254 281.199 407.317 282.213C407.378 283.497 407.892 284.719 408.767 285.661C403.503 285.759 399.151 284.73 395.833 282.605C392.516 280.481 391.009 277.779 390.815 274.081C390.691 272.662 390.916 271.234 391.471 269.922C392.027 268.61 392.896 267.454 394.002 266.556C396.583 264.313 400.03 263.104 404.545 262.867C408.654 262.652 412.045 263.407 414.623 265.107C415.678 265.764 416.555 266.669 417.179 267.743C417.803 268.817 418.155 270.027 418.203 271.268C418.313 273.485 417.557 274.445 416.876 275.014V275.014ZM451.457 209.814C447.533 222.641 442.045 239.201 435.143 259.054C433.696 263.399 431.936 267.633 429.877 271.723C429.891 271.259 429.879 270.784 429.853 270.296C429.776 267.782 429.166 265.313 428.062 263.052C426.958 260.792 425.387 258.792 423.452 257.184C419.764 254.172 414.623 252.251 408.131 251.461C404.522 251.053 403.634 250.465 403.632 250.427C403.63 250.389 402.76 249.653 401.276 246.049L381.082 199.44C380.326 197.553 379.164 195.856 377.678 194.469C377.117 193.923 376.515 193.42 375.879 192.963L392.107 192.113C399.217 191.74 402.787 192.258 404.526 192.732L404.661 192.763C406.673 193.194 408.474 194.312 409.753 195.924L409.808 196.004C411.396 197.952 413.031 201.048 414.658 205.191L430.064 244.756L430.73 245.356C431.323 245.899 432.019 246.318 432.777 246.587C433.535 246.856 434.339 246.97 435.142 246.921C438.631 246.739 440.845 244.159 440.653 240.506C440.581 239.132 440.097 237.392 439.088 234.874L424.917 198.158C423.452 194.425 422.278 192.024 421.089 190.537L455.951 188.71C456.307 188.688 456.664 188.694 457.018 188.73C456.924 190.075 456.112 194.568 451.457 209.814Z" fill="#2EB77D"/>
<path d="M56.6488 307.995C57.5474 306.54 58.793 305.332 60.2738 304.478C61.9509 303.52 63.8362 302.985 65.7664 302.92C68.0868 302.768 70.4026 303.279 72.4431 304.394C74.4836 305.509 76.1646 307.182 77.2894 309.217C78.6105 311.505 79.3434 314.084 79.4224 316.724C79.6138 319.39 79.1571 322.063 78.0911 324.514C77.1637 326.693 75.6429 328.568 73.7019 329.925C71.9515 331.11 69.936 331.846 67.8337 332.067C65.7313 332.288 63.6069 331.987 61.6484 331.192C60.1081 330.489 58.7499 329.441 57.6786 328.13L57.8897 332.157L50.7794 332.529L48.7998 294.756L55.9353 294.382L56.6488 307.995ZM72.1093 317.101C72.069 315.569 71.6203 314.076 70.8097 312.776C70.123 311.611 69.1147 310.67 67.9058 310.065C66.7561 309.479 65.4708 309.211 64.1828 309.288C62.8887 309.355 61.6374 309.774 60.564 310.5C59.452 311.25 58.563 312.286 57.9911 313.498C57.3917 314.915 57.122 316.448 57.2024 317.984C57.2829 319.52 57.7115 321.017 58.4557 322.363C59.1718 323.517 60.1726 324.468 61.3621 325.124C62.5029 325.708 63.775 325.987 65.0552 325.934C66.3506 325.874 67.6038 325.455 68.674 324.722C69.804 323.962 70.7039 322.907 71.2759 321.672C71.9482 320.247 72.2355 318.671 72.1093 317.101V317.101Z" fill="#2EB77D"/>
<path d="M98.4073 330.446C95.852 330.619 93.2948 330.139 90.9759 329.052C88.7524 327.955 86.8754 326.264 85.552 324.168C84.1709 321.884 83.4006 319.283 83.315 316.616C83.1266 313.946 83.6434 311.274 84.8136 308.868C85.9408 306.646 87.669 304.784 89.8016 303.496C92.0167 302.173 94.5212 301.411 97.0976 301.276C99.6739 301.141 102.244 301.637 104.586 302.721C106.833 303.771 108.73 305.446 110.051 307.545C111.5 309.803 112.31 312.41 112.395 315.092C112.589 317.773 112.038 320.457 110.802 322.845C109.659 325.085 107.918 326.965 105.772 328.276C103.538 329.604 101.005 330.351 98.4073 330.446V330.446ZM98.0814 324.229C99.3476 324.17 100.578 323.789 101.655 323.121C102.794 322.393 103.698 321.351 104.259 320.121C104.901 318.662 105.169 317.066 105.038 315.477C104.898 312.793 104.076 310.774 102.575 309.423C101.873 308.763 101.044 308.252 100.139 307.921C99.2341 307.59 98.2716 307.445 97.3092 307.495C96.3469 307.546 95.4047 307.79 94.5394 308.214C93.674 308.638 92.9033 309.233 92.2737 309.962C90.9851 311.461 90.4133 313.552 90.5582 316.236C90.7031 318.92 91.4745 320.96 92.8725 322.356C93.5618 323.013 94.3819 323.517 95.2792 323.835C96.1766 324.153 97.131 324.279 98.0801 324.203L98.0814 324.229Z" fill="#2EB77D"/>
<path d="M131.435 328.715C128.877 328.887 126.318 328.407 123.997 327.321C121.776 326.222 119.902 324.532 118.579 322.437C117.198 320.153 116.428 317.552 116.342 314.885C116.154 312.215 116.671 309.543 117.841 307.137C118.968 304.915 120.696 303.053 122.829 301.765C125.044 300.442 127.549 299.68 130.125 299.545C132.701 299.41 135.272 299.906 137.613 300.99C139.86 302.04 141.757 303.715 143.078 305.814C144.522 308.074 145.33 310.681 145.416 313.361C145.612 316.042 145.063 318.725 143.829 321.114C142.687 323.354 140.946 325.234 138.8 326.545C136.565 327.873 134.033 328.62 131.435 328.715V328.715ZM131.109 322.498C132.375 322.439 133.605 322.058 134.682 321.39C135.821 320.662 136.726 319.62 137.287 318.39C137.929 316.931 138.196 315.335 138.066 313.746C137.925 311.062 137.104 309.043 135.602 307.692C134.9 307.032 134.071 306.521 133.166 306.19C132.261 305.859 131.299 305.714 130.337 305.764C129.374 305.815 128.432 306.059 127.567 306.483C126.701 306.907 125.931 307.502 125.301 308.231C124.017 309.729 123.445 311.821 123.586 314.505C123.726 317.19 124.498 319.23 125.9 320.625C126.589 321.282 127.409 321.786 128.307 322.104C129.204 322.422 130.158 322.548 131.107 322.472L131.109 322.498Z" fill="#2EB77D"/>
<path d="M159.035 304.369L159.751 318.032C159.719 318.788 159.986 319.527 160.493 320.088C161.205 320.527 162.047 320.707 162.876 320.598L166.187 320.425L166.502 326.44L162.045 326.673C156.022 326.989 152.859 324.224 152.557 318.377L151.843 304.765L148.481 304.941L148.174 299.072L151.536 298.895L151.171 291.931L158.363 291.554L158.728 298.518L165.06 298.187L165.367 304.056L159.035 304.369Z" fill="#2EB77D"/>
<path d="M170.231 312.06C170.029 309.404 170.505 306.74 171.615 304.319C172.626 302.12 174.25 300.26 176.293 298.963C178.44 297.594 180.915 296.829 183.459 296.746C186.962 296.562 189.9 297.295 192.272 298.944C194.729 300.642 196.503 303.156 197.279 306.04L189.567 306.444C189.147 305.305 188.359 304.339 187.328 303.698C185.979 302.9 184.383 302.624 182.844 302.922C181.305 303.22 179.928 304.072 178.975 305.317C177.861 306.84 177.378 308.96 177.524 311.678C177.671 314.396 178.374 316.457 179.632 317.859C180.25 318.547 181.021 319.08 181.882 319.416C182.743 319.753 183.67 319.883 184.591 319.796C187.486 319.645 189.305 318.254 190.048 315.625L197.76 315.221C197.241 318.143 195.741 320.802 193.507 322.757C191.284 324.677 188.44 325.728 184.975 325.909C182.451 326.088 179.925 325.605 177.645 324.509C175.491 323.41 173.686 321.733 172.432 319.665C171.073 317.355 170.316 314.74 170.231 312.06V312.06Z" fill="#2EB77D"/>
<path d="M201.408 310.325C201.216 307.697 201.657 305.062 202.694 302.639C203.631 300.491 205.142 298.644 207.062 297.299C208.984 296.002 211.229 295.265 213.546 295.169C215.457 295.022 217.374 295.358 219.121 296.147C220.653 296.843 222.008 297.874 223.088 299.164L222.877 295.131L230.07 294.754L231.55 323.005L224.383 323.381L224.167 319.252C223.252 320.692 222.009 321.895 220.541 322.763C218.867 323.728 216.98 324.263 215.049 324.321C212.743 324.464 210.445 323.945 208.425 322.827C206.379 321.662 204.685 319.968 203.52 317.922C202.229 315.591 201.505 312.988 201.408 310.325V310.325ZM223.643 309.261C223.607 307.719 223.176 306.211 222.391 304.883C221.707 303.717 220.698 302.775 219.488 302.172C218.328 301.556 217.022 301.271 215.711 301.347C214.422 301.406 213.172 301.807 212.09 302.509C210.966 303.253 210.068 304.29 209.492 305.508C208.851 306.894 208.579 308.421 208.702 309.943C208.748 311.502 209.179 313.026 209.956 314.378C210.668 315.534 211.667 316.486 212.857 317.141C214.001 317.748 215.289 318.033 216.582 317.967C217.908 317.921 219.195 317.511 220.303 316.781C221.411 316.051 222.295 315.029 222.86 313.829C223.5 312.396 223.769 310.826 223.643 309.261Z" fill="#2EB77D"/>
<path d="M272.634 292.123C276.1 291.941 278.942 292.865 281.16 294.895C283.379 296.925 284.606 299.823 284.841 303.59L285.709 320.16L278.568 320.534L277.751 304.946C277.635 302.734 276.987 301.075 275.807 299.969C275.18 299.396 274.438 298.963 273.63 298.698C272.823 298.433 271.969 298.341 271.124 298.43C270.267 298.434 269.42 298.615 268.637 298.964C267.855 299.312 267.153 299.819 266.576 300.453C265.514 301.672 265.041 303.39 265.157 305.606L265.975 321.207L258.839 321.581L258.022 305.98C257.906 303.768 257.256 302.109 256.072 301.003C255.445 300.43 254.703 299.997 253.895 299.732C253.088 299.466 252.234 299.375 251.389 299.465C250.524 299.466 249.669 299.646 248.877 299.995C248.086 300.343 247.375 300.852 246.79 301.49C245.728 302.709 245.258 304.427 245.378 306.643L246.196 322.243L239.054 322.618L237.573 294.367L244.715 293.992L244.894 297.411C245.762 296.161 246.917 295.136 248.261 294.422C249.729 293.657 251.347 293.223 253.001 293.152C255.06 293.006 257.122 293.392 258.989 294.273C260.748 295.075 262.225 296.387 263.231 298.038C264.079 296.336 265.385 294.905 267.001 293.904C268.692 292.831 270.634 292.217 272.634 292.123V292.123Z" fill="#2EB77D"/>
<path d="M298.869 295.269C299.794 293.861 301.038 292.691 302.499 291.854C304.162 290.863 306.048 290.308 307.983 290.239C310.304 290.087 312.62 290.599 314.662 291.714C316.703 292.829 318.386 294.501 319.512 296.536C320.833 298.824 321.566 301.403 321.645 304.043C321.837 306.709 321.38 309.382 320.314 311.833C319.39 314.003 317.875 315.871 315.943 317.224C314.055 318.557 311.821 319.314 309.511 319.402C307.603 319.542 305.689 319.206 303.943 318.424C302.421 317.715 301.068 316.688 299.976 315.413L300.891 332.875L293.698 333.252L291.512 291.541L298.654 291.166L298.869 295.269ZM314.326 304.427C314.289 302.894 313.84 301.4 313.026 300.101C312.342 298.935 311.333 297.993 310.123 297.39C308.973 296.804 307.688 296.536 306.4 296.614C305.107 296.68 303.858 297.099 302.787 297.825C301.66 298.568 300.759 299.605 300.183 300.825C299.583 302.241 299.313 303.775 299.394 305.311C299.474 306.846 299.903 308.344 300.647 309.689C301.36 310.847 302.361 311.799 303.554 312.451C304.704 313.029 305.985 313.297 307.27 313.228C308.566 313.168 309.819 312.748 310.889 312.016C312.022 311.26 312.923 310.204 313.491 308.965C314.164 307.546 314.452 305.974 314.325 304.408L314.326 304.427Z" fill="#2EB77D"/>
<path d="M47.9313 206.341L47.5822 199.68C47.1685 191.787 49.5928 185.347 54.855 180.36C60.133 175.271 67.3454 172.485 76.4921 172.001C83.7353 171.622 89.7021 172.81 94.3923 175.565C99.0825 178.32 101.551 182.089 101.797 186.871C101.949 188.771 101.613 190.678 100.822 192.411C100.03 194.145 98.8098 195.648 97.2754 196.778C94.1402 199.304 89.7698 200.714 84.1643 201.008C78.8163 201.288 74.5935 200.466 71.496 198.541C70.0306 197.691 68.8077 196.48 67.9443 195.022C67.0809 193.564 66.6059 191.91 66.5646 190.216C66.4547 188.973 66.6368 187.721 67.0962 186.561C67.5557 185.4 68.2798 184.363 69.211 183.532C71.1053 181.718 73.7725 180.721 77.2126 180.541C77.2965 180.446 77.3606 180.336 77.4012 180.216C77.4418 180.096 77.4581 179.969 77.4491 179.843C77.5165 179.621 77.5494 179.39 77.5465 179.159C77.4801 177.892 76.4951 177.309 74.5914 177.409C72.8938 177.476 71.228 177.89 69.6964 178.626C68.1649 179.361 66.8 180.402 65.6858 181.685C64.5578 182.912 63.6925 184.357 63.1428 185.93C62.5932 187.504 62.3708 189.173 62.4894 190.836C62.8363 197.455 67.168 202.133 75.4847 204.872L93.9664 203.903C95.0554 203.846 95.6238 204.273 95.6713 205.179L95.7994 207.623C95.8468 208.528 95.3262 209.013 94.2372 209.07L80.6497 209.782C81.5741 210.405 82.3226 211.256 82.8235 212.252C83.3129 213.449 83.5654 214.729 83.5672 216.022L86.3518 269.156C86.4328 270.701 86.1291 271.854 85.441 272.614C84.841 273.28 83.6799 273.658 81.9577 273.748L56.1378 275.102C54.4156 275.192 53.1771 274.939 52.4221 274.344C51.7682 273.659 51.4012 272.552 51.3212 271.024L48.202 211.508L39.072 211.986C37.983 212.043 37.4146 211.616 37.3671 210.711L37.239 208.267C37.1916 207.361 37.7122 206.877 38.8012 206.82L47.9313 206.341Z" fill="white"/>
<path d="M98.2811 203.702C106.069 203.294 111.489 205.327 114.543 209.802C116.84 206.911 119.754 204.57 123.072 202.949C126.559 201.251 130.365 200.307 134.241 200.18C140.851 199.833 146.381 201.361 150.83 204.764C152.966 206.329 154.718 208.36 155.95 210.704C157.183 213.048 157.865 215.642 157.945 218.289C158.12 220.476 157.801 222.674 157.012 224.722C156.222 226.769 154.982 228.612 153.384 230.115C150.095 233.191 145.739 234.871 140.315 235.155C134.971 235.435 130.506 234.308 126.919 231.775C125.268 230.649 123.904 229.152 122.936 227.403C121.969 225.654 121.426 223.702 121.351 221.705C121.215 220.08 121.431 218.445 121.985 216.912C122.54 215.378 123.418 213.983 124.561 212.82C126.89 210.425 129.957 209.128 133.76 208.928C133.999 208.508 134.117 208.029 134.1 207.545C134.034 206.279 133.049 205.696 131.145 205.796C129.193 205.889 127.284 206.397 125.545 207.288C123.806 208.178 122.277 209.43 121.06 210.959C119.72 212.462 118.694 214.219 118.045 216.125C117.396 218.032 117.136 220.049 117.28 222.058C117.408 225.513 118.632 228.838 120.775 231.551C123.267 234.333 126.439 236.42 129.981 237.608C131.275 238.086 132.125 238.676 132.53 239.379C132.935 240.081 133.3 241.11 133.386 242.743L134.639 266.658C134.791 269.557 133.327 271.088 130.245 271.25L102.576 272.7C99.7694 272.847 98.2899 271.47 98.138 268.57L95.6241 220.603C95.4579 217.433 94.8783 215.055 93.8852 213.469C92.8921 211.802 91.1332 210.305 88.6087 208.977C88.1808 208.809 87.7946 208.55 87.4769 208.218C87.2788 207.945 87.1667 207.619 87.1549 207.282L87.0696 205.655C87.0221 204.749 87.5428 204.265 88.6318 204.208L98.2811 203.702Z" fill="white"/>
<path d="M159.789 181.4C159.634 179.509 159.939 177.609 160.679 175.862C161.419 174.115 162.571 172.573 164.037 171.368C167.075 168.758 171.268 167.311 176.615 167.027C181.963 166.742 186.286 167.743 189.585 170.029C191.198 171.052 192.535 172.456 193.477 174.117C194.419 175.778 194.937 177.646 194.985 179.556C195.125 181.439 194.798 183.329 194.033 185.056C193.269 186.784 192.091 188.297 190.603 189.461C187.561 192.071 183.366 193.518 178.019 193.803C172.671 194.087 168.352 193.133 165.063 190.939C163.48 189.892 162.173 188.478 161.255 186.817C160.336 185.156 159.833 183.298 159.789 181.4V181.4ZM192.044 198.788C193.766 198.698 194.963 198.999 195.634 199.692C196.389 200.287 196.814 201.357 196.894 202.896L199.209 247.058C199.19 248.121 199.383 249.177 199.778 250.165C199.91 250.415 200.115 250.62 200.365 250.753C200.616 250.886 200.9 250.941 201.182 250.91C201.521 250.928 201.857 250.838 202.141 250.651C202.424 250.465 202.641 250.193 202.759 249.875C203.093 249.218 203.38 247.749 203.62 245.468C203.614 244.536 203.75 243.608 204.022 242.717C204.121 242.524 204.274 242.365 204.463 242.259C204.651 242.153 204.867 242.105 205.083 242.122L207.388 242.001C207.653 241.988 207.915 242.071 208.124 242.235C208.333 242.399 208.476 242.633 208.527 242.894C208.916 243.929 209.113 245.027 209.109 246.133C209.489 253.385 207.833 259.058 204.141 263.154C200.449 267.25 194.99 269.49 187.764 269.873C180.786 270.238 175.294 268.573 171.287 264.876C167.359 261.082 165.205 255.517 164.825 248.181L163.194 217.061C163.028 213.891 162.448 211.513 161.455 209.927C160.458 208.261 158.699 206.764 156.179 205.436C155.749 205.27 155.363 205.011 155.047 204.676C154.846 204.405 154.733 204.078 154.725 203.741L154.639 202.113C154.592 201.208 155.113 200.724 156.202 200.667L192.044 198.788Z" fill="white"/>
<path d="M248.707 247.195C248.82 249.364 249.738 250.406 251.461 250.32C251.907 250.319 252.346 250.207 252.739 249.996C253.132 249.785 253.467 249.481 253.715 249.11L251.514 207.119C251.229 206.776 250.864 206.508 250.451 206.339C250.038 206.171 249.59 206.106 249.146 206.151C247.424 206.242 246.62 207.374 246.734 209.547L248.707 247.195ZM250.289 183.743C250.123 180.569 249.543 178.193 248.551 176.616C247.553 174.941 245.794 173.444 243.274 172.124C242.828 171.918 242.404 171.665 242.009 171.371C241.894 171.07 241.83 170.751 241.82 170.429L241.735 168.795C241.687 167.89 242.208 167.406 243.297 167.349L278.494 165.504C280.21 165.414 281.407 165.719 282.084 166.408C282.761 167.096 283.257 168.073 283.337 169.612L287.153 242.424C287.135 243.488 287.331 244.544 287.729 245.53C287.859 245.781 288.063 245.987 288.312 246.12C288.562 246.253 288.846 246.307 289.127 246.276C289.498 246.276 289.86 246.162 290.165 245.951C290.47 245.74 290.704 245.442 290.836 245.095C291.285 243.717 291.532 242.282 291.571 240.834C291.565 239.903 291.698 238.975 291.967 238.083C292.066 237.891 292.219 237.732 292.408 237.626C292.596 237.52 292.812 237.472 293.028 237.488L295.339 237.367C295.883 237.338 296.261 237.636 296.477 238.26C296.857 239.251 297.05 240.304 297.047 241.366C297.426 248.609 295.821 254.325 292.231 258.513C288.716 262.6 283.473 264.828 276.5 265.197C267.437 265.672 260.717 262.253 256.338 254.94C252.747 262.671 246.784 266.755 238.447 267.192C230.474 267.61 224.054 264.721 219.188 258.525C214.41 252.236 211.719 243.339 211.116 231.832C210.527 220.6 212.334 211.737 216.535 205.245C220.736 198.752 226.915 195.294 235.07 194.87C241.773 194.519 247.127 196.143 251.134 199.743L250.289 183.743Z" fill="white"/>
<path d="M338.818 232.524C338.554 232.19 338.212 231.926 337.822 231.756C337.433 231.586 337.007 231.515 336.583 231.549C335.042 231.63 334.319 232.575 334.414 234.386L334.87 243.086C334.965 244.897 335.783 245.762 337.323 245.681C337.748 245.67 338.163 245.555 338.533 245.346C338.903 245.138 339.216 244.842 339.445 244.484L338.818 232.524ZM362.232 260.73C353.081 261.21 346.36 257.791 342.07 250.473C340.193 254.482 337.762 257.473 334.775 259.446C331.882 261.413 328.215 262.513 323.774 262.746C317.523 263.073 312.415 261.796 308.45 258.914C304.485 256.032 302.372 252.054 302.111 246.98C301.878 242.544 303.236 238.977 306.184 236.278C309.217 233.487 313.978 231.466 320.469 230.216C337.028 227.164 345.035 220.429 344.489 210.012C344.418 208.016 343.947 206.054 343.103 204.244C342.258 202.434 341.059 200.813 339.575 199.476C338.205 198.083 336.554 196.998 334.731 196.294C332.908 195.591 330.956 195.284 329.006 195.395C327.102 195.495 326.183 196.178 326.25 197.444C326.281 197.927 326.446 198.391 326.726 198.784C330.525 198.585 333.71 199.555 336.282 201.693C337.542 202.728 338.563 204.024 339.276 205.492C339.988 206.959 340.375 208.563 340.409 210.194C340.628 214.364 339.042 217.901 335.651 220.805C332.349 223.699 327.988 225.288 322.569 225.573C317.048 225.862 312.582 224.735 309.173 222.192C307.511 220.927 306.156 219.303 305.21 217.44C304.263 215.578 303.75 213.526 303.708 211.438C303.39 205.364 306.079 200.355 311.777 196.412C317.471 192.394 325.166 190.128 334.861 189.616C346.452 189.008 355.386 191.357 361.661 196.661C368.03 201.961 371.497 210.046 372.062 220.915L372.952 237.903C372.934 238.966 373.13 240.023 373.528 241.009C373.658 241.26 373.862 241.465 374.111 241.598C374.361 241.732 374.645 241.786 374.926 241.755C375.297 241.754 375.659 241.641 375.964 241.43C376.269 241.219 376.503 240.92 376.635 240.573C377.084 239.196 377.331 237.761 377.37 236.313C377.361 235.38 377.496 234.452 377.772 233.561C377.869 233.369 378.021 233.209 378.209 233.103C378.397 232.997 378.612 232.95 378.827 232.967L381.138 232.845C381.682 232.817 382.06 233.115 382.276 233.738C382.656 234.73 382.849 235.783 382.846 236.845C383.225 244.088 381.62 249.804 378.03 253.992C374.484 258.118 369.222 260.364 362.244 260.73L362.232 260.73Z" fill="white"/>
<path d="M377.578 200.918C377.026 199.52 376.168 198.264 375.068 197.24C373.748 196.038 372.275 195.015 370.687 194.2C369.753 193.703 369.266 193.138 369.233 192.505L369.148 190.878C369.1 189.972 369.621 189.488 370.71 189.431L391.908 188.32C398.07 187.997 402.626 188.258 405.573 189.102C408.423 189.734 410.964 191.335 412.763 193.633C414.608 195.898 416.421 199.299 418.199 203.837L433.307 242.56C433.529 242.767 433.791 242.927 434.077 243.028C434.363 243.13 434.667 243.173 434.97 243.153C436.333 243.081 436.972 242.275 436.888 240.735C436.664 239.204 436.221 237.713 435.57 236.309L421.38 199.594C420.012 196.03 418.846 193.727 417.881 192.686C417.019 191.734 416.441 191.129 416.154 190.871C415.948 190.501 415.833 190.087 415.818 189.664L415.754 188.442C415.707 187.536 416.227 187.052 417.31 186.995L455.768 184.98C459.035 184.808 460.728 185.901 460.847 188.256C460.961 190.426 459.041 197.976 455.088 210.906C451.136 223.836 445.683 240.293 438.731 260.275C436.206 267.582 433.642 273.257 431.039 277.3C428.437 281.436 425.459 284.409 422.104 286.219C418.851 288.116 414.911 289.186 410.285 289.428C403.578 289.78 398.065 288.57 393.747 285.8C389.512 283.021 387.267 279.186 387.011 274.293C386.858 272.298 387.185 270.295 387.966 268.453C388.746 266.61 389.957 264.982 391.497 263.703C394.71 260.898 398.989 259.357 404.333 259.081C409.318 258.82 413.457 259.784 416.751 261.973C418.297 262.958 419.582 264.303 420.496 265.892C421.409 267.482 421.925 269.269 421.997 271.101C422.149 274.001 421.269 276.271 419.357 277.912C417.544 279.645 414.868 280.605 411.331 280.79C411.167 281.18 411.095 281.603 411.123 282.026C411.189 283.292 412.265 283.871 414.35 283.762C416.005 283.721 417.632 283.333 419.126 282.621C420.621 281.909 421.948 280.891 423.022 279.631C424.13 278.395 424.974 276.944 425.501 275.37C426.027 273.795 426.226 272.129 426.085 270.474C426.032 268.488 425.555 266.535 424.686 264.748C423.817 262.96 422.576 261.379 421.047 260.11C417.916 257.548 413.469 255.919 407.705 255.222C404.414 254.849 402.249 254.236 401.209 253.385C400.17 252.534 399.012 250.588 397.735 247.548L377.578 200.918Z" fill="white"/>
<g filter="url(#filter1_dd_1206_23382)">
<rect x="46.0713" y="350.226" width="217.887" height="51.3216" rx="25.6613" transform="rotate(-3 46.0713 350.226)" fill="#1C3343"/>
<rect x="68.75" y="369.788" width="8.74508" height="8.74508" rx="4.37262" transform="rotate(5.00001 68.75 369.788)" fill="white"/>
<path d="M95.0762 371.113L95.4034 377.355C95.4261 377.789 95.5438 378.102 95.7562 378.294C95.9833 378.469 96.3453 378.543 96.8422 378.517L98.3561 378.438L98.5001 381.186L96.4505 381.293C93.7023 381.437 92.2581 380.174 92.1182 377.503L91.7923 371.285L90.2551 371.365L90.1147 368.687L91.6519 368.606L91.4847 365.416L94.7686 365.244L94.9359 368.434L97.8239 368.283L97.9643 370.961L95.0762 371.113Z" fill="white"/>
<path d="M107.426 367.593C108.404 367.542 109.285 367.713 110.069 368.108C110.852 368.488 111.475 369.086 111.938 369.902C112.416 370.702 112.685 371.685 112.746 372.849L113.143 380.419L109.882 380.589L109.509 373.463C109.455 372.438 109.158 371.667 108.617 371.15C108.075 370.618 107.362 370.375 106.477 370.422C105.576 370.469 104.876 370.786 104.378 371.373C103.894 371.943 103.679 372.74 103.733 373.765L104.106 380.892L100.845 381.063L99.9421 363.828L103.203 363.657L103.514 369.596C103.904 369.015 104.44 368.551 105.123 368.204C105.804 367.841 106.572 367.638 107.426 367.593Z" fill="white"/>
<path d="M127.885 372.896C127.91 373.362 127.901 373.783 127.858 374.159L118.425 374.653C118.552 375.581 118.916 376.294 119.518 376.791C120.121 377.289 120.841 377.516 121.679 377.472C122.89 377.409 123.725 376.843 124.183 375.776L127.7 375.592C127.392 376.854 126.732 377.916 125.718 378.779C124.704 379.626 123.428 380.09 121.891 380.17C120.649 380.235 119.516 380.022 118.494 379.531C117.487 379.023 116.677 378.279 116.065 377.299C115.469 376.319 115.136 375.168 115.067 373.849C114.997 372.513 115.207 371.327 115.698 370.289C116.188 369.251 116.908 368.435 117.858 367.84C118.808 367.246 119.919 366.915 121.193 366.848C122.419 366.784 123.528 366.99 124.518 367.468C125.524 367.945 126.316 368.658 126.896 369.609C127.49 370.543 127.819 371.639 127.885 372.896ZM124.459 372.142C124.4 371.304 124.062 370.652 123.446 370.186C122.829 369.705 122.094 369.487 121.24 369.531C120.432 369.574 119.762 369.858 119.229 370.384C118.711 370.894 118.413 371.587 118.334 372.463L124.459 372.142Z" fill="white"/>
<path d="M134.991 372.804C134.921 371.469 135.132 370.29 135.623 369.268C136.114 368.23 136.826 367.414 137.76 366.821C138.694 366.211 139.782 365.874 141.024 365.809C142.623 365.725 143.964 366.06 145.047 366.812C146.144 367.549 146.909 368.63 147.342 370.055L143.825 370.239C143.609 369.69 143.268 369.272 142.802 368.985C142.35 368.682 141.798 368.547 141.146 368.582C140.214 368.63 139.495 369.011 138.987 369.722C138.478 370.418 138.257 371.388 138.322 372.63C138.386 373.856 138.708 374.797 139.287 375.452C139.866 376.091 140.621 376.386 141.552 376.337C142.872 376.268 143.703 375.633 144.045 374.432L147.562 374.247C147.278 375.664 146.629 376.811 145.617 377.689C144.604 378.567 143.306 379.048 141.722 379.131C140.48 379.196 139.363 378.982 138.372 378.489C137.38 377.981 136.586 377.244 135.991 376.278C135.394 375.298 135.061 374.14 134.991 372.804Z" fill="white"/>
<path d="M155.919 378.387C154.677 378.452 153.545 378.239 152.522 377.748C151.499 377.241 150.674 376.498 150.047 375.518C149.435 374.539 149.094 373.389 149.025 372.069C148.956 370.749 149.182 369.569 149.704 368.53C150.241 367.49 151 366.672 151.981 366.075C152.961 365.463 154.072 365.125 155.314 365.06C156.556 364.995 157.697 365.215 158.735 365.721C159.773 366.212 160.605 366.947 161.233 367.926C161.876 368.904 162.232 370.053 162.301 371.373C162.37 372.693 162.128 373.873 161.576 374.914C161.039 375.954 160.272 376.781 159.277 377.394C158.296 377.99 157.177 378.321 155.919 378.387ZM155.77 375.546C156.36 375.515 156.904 375.346 157.402 375.04C157.914 374.717 158.311 374.26 158.591 373.669C158.872 373.079 158.99 372.372 158.947 371.549C158.883 370.322 158.507 369.4 157.821 368.782C157.15 368.148 156.348 367.855 155.416 367.904C154.485 367.953 153.718 368.328 153.116 369.029C152.53 369.713 152.268 370.669 152.333 371.896C152.397 373.122 152.749 374.053 153.39 374.689C154.045 375.309 154.838 375.594 155.77 375.546Z" fill="white"/>
<path d="M176.536 364.158L177.212 377.061L173.928 377.233L173.842 375.603C173.452 376.184 172.924 376.655 172.258 377.017C171.607 377.362 170.885 377.556 170.093 377.597C169.084 377.65 168.18 377.487 167.382 377.109C166.583 376.715 165.937 376.118 165.443 375.319C164.965 374.503 164.695 373.521 164.635 372.372L164.238 364.802L167.499 364.631L167.871 371.735C167.925 372.76 168.223 373.538 168.764 374.07C169.305 374.587 170.018 374.822 170.903 374.776C171.804 374.729 172.496 374.42 172.98 373.85C173.463 373.264 173.678 372.458 173.624 371.434L173.252 364.33L176.536 364.158Z" fill="white"/>
<path d="M183.118 365.821C183.502 365.116 184.017 364.552 184.665 364.129C185.327 363.705 186.094 363.47 186.963 363.425L187.143 366.848L186.281 366.893C185.256 366.947 184.492 367.229 183.99 367.738C183.502 368.246 183.29 369.098 183.353 370.293L183.69 376.721L180.429 376.892L179.753 363.989L183.013 363.818L183.118 365.821Z" fill="white"/>
<path d="M194.794 376.35C193.738 376.405 192.781 376.268 191.923 375.94C191.064 375.595 190.369 375.11 189.838 374.484C189.323 373.857 189.021 373.149 188.933 372.36L192.217 372.187C192.305 372.681 192.567 373.08 193.004 373.384C193.455 373.687 194 373.822 194.636 373.789C195.257 373.756 195.732 373.607 196.061 373.341C196.405 373.073 196.567 372.746 196.546 372.358C196.524 371.938 196.291 371.639 195.845 371.46C195.415 371.265 194.727 371.067 193.783 370.868C192.808 370.685 192.003 370.486 191.369 370.27C190.751 370.053 190.203 369.701 189.726 369.212C189.264 368.722 189.01 368.043 188.965 367.173C188.927 366.459 189.095 365.796 189.468 365.185C189.856 364.573 190.422 364.076 191.165 363.695C191.923 363.313 192.822 363.094 193.863 363.04C195.4 362.959 196.647 363.283 197.604 364.011C198.56 364.724 199.118 365.73 199.28 367.03L196.159 367.193C196.086 366.683 195.847 366.291 195.443 366.016C195.054 365.725 194.542 365.596 193.905 365.63C193.315 365.661 192.863 365.793 192.548 366.028C192.249 366.261 192.109 366.572 192.13 366.961C192.153 367.395 192.387 367.718 192.834 367.928C193.281 368.122 193.968 368.312 194.896 368.497C195.84 368.681 196.621 368.882 197.24 369.098C197.858 369.315 198.399 369.676 198.861 370.181C199.338 370.67 199.607 371.341 199.667 372.194C199.706 372.939 199.532 373.618 199.143 374.23C198.771 374.841 198.205 375.338 197.447 375.72C196.703 376.086 195.819 376.296 194.794 376.35Z" fill="white"/>
<path d="M214.179 368.374C214.203 368.84 214.194 369.261 214.151 369.637L204.719 370.131C204.845 371.059 205.21 371.771 205.812 372.269C206.414 372.767 207.134 372.994 207.973 372.95C209.184 372.886 210.018 372.321 210.476 371.254L213.993 371.07C213.685 372.331 213.025 373.393 212.011 374.256C210.997 375.103 209.721 375.567 208.184 375.648C206.942 375.713 205.81 375.5 204.788 375.008C203.78 374.501 202.97 373.757 202.359 372.777C201.762 371.796 201.429 370.646 201.36 369.326C201.29 367.991 201.501 366.804 201.991 365.767C202.482 364.729 203.202 363.913 204.152 363.318C205.101 362.723 206.213 362.392 207.486 362.326C208.713 362.261 209.821 362.468 210.811 362.945C211.817 363.422 212.61 364.136 213.189 365.086C213.783 366.02 214.113 367.116 214.179 368.374ZM210.753 367.619C210.693 366.782 210.355 366.13 209.739 365.664C209.123 365.183 208.387 364.964 207.533 365.009C206.726 365.051 206.056 365.336 205.523 365.862C205.004 366.371 204.706 367.064 204.627 367.94L210.753 367.619Z" fill="white"/>
<path d="M220.26 358.223L220.477 369.492L217.729 369.636L216.744 358.407L220.26 358.223ZM219.459 375.01C218.869 375.041 218.37 374.888 217.963 374.551C217.571 374.198 217.361 373.75 217.332 373.207C217.304 372.663 217.467 372.203 217.82 371.827C218.189 371.434 218.668 371.222 219.258 371.191C219.833 371.161 220.316 371.322 220.708 371.675C221.1 372.013 221.31 372.453 221.338 372.997C221.367 373.54 221.204 374.008 220.851 374.4C220.497 374.777 220.033 374.98 219.459 375.01Z" fill="white"/>
<rect x="235.718" y="361.038" width="8.74508" height="8.74508" rx="4.37262" transform="rotate(5.00001 235.718 361.038)" fill="white"/>
</g>
<path d="M17.2975 12.5264C16.5752 12.5666 15.9704 12.3784 15.4831 11.9619C15.011 11.5274 14.7585 10.9785 14.7257 10.3149C14.6921 9.63433 14.889 9.06037 15.3166 8.59303C15.7593 8.10779 16.3418 7.8451 17.0641 7.80498C17.7703 7.76575 18.3594 7.96334 18.8315 8.39776C19.3189 8.81427 19.5794 9.36281 19.613 10.0434C19.6458 10.7069 19.4408 11.2813 18.9981 11.7666C18.5706 12.2339 18.0037 12.4872 17.2975 12.5264ZM19.4171 13.893L20.1211 28.1339L16.0042 28.3626L15.3002 14.1217L19.4171 13.893Z" fill="white"/>
<path d="M30.5785 13.1194C32.1514 13.032 33.4302 13.5069 34.415 14.5441C35.4149 15.5634 35.9616 17.0173 36.0549 18.9059L36.4663 27.2259L32.3735 27.4532L31.9912 19.7203C31.9441 18.7675 31.6747 18.0403 31.1832 17.5387C30.6917 17.0371 30.0527 16.8082 29.2662 16.8518C28.4798 16.8955 27.8669 17.194 27.4275 17.7473C26.9881 18.3006 26.792 19.0537 26.8391 20.0065L27.2214 27.7395L23.1045 27.9682L22.4005 13.7272L26.5173 13.4985L26.6107 15.3871C26.9969 14.7344 27.5343 14.2098 28.2228 13.8132C28.9105 13.3997 29.6957 13.1684 30.5785 13.1194Z" fill="white"/>
<path d="M46.6315 22.9504L46.8144 26.651L44.7199 26.7673C43.2272 26.8502 42.0447 26.5321 41.1722 25.8128C40.2989 25.0765 39.8189 23.8321 39.7323 22.0797L39.4522 16.4139L37.8151 16.5049L37.6359 12.8808L39.273 12.7899L39.1014 9.31896L43.2183 9.09025L43.3899 12.5612L46.0863 12.4114L46.2655 16.0354L43.5691 16.1852L43.8517 21.902C43.8727 22.3273 43.9842 22.6283 44.186 22.8047C44.3879 22.9812 44.7135 23.0569 45.1629 23.0319L46.6315 22.9504Z" fill="white"/>
<path d="M52.6377 14.4274C53.0806 13.618 53.6521 12.972 54.3525 12.4895C55.0521 11.99 55.8432 11.7157 56.726 11.6667L56.9544 16.2861L55.8228 16.3489C54.7956 16.406 54.037 16.687 53.5469 17.1919C53.056 17.6799 52.8396 18.5108 52.8977 19.6848L53.2244 26.2948L49.1076 26.5236L48.4035 12.2826L52.5204 12.0539L52.6377 14.4274Z" fill="white"/>
<path d="M65.5305 25.8159C64.2144 25.889 63.012 25.6572 61.9233 25.1206C60.8506 24.5831 59.9819 23.7783 59.3173 22.7062C58.6688 21.6333 58.308 20.3567 58.2348 18.8765C58.1624 17.4132 58.4039 16.1117 58.9591 14.9719C59.5135 13.8151 60.3056 12.9095 61.3355 12.2551C62.3654 11.6008 63.5384 11.2371 64.8545 11.1639C66.1706 11.0908 67.373 11.3226 68.4618 11.8592C69.5505 12.3959 70.4276 13.2087 71.093 14.2978C71.7576 15.3698 72.126 16.6375 72.1984 18.1007C72.2707 19.5639 72.0217 20.8744 71.4512 22.0321C70.896 23.1719 70.0954 24.0695 69.0495 24.7247C68.0196 25.379 66.8467 25.7428 65.5305 25.8159ZM65.3438 22.0387C66.1303 21.995 66.7812 21.6518 67.2966 21.0089C67.8281 20.3652 68.0657 19.4734 68.0093 18.3334C67.9529 17.1935 67.6368 16.3324 67.0608 15.7502C66.5009 15.1671 65.8277 14.8974 65.0412 14.9411C64.2387 14.9857 63.5878 15.329 63.0884 15.9709C62.5882 16.5958 62.3667 17.4868 62.4239 18.6437C62.4802 19.7837 62.7803 20.6457 63.3242 21.2296C63.8842 21.8127 64.5574 22.0824 65.3438 22.0387Z" fill="white"/>
<path d="M73.5626 17.9993C73.4903 16.5361 73.6836 15.2372 74.1425 14.1028C74.6175 12.9674 75.2897 12.077 76.159 11.4316C77.0284 10.7862 78.0168 10.4327 79.1243 10.3712C80.007 10.3221 80.8192 10.4732 81.5608 10.8244C82.3185 11.1747 82.9223 11.6701 83.3724 12.3104L83.0457 5.70039L87.1625 5.47167L88.0962 24.3575L83.9793 24.5862L83.8784 22.5445C83.5268 23.2465 83 23.8217 82.298 24.2702C81.6119 24.7177 80.7955 24.9678 79.8485 25.0205C78.741 25.082 77.7232 24.84 76.7949 24.2944C75.8659 23.7318 75.1091 22.9123 74.5248 21.8358C73.9557 20.7414 73.635 19.4625 73.5626 17.9993ZM83.6273 17.4658C83.5735 16.3768 83.2421 15.5337 82.6332 14.9362C82.0403 14.3379 81.3346 14.0615 80.516 14.107C79.6975 14.1525 79.0148 14.506 78.4682 15.1676C77.9367 15.8114 77.6979 16.6777 77.7517 17.7666C77.8055 18.8555 78.1293 19.7076 78.723 20.323C79.332 20.9204 80.0457 21.1964 80.8643 21.1509C81.6828 21.1054 82.3574 20.7523 82.888 20.0916C83.4347 19.4299 83.6811 18.5547 83.6273 17.4658Z" fill="white"/>
<path d="M103.636 9.21413L104.34 23.4551L100.223 23.6838L100.127 21.7442C99.741 22.3969 99.1965 22.939 98.4936 23.3704C97.8059 23.784 97.0287 24.0148 96.162 24.063C95.1348 24.12 94.2162 23.9322 93.4062 23.4995C92.5953 23.0498 91.9505 22.3776 91.4717 21.4829C90.9929 20.5882 90.7229 19.5198 90.6615 18.2778L90.2501 9.95779L94.3429 9.73041L94.7252 17.4634C94.7723 18.4162 95.0416 19.1434 95.5332 19.645C96.0247 20.1466 96.6637 20.3755 97.4501 20.3318C98.2526 20.2872 98.8736 19.9883 99.313 19.435C99.7523 18.8817 99.9485 18.1286 99.9014 17.1758L99.5191 9.44284L103.636 9.21413Z" fill="white"/>
<path d="M106.126 16.2158C106.053 14.7355 106.27 13.4269 106.777 12.2897C107.3 11.1517 108.053 10.2568 109.035 9.60517C110.032 8.9526 111.189 8.58976 112.505 8.51664C114.191 8.42301 115.618 8.81288 116.788 9.68625C117.974 10.5587 118.785 11.8359 119.223 13.5177L114.841 13.7611C114.418 12.6927 113.677 12.1879 112.617 12.2468C111.863 12.2887 111.277 12.6369 110.858 13.2914C110.439 13.9289 110.258 14.8261 110.316 15.9831C110.373 17.14 110.642 18.0208 111.122 18.6254C111.602 19.2129 112.219 19.4857 112.973 19.4438C114.033 19.385 114.72 18.8008 115.035 17.6914L119.417 17.448C119.146 19.135 118.465 20.4866 117.372 21.5027C116.28 22.5188 114.899 23.0732 113.23 23.1659C111.914 23.239 110.727 23.0064 109.671 22.468C108.63 21.9286 107.793 21.1221 107.161 20.0482C106.544 18.9735 106.2 17.696 106.126 16.2158Z" fill="white"/>
<path d="M123.167 6.64475C122.445 6.68487 121.84 6.49668 121.353 6.08017C120.881 5.64575 120.628 5.09676 120.595 4.43321C120.562 3.75263 120.759 3.17868 121.186 2.71134C121.629 2.2261 122.211 1.96341 122.934 1.92329C123.64 1.88405 124.229 2.08165 124.701 2.51606C125.188 2.93258 125.449 3.48112 125.483 4.16169C125.515 4.82525 125.31 5.39965 124.868 5.88489C124.44 6.35223 123.873 6.60551 123.167 6.64475ZM125.287 8.0113L125.991 22.2522L121.874 22.481L121.17 8.24002L125.287 8.0113Z" fill="white"/>
<path d="M136.448 7.23767C138.021 7.15028 139.3 7.62519 140.285 8.66238C141.284 9.68167 141.831 11.1356 141.925 13.0242L142.336 21.3442L138.243 21.5715L137.861 13.8386C137.814 12.8858 137.544 12.1586 137.053 11.657C136.561 11.1554 135.922 10.9265 135.136 10.9702C134.349 11.0138 133.736 11.3123 133.297 11.8656C132.858 12.4189 132.662 13.172 132.709 14.1248L133.091 21.8578L128.974 22.0865L128.27 7.84555L132.387 7.61683L132.48 9.50542C132.866 8.85271 133.404 8.32808 134.092 7.93155C134.78 7.518 135.565 7.28671 136.448 7.23767Z" fill="white"/>
<path d="M149.586 6.45657C150.533 6.40396 151.37 6.56221 152.096 6.93132C152.839 7.29953 153.419 7.80472 153.837 8.44687L153.737 6.43068L157.854 6.20197L158.557 20.4174C158.622 21.7275 158.432 22.9238 157.986 24.0063C157.558 25.105 156.853 25.9972 155.873 26.6829C154.909 27.3677 153.681 27.7515 152.188 27.8345C150.198 27.945 148.56 27.5327 147.275 26.5975C145.99 25.6794 145.218 24.3745 144.957 22.6829L149.026 22.4568C149.181 22.9941 149.507 23.4026 150.003 23.6821C150.501 23.9786 151.103 24.1072 151.809 24.068C152.66 24.0207 153.321 23.7196 153.792 23.1645C154.281 22.6255 154.497 21.7861 154.44 20.6461L154.341 18.6299C153.972 19.3158 153.445 19.891 152.76 20.3556C152.074 20.8031 151.258 21.0532 150.311 21.1059C149.203 21.1674 148.185 20.9254 147.257 20.3798C146.328 19.8172 145.571 18.9977 144.987 17.9212C144.418 16.8268 144.097 15.5479 144.025 14.0847C143.952 12.6215 144.146 11.3226 144.605 10.1882C145.08 9.05283 145.752 8.16244 146.621 7.51701C147.491 6.87157 148.479 6.51809 149.586 6.45657ZM154.089 13.5512C154.036 12.4622 153.704 11.6191 153.095 11.0216C152.502 10.4233 151.797 10.1469 150.978 10.1924C150.16 10.2379 149.477 10.5914 148.93 11.253C148.399 11.8968 148.16 12.7631 148.214 13.852C148.268 14.9409 148.591 15.793 149.185 16.4084C149.794 17.0058 150.508 17.2818 151.326 17.2363C152.145 17.1908 152.82 16.8377 153.35 16.177C153.897 15.5153 154.143 14.6401 154.089 13.5512Z" fill="white"/>
<defs>
<filter id="filter0_dd_1206_23382" x="3.15119" y="36.2119" width="488.106" height="326.935" filterUnits="userSpaceOnUse" color-interpolation-filters="sRGB">
<feFlood flood-opacity="0" result="BackgroundImageFix"/>
<feColorMatrix in="SourceAlpha" type="matrix" values="0 0 0 0 0 0 0 0 0 0 0 0 0 0 0 0 0 0 127 0" result="hardAlpha"/>
<feOffset dy="-2.45934"/>
<feGaussianBlur stdDeviation="0.614835"/>
<feColorMatrix type="matrix" values="0 0 0 0 0 0 0 0 0 0 0 0 0 0 0 0 0 0 0.06 0"/>
<feBlend mode="normal" in2="BackgroundImageFix" result="effect1_dropShadow_1206_23382"/>
<feColorMatrix in="SourceAlpha" type="matrix" values="0 0 0 0 0 0 0 0 0 0 0 0 0 0 0 0 0 0 127 0" result="hardAlpha"/>
<feOffset dy="2.45934"/>
<feGaussianBlur stdDeviation="0.614835"/>
<feColorMatrix type="matrix" values="0 0 0 0 0 0 0 0 0 0 0 0 0 0 0 0 0 0 0.2 0"/>
<feBlend mode="normal" in2="effect1_dropShadow_1206_23382" result="effect2_dropShadow_1206_23382"/>
<feBlend mode="normal" in="SourceGraphic" in2="effect2_dropShadow_1206_23382" result="shape"/>
</filter>
<filter id="filter1_dd_1206_23382" x="44.8416" y="335.134" width="222.734" height="70.0328" filterUnits="userSpaceOnUse" color-interpolation-filters="sRGB">
<feFlood flood-opacity="0" result="BackgroundImageFix"/>
<feColorMatrix in="SourceAlpha" type="matrix" values="0 0 0 0 0 0 0 0 0 0 0 0 0 0 0 0 0 0 127 0" result="hardAlpha"/>
<feOffset dy="-2.45934"/>
<feGaussianBlur stdDeviation="0.614835"/>
<feColorMatrix type="matrix" values="0 0 0 0 0 0 0 0 0 0 0 0 0 0 0 0 0 0 0.06 0"/>
<feBlend mode="normal" in2="BackgroundImageFix" result="effect1_dropShadow_1206_23382"/>
<feColorMatrix in="SourceAlpha" type="matrix" values="0 0 0 0 0 0 0 0 0 0 0 0 0 0 0 0 0 0 127 0" result="hardAlpha"/>
<feOffset dy="2.45934"/>
<feGaussianBlur stdDeviation="0.614835"/>
<feColorMatrix type="matrix" values="0 0 0 0 0 0 0 0 0 0 0 0 0 0 0 0 0 0 0.2 0"/>
<feBlend mode="normal" in2="effect1_dropShadow_1206_23382" result="effect2_dropShadow_1206_23382"/>
<feBlend mode="normal" in="SourceGraphic" in2="effect2_dropShadow_1206_23382" result="shape"/>
</filter>
</defs>
</svg>
