<svg width="45" height="45" viewBox="0 0 45 45" fill="none" xmlns="http://www.w3.org/2000/svg">
<path d="M1.10598 24.8901L3.28678 25.4309L4.92838 22.8533L1.80838 22.0821C1.43601 21.989 1.0419 22.0476 0.712733 22.245C0.383569 22.4425 0.146319 22.7626 0.053175 23.1349C-0.0399691 23.5073 0.0186229 23.9014 0.216061 24.2306C0.413499 24.5597 0.733611 24.797 1.10598 24.8901V24.8901ZM29.5716 25.3077L22.4308 31.7333L14.0356 25.2357C13.8754 25.1125 13.6912 25.0242 13.4948 24.9765L12.378 24.6981L10.7348 27.2757L12.4948 27.7125L21.61 34.7653C21.8806 34.9736 22.2155 35.0808 22.5568 35.0682C22.8981 35.0556 23.2242 34.9242 23.4788 34.6965L31.5236 27.4533C31.6652 27.3264 31.7803 27.1726 31.8622 27.0009C31.9441 26.8293 31.9912 26.643 32.0007 26.4531C32.0102 26.2631 31.982 26.0731 31.9177 25.8941C31.8534 25.7151 31.7542 25.5506 31.626 25.4101C31.3665 25.1252 31.0048 24.9546 30.6199 24.9354C30.235 24.9162 29.8581 25.0501 29.5716 25.3077V25.3077ZM13.8964 18.2485L21.7156 23.2549C22.0332 23.458 22.417 23.5304 22.7867 23.457C23.1565 23.3837 23.4835 23.1702 23.6996 22.8613L31.7428 11.2741C31.8517 11.1178 31.9285 10.9414 31.9689 10.7551C32.0093 10.5689 32.0124 10.3765 31.978 10.1891C31.9436 10.0017 31.8725 9.82293 31.7687 9.66314C31.6649 9.50335 31.5305 9.36569 31.3732 9.25813C31.0559 9.03888 30.6645 8.9545 30.2851 9.02349C29.9056 9.09249 29.569 9.30922 29.3492 9.62613L22.1044 20.0597L14.2388 15.0245C13.9123 14.8159 13.5165 14.7451 13.138 14.8277C12.7608 14.912 12.4324 15.1421 12.2244 15.4677L0.229175 34.2949C0.0885157 34.5139 0.00962041 34.7668 0.000825352 35.0269C-0.00796971 35.2871 0.0536621 35.5447 0.179209 35.7727C0.304755 36.0007 0.489554 36.1905 0.714078 36.3222C0.938603 36.4538 1.19452 36.5223 1.45478 36.5205C1.69963 36.5211 1.94067 36.4599 2.1555 36.3424C2.37033 36.2249 2.55198 36.055 2.68358 35.8485L13.8964 18.2485V18.2485Z" fill="#2EB77D"/>
</svg>
