<svg width="32" height="32" viewBox="0 0 32 32" fill="none" xmlns="http://www.w3.org/2000/svg">
<g clip-path="url(#clip0)">
<path d="M16 0C12.8355 0 9.74204 0.938384 7.11085 2.69649C4.47967 4.45459 2.42891 6.95345 1.2179 9.87706C0.00690198 12.8007 -0.309951 16.0177 0.307412 19.1214C0.924776 22.2251 2.44863 25.0761 4.68627 27.3137C6.92391 29.5513 9.77484 31.0752 12.8785 31.6926C15.9822 32.3099 19.1993 31.9931 22.1229 30.7821C25.0465 29.5711 27.5454 27.5203 29.3035 24.8891C31.0616 22.2579 32 19.1645 32 16C31.9953 11.758 30.3081 7.69099 27.3086 4.69141C24.309 1.69183 20.242 0.00463214 16 0V0ZM16 30.5C13.1321 30.5 10.3287 29.6496 7.94421 28.0563C5.5597 26.463 3.70119 24.1984 2.60372 21.5489C1.50625 18.8994 1.2191 15.9839 1.77859 13.1712C2.33808 10.3585 3.71907 7.77481 5.74693 5.74695C7.77479 3.71909 10.3584 2.3381 13.1712 1.77861C15.9839 1.21913 18.8994 1.50628 21.5489 2.60375C24.1984 3.70122 26.463 5.55972 28.0563 7.94423C29.6496 10.3287 30.5 13.1322 30.5 16C30.4953 19.8442 28.9662 23.5297 26.2479 26.2479C23.5296 28.9662 19.8442 30.4954 16 30.5Z" fill="#2EB77D"/>
<path d="M21.975 10.59L12.605 19.805L10.0425 17.1075C9.90433 16.9688 9.71738 16.8896 9.52159 16.8868C9.3258 16.8841 9.13671 16.9581 8.99471 17.0929C8.85271 17.2277 8.76907 17.4127 8.76165 17.6084C8.75423 17.804 8.82362 17.9948 8.95501 18.14L12.0425 21.39C12.111 21.4619 12.1932 21.5195 12.2842 21.5594C12.3752 21.5994 12.4732 21.6208 12.5725 21.6225H12.585C12.7814 21.6224 12.9699 21.5452 13.11 21.4075L23.0225 11.6575C23.0928 11.5884 23.1487 11.5061 23.1872 11.4154C23.2256 11.3247 23.2459 11.2272 23.2467 11.1287C23.2475 11.0302 23.2289 10.9324 23.1919 10.8411C23.155 10.7497 23.1004 10.6665 23.0313 10.5963C22.9621 10.526 22.8799 10.47 22.7891 10.4316C22.6984 10.3931 22.601 10.3729 22.5024 10.3721C22.4039 10.3713 22.3062 10.3899 22.2148 10.4269C22.1234 10.4638 22.0403 10.5184 21.97 10.5875L21.975 10.59Z" fill="#2EB77D"/>
</g>
<defs>
<clipPath id="clip0">
<rect width="32" height="32" fill="white"/>
</clipPath>
</defs>
</svg>
