<svg width="32" height="32" viewBox="0 0 32 32" fill="none" xmlns="http://www.w3.org/2000/svg">
<circle cx="16" cy="16" r="16" fill="#2EB77D"/>
<path d="M21.975 10.59L12.605 19.805L10.0425 17.1075C9.90433 16.9688 9.71738 16.8896 9.52159 16.8868C9.3258 16.8841 9.13671 16.9581 8.99471 17.0929C8.85271 17.2277 8.76907 17.4127 8.76165 17.6084C8.75423 17.804 8.82362 17.9948 8.95501 18.14L12.0425 21.39C12.111 21.4619 12.1932 21.5195 12.2842 21.5594C12.3752 21.5994 12.4732 21.6208 12.5725 21.6225H12.585C12.7814 21.6224 12.9699 21.5452 13.11 21.4075L23.0225 11.6575C23.0928 11.5884 23.1487 11.5061 23.1872 11.4154C23.2256 11.3247 23.2459 11.2272 23.2467 11.1287C23.2475 11.0302 23.2289 10.9324 23.1919 10.8411C23.155 10.7497 23.1004 10.6665 23.0313 10.5963C22.9621 10.526 22.8799 10.47 22.7891 10.4316C22.6984 10.3931 22.601 10.3729 22.5024 10.3721C22.4039 10.3713 22.3062 10.3899 22.2148 10.4269C22.1234 10.4638 22.0403 10.5184 21.97 10.5875L21.975 10.59Z" fill="white"/>
</svg>
