<svg width="45" height="45" viewBox="0 0 45 45" fill="none" xmlns="http://www.w3.org/2000/svg">
<path d="M38.4235 22.5673C36.9141 18.6952 34.2936 15.3466 30.8861 12.9354C27.4785 10.5242 23.4331 9.156 19.25 9C15.0669 9.156 11.0215 10.5242 7.61395 12.9354C4.20636 15.3466 1.58591 18.6952 0.0764562 22.5673C-0.0254854 22.8469 -0.0254854 23.1531 0.0764562 23.4327C1.58591 27.3048 4.20636 30.6534 7.61395 33.0646C11.0215 35.4758 15.0669 36.844 19.25 37C23.4331 36.844 27.4785 35.4758 30.8861 33.0646C34.2936 30.6534 36.9141 27.3048 38.4235 23.4327C38.5255 23.1531 38.5255 22.8469 38.4235 22.5673V22.5673ZM19.25 34.4545C12.4481 34.4545 5.26127 29.4527 2.65603 23C5.26127 16.5473 12.4481 11.5455 19.25 11.5455C26.0519 11.5455 33.2387 16.5473 35.844 23C33.2387 29.4527 26.0519 34.4545 19.25 34.4545Z" fill="#2EB77D"/>
<path d="M19.2495 15.3635C17.7266 15.3635 16.2378 15.8114 14.9715 16.6505C13.7052 17.4896 12.7183 18.6822 12.1355 20.0776C11.5527 21.4729 11.4002 23.0084 11.6973 24.4897C11.9944 25.971 12.7278 27.3317 13.8047 28.3996C14.8816 29.4676 16.2536 30.1949 17.7473 30.4895C19.241 30.7842 20.7893 30.6329 22.1963 30.055C23.6033 29.477 24.8059 28.4982 25.652 27.2424C26.4981 25.9866 26.9498 24.5102 26.9498 22.9999C26.9498 20.9746 26.1385 19.0323 24.6944 17.6002C23.2503 16.1681 21.2918 15.3635 19.2495 15.3635ZM19.2495 28.0908C18.2342 28.0908 17.2417 27.7922 16.3975 27.2328C15.5533 26.6734 14.8954 25.8783 14.5068 24.9481C14.1183 24.0179 14.0166 22.9942 14.2147 22.0067C14.4128 21.0192 14.9017 20.112 15.6196 19.4001C16.3375 18.6881 17.2522 18.2032 18.248 18.0068C19.2438 17.8104 20.276 17.9112 21.214 18.2965C22.1521 18.6818 22.9538 19.3343 23.5179 20.1715C24.0819 21.0087 24.383 21.993 24.383 22.9999C24.383 24.3501 23.8422 25.645 22.8795 26.5997C21.9167 27.5544 20.611 28.0908 19.2495 28.0908Z" fill="#2EB77D"/>
</svg>
