<svg width="45" height="45" viewBox="0 0 45 45" fill="none" xmlns="http://www.w3.org/2000/svg">
<path fill-rule="evenodd" clip-rule="evenodd" d="M3.18545 30.6462L3.18482 30.6464L3.18401 30.6466C2.99731 30.6871 2.80955 30.7278 2.61999 30.7678H2.61958V30.5427L2.62081 27.9845C2.62449 22.9156 2.62818 17.8471 2.63227 12.7786C2.63227 12.7647 2.63194 12.7508 2.63161 12.7372C2.62901 12.6285 2.62672 12.5326 2.79436 12.4868C4.61701 11.9878 6.47037 11.6948 8.35851 11.626C11.1836 11.5229 13.9296 11.9801 16.6131 12.8306C18.7808 13.5174 20.9898 13.966 23.2598 14.106C25.5385 14.2464 27.8019 14.1105 30.0355 13.6402C30.8674 13.4654 31.6877 13.2345 32.5073 13.0037C32.6971 12.9503 32.8868 12.8968 33.0767 12.8441C33.52 12.7209 33.8601 12.4512 33.9727 11.978C34.1012 11.4381 33.9223 10.9797 33.5392 10.6015C33.1684 10.2356 32.7259 10.2024 32.2483 10.36C30.8075 10.8356 29.3336 11.1606 27.8285 11.3514C26.1373 11.5654 24.4423 11.5961 22.7449 11.4459C21.0144 11.2928 19.3223 10.9404 17.6715 10.4001C15.6102 9.7256 13.5056 9.26594 11.342 9.09035C8.83126 8.88692 6.33857 9.02199 3.87452 9.54673C2.94375 9.74483 2.02363 10.0039 1.11087 10.2757C0.343411 10.5041 0 11.0182 0 11.8159V32.3833C0 33.4754 0.816163 34.0685 1.86195 33.7328C4.05626 33.0272 6.30337 32.6338 8.6086 32.5786C11.3072 32.5139 13.9358 32.9465 16.5001 33.7566C18.9523 34.531 21.4495 35.0172 24.0212 35.1003C26.3714 35.1761 28.693 34.9493 30.979 34.3959C31.6335 34.2371 32.2831 34.0521 32.9249 33.8483C33.7173 33.5965 34.0554 33.1049 34.0554 32.279V20.3681C34.0554 20.0304 34.0558 19.6928 34.0561 19.3552C34.0571 18.5263 34.058 17.6974 34.0533 16.8685C34.0488 16.015 33.2851 15.372 32.5041 15.5517C31.9654 15.6753 31.4358 16.3838 31.4354 16.9831L31.4345 17.9385C31.4303 22.4089 31.426 26.8794 31.4268 31.3498C31.4268 31.5238 31.376 31.5946 31.2078 31.6404C29.6966 32.0522 28.1593 32.308 26.5973 32.4058C23.5017 32.5995 20.4692 32.2237 17.5127 31.3019C15.1907 30.5779 12.8319 30.0953 10.3993 29.984C8.38061 29.8915 6.37827 30.022 4.39271 30.3957C3.99049 30.4716 3.59056 30.5583 3.1856 30.6462L3.18545 30.6462ZM22.2292 22.0049C22.2456 19.2482 19.8417 16.8635 17.0244 16.8427C14.2845 16.8222 11.8434 19.2805 11.8217 22.0818C11.8004 24.8647 14.1707 27.242 16.9908 27.2661C19.7361 27.2899 22.2124 24.8025 22.2292 22.0049ZM14.4519 22.1739C14.447 20.7524 15.6643 19.4725 17.0301 19.4631V19.4635C18.4173 19.4537 19.5973 20.605 19.6022 21.973C19.6076 23.4313 18.4926 24.6253 17.1157 24.6363C15.6704 24.6478 14.4568 23.5259 14.4519 22.1739ZM10.6566 16.9277C10.9789 16.932 11.3013 16.9362 11.6236 16.9401V16.9839C11.6516 16.9839 11.6796 16.9844 11.7077 16.985C11.7682 16.9861 11.8288 16.9873 11.8892 16.9831C12.7357 16.9262 13.3554 15.9266 12.9817 15.2009C12.734 14.7208 12.3133 14.4253 11.7852 14.3745C10.958 14.2951 10.1255 14.2571 9.2946 14.2378C8.29916 14.2145 7.30249 14.2374 6.31646 14.4003C5.73238 14.4969 5.31488 15.0147 5.28337 15.6553C5.25267 16.2778 5.57602 16.7493 6.17648 16.9016C6.40978 16.9606 6.66069 16.9696 6.903 16.9655C7.07511 16.9626 7.24703 16.9482 7.41886 16.9338H7.41886C7.61442 16.9174 7.80984 16.901 8.00527 16.9016C8.8888 16.9043 9.7721 16.916 10.6553 16.9277L10.6566 16.9277ZM24.0717 30.0685C24.306 30.0822 24.5296 30.0953 24.7383 30.1084L24.7374 30.108C24.977 30.0982 25.1992 30.0914 25.4094 30.0849C25.8592 30.0711 26.254 30.059 26.6465 30.0233C27.1114 29.9807 27.5826 29.9189 28.0291 29.7895C28.4843 29.6581 28.7421 29.2988 28.7769 28.8158C28.8428 27.9018 28.1421 27.2498 27.1999 27.3468C26.0108 27.4692 24.8205 27.499 23.6274 27.4258C23.2807 27.4045 22.9344 27.3787 22.5882 27.3501C21.8837 27.2915 21.2571 27.6169 21.0488 28.1535C20.7405 28.948 21.3713 29.882 22.2791 29.952C22.8961 29.9996 23.5138 30.0358 24.0717 30.0685Z" fill="#2EB77D"/>
</svg>
