<svg width="23" height="19" viewBox="0 0 23 19" fill="none" xmlns="http://www.w3.org/2000/svg">
<path d="M18.7762 6.32578C19.2599 6.33569 19.7272 6.38476 20.173 6.55054C21.6759 7.1096 22.6269 8.17914 22.9261 9.78147C23.351 12.0586 21.923 14.1994 19.6945 14.6802C19.4483 14.7305 19.198 14.7575 18.9468 14.7609C18.4076 14.7731 17.8675 14.7659 17.328 14.7647C17.0139 14.7647 16.7985 14.5501 16.8004 14.2443C16.8024 13.9454 17.0169 13.7363 17.3261 13.7355C17.821 13.734 18.3163 13.7355 18.8112 13.7355C20.3592 13.733 21.6216 12.7014 21.9293 11.1551C22.259 9.49897 21.2308 7.85699 19.5896 7.4538C19.2027 7.35914 18.8139 7.35072 18.4192 7.40424C18.0334 7.45579 17.8196 7.27414 17.7836 6.87765C17.6375 5.26937 16.9892 3.90948 15.8387 2.79797C14.9199 1.91131 13.8272 1.36217 12.5762 1.15996C9.82359 0.714399 7.18828 2.10411 5.95657 4.64043C5.90983 4.73633 5.86819 4.83496 5.82291 4.93161C5.72552 5.14224 5.5624 5.24682 5.3311 5.25029C3.51604 5.27829 1.97124 6.42788 1.39616 8.17443C0.618767 10.5393 2.07787 13.1237 4.4775 13.6384C4.93401 13.7375 5.39465 13.7375 5.85675 13.736C6.18203 13.736 6.3975 13.9717 6.3768 14.2988C6.36146 14.5389 6.16693 14.7535 5.93125 14.7614C5.07376 14.7894 4.21991 14.7758 3.40454 14.448C1.6316 13.735 0.497519 12.4414 0.112108 10.5408C-0.360221 8.21136 0.700815 5.96968 2.75155 4.83372C3.41233 4.46721 4.12447 4.27417 4.87363 4.22634C4.98099 4.21941 5.03797 4.18992 5.08617 4.09005C5.53064 3.16707 6.16415 2.35167 6.94408 1.69869C7.98004 0.828638 9.15965 0.269582 10.4919 0.0829819C12.8964 -0.253542 14.9859 0.439331 16.7189 2.16904C17.8281 3.27625 18.4918 4.63548 18.7445 6.19667C18.7509 6.23756 18.7638 6.27647 18.7762 6.32578Z" fill="#2EB77D"/>
<path d="M12.0943 17.3972C12.1574 17.3509 12.1932 17.3266 12.2265 17.2996C12.7621 16.8642 13.2978 16.4285 13.8334 15.9924C13.959 15.89 14.0949 15.8328 14.26 15.8603C14.4693 15.8952 14.6084 16.0166 14.6695 16.2181C14.7355 16.4369 14.6729 16.6282 14.499 16.7725C14.1979 17.0237 13.8918 17.2681 13.588 17.5159L12.0025 18.808C11.6906 19.0617 11.5 19.0647 11.191 18.8137C10.3632 18.1416 9.53627 17.4687 8.7101 16.795C8.52847 16.6463 8.44545 16.4605 8.50778 16.228C8.56572 16.0124 8.71472 15.8883 8.93092 15.8528C9.09015 15.8266 9.22308 15.8883 9.34482 15.9877C9.85415 16.4036 10.3638 16.8192 10.8738 17.2344C10.9327 17.2825 10.9933 17.3281 11.0832 17.3979V17.1997C11.0832 14.8168 11.0832 12.4339 11.0832 10.0511C11.0832 9.77853 11.2293 9.58028 11.4693 9.52155C11.543 9.50226 11.62 9.50036 11.6945 9.51598C11.769 9.5316 11.839 9.56434 11.8992 9.6117C11.9594 9.65906 12.0081 9.71978 12.0417 9.78924C12.0753 9.85869 12.0929 9.93504 12.0931 10.0125C12.096 10.8136 12.0946 11.6148 12.0946 12.4162C12.0946 14.0062 12.0946 15.5961 12.0946 17.1861L12.0943 17.3972Z" fill="#2EB77D"/>
</svg>
