<svg width="160" height="160" viewBox="0 0 160 160" fill="none" xmlns="http://www.w3.org/2000/svg">
<path d="M9.4932 73.8231C7.08266 77.1168 6.31189 81.0141 7.03741 85.1771C14.3486 125.516 83.9243 169.787 115.179 147.905C120.517 144.06 125.922 140.437 131.094 136.468C133.235 134.866 135.257 132.714 137.1 130.543C139.888 127.074 141.047 122.895 140.821 118.248C140.617 114.247 139.768 110.394 138.732 106.628C136.405 98.1022 133.524 89.7326 130.254 81.6443C127.272 74.2318 124.313 66.6065 121.53 59.0001C116.87 46.2485 111.723 33.8755 105.809 21.9592C104.339 18.9003 102.581 16.0262 100.512 13.5491C95.831 7.78515 90.023 6.74084 83.7206 10.376C81.4349 11.6397 79.2043 13.232 77.1397 14.9493C68.5928 22.0031 60.0461 29.0571 51.6428 36.4487C39.3653 47.4095 27.3313 58.6111 14.5342 68.5492C12.6806 69.9663 10.9595 71.8274 9.4932 73.8231Z" fill="#FFE104"/>
<path d="M76.6329 43.531C77.1296 36.9493 77.5305 30.2362 77.7699 23.5887C76.8663 10.527 81.863 -0.167443 96.7573 3.86166C102.37 5.94795 105.386 11.5253 104.937 17.3239C104.519 27.2711 104.01 37.314 104.219 47.2194C107.882 40.0818 108.869 31.4377 112.723 24.2463C118.683 14.1436 135.905 18.2923 137.245 29.6922C137.407 37.314 133.571 44.5174 131.758 51.8403C128.957 61.1479 126.223 70.4913 123.38 79.793C123.165 80.4625 123.781 80.7434 124.092 81.0005C127.138 83.4993 128.461 86.9844 129.257 90.595C133.41 111.362 121.657 130.384 114.123 148.898C113.285 151.414 115.104 155.049 112.124 156.609C110.15 157.715 107.451 156.358 107.379 154.009C107.582 150.87 106.822 147.588 108.612 144.809C112.28 136.422 116.08 128.1 119.503 119.606C122.908 110.657 124.41 100.524 122.429 91.0792C121.382 84.7965 114.668 84.5633 109.599 83.7025C103.214 82.8238 96.871 81.6999 90.4381 81.2037C85.98 79.9006 85.1004 84.1927 85.8364 87.6957C87.2187 92.6514 93.131 92.6873 97.0385 94.7796C104.674 98.0196 109.037 96.8061 105.464 106.753C105.171 108.098 104.195 108.75 103.094 109.252C99.121 111.249 95.5306 114.004 92.2752 117.005C87.9727 121.166 84.5558 126.684 84.7832 132.853C84.9029 136.673 78.4341 136.709 78.4281 132.811C78.0332 121.07 87.0212 111.613 96.2666 105.6C96.9608 104.858 100.94 103.645 99.0312 102.641C93.4361 99.8907 86.3271 99.5021 81.9109 94.8573C77.2612 89.7402 76.9082 80.594 82.5212 76.0448C87.6855 72.6016 94.1482 75.728 99.8331 75.7818C104.207 76.5529 108.684 76.9116 113.004 77.886C114.141 77.8382 116.194 79.0936 116.804 77.8322C118.719 70.862 121.065 64.0113 123.027 57.047C125.403 48.8095 128.293 40.6317 130.382 32.3284C131.381 27.9287 125.062 24.2523 120.885 25.8125C116.415 27.6657 116.379 33.5659 114.614 37.4814C111.472 46.9862 108.055 56.3895 104.872 65.8824C103.489 68.5725 103.848 73.827 99.7014 73.3787C98.6662 73.3189 97.7148 73.3727 96.9667 72.4282C95.4887 67.1915 96.871 61.1419 96.6855 55.6542C97.3258 42.7061 97.2121 29.74 97.9481 16.7978C98.6183 11.4058 92.9933 8.27933 88.2659 10.1325C82.0425 12.7747 84.8969 22.1361 83.8617 27.582C83.4847 37.1944 82.7726 46.783 82.3178 56.3954C82.1801 60.7593 81.7792 65.1172 81.6356 69.493C82.1203 72.3684 80.6004 77.5572 76.7706 75.184C73.4674 72.2728 73.7785 61.6381 72.2406 56.8856C70.7446 49.0247 69.3443 41.1279 67.8483 33.261C66.2027 28.1499 67.609 21.2932 62.8456 17.7782C58.7226 15.8892 52.7146 18.6928 53.2353 23.511C56.0119 40.2013 59.3809 56.8558 62.2532 73.5401C62.8935 77.2643 65.6881 85.6872 58.6987 83.4933C55.216 80.1516 53.4447 75.0286 50.5006 71.119C46.1561 64.0053 41.9074 56.8378 37.4374 49.7959C36.5577 46.9922 34.194 45.5396 31.2798 46.9265C28.1381 48.2356 27.9347 50.7643 29.0357 53.3228C31.3695 59.0496 33.9247 64.6629 36.2824 70.3778C38.6761 76.0568 40.8901 81.8553 43.4154 87.4626C46.3955 97.5653 46.9759 108.278 49.0644 118.613C51.2964 129.469 56.1495 139.703 59.2492 150.338C60.3683 154.899 53.7499 156.029 52.7924 151.892C49.0943 139.363 42.9906 127.497 41.5963 114.387C40.4234 107.447 39.1069 100.488 38.1674 93.5242C34.2598 79.9484 27.1508 67.4067 22.4234 54.1179C20.1494 46.8846 27.426 39.5198 34.924 40.4643C38.8376 40.9007 41.6561 42.8436 43.3616 46.4662C46.7904 52.3066 50.2851 58.1171 54.067 63.7662C52.3676 52.8267 49.9799 42.0126 48.1129 31.1029C47.4427 26.9603 45.839 22.6143 47.8317 18.5673C51.0989 10.0906 64.4195 8.0163 69.9308 15.3811C74.7838 23.792 73.9461 34.3729 76.6509 43.531H76.6329Z" fill="black"/>
</svg>
