<svg width="45" height="45" viewBox="0 0 45 45" fill="none" xmlns="http://www.w3.org/2000/svg">
<path d="M29.75 9.15222C30.3136 9.15222 30.8541 9.37897 31.2526 9.78259C31.6511 10.1862 31.875 10.7336 31.875 11.3044V28.5222C31.875 29.093 31.6511 29.6404 31.2526 30.0441C30.8541 30.4477 30.3136 30.6744 29.75 30.6744H24.4375C23.7777 30.6744 23.127 30.83 22.5368 31.1289C21.9467 31.4277 21.4334 31.8616 21.0375 32.3962L17 37.8478L12.9625 32.3962C12.5666 31.8616 12.0533 31.4277 11.4632 31.1289C10.873 30.83 10.2223 30.6744 9.5625 30.6744H4.25C3.68641 30.6744 3.14591 30.4477 2.7474 30.0441C2.34888 29.6404 2.125 29.093 2.125 28.5222V11.3044C2.125 10.7336 2.34888 10.1862 2.7474 9.78259C3.14591 9.37897 3.68641 9.15222 4.25 9.15222H29.75ZM4.25 7C3.12283 7 2.04183 7.4535 1.2448 8.26074C0.447767 9.06798 0 10.1628 0 11.3044L0 28.5222C0 29.6638 0.447767 30.7587 1.2448 31.5659C2.04183 32.3731 3.12283 32.8266 4.25 32.8266H9.5625C9.8924 32.8266 10.2178 32.9044 10.5128 33.0539C10.8079 33.2033 11.0646 33.4202 11.2625 33.6875L15.3 39.1391C15.4979 39.4064 15.7546 39.6234 16.0497 39.7728C16.3447 39.9222 16.6701 40 17 40C17.3299 40 17.6553 39.9222 17.9503 39.7728C18.2454 39.6234 18.5021 39.4064 18.7 39.1391L22.7375 33.6875C22.9354 33.4202 23.1921 33.2033 23.4872 33.0539C23.7822 32.9044 24.1076 32.8266 24.4375 32.8266H29.75C30.8772 32.8266 31.9582 32.3731 32.7552 31.5659C33.5522 30.7587 34 29.6638 34 28.5222V11.3044C34 10.1628 33.5522 9.06798 32.7552 8.26074C31.9582 7.4535 30.8772 7 29.75 7H4.25Z" fill="#2EB77D"/>
<path d="M15.7692 13.6236V12H18.5385V13.6209C20.1391 14.1922 21.3077 15.6969 21.3077 17.4641H18.5385C18.5385 16.6905 17.9375 16.0974 17.1538 16.0974C16.3702 16.0974 15.7692 16.6905 15.7692 17.4641C15.7692 18.2376 16.3702 18.8308 17.1538 18.8308C19.4315 18.8308 21.3077 20.6827 21.3077 22.9309C21.3077 24.698 20.1391 26.2055 18.5385 26.7768V28.4004H15.7692V26.7795C14.1686 26.2083 13 24.7035 13 22.9364H15.7692C15.7692 23.7099 16.3702 24.3031 17.1538 24.3031C17.9375 24.3031 18.5385 23.7099 18.5385 22.9364C18.5385 22.1628 17.9375 21.5697 17.1538 21.5697C14.8762 21.5697 13 19.7178 13 17.4695C13 15.7024 14.1686 14.1936 15.7692 13.6236Z" fill="#2EB77D"/>
</svg>
