<svg width="45" height="45" viewBox="0 0 45 45" fill="none" xmlns="http://www.w3.org/2000/svg">
<path d="M13.2195 11.3288C13.2195 9.91554 13.7758 8.56013 14.7661 7.56078C15.7564 6.56143 17.0995 6 18.4999 6C19.9004 6 21.2435 6.56143 22.2338 7.56078C23.224 8.56013 23.7804 9.91554 23.7804 11.3288C23.7804 12.7421 23.224 14.0975 22.2338 15.0969C21.2435 16.0962 19.9004 16.6577 18.4999 16.6577C17.0995 16.6577 15.7564 16.0962 14.7661 15.0969C13.7758 14.0975 13.2195 12.7421 13.2195 11.3288V11.3288ZM18.4999 8.66708C18.1536 8.66708 17.8106 8.73593 17.4906 8.8697C17.1706 9.00346 16.8798 9.19952 16.6349 9.44669C16.39 9.69386 16.1957 9.98729 16.0631 10.3102C15.9306 10.6332 15.8623 10.9793 15.8623 11.3288C15.8623 11.6784 15.9306 12.0245 16.0631 12.3474C16.1957 12.6704 16.39 12.9638 16.6349 13.211C16.8798 13.4581 17.1706 13.6542 17.4906 13.788C17.8106 13.9217 18.1536 13.9906 18.4999 13.9906C19.1995 13.9906 19.8703 13.7101 20.365 13.211C20.8596 12.7118 21.1375 12.0348 21.1375 11.3288C21.1375 10.6229 20.8596 9.94586 20.365 9.44669C19.8703 8.94752 19.1995 8.66708 18.4999 8.66708V8.66708Z" fill="#2EB77D"/>
<path d="M26.4287 12.6627C26.4287 12.1374 26.5313 11.6171 26.7305 11.1318C26.9297 10.6464 27.2217 10.2054 27.5898 9.83387C27.9579 9.46237 28.395 9.16769 28.8759 8.96664C29.3569 8.76559 29.8724 8.66211 30.393 8.66211C30.9136 8.66211 31.4291 8.76559 31.9101 8.96664C32.3911 9.16769 32.8281 9.46237 33.1962 9.83387C33.5643 10.2054 33.8563 10.6464 34.0555 11.1318C34.2548 11.6171 34.3573 12.1374 34.3573 12.6627C34.3573 13.7238 33.9396 14.7413 33.1962 15.4916C32.4527 16.2419 31.4444 16.6634 30.393 16.6634C29.3416 16.6634 28.3333 16.2419 27.5898 15.4916C26.8464 14.7413 26.4287 13.7238 26.4287 12.6627ZM30.393 11.3292C30.0425 11.3292 29.7064 11.4697 29.4586 11.7198C29.2108 11.9699 29.0716 12.3091 29.0716 12.6627C29.0716 13.0164 29.2108 13.3556 29.4586 13.6057C29.7064 13.8558 30.0425 13.9963 30.393 13.9963C30.7435 13.9963 31.0796 13.8558 31.3274 13.6057C31.5752 13.3556 31.7144 13.0164 31.7144 12.6627C31.7144 12.3091 31.5752 11.9699 31.3274 11.7198C31.0796 11.4697 30.7435 11.3292 30.393 11.3292Z" fill="#2EB77D"/>
<path d="M6.60712 8.66211C5.55572 8.66211 4.54739 9.0836 3.80394 9.83387C3.06049 10.5841 2.64282 11.6017 2.64282 12.6627C2.64282 13.7238 3.06049 14.7413 3.80394 15.4916C4.54739 16.2419 5.55572 16.6634 6.60712 16.6634C7.65852 16.6634 8.66686 16.2419 9.41031 15.4916C10.1538 14.7413 10.5714 13.7238 10.5714 12.6627C10.5714 11.6017 10.1538 10.5841 9.41031 9.83387C8.66686 9.0836 7.65852 8.66211 6.60712 8.66211ZM5.28569 12.6627C5.28569 12.3091 5.42491 11.9699 5.67273 11.7198C5.92054 11.4697 6.25666 11.3292 6.60712 11.3292C6.95759 11.3292 7.2937 11.4697 7.54152 11.7198C7.78933 11.9699 7.92856 12.3091 7.92856 12.6627C7.92856 13.0164 7.78933 13.3556 7.54152 13.6057C7.2937 13.8558 6.95759 13.9963 6.60712 13.9963C6.25666 13.9963 5.92054 13.8558 5.67273 13.6057C5.42491 13.3556 5.28569 13.0164 5.28569 12.6627Z" fill="#2EB77D"/>
<path d="M8.63689 19.3303C8.17176 20.1407 7.92739 21.0609 7.9286 21.9974H2.64287V28.6651C2.64265 29.3285 2.80592 29.9816 3.11797 30.5655C3.43002 31.1494 3.88105 31.6458 4.43047 32.01C4.97989 32.3743 5.61045 32.5949 6.26538 32.6521C6.92031 32.7093 7.57906 32.6013 8.18232 32.3377C8.37789 33.2205 8.68446 34.0633 9.08089 34.8501C8.07783 35.2588 6.99067 35.4127 5.91488 35.2983C4.8391 35.184 3.8076 34.8048 2.91096 34.1941C2.01433 33.5834 1.27999 32.7599 0.772438 31.7958C0.264884 30.8318 -0.000359556 29.7568 3.65808e-07 28.6651V21.9974C3.65808e-07 21.2901 0.278444 20.6117 0.774078 20.1115C1.26971 19.6113 1.94193 19.3303 2.64287 19.3303H8.63689Z" fill="#2EB77D"/>
<path d="M27.9192 34.8503C28.9223 35.259 30.0094 35.413 31.0852 35.2986C32.161 35.1842 33.1925 34.805 34.0891 34.1943C34.9857 33.5836 35.7201 32.7601 36.2276 31.7961C36.7352 30.832 37.0004 29.757 37.0001 28.6654V21.9976C37.0001 21.2903 36.7216 20.6119 36.226 20.1117C35.7304 19.6116 35.0581 19.3306 34.3572 19.3306H28.3632C28.8125 20.1147 29.0715 21.0242 29.0715 21.9976H34.3572V28.6654C34.3574 29.3288 34.1942 29.9818 33.8821 30.5657C33.5701 31.1496 33.119 31.646 32.5696 32.0103C32.0202 32.3745 31.3896 32.5952 30.7347 32.6524C30.0798 32.7096 29.421 32.6015 28.8178 32.3379C28.6195 33.2207 28.3156 34.0635 27.9192 34.8503Z" fill="#2EB77D"/>
<path d="M13.2144 19.3306C12.5135 19.3306 11.8412 19.6116 11.3456 20.1117C10.85 20.6119 10.5715 21.2903 10.5715 21.9976V29.9989C10.5715 32.121 11.4069 34.1561 12.8938 35.6566C14.3807 37.1572 16.3973 38.0001 18.5001 38.0001C20.6029 38.0001 22.6196 37.1572 24.1065 35.6566C25.5934 34.1561 26.4287 32.121 26.4287 29.9989V21.9976C26.4287 21.2903 26.1503 20.6119 25.6547 20.1117C25.159 19.6116 24.4868 19.3306 23.7859 19.3306H13.2144ZM13.2144 21.9976H23.7859V29.9989C23.7859 31.4136 23.229 32.7704 22.2377 33.7707C21.2464 34.7711 19.902 35.3331 18.5001 35.3331C17.0983 35.3331 15.7538 34.7711 14.7626 33.7707C13.7713 32.7704 13.2144 31.4136 13.2144 29.9989V21.9976Z" fill="#2EB77D"/>
</svg>
