<svg width="45" height="46" viewBox="0 0 45 46" fill="none" xmlns="http://www.w3.org/2000/svg">
<path d="M16 32.6C22.4 32.6 24 26.2 24 26.2H8C8 26.2 9.6 32.6 16 32.6Z" fill="#2EB77D"/>
<path d="M16 7C7.1776 7 0 14.1776 0 23C0 31.8224 7.1776 39 16 39C24.8224 39 32 31.8224 32 23C32 14.1776 24.8224 7 16 7ZM16 35.8C8.9424 35.8 3.2 30.0576 3.2 23C3.2 15.9424 8.9424 10.2 16 10.2C23.0576 10.2 28.8 15.9424 28.8 23C28.8 30.0576 23.0576 35.8 16 35.8Z" fill="#2EB77D"/>
<path d="M17.6 23L20.8 23.0192C20.8192 22.28 21.1104 21.4 22.4 21.4C23.6896 21.4 23.9808 22.28 24 23H27.2C27.2 21.0704 25.9216 18.2 22.4 18.2C18.8784 18.2 17.6 21.0704 17.6 23ZM9.60005 21.4C10.8896 21.4 11.1808 22.28 11.2 23H14.4C14.4 21.0704 13.1216 18.2 9.60005 18.2C6.07845 18.2 4.80005 21.0704 4.80005 23L8.00005 23.0192C8.01925 22.28 8.31045 21.4 9.60005 21.4Z" fill="#2EB77D"/>
</svg>
