<svg width="17" height="16" viewBox="0 0 17 16" fill="none" xmlns="http://www.w3.org/2000/svg">
<path d="M8.99854 0C6.82754 0 6.55454 0.01 5.70154 0.048C4.84854 0.088 4.26754 0.222 3.75854 0.42C3.22463 0.620819 2.74103 0.935826 2.34154 1.343C1.93461 1.7427 1.61964 2.22624 1.41854 2.76C1.22054 3.268 1.08554 3.85 1.04654 4.7C1.00854 5.555 0.998535 5.827 0.998535 8.001C0.998535 10.173 1.00854 10.445 1.04654 11.298C1.08654 12.15 1.22054 12.731 1.41854 13.24C1.62354 13.766 1.89654 14.212 2.34154 14.657C2.78554 15.102 3.23154 15.376 3.75754 15.58C4.26754 15.778 4.84754 15.913 5.69954 15.952C6.55354 15.99 6.82554 16 8.99854 16C11.1715 16 11.4425 15.99 12.2965 15.952C13.1475 15.912 13.7305 15.778 14.2395 15.58C14.7731 15.3791 15.2564 15.0641 15.6555 14.657C16.1005 14.212 16.3735 13.766 16.5785 13.24C16.7755 12.731 16.9105 12.15 16.9505 11.298C16.9885 10.445 16.9985 10.173 16.9985 8C16.9985 5.827 16.9885 5.555 16.9505 4.701C16.9105 3.85 16.7755 3.268 16.5785 2.76C16.3775 2.22623 16.0625 1.74268 15.6555 1.343C15.2562 0.935676 14.7725 0.620645 14.2385 0.42C13.7285 0.222 13.1465 0.087 12.2955 0.048C11.4415 0.01 11.1705 0 8.99654 0H8.99954H8.99854ZM8.28154 1.442H8.99954C11.1355 1.442 11.3885 1.449 12.2315 1.488C13.0115 1.523 13.4355 1.654 13.7175 1.763C14.0905 1.908 14.3575 2.082 14.6375 2.362C14.9175 2.642 15.0905 2.908 15.2355 3.282C15.3455 3.563 15.4755 3.987 15.5105 4.767C15.5495 5.61 15.5575 5.863 15.5575 7.998C15.5575 10.133 15.5495 10.387 15.5105 11.23C15.4755 12.01 15.3445 12.433 15.2355 12.715C15.1073 13.0624 14.9026 13.3764 14.6365 13.634C14.3565 13.914 14.0905 14.087 13.7165 14.232C13.4365 14.342 13.0125 14.472 12.2315 14.508C11.3885 14.546 11.1355 14.555 8.99954 14.555C6.86354 14.555 6.60954 14.546 5.76654 14.508C4.98654 14.472 4.56354 14.342 4.28154 14.232C3.93403 14.1039 3.61966 13.8996 3.36154 13.634C3.09529 13.376 2.89026 13.0617 2.76154 12.714C2.65254 12.433 2.52154 12.009 2.48654 11.229C2.44854 10.386 2.44054 10.133 2.44054 7.996C2.44054 5.86 2.44854 5.608 2.48654 4.765C2.52254 3.985 2.65254 3.561 2.76254 3.279C2.90754 2.906 3.08154 2.639 3.36154 2.359C3.64154 2.079 3.90754 1.906 4.28154 1.761C4.56354 1.651 4.98654 1.521 5.76654 1.485C6.50454 1.451 6.79054 1.441 8.28154 1.44V1.442V1.442ZM13.2695 2.77C13.1435 2.77 13.0186 2.79483 12.9022 2.84308C12.7857 2.89132 12.6799 2.96203 12.5907 3.05118C12.5016 3.14032 12.4309 3.24615 12.3826 3.36262C12.3344 3.4791 12.3095 3.60393 12.3095 3.73C12.3095 3.85607 12.3344 3.9809 12.3826 4.09738C12.4309 4.21385 12.5016 4.31968 12.5907 4.40882C12.6799 4.49797 12.7857 4.56868 12.9022 4.61692C13.0186 4.66517 13.1435 4.69 13.2695 4.69C13.5241 4.69 13.7683 4.58886 13.9484 4.40882C14.1284 4.22879 14.2295 3.98461 14.2295 3.73C14.2295 3.47539 14.1284 3.23121 13.9484 3.05118C13.7683 2.87114 13.5241 2.77 13.2695 2.77V2.77ZM8.99954 3.892C8.45461 3.8835 7.91343 3.98349 7.40751 4.18614C6.9016 4.3888 6.44105 4.69007 6.05269 5.07242C5.66432 5.45478 5.3559 5.91057 5.14538 6.41326C4.93485 6.91595 4.82644 7.4555 4.82644 8.0005C4.82644 8.5455 4.93485 9.08505 5.14538 9.58774C5.3559 10.0904 5.66432 10.5462 6.05269 10.9286C6.44105 11.3109 6.9016 11.6122 7.40751 11.8149C7.91343 12.0175 8.45461 12.1175 8.99954 12.109C10.0781 12.0922 11.1067 11.6519 11.8635 10.8833C12.6203 10.1146 13.0444 9.07917 13.0444 8.0005C13.0444 6.92183 12.6203 5.88641 11.8635 5.11775C11.1067 4.34909 10.0781 3.90883 8.99954 3.892V3.892ZM8.99954 5.333C9.70687 5.333 10.3852 5.61399 10.8854 6.11415C11.3855 6.61431 11.6665 7.29267 11.6665 8C11.6665 8.70733 11.3855 9.38569 10.8854 9.88585C10.3852 10.386 9.70687 10.667 8.99954 10.667C8.2922 10.667 7.61384 10.386 7.11368 9.88585C6.61352 9.38569 6.33254 8.70733 6.33254 8C6.33254 7.29267 6.61352 6.61431 7.11368 6.11415C7.61384 5.61399 8.2922 5.333 8.99954 5.333V5.333Z" fill="#2C2D36"/>
</svg>
