<svg width="502" height="378" viewBox="0 0 502 378" fill="none" xmlns="http://www.w3.org/2000/svg">
<g filter="url(#filter0_dd)">
<path d="M481.122 165.532C474.511 159.501 465.531 156.456 455.842 156.964L433.94 158.111C437.623 148.717 439.156 137.754 438.507 125.382C438.373 120.458 437.056 115.639 434.668 111.331C433.951 110.055 433.127 108.841 432.206 107.703C431.603 101.726 429.786 95.9352 426.869 90.684C423.951 85.4327 419.993 80.8318 415.236 77.1625C406.05 69.8324 394.564 66.1891 381.939 66.6096C381.095 59.5005 377.64 52.9583 372.245 48.2519C368.373 44.8251 361.328 40.5747 350.69 41.1322L315.511 42.9758C300.406 43.7675 289.179 56.1017 289.963 71.0618L289.992 71.5997C288.417 71.5807 286.819 71.601 285.205 71.6856C273.131 72.3184 262.175 75.526 252.644 81.2163C249.196 83.2446 245.952 85.5991 242.954 88.2474C231.768 79.3151 217.188 75.2502 199.589 76.1725C192.088 76.4914 184.67 77.8736 177.557 80.2779L177.54 79.9678C177.097 71.5006 173.58 64.0954 167.601 58.9769C163.741 55.5494 156.696 51.299 146.058 51.8565L110.215 53.735C106.259 53.9045 102.389 54.9448 98.8805 56.7816C95.3725 58.6184 92.3129 61.2066 89.9198 64.3615C89.472 63.9281 89.0244 63.501 88.5459 63.0882C84.6558 59.6941 77.6114 55.4436 66.9735 56.0011L31.7945 57.8448C16.6888 58.6364 5.46244 70.9707 6.24647 85.9308L6.3317 87.5571C6.58215 92.489 8.17965 97.2579 10.9506 101.345C12.1267 103.09 13.5101 104.686 15.0705 106.098L18.9253 179.652C19.0369 181.977 19.4089 184.282 20.0342 186.523C19.3916 187.096 18.7756 187.694 18.174 188.322C15.33 191.319 13.1317 194.868 11.7153 198.75C10.2989 202.631 9.69451 206.762 9.93958 210.887L10.0676 213.33C10.2547 217.456 11.2874 221.501 13.1018 225.212C14.9162 228.923 17.4735 232.222 20.6153 234.904C21.0735 235.293 21.5437 235.668 22.0196 236.03L23.9892 273.614C24.0287 274.367 24.0675 275.107 24.1756 275.838L27.8682 346.297C27.9629 348.119 28.4159 349.904 29.2015 351.551C29.9871 353.197 31.0897 354.673 32.4463 355.892C33.8029 357.112 35.3867 358.052 37.1072 358.659C38.8276 359.266 40.6509 359.527 42.4725 359.429L64.2925 358.285C66.3191 358.486 68.358 358.532 70.3916 358.422C72.3727 358.32 74.343 358.064 76.2846 357.657L83.9672 357.254C84.5999 357.221 85.1936 356.938 85.6176 356.467C86.0415 355.996 86.2611 355.376 86.2279 354.743V354.743C96.6632 358.18 108.03 357.384 117.885 352.526C123.152 354.472 128.758 355.338 134.367 355.071C139.977 354.804 145.475 353.411 150.534 350.973C155.208 352.625 160.168 353.315 165.115 353.001L181.752 352.129C183.836 352.327 185.932 352.37 188.022 352.258C190.112 352.148 192.192 351.886 194.244 351.475L194.909 351.44L194.904 351.351C197.338 350.817 199.716 350.055 202.006 349.075V349.075C202.034 349.604 202.271 350.1 202.664 350.454C203.057 350.809 203.575 350.992 204.104 350.964L212.154 350.542C214.119 350.745 216.097 350.794 218.069 350.689C220.093 350.586 222.105 350.328 224.089 349.917L266.128 347.714C267.336 347.65 268.52 348.07 269.42 348.879C270.319 349.689 270.86 350.823 270.923 352.031V352.031C271.048 354.391 272.105 356.604 273.861 358.184C275.616 359.765 277.928 360.585 280.287 360.463L319.953 358.384C322.393 358.256 324.683 357.164 326.318 355.348C327.953 353.532 328.8 351.141 328.672 348.7L328.288 341.372C335.764 337.364 341.684 330.969 345.104 323.205C347.449 317.78 348.662 311.933 348.666 306.023C348.671 300.113 347.467 294.264 345.13 288.836L345.838 288.538C351.258 290.246 356.916 291.075 362.598 290.991C365.983 299.315 371.868 306.384 379.44 311.221L379.545 311.291L379.657 311.362C389.18 317.494 400.551 320.268 413.429 319.593C422.529 319.116 430.783 316.779 437.974 312.703C445.578 308.497 452.058 302.224 457.232 294.034C461.104 287.993 464.591 280.417 467.886 270.885C474.911 250.674 480.533 233.728 484.562 220.514C490.922 199.723 491.859 193.62 491.555 187.817C491.163 179.3 487.412 171.287 481.122 165.532V165.532Z" fill="white"/>
</g>
<path d="M111.5 83.8161C114.027 85.1347 115.797 86.6305 116.811 88.3033C117.8 89.8887 118.377 92.2656 118.543 95.434L121.675 155.198C122.06 162.535 124.213 168.097 128.134 171.885C132.135 175.576 137.624 177.241 144.602 176.879C151.846 176.5 157.313 174.261 161.003 170.163C164.693 166.065 166.348 160.394 165.969 153.15C165.974 152.045 165.779 150.948 165.393 149.912C165.176 149.289 164.798 148.985 164.254 149.014L161.944 149.135C161.729 149.119 161.514 149.168 161.326 149.275C161.139 149.382 160.987 149.542 160.891 149.736C160.615 150.624 160.48 151.549 160.489 152.479C160.24 154.764 159.954 156.232 159.628 156.884C159.508 157.202 159.29 157.473 159.006 157.659C158.721 157.845 158.385 157.936 158.045 157.918C157.765 157.951 157.481 157.898 157.232 157.766C156.983 157.634 156.779 157.429 156.648 157.179C156.252 156.193 156.056 155.138 156.073 154.075L152.259 81.2992C152.179 79.7593 151.761 78.6919 151.006 78.0969C150.314 77.3886 149.106 77.0796 147.385 77.1698L111.542 79.0483C110.46 79.105 109.939 79.5892 109.987 80.4941L110.072 82.1205C110.08 82.4578 110.193 82.7843 110.394 83.0555C110.701 83.3882 111.079 83.6481 111.5 83.8161V83.8161Z" fill="#2EB77D"/>
<path d="M316.828 73.0552C319.347 74.3743 321.104 75.8707 322.102 77.5444C323.094 79.1296 323.674 81.5064 323.84 84.6747L327.853 161.247C328.005 164.146 329.62 165.514 332.7 165.353L357.134 164.072C358.767 163.987 359.927 163.608 360.615 162.938C361.307 162.17 361.61 161.018 361.526 159.483L360.139 133.03C359.769 127.029 360.421 121.008 362.068 115.225C363.766 109.594 366.169 105.237 369.277 102.155C372.2 99.1672 376.15 97.4018 380.326 97.2169C380.959 97.1536 381.593 97.3134 382.12 97.6686C382.383 97.7722 382.609 97.9528 382.767 98.1869C382.926 98.421 383.01 98.6975 383.008 98.9801C383.054 99.5704 382.891 100.158 382.549 100.641C376.482 100.959 371.778 104.019 368.435 109.821C365.105 115.537 363.68 122.969 364.159 132.115C364.704 142.523 367.304 150.558 371.958 156.22C376.612 161.789 382.83 164.369 390.614 163.961C398.208 163.563 404.018 160.086 408.045 153.529C412.053 146.872 413.763 137.93 413.175 126.703C413.099 125.254 412.916 124.312 412.62 123.871C412.505 123.647 412.32 123.467 412.093 123.356C411.867 123.246 411.611 123.211 411.364 123.258L409.731 123.343C409.348 123.342 408.973 123.457 408.657 123.672C408.275 123.967 407.929 124.304 407.624 124.678C402.917 130.272 396.678 133.273 388.907 133.68C385.977 133.843 383.044 133.443 380.266 132.502C377.856 131.76 375.62 130.539 373.694 128.912C372.069 127.455 371.22 125.913 371.135 124.281C371.049 122.648 371.772 121.798 373.317 121.717C376.695 127.344 382.098 129.965 389.523 129.58C394.961 129.295 399.308 127.479 402.563 124.131C405.819 120.783 407.322 116.574 407.073 111.502C406.984 108.679 406.258 105.913 404.947 103.411C403.637 100.909 401.777 98.7362 399.507 97.0557C394.864 93.3012 389.064 91.6063 382.107 91.9709C377.107 92.1658 372.25 93.6908 368.036 96.3888C363.996 99.0556 360.794 102.812 358.8 107.223L356.878 70.5502C356.797 69.0103 356.377 67.9429 355.618 67.3481C354.939 66.6561 353.739 66.3552 352.017 66.4454L316.838 68.289C315.75 68.3461 315.23 68.8303 315.277 69.7352L315.362 71.3616C315.373 71.6994 315.488 72.0257 315.69 72.2962C316.007 72.6323 316.396 72.8918 316.828 73.0552V73.0552Z" fill="#2EB77D"/>
<path d="M387.367 233.388C387.015 232.4 386.352 231.553 385.479 230.972C384.606 230.391 383.569 230.108 382.521 230.165L380.212 230.286C379.411 230.321 378.629 230.536 377.922 230.913L377.447 221.851C376.822 209.935 372.87 200.865 365.71 194.907C358.705 188.986 348.799 186.313 336.269 186.97C325.897 187.513 317.463 190.036 311.234 194.437C304.405 199.148 301.143 205.316 301.533 212.758C301.83 218.421 304.163 222.982 308.515 226.352C310.31 227.689 312.318 228.712 314.454 229.379C311.074 230.455 307.952 232.217 305.283 234.555C303.96 235.758 302.842 237.169 301.974 238.733C301.887 238.449 301.784 238.17 301.664 237.899C301.311 236.911 300.649 236.064 299.776 235.483C298.903 234.902 297.865 234.619 296.818 234.675L294.508 234.796C293.708 234.832 292.925 235.046 292.219 235.424L288.818 170.527C288.795 170.103 288.774 169.698 288.69 169.309C295.064 168.893 301.233 166.89 306.635 163.482C311.982 160.036 316.295 155.205 319.114 149.503C322 143.656 323.303 137.155 322.892 130.648C322.797 128.838 322.252 127.959 321.256 128.012L319.49 128.104C319.107 128.103 318.733 128.218 318.416 128.433C318.031 128.726 317.682 129.064 317.377 129.44C315.097 132.186 312.302 134.46 309.149 136.134C306.101 137.516 302.807 138.275 299.462 138.368C295.521 138.63 291.581 137.852 288.036 136.111C284.785 134.385 282.031 131.856 280.036 128.763C278.055 125.673 276.929 122.112 276.773 118.445C276.632 116.44 276.894 114.427 277.543 112.526C278.192 110.624 279.215 108.871 280.552 107.37C281.769 105.844 283.298 104.595 285.036 103.707C286.774 102.818 288.682 102.31 290.631 102.216C292.534 102.116 293.519 102.699 293.585 103.965C293.6 104.447 293.485 104.924 293.251 105.347C289.454 105.546 286.389 106.84 284.057 109.23C282.913 110.393 282.033 111.789 281.479 113.322C280.924 114.856 280.707 116.492 280.842 118.117C280.926 120.404 281.486 122.648 282.485 124.706C283.485 126.765 284.902 128.592 286.647 130.073C290.319 133.134 295.039 134.644 299.806 134.282C305.236 133.998 309.58 132.137 312.84 128.7C314.473 127.02 315.732 125.013 316.532 122.811C317.332 120.608 317.656 118.261 317.481 115.924C317.331 111.973 315.729 108.216 312.981 105.372C310.191 102.346 306.48 100.135 301.846 98.7409C296.893 97.2019 291.697 96.5963 286.523 96.9549C278.558 97.3724 271.581 99.3731 265.592 102.957C259.938 106.188 255.323 110.964 252.29 116.726C249.286 122.498 247.937 128.988 248.393 135.479C248.769 142.651 250.727 148.86 254.268 154.107C256.814 157.92 260.114 161.172 263.963 163.663L244.979 164.658C247.934 160.598 249.241 155.267 248.9 148.664C248.903 147.605 248.71 146.555 248.331 145.566C248.114 144.942 247.737 144.639 247.193 144.667L244.883 144.788C244.667 144.773 244.451 144.822 244.262 144.929C244.074 145.036 243.921 145.196 243.823 145.389C243.554 146.279 243.421 147.203 243.427 148.132C243.387 149.582 243.139 151.018 242.693 152.397C242.559 152.742 242.324 153.039 242.02 153.249C241.715 153.458 241.354 153.571 240.984 153.572C240.703 153.604 240.42 153.551 240.17 153.419C239.921 153.287 239.718 153.083 239.587 152.833C239.19 151.847 238.994 150.791 239.012 149.728L238.122 132.749C237.552 121.881 234.087 113.801 227.726 108.508C221.446 103.21 212.511 100.863 200.921 101.467C191.218 101.975 183.529 104.239 177.855 108.26C172.16 112.188 169.471 117.194 169.79 123.277C170.027 127.8 171.848 131.381 175.252 134.02C178.651 136.566 183.114 137.694 188.641 137.405C194.075 137.12 198.434 135.529 201.717 132.633C205.106 129.731 206.691 126.198 206.473 122.034C206.438 120.403 206.051 118.799 205.339 117.332C204.627 115.864 203.606 114.568 202.347 113.531C199.785 111.398 196.602 110.431 192.797 110.63C192.518 110.236 192.353 109.773 192.32 109.291C192.254 108.025 193.172 107.343 195.075 107.243C197.024 107.132 198.974 107.438 200.796 108.14C202.617 108.843 204.268 109.925 205.638 111.315C207.12 112.652 208.319 114.273 209.162 116.082C210.006 117.891 210.478 119.851 210.55 121.846C211.095 132.262 203.093 138.991 186.542 142.033C180.071 143.282 175.312 145.301 172.265 148.093C169.313 150.785 167.956 154.353 168.193 158.795C168.284 161.262 168.947 163.673 170.13 165.839C167.633 166.648 165.315 167.931 163.303 169.617C161.441 171.237 159.973 173.26 159.009 175.532C158.045 177.804 157.611 180.266 157.741 182.73C157.87 185.195 158.558 187.598 159.754 189.756C160.95 191.915 162.622 193.773 164.643 195.19L164.702 195.225C166.073 196.13 167.552 196.858 169.105 197.393L157.752 197.988C155.303 198.116 153.49 199.48 152.857 201.449C148.076 198.489 142.359 197.157 135.815 197.5C131.425 197.657 127.117 198.732 123.169 200.657C120.68 201.862 118.39 203.44 116.377 205.334C112.736 202.352 107.709 200.871 101.375 200.974L101.448 200.913C103.456 199.395 105.051 197.396 106.086 195.101C107.121 192.806 107.563 190.288 107.372 187.778C107.264 185.424 106.659 183.119 105.597 181.015C104.535 178.91 103.041 177.054 101.211 175.568C104.422 173.884 107.288 171.614 109.662 168.875C115.644 161.936 118.317 152.398 117.681 140.261C117.121 129.578 114.375 121.325 109.441 115.5C104.499 109.587 98.0092 106.839 89.9721 107.256C83.3569 107.602 78.2503 109.774 74.6523 113.77L73.1665 85.4189C73.0859 83.8811 72.6618 82.8119 71.9072 82.2169C71.1526 81.6219 70.0213 81.2243 68.3 81.3145L33.1209 83.1581C32.0325 83.2152 31.5121 83.6993 31.5595 84.6043L31.6448 86.2307C31.6566 86.5674 31.7686 86.893 31.9666 87.1656C32.2842 87.4978 32.6702 87.7569 33.0979 87.925C35.6165 89.244 37.3744 90.7404 38.3716 92.4142C39.36 93.9996 39.9394 96.3763 40.1096 99.5445L44.2384 178.326C44.2328 178.929 44.3572 179.526 44.603 180.077C45.0014 180.361 45.4941 180.481 45.9785 180.411L49.3768 180.233C49.8488 180.246 50.3151 180.127 50.7231 179.889C51.0199 179.487 51.1831 179.001 51.1897 178.501C51.8238 175.02 52.2961 172.772 52.6068 171.757C53.0054 170.645 53.5654 170.07 54.2868 170.032C55.9763 171.624 57.7817 173.088 59.6881 174.413C57.6464 175.616 55.7518 177.052 54.0427 178.694C47.9434 184.483 45.119 191.98 45.5906 200.979L45.7405 203.839L40.4057 204.119C37.2416 204.284 35.0935 206.523 35.2527 209.56L35.3807 212.003C35.5399 215.041 37.8849 217.044 41.0743 216.876L46.4091 216.597L49.3276 272.286C49.4576 274.767 50.1943 276.714 51.5352 278.084L51.7097 278.266L51.9148 278.426C53.4304 279.616 55.4822 280.143 58.1781 280.002L83.928 278.652C86.7251 278.506 88.7277 277.728 90.0343 276.264C91.3409 274.799 92.0528 272.642 91.9178 270.067L89.1339 216.947C89.0932 216.084 88.9994 215.224 88.853 214.372L90.0744 214.308C90.9931 214.867 91.7795 215.618 92.379 216.51L92.4273 216.584C92.7872 217.155 93.4157 218.613 93.5875 221.891L96.1001 269.835C96.3635 274.859 99.5962 277.818 104.532 277.56L132.105 276.115C137.294 275.843 140.358 272.554 140.095 267.529L138.842 243.627C138.805 242.395 138.589 241.175 138.202 240.006C139.533 240.103 140.869 240.116 142.201 240.043C148.53 239.712 153.734 237.669 157.745 233.936C159.344 232.416 160.666 230.629 161.65 228.655L162.742 249.482C163.176 257.772 165.737 264.243 170.355 268.704L170.415 268.764C175.189 273.159 181.659 275.155 189.664 274.735C197.891 274.304 204.318 271.619 208.689 266.758C211.472 263.606 213.335 259.751 214.076 255.612C215.125 257.858 216.407 259.988 217.899 261.967C223.55 269.165 231.102 272.564 240.335 272.08C247.929 271.682 254.108 268.502 258.385 262.821C263.363 268.081 270.065 270.522 278.368 270.087C286.386 269.666 292.578 266.975 296.776 262.084C298.737 259.786 300.22 257.12 301.137 254.241C302.424 257.811 304.779 260.898 307.883 263.082C312.553 266.467 318.528 268.001 325.635 267.628C330.754 267.36 335.108 266.028 338.527 263.704C340.671 262.265 342.55 260.467 344.08 258.387C349.012 263.624 355.712 266.027 364.072 265.589C372.09 265.168 378.282 262.477 382.48 257.587C386.678 252.696 388.657 246.012 388.226 237.785C388.213 236.279 387.922 234.788 387.367 233.388V233.388ZM200.535 146.16C200.44 144.351 201.163 143.405 202.702 143.325C203.125 143.291 203.549 143.361 203.937 143.53C204.326 143.699 204.667 143.961 204.93 144.293L205.556 156.247C205.331 156.607 205.02 156.905 204.651 157.114C204.282 157.324 203.867 157.439 203.443 157.449C201.907 157.53 201.09 156.665 200.991 154.856L200.535 146.16ZM165.333 182.31C165.209 181.001 165.411 179.683 165.921 178.471C166.432 177.26 167.233 176.193 168.256 175.367C170.32 173.596 173.182 172.494 176.854 172.086C180.334 173.918 184.546 174.729 189.488 174.521C190.521 175.266 191.368 176.239 191.963 177.365C192.559 178.49 192.887 179.738 192.922 181.011C192.958 182.284 192.699 183.547 192.167 184.704C191.635 185.861 190.844 186.88 189.855 187.682C187.48 189.71 184.019 190.875 179.557 191.108C175.096 191.342 171.516 190.597 168.939 188.892C167.843 188.176 166.941 187.2 166.312 186.052C165.683 184.904 165.347 183.619 165.333 182.31V182.31ZM94.2517 179.956C97.8393 182.059 99.576 184.684 99.7604 188.202C99.8786 189.498 99.6559 190.801 99.1146 191.984C98.5732 193.167 97.732 194.187 96.6744 194.945C94.1856 196.979 90.4934 198.086 85.7345 198.335C81.2034 198.573 77.6864 197.939 75.279 196.44C74.3337 195.915 73.545 195.148 72.9934 194.219C72.4418 193.289 72.1472 192.229 72.1397 191.147C72.0613 190.468 72.1483 189.78 72.3933 189.142C72.6383 188.504 73.034 187.934 73.5467 187.482L73.619 187.408C74.8273 186.247 76.6966 185.591 79.2279 185.458L80.7973 185.376L81.8527 184.204C82.53 183.452 82.9474 182.503 83.0434 181.495C83.1426 181.035 83.1819 180.564 83.1603 180.093L83.3058 180.086C86.2747 179.938 89.2258 179.539 92.1273 178.893C92.8574 179.202 93.5669 179.557 94.2517 179.956ZM75.0387 121.142C75.2858 120.771 75.6206 120.466 76.0136 120.255C76.4065 120.044 76.8454 119.934 77.2914 119.933C79.0043 119.843 79.9198 120.884 80.0379 123.057L82.4589 169.253C81.0541 169.206 79.5952 169.219 78.1018 169.298L77.5639 169.326L75.0387 121.142ZM84.3611 270.45C84.3787 270.62 84.3877 270.791 84.388 270.963C84.1248 271.006 83.8591 271.032 83.5926 271.042L57.7415 272.397C57.4754 272.414 57.2084 272.416 56.9421 272.401C56.9348 272.262 56.9259 272.091 56.9153 271.888L53.1782 200.581C52.8233 193.81 54.8199 188.438 59.3003 184.206C60.852 182.713 62.6055 181.447 64.5096 180.442C63.0929 182.025 62.0073 183.875 61.317 185.884C60.6267 187.893 60.3456 190.02 60.4902 192.139C60.9286 200.505 66.4012 205.275 72.1083 207.984L80.1881 213.951C80.5906 214.202 80.9249 214.548 81.1611 214.96L81.218 215.077C81.455 215.805 81.57 216.566 81.5583 217.331L84.3611 270.45ZM132.539 267.925C132.547 268.086 132.545 268.247 132.532 268.408C132.274 268.472 132.01 268.51 131.745 268.519L104.153 269.965C104.027 269.979 103.9 269.986 103.774 269.985C103.74 269.81 103.721 269.633 103.714 269.455L101.2 221.492C101.013 217.923 100.35 215.191 99.185 213.063C99.9207 212.577 100.512 211.903 100.898 211.11C101.284 210.317 101.45 209.436 101.379 208.557C107.173 208.444 111.038 209.91 113.175 213.015L115.856 216.955C115.293 219.032 115.072 221.187 115.2 223.335C115.37 227.575 116.878 231.653 119.51 234.982L119.599 235.092C122.504 238.366 126.207 240.833 130.349 242.251C130.586 242.331 130.814 242.434 131.031 242.558L131.086 242.637C131.195 243.088 131.255 243.548 131.266 244.011L132.539 267.925ZM152.526 228.423C149.888 230.89 146.379 232.21 141.841 232.447C137.304 232.685 133.742 231.799 130.914 229.784C129.72 228.993 128.733 227.928 128.036 226.677C127.339 225.426 126.952 224.026 126.908 222.595C126.799 221.494 126.935 220.382 127.305 219.34C127.675 218.297 128.27 217.349 129.047 216.562C130.697 214.864 132.877 213.969 135.712 213.82L137.87 213.707L138.875 211.802C139.436 210.776 139.704 209.616 139.651 208.449C139.596 207.192 139.122 205.991 138.304 205.035C143.074 205.115 147.011 206.375 150.283 208.881C151.981 210.112 153.372 211.716 154.35 213.571C155.328 215.426 155.865 217.481 155.92 219.577C156.058 221.213 155.822 222.86 155.231 224.393C154.64 225.925 153.708 227.303 152.507 228.424L152.526 228.423ZM203.054 261.679C200.056 265.008 195.537 266.813 189.285 267.14C183.343 267.452 178.871 266.157 175.625 263.18C172.455 260.097 170.683 255.348 170.354 249.057L168.724 217.954C168.523 214.119 167.773 211.201 166.435 209.044C165.538 207.6 164.383 206.333 163.029 205.307L193.993 203.684C194.26 203.668 194.527 203.671 194.793 203.693C194.811 203.859 194.819 204.026 194.819 204.193L197.132 248.333C197.251 250.586 197.566 252.01 198.196 253.119C198.677 253.982 199.394 254.69 200.262 255.161C201.13 255.633 202.115 255.847 203.101 255.781C204.379 255.735 205.605 255.257 206.577 254.425C206.068 257.117 204.845 259.623 203.035 261.68L203.054 261.679ZM209.053 233.139C209.165 235.271 209.348 237.318 209.604 239.297C209.393 239.277 209.181 239.271 208.969 239.279L206.659 239.4C205.858 239.436 205.076 239.65 204.369 240.028L202.47 203.792C202.335 201.223 201.49 199.262 199.956 197.959C198.422 196.656 196.367 195.945 193.627 196.089L190.526 196.251C192.074 195.525 193.519 194.595 194.823 193.488C196.754 191.943 198.284 189.956 199.283 187.694C200.282 185.432 200.722 182.963 200.564 180.495C200.453 177.746 199.629 175.073 198.171 172.739C199.142 172.325 200.072 171.82 200.948 171.23C203.928 169.259 206.359 166.271 208.239 162.268C212.531 169.582 219.248 172.999 228.391 172.52C232.879 172.285 236.649 171.275 239.698 169.491C239.709 169.7 239.683 169.917 239.694 170.126L239.779 171.758C239.813 172.486 239.962 173.205 240.221 173.886L240.55 174.726L241.216 175.325C241.837 175.848 242.526 176.283 243.264 176.62C245.111 177.59 246.416 178.651 247.035 179.684L247.077 179.758C247.437 180.336 248.072 181.788 248.244 185.066L248.708 193.925C244.849 192.498 240.729 191.911 236.624 192.204C227.227 192.697 219.991 196.769 215.106 204.304C210.429 211.447 208.405 221.147 209.034 233.14L209.053 233.139ZM239.924 264.486C233.21 264.838 227.959 262.48 223.906 257.318C219.619 251.679 217.162 243.412 216.603 232.743C216.06 222.383 217.675 214.208 221.414 208.441C224.936 202.989 230.023 200.159 236.946 199.796C242.521 199.504 246.805 200.72 250.035 203.508C247.25 203.888 244.359 205.982 244.613 210.842L246.585 248.47C246.887 254.229 251.143 255.643 254.249 255.087C251.253 261.139 246.683 264.132 239.924 264.486ZM290.996 257.133C288.168 260.454 283.899 262.182 277.951 262.494C270.357 262.892 264.889 260.139 261.259 254.085L259.214 250.664L255.754 184.653C255.553 180.818 254.804 177.9 253.467 175.749C252.571 174.303 251.416 173.034 250.06 172.006L280.347 170.419C280.611 170.403 280.876 170.406 281.14 170.428C281.161 170.594 281.17 170.761 281.167 170.928L284.981 243.704C285.098 245.95 285.421 247.38 286.043 248.483C286.523 249.348 287.24 250.058 288.108 250.53C288.977 251.003 289.962 251.218 290.949 251.152C292.224 251.103 293.446 250.628 294.419 249.802C293.932 252.496 292.762 255.02 291.021 257.132L290.996 257.133ZM334.279 257.365C331.982 258.932 328.938 259.821 325.223 260.016C319.895 260.295 315.563 259.253 312.336 256.884C310.889 255.86 309.704 254.508 308.879 252.939C308.053 251.37 307.61 249.628 307.586 247.856C307.412 244.54 308.319 242.106 310.438 240.155C312.925 237.861 317.099 236.138 322.805 235.065C326.202 234.468 329.544 233.591 332.795 232.441C332.391 233.476 332.221 234.588 332.3 235.697L332.755 244.392C332.991 248.891 336.166 250.743 339.203 250.584C339.489 250.568 339.773 250.536 340.055 250.488C338.783 253.25 336.798 255.624 334.305 257.364L334.279 257.365ZM334.747 219.07C332.084 221.405 328.558 222.662 323.957 222.903C319.357 223.144 315.706 222.257 313.097 220.299C310.487 218.342 309.282 215.81 309.102 212.361C308.852 207.602 310.891 203.891 315.564 200.67C318.259 198.819 321.238 197.422 324.384 196.533C324.129 197.253 324.02 198.016 324.064 198.778C324.13 199.945 324.519 201.071 325.186 202.031L326.384 203.821L328.535 203.709C331.377 203.56 333.639 204.222 335.457 205.738C336.313 206.439 337.003 207.32 337.48 208.319C337.957 209.317 338.208 210.408 338.216 211.514C338.398 214.506 337.305 216.899 334.772 219.068L334.747 219.07ZM376.7 252.642C373.873 255.963 369.604 257.69 363.655 258.002C355.979 258.404 350.524 255.663 346.984 249.624L344.895 246.091L344.165 232.169L343.353 231.196C342.466 230.117 341.253 229.356 339.895 229.029C348.288 223.779 350.167 216.777 349.861 210.936C349.766 208.466 349.18 206.041 348.136 203.801C347.093 201.561 345.613 199.551 343.784 197.89C342.389 196.535 340.798 195.399 339.064 194.52C348.417 194.392 355.71 196.485 360.776 200.769C366.336 205.395 369.288 212.437 369.804 222.284L370.694 239.262C370.81 241.477 371.141 242.951 371.757 244.048C372.239 244.911 372.956 245.618 373.824 246.09C374.692 246.561 375.676 246.776 376.662 246.71C377.937 246.661 379.159 246.186 380.132 245.361C379.637 248.039 378.464 250.545 376.725 252.64L376.7 252.642Z" fill="#2EB77D"/>
<path d="M457.169 182.277L418.731 184.291C415.851 184.442 413.841 186.28 413.596 188.869C411.934 187.787 410.101 186.995 408.175 186.526C404.787 185.574 399.929 185.277 393.335 185.622L372.148 186.733C368.984 186.898 366.83 189.137 366.989 192.175L367.074 193.801C367.135 194.959 367.667 197.133 370.5 198.635C371.78 199.275 372.968 200.084 374.034 201.039L374.167 201.165C374.846 201.808 375.371 202.596 375.703 203.47L395.844 250.077C397.298 253.599 398.625 255.795 400.097 257.133C396.6 257.923 393.348 259.555 390.625 261.887C388.659 263.546 387.112 265.644 386.107 268.012C385.102 270.379 384.668 272.95 384.841 275.516C385.163 281.661 388.001 286.532 393.317 290.016C398.301 293.213 404.62 294.634 412.1 294.242C416.823 294.099 421.444 292.834 425.582 290.553C429.482 288.444 432.944 285.001 435.836 280.382C438.63 276.048 441.275 270.217 443.919 262.553C450.845 242.632 456.357 225.984 460.306 213.073C465.727 195.434 466.33 191.068 466.228 189.125C466.056 185.606 463.58 181.941 457.169 182.277ZM418.49 276.075L418.351 276.21C417.214 277.284 415.33 277.903 412.736 278.039L410.394 278.162L409.454 280.312C409.051 281.244 408.873 282.257 408.936 283.271C408.997 284.554 409.511 285.775 410.386 286.717C405.124 286.815 400.774 285.786 397.458 283.663C394.142 281.539 392.636 278.839 392.443 275.143C392.318 273.725 392.543 272.297 393.098 270.986C393.654 269.675 394.522 268.519 395.628 267.622C398.207 265.38 401.653 264.171 406.165 263.935C410.272 263.719 413.662 264.475 416.239 266.173C417.292 266.83 418.169 267.734 418.793 268.808C419.417 269.881 419.768 271.091 419.817 272.332C419.926 274.547 419.171 275.507 418.49 276.075V276.075ZM453.054 210.909C449.131 223.729 443.647 240.281 436.748 260.124C435.301 264.466 433.542 268.698 431.485 272.786C431.499 272.322 431.486 271.847 431.461 271.36C431.384 268.847 430.773 266.379 429.67 264.12C428.567 261.86 426.997 259.861 425.063 258.255C421.377 255.243 416.238 253.323 409.749 252.534C406.142 252.127 405.255 251.538 405.253 251.5C405.251 251.463 404.381 250.728 402.898 247.125L382.714 200.539C381.958 198.654 380.797 196.957 379.312 195.571C378.751 195.026 378.15 194.523 377.514 194.066L393.733 193.216C400.84 192.844 404.408 193.361 406.146 193.835L406.281 193.866C408.293 194.297 410.092 195.414 411.371 197.026L411.426 197.105C413.013 199.053 414.647 202.146 416.273 206.287L431.671 245.833L432.337 246.432C432.93 246.975 433.626 247.394 434.383 247.663C435.141 247.931 435.945 248.045 436.747 247.997C440.234 247.814 442.447 245.236 442.255 241.585C442.183 240.212 441.699 238.473 440.691 235.956L426.527 199.258C425.063 195.528 423.89 193.127 422.701 191.641L457.545 189.815C457.901 189.793 458.258 189.8 458.612 189.835C458.518 191.179 457.706 195.67 453.054 210.909Z" fill="#2EB77D"/>
<path d="M58.45 309.038C59.3483 307.584 60.5932 306.377 62.0732 305.523C63.7496 304.566 65.6339 304.031 67.5632 303.966C69.8824 303.814 72.197 304.325 74.2365 305.439C76.276 306.554 77.9561 308.226 79.0805 310.26C80.4009 312.546 81.1334 315.124 81.2124 317.763C81.4037 320.428 80.9471 323.099 79.8817 325.549C78.9548 327.727 77.4347 329.601 75.4947 330.957C73.7452 332.142 71.7307 332.877 69.6294 333.098C67.5281 333.319 65.4047 333.018 63.4472 332.223C61.9076 331.521 60.5501 330.474 59.4794 329.163L59.6903 333.188L52.5836 333.56L50.605 295.806L57.737 295.432L58.45 309.038ZM73.9029 318.14C73.8626 316.609 73.4141 315.117 72.6039 313.817C71.9176 312.653 70.9097 311.712 69.7015 311.107C68.5523 310.522 67.2677 310.254 65.9803 310.331C64.6868 310.398 63.4362 310.817 62.3633 311.542C61.2518 312.291 60.3633 313.327 59.7917 314.539C59.1926 315.954 58.923 317.487 59.0034 319.022C59.0839 320.557 59.5122 322.054 60.256 323.399C60.9718 324.553 61.9721 325.503 63.1611 326.159C64.3012 326.742 65.5727 327.021 66.8523 326.968C68.1471 326.909 69.3997 326.489 70.4693 325.757C71.5987 324.998 72.4982 323.943 73.0699 322.708C73.7418 321.284 74.029 319.709 73.9029 318.14V318.14Z" fill="#2EB77D"/>
<path d="M100.188 331.478C97.6337 331.651 95.0778 331.171 92.76 330.084C90.5377 328.988 88.6616 327.299 87.3388 325.203C85.9584 322.92 85.1885 320.321 85.103 317.655C84.9146 314.987 85.4312 312.316 86.6008 309.91C87.7275 307.689 89.4548 305.829 91.5863 304.541C93.8004 303.219 96.3036 302.458 98.8787 302.323C101.454 302.188 104.023 302.683 106.363 303.767C108.609 304.816 110.505 306.49 111.825 308.589C113.274 310.845 114.084 313.451 114.169 316.131C114.363 318.812 113.811 321.494 112.576 323.88C111.434 326.12 109.694 327.999 107.549 329.309C105.316 330.637 102.784 331.383 100.188 331.478V331.478ZM99.862 325.264C101.128 325.205 102.357 324.824 103.434 324.156C104.572 323.429 105.476 322.387 106.037 321.158C106.679 319.7 106.946 318.104 106.815 316.517C106.675 313.833 105.854 311.816 104.353 310.465C103.651 309.806 102.823 309.295 101.919 308.964C101.014 308.633 100.052 308.488 99.0902 308.539C98.1284 308.589 97.1867 308.834 96.3217 309.257C95.4568 309.681 94.6865 310.275 94.0572 311.005C92.7693 312.502 92.1977 314.592 92.3425 317.275C92.4874 319.958 93.2584 321.997 94.6556 323.392C95.3446 324.048 96.1643 324.552 97.0612 324.87C97.9581 325.188 98.912 325.314 99.8607 325.238L99.862 325.264Z" fill="#2EB77D"/>
<path d="M133.196 329.748C130.64 329.92 128.082 329.441 125.762 328.355C123.543 327.256 121.669 325.567 120.347 323.473C118.967 321.191 118.197 318.591 118.111 315.925C117.923 313.257 118.439 310.586 119.609 308.181C120.736 305.96 122.463 304.099 124.595 302.811C126.809 301.489 129.312 300.728 131.887 300.593C134.462 300.458 137.031 300.954 139.371 302.037C141.617 303.087 143.513 304.76 144.834 306.859C146.277 309.117 147.085 311.723 147.171 314.402C147.366 317.082 146.817 319.763 145.584 322.151C144.442 324.39 142.702 326.269 140.558 327.579C138.324 328.907 135.793 329.653 133.196 329.748V329.748ZM132.87 323.534C134.136 323.476 135.365 323.094 136.442 322.427C137.58 321.699 138.484 320.658 139.045 319.428C139.687 317.97 139.954 316.375 139.824 314.787C139.683 312.104 138.862 310.087 137.362 308.735C136.66 308.076 135.831 307.565 134.927 307.234C134.022 306.903 133.06 306.759 132.099 306.809C131.137 306.859 130.195 307.104 129.33 307.528C128.465 307.951 127.695 308.546 127.066 309.275C125.782 310.772 125.21 312.862 125.351 315.545C125.491 318.229 126.263 320.267 127.664 321.662C128.353 322.318 129.173 322.822 130.07 323.14C130.966 323.459 131.92 323.584 132.869 323.509L132.87 323.534Z" fill="#2EB77D"/>
<path d="M160.781 305.414L161.497 319.07C161.465 319.826 161.732 320.564 162.239 321.125C162.951 321.564 163.792 321.744 164.62 321.635L167.93 321.462L168.245 327.474L163.79 327.707C157.77 328.023 154.608 325.259 154.306 319.415L153.593 305.809L150.233 305.986L149.926 300.119L153.286 299.943L152.921 292.982L160.11 292.605L160.475 299.566L166.803 299.235L167.111 305.101L160.781 305.414Z" fill="#2EB77D"/>
<path d="M171.971 313.102C171.769 310.447 172.246 307.784 173.355 305.364C174.365 303.166 175.989 301.307 178.031 300.011C180.176 298.643 182.65 297.878 185.193 297.795C188.695 297.611 191.631 298.344 194.002 299.992C196.457 301.689 198.231 304.202 199.006 307.085L191.298 307.489C190.878 306.35 190.091 305.384 189.06 304.744C187.712 303.946 186.117 303.67 184.579 303.968C183.04 304.266 181.664 305.118 180.712 306.362C179.598 307.884 179.115 310.003 179.262 312.72C179.408 315.437 180.111 317.496 181.369 318.898C181.986 319.585 182.756 320.118 183.617 320.454C184.477 320.791 185.405 320.921 186.324 320.834C189.219 320.682 191.037 319.293 191.779 316.665L199.487 316.261C198.968 319.182 197.469 321.839 195.237 323.794C193.015 325.712 190.172 326.762 186.708 326.944C184.186 327.123 181.661 326.64 179.382 325.545C177.229 324.446 175.425 322.769 174.172 320.703C172.813 318.394 172.057 315.78 171.971 313.102V313.102Z" fill="#2EB77D"/>
<path d="M203.133 311.367C202.941 308.741 203.382 306.106 204.418 303.685C205.355 301.538 206.865 299.692 208.783 298.348C210.705 297.052 212.949 296.314 215.265 296.219C217.175 296.072 219.091 296.408 220.837 297.196C222.368 297.892 223.723 298.923 224.802 300.212L224.591 296.181L231.78 295.804L233.26 324.041L226.096 324.416L225.88 320.29C224.965 321.729 223.724 322.931 222.257 323.799C220.583 324.764 218.697 325.298 216.767 325.356C214.463 325.499 212.166 324.981 210.146 323.863C208.101 322.699 206.408 321.005 205.244 318.96C203.953 316.631 203.229 314.029 203.133 311.367V311.367ZM225.357 310.304C225.321 308.762 224.89 307.256 224.106 305.928C223.421 304.762 222.413 303.821 221.203 303.218C220.044 302.603 218.739 302.318 217.429 302.394C216.141 302.453 214.891 302.853 213.809 303.555C212.686 304.298 211.788 305.335 211.212 306.553C210.572 307.938 210.301 309.464 210.423 310.985C210.469 312.544 210.9 314.067 211.677 315.419C212.388 316.574 213.387 317.525 214.576 318.179C215.719 318.786 217.006 319.072 218.299 319.006C219.625 318.96 220.911 318.55 222.018 317.82C223.125 317.09 224.01 316.069 224.574 314.87C225.214 313.437 225.483 311.868 225.357 310.304Z" fill="#2EB77D"/>
<path d="M274.324 293.175C277.787 292.993 280.628 293.917 282.845 295.945C285.063 297.974 286.289 300.871 286.524 304.637L287.392 321.198L280.254 321.572L279.437 305.991C279.321 303.781 278.674 302.123 277.495 301.017C276.868 300.444 276.126 300.011 275.319 299.746C274.512 299.481 273.658 299.39 272.814 299.479C271.957 299.482 271.111 299.664 270.329 300.012C269.546 300.36 268.845 300.867 268.268 301.5C267.207 302.719 266.734 304.436 266.85 306.651L267.668 322.244L260.536 322.618L259.718 307.025C259.602 304.814 258.953 303.156 257.77 302.051C257.142 301.478 256.401 301.045 255.594 300.78C254.787 300.515 253.933 300.424 253.088 300.513C252.224 300.514 251.369 300.694 250.578 301.043C249.787 301.391 249.077 301.9 248.492 302.537C247.431 303.756 246.96 305.473 247.081 307.687L247.898 323.28L240.76 323.654L239.28 295.417L246.418 295.043L246.597 298.461C247.465 297.211 248.619 296.186 249.962 295.473C251.429 294.708 253.047 294.274 254.7 294.203C256.758 294.058 258.819 294.443 260.685 295.324C262.443 296.126 263.92 297.436 264.925 299.086C265.773 297.386 267.078 295.955 268.693 294.955C270.384 293.883 272.324 293.269 274.324 293.175V293.175Z" fill="#2EB77D"/>
<path d="M300.544 296.319C301.468 294.911 302.711 293.742 304.172 292.905C305.835 291.915 307.72 291.36 309.653 291.291C311.973 291.139 314.288 291.65 316.329 292.765C318.369 293.879 320.051 295.551 321.177 297.585C322.497 299.871 323.23 302.449 323.309 305.088C323.5 307.753 323.043 310.424 321.978 312.874C321.054 315.044 319.541 316.91 317.609 318.262C315.722 319.595 313.489 320.351 311.181 320.44C309.273 320.579 307.361 320.243 305.615 319.462C304.094 318.753 302.742 317.727 301.65 316.453L302.565 333.906L295.376 334.283L293.191 292.592L300.329 292.218L300.544 296.319ZM315.993 305.472C315.956 303.94 315.507 302.447 314.694 301.149C314.01 299.983 313.001 299.042 311.792 298.439C310.643 297.853 309.358 297.585 308.071 297.663C306.779 297.728 305.53 298.147 304.46 298.874C303.334 299.615 302.433 300.653 301.857 301.872C301.257 303.287 300.988 304.821 301.068 306.355C301.149 307.89 301.577 309.387 302.321 310.732C303.033 311.889 304.034 312.84 305.226 313.492C306.376 314.07 307.656 314.337 308.941 314.268C310.236 314.209 311.488 313.789 312.558 313.057C313.69 312.301 314.591 311.246 315.158 310.008C315.831 308.589 316.119 307.018 315.992 305.453L315.993 305.472Z" fill="#2EB77D"/>
<path d="M49.7367 207.437L49.3878 200.78C48.9743 192.89 51.3974 186.454 56.6569 181.47C61.9322 176.383 69.1409 173.598 78.283 173.115C85.5226 172.735 91.4863 173.922 96.1741 176.676C100.862 179.43 103.329 183.197 103.575 187.977C103.727 189.876 103.391 191.782 102.6 193.514C101.809 195.247 100.589 196.749 99.0557 197.878C95.9221 200.403 91.554 201.812 85.9514 202.106C80.6061 202.386 76.3854 201.565 73.2895 199.641C71.8248 198.792 70.6025 197.581 69.7396 196.124C68.8767 194.667 68.4019 193.013 68.3606 191.32C68.2508 190.078 68.4327 188.826 68.8919 187.666C69.3511 186.507 70.0749 185.47 71.0056 184.639C72.899 182.827 75.5648 181.83 79.0032 181.65C79.087 181.555 79.1511 181.445 79.1917 181.325C79.2323 181.205 79.2485 181.078 79.2395 180.952C79.3069 180.731 79.3398 180.5 79.3369 180.268C79.2706 179.003 78.286 178.42 76.3833 178.519C74.6866 178.587 73.0216 179.001 71.4908 179.736C69.96 180.471 68.5959 181.511 67.4822 182.793C66.3548 184.02 65.4899 185.464 64.9405 187.037C64.3911 188.609 64.1689 190.278 64.2874 191.94C64.6341 198.555 68.9637 203.231 77.2762 205.968L95.7485 205C96.837 204.943 97.4051 205.37 97.4525 206.275L97.5805 208.718C97.6279 209.623 97.1076 210.107 96.0191 210.164L82.4386 210.876C83.3624 211.499 84.1106 212.349 84.6113 213.345C85.1004 214.541 85.3528 215.821 85.3545 217.113L88.1377 270.22C88.2186 271.764 87.9152 272.916 87.2273 273.676C86.6277 274.342 85.4672 274.72 83.7459 274.81L57.9391 276.162C56.2178 276.253 54.9798 276 54.2252 275.405C53.5717 274.72 53.2049 273.614 53.1249 272.087L50.0073 212.601L40.8819 213.079C39.7934 213.136 39.2253 212.709 39.1779 211.804L39.0499 209.361C39.0025 208.456 39.5228 207.972 40.6113 207.915L49.7367 207.437Z" fill="white"/>
<path d="M100.059 204.8C107.843 204.392 113.261 206.424 116.313 210.896C118.609 208.007 121.522 205.667 124.838 204.047C128.323 202.349 132.127 201.406 136.001 201.279C142.608 200.933 148.134 202.46 152.581 205.861C154.717 207.425 156.467 209.455 157.699 211.798C158.932 214.14 159.613 216.733 159.692 219.379C159.868 221.565 159.549 223.762 158.76 225.808C157.971 227.854 156.732 229.697 155.134 231.199C151.847 234.273 147.493 235.952 142.072 236.236C136.731 236.516 132.268 235.39 128.683 232.858C127.032 231.733 125.669 230.236 124.702 228.488C123.735 226.74 123.193 224.789 123.117 222.793C122.981 221.169 123.198 219.535 123.752 218.002C124.305 216.47 125.184 215.075 126.326 213.912C128.654 211.519 131.719 210.222 135.52 210.023C135.759 209.603 135.877 209.124 135.86 208.641C135.794 207.375 134.809 206.792 132.906 206.892C130.956 206.985 129.048 207.493 127.309 208.383C125.571 209.273 124.043 210.524 122.827 212.053C121.487 213.555 120.462 215.311 119.813 217.216C119.164 219.122 118.905 221.138 119.049 223.146C119.176 226.599 120.399 229.922 122.541 232.634C125.032 235.415 128.203 237.501 131.743 238.688C133.037 239.166 133.886 239.756 134.291 240.458C134.696 241.16 135.061 242.188 135.146 243.821L136.399 267.723C136.551 270.621 135.087 272.151 132.007 272.312L104.353 273.762C101.547 273.909 100.068 272.533 99.9164 269.635L97.4038 221.691C97.2378 218.523 96.6584 216.146 95.6658 214.561C94.6732 212.896 92.9153 211.399 90.392 210.072C89.9644 209.904 89.5784 209.645 89.2608 209.313C89.0628 209.04 88.9507 208.714 88.9389 208.378L88.8537 206.751C88.8063 205.846 89.3266 205.362 90.4151 205.305L100.059 204.8Z" fill="white"/>
<path d="M161.536 182.509C161.381 180.619 161.686 178.72 162.426 176.973C163.165 175.227 164.317 173.686 165.782 172.482C168.818 169.874 173.009 168.427 178.354 168.143C183.699 167.859 188.02 168.859 191.317 171.144C192.929 172.166 194.265 173.569 195.207 175.23C196.148 176.89 196.666 178.757 196.715 180.665C196.854 182.548 196.527 184.437 195.763 186.163C194.999 187.89 193.822 189.402 192.335 190.566C189.294 193.175 185.102 194.621 179.756 194.905C174.411 195.19 170.095 194.236 166.807 192.043C165.225 190.997 163.919 189.583 163.001 187.923C162.083 186.263 161.58 184.406 161.536 182.509V182.509ZM193.775 199.888C195.496 199.798 196.692 200.099 197.363 200.792C198.118 201.387 198.542 202.456 198.623 203.994L200.936 248.134C200.917 249.196 201.11 250.252 201.505 251.239C201.637 251.489 201.841 251.694 202.092 251.827C202.342 251.96 202.626 252.014 202.908 251.984C203.247 252.002 203.583 251.911 203.866 251.725C204.15 251.539 204.367 251.267 204.485 250.949C204.818 250.293 205.105 248.825 205.345 246.545C205.339 245.613 205.475 244.686 205.747 243.795C205.845 243.602 205.998 243.443 206.187 243.337C206.376 243.231 206.591 243.183 206.807 243.2L209.111 243.079C209.376 243.066 209.637 243.149 209.847 243.313C210.056 243.477 210.199 243.71 210.249 243.971C210.638 245.006 210.835 246.103 210.831 247.209C211.211 254.457 209.556 260.128 205.866 264.222C202.175 268.316 196.719 270.554 189.497 270.937C182.523 271.302 177.033 269.637 173.028 265.943C169.102 262.151 166.949 256.588 166.569 249.256L164.939 218.152C164.773 214.984 164.194 212.607 163.201 211.022C162.204 209.356 160.446 207.86 157.927 206.533C157.499 206.367 157.112 206.107 156.796 205.773C156.595 205.502 156.483 205.176 156.474 204.838L156.389 203.212C156.342 202.307 156.862 201.823 157.951 201.766L193.775 199.888Z" fill="white"/>
<path d="M250.408 248.269C250.521 250.438 251.439 251.479 253.16 251.393C253.606 251.392 254.045 251.281 254.438 251.07C254.831 250.859 255.166 250.555 255.413 250.184L253.214 208.214C252.929 207.871 252.564 207.604 252.151 207.435C251.738 207.266 251.29 207.202 250.847 207.247C249.125 207.337 248.322 208.469 248.436 210.641L250.408 248.269ZM251.989 184.85C251.823 181.678 251.244 179.303 250.252 177.726C249.254 176.053 247.496 174.556 244.978 173.237C244.532 173.031 244.108 172.779 243.714 172.485C243.599 172.184 243.535 171.865 243.525 171.543L243.439 169.91C243.392 169.005 243.912 168.521 245 168.464L280.18 166.62C281.895 166.53 283.091 166.836 283.768 167.524C284.445 168.212 284.94 169.188 285.021 170.726L288.835 243.502C288.817 244.565 289.012 245.62 289.41 246.606C289.54 246.857 289.744 247.062 289.993 247.195C290.242 247.328 290.526 247.383 290.807 247.352C291.178 247.351 291.54 247.238 291.845 247.027C292.15 246.816 292.384 246.517 292.516 246.171C292.964 244.794 293.212 243.36 293.251 241.912C293.244 240.981 293.377 240.054 293.646 239.163C293.745 238.971 293.898 238.812 294.087 238.706C294.275 238.6 294.49 238.552 294.706 238.568L297.016 238.447C297.56 238.418 297.937 238.716 298.154 239.339C298.533 240.33 298.726 241.383 298.723 242.444C299.102 249.684 297.498 255.396 293.91 259.582C290.397 263.667 285.156 265.894 278.187 266.263C269.129 266.738 262.411 263.321 258.035 256.011C254.446 263.738 248.486 267.82 240.153 268.256C232.184 268.674 225.767 265.787 220.904 259.594C216.128 253.309 213.439 244.415 212.836 232.915C212.248 221.688 214.053 212.83 218.252 206.341C222.451 199.851 228.627 196.395 236.778 195.972C243.477 195.621 248.829 197.244 252.834 200.842L251.989 184.85Z" fill="white"/>
<path d="M340.472 233.606C340.208 233.272 339.866 233.009 339.477 232.839C339.087 232.669 338.662 232.598 338.238 232.631C336.698 232.712 335.975 233.657 336.07 235.467L336.526 244.162C336.621 245.972 337.438 246.837 338.978 246.756C339.402 246.745 339.817 246.63 340.187 246.422C340.557 246.213 340.869 245.917 341.098 245.56L340.472 233.606ZM363.874 261.798C354.727 262.277 348.01 258.86 343.722 251.546C341.846 255.553 339.416 258.543 336.431 260.514C333.539 262.48 329.874 263.58 325.436 263.812C319.187 264.14 314.082 262.863 310.119 259.983C306.157 257.102 304.045 253.126 303.783 248.055C303.551 243.621 304.908 240.055 307.855 237.358C310.886 234.568 315.645 232.548 322.132 231.299C338.683 228.249 346.685 221.517 346.14 211.105C346.069 209.11 345.598 207.15 344.754 205.341C343.911 203.532 342.711 201.911 341.228 200.575C339.859 199.182 338.209 198.098 336.387 197.395C334.565 196.691 332.614 196.385 330.665 196.496C328.762 196.596 327.844 197.279 327.91 198.544C327.942 199.026 328.107 199.49 328.386 199.884C332.183 199.685 335.367 200.654 337.937 202.791C339.196 203.826 340.217 205.121 340.929 206.587C341.642 208.054 342.028 209.657 342.063 211.287C342.281 215.455 340.696 218.99 337.307 221.892C334.007 224.786 329.648 226.374 324.231 226.658C318.713 226.947 314.25 225.821 310.842 223.279C309.181 222.015 307.827 220.391 306.881 218.53C305.935 216.669 305.422 214.618 305.38 212.531C305.062 206.46 307.75 201.454 313.445 197.513C319.136 193.496 326.827 191.232 336.517 190.719C348.102 190.112 357.031 192.46 363.303 197.762C369.669 203.059 373.134 211.139 373.699 222.003L374.589 238.982C374.571 240.045 374.766 241.101 375.164 242.087C375.294 242.337 375.498 242.543 375.747 242.676C375.996 242.809 376.28 242.863 376.561 242.832C376.932 242.831 377.294 242.718 377.599 242.507C377.904 242.296 378.138 241.998 378.27 241.651C378.718 240.274 378.966 238.84 379.005 237.393C378.995 236.461 379.13 235.533 379.406 234.643C379.503 234.45 379.655 234.291 379.842 234.185C380.03 234.079 380.245 234.031 380.46 234.048L382.77 233.927C383.314 233.899 383.691 234.196 383.908 234.819C384.287 235.811 384.48 236.863 384.477 237.924C384.856 245.164 383.252 250.877 379.664 255.063C376.119 259.187 370.86 261.432 363.886 261.797L363.874 261.798Z" fill="white"/>
<path d="M379.212 202.017C378.66 200.62 377.803 199.364 376.703 198.341C375.384 197.139 373.912 196.117 372.324 195.303C371.391 194.806 370.904 194.241 370.871 193.608L370.786 191.982C370.738 191.077 371.259 190.593 372.347 190.536L393.534 189.426C399.694 189.103 404.247 189.363 407.193 190.207C410.041 190.838 412.581 192.439 414.379 194.736C416.224 197 418.035 200.399 419.812 204.934L434.913 243.638C435.135 243.845 435.397 244.004 435.683 244.106C435.968 244.208 436.272 244.25 436.575 244.23C437.937 244.159 438.576 243.353 438.491 241.814C438.268 240.283 437.825 238.793 437.174 237.39L422.991 200.694C421.624 197.131 420.459 194.83 419.495 193.789C418.633 192.838 418.055 192.233 417.769 191.976C417.563 191.606 417.447 191.192 417.433 190.768L417.369 189.547C417.321 188.642 417.842 188.158 418.924 188.101L457.362 186.087C460.627 185.916 462.32 187.007 462.439 189.362C462.552 191.53 460.634 199.076 456.683 212C452.732 224.924 447.282 241.372 440.334 261.344C437.81 268.647 435.247 274.319 432.646 278.36C430.045 282.494 427.068 285.466 423.715 287.274C420.464 289.171 416.526 290.24 411.903 290.482C405.199 290.834 399.689 289.625 395.372 286.856C391.14 284.078 388.896 280.245 388.64 275.355C388.487 273.361 388.814 271.359 389.595 269.518C390.375 267.676 391.585 266.048 393.124 264.77C396.336 261.966 400.612 260.427 405.954 260.151C410.936 259.89 415.073 260.853 418.365 263.041C419.91 264.026 421.195 265.37 422.108 266.959C423.021 268.547 423.536 270.334 423.609 272.165C423.761 275.063 422.881 277.332 420.97 278.972C419.157 280.704 416.483 281.663 412.948 281.848C412.784 282.239 412.712 282.662 412.74 283.084C412.806 284.35 413.881 284.928 415.965 284.819C417.619 284.778 419.246 284.39 420.739 283.679C422.233 282.967 423.559 281.949 424.633 280.69C425.741 279.454 426.584 278.005 427.11 276.431C427.637 274.857 427.835 273.192 427.694 271.538C427.641 269.552 427.165 267.601 426.296 265.814C425.428 264.028 424.187 262.447 422.658 261.179C419.529 258.619 415.084 256.99 409.324 256.294C406.034 255.92 403.87 255.308 402.831 254.458C401.793 253.607 400.635 251.662 399.359 248.624L379.212 202.017Z" fill="white"/>
<path d="M19.2976 12.0347C18.5754 12.0725 17.9706 11.895 17.4832 11.5021C17.0111 11.0923 16.7587 10.5744 16.7259 9.94846C16.6922 9.30646 16.8892 8.76503 17.3167 8.32417C17.7594 7.86643 18.3419 7.61863 19.0642 7.58078C19.7704 7.54377 20.3596 7.73016 20.8317 8.13996C21.319 8.53287 21.5795 9.05033 21.6131 9.69233C21.6459 10.3183 21.441 10.8601 20.9982 11.3179C20.5707 11.7587 20.0038 11.9977 19.2976 12.0347ZM21.4172 13.3238L22.1212 26.7577L18.0044 26.9735L17.3003 13.5395L21.4172 13.3238Z" fill="white"/>
<path d="M32.5786 12.594C34.1515 12.5116 35.4303 12.9596 36.4151 13.938C37.415 14.8995 37.9617 16.2711 38.0551 18.0526L38.4664 25.9011L34.3736 26.1156L33.9913 18.8208C33.9442 17.922 33.6749 17.2361 33.1833 16.7629C32.6918 16.2897 32.0528 16.0738 31.2664 16.115C30.4799 16.1562 29.867 16.4378 29.4276 16.9597C28.9882 17.4817 28.7921 18.192 28.8392 19.0909L29.2215 26.3856L25.1047 26.6014L24.4006 13.1674L28.5175 12.9517L28.6108 14.7332C28.997 14.1175 29.5344 13.6226 30.2229 13.2486C30.9106 12.8585 31.6958 12.6403 32.5786 12.594Z" fill="white"/>
<path d="M48.6316 21.8679L48.8146 25.3588L46.72 25.4686C45.2274 25.5468 44.0448 25.2466 43.1723 24.5681C42.299 23.8736 41.8191 22.6997 41.7324 21.0465L41.4523 15.7019L39.8152 15.7877L39.6361 12.369L41.2732 12.2832L41.1016 9.00897L45.2184 8.79321L45.39 12.0674L48.0864 11.9261L48.2656 15.3448L45.5692 15.4861L45.8518 20.8789C45.8728 21.2802 45.9843 21.564 46.1861 21.7305C46.388 21.897 46.7136 21.9684 47.163 21.9449L48.6316 21.8679Z" fill="white"/>
<path d="M54.6379 13.8279C55.0807 13.0644 55.6523 12.455 56.3527 11.9999C57.0522 11.5287 57.8433 11.2699 58.7261 11.2237L58.9545 15.5813L57.8229 15.6406C56.7957 15.6944 56.0371 15.9595 55.5471 16.4358C55.0562 16.8961 54.8397 17.6799 54.8978 18.7874L55.2246 25.0229L51.1077 25.2386L50.4037 11.8047L54.5205 11.5889L54.6379 13.8279Z" fill="white"/>
<path d="M67.5307 24.5711C66.2146 24.64 65.0121 24.4214 63.9234 23.9152C62.8507 23.4081 61.982 22.6489 61.3175 21.6376C60.6689 20.6255 60.3081 19.4212 60.2349 18.0249C60.1626 16.6446 60.404 15.4168 60.9592 14.3416C61.5136 13.2503 62.3058 12.396 63.3356 11.7788C64.3655 11.1615 65.5385 10.8184 66.8546 10.7494C68.1707 10.6804 69.3731 10.899 70.4619 11.4053C71.5506 11.9115 72.4277 12.6783 73.0931 13.7057C73.7577 14.717 74.1262 15.9128 74.1985 17.2931C74.2708 18.6734 74.0218 19.9096 73.4514 21.0017C72.8961 22.0769 72.0956 22.9236 71.0496 23.5417C70.0198 24.159 68.8468 24.5021 67.5307 24.5711ZM67.3439 21.0079C68.1304 20.9667 68.7813 20.6429 69.2967 20.0365C69.8282 19.4293 70.0658 18.588 70.0094 17.5126C69.9531 16.4372 69.6369 15.625 69.0609 15.0758C68.501 14.5257 67.8278 14.2713 67.0413 14.3125C66.2388 14.3546 65.5879 14.6784 65.0885 15.2839C64.5883 15.8735 64.3668 16.7139 64.424 17.8053C64.4803 18.8807 64.7805 19.6938 65.3243 20.2447C65.8843 20.7947 66.5575 21.0491 67.3439 21.0079Z" fill="white"/>
<path d="M75.5628 17.1974C75.4904 15.8171 75.6837 14.5919 76.1426 13.5217C76.6176 12.4507 77.2898 11.6107 78.1592 11.0019C79.0285 10.393 80.0169 10.0596 81.1244 10.0015C82.0071 9.95528 82.8193 10.0978 83.5609 10.4291C84.3186 10.7596 84.9225 11.2268 85.3726 11.8309L85.0458 5.59545L89.1626 5.37969L90.0963 23.1953L85.9794 23.4111L85.8785 21.4851C85.527 22.1472 85.0001 22.6899 84.2981 23.1129C83.6121 23.5351 82.7956 23.7711 81.8486 23.8207C80.7412 23.8787 79.7233 23.6504 78.7951 23.1358C77.866 22.6051 77.1093 21.832 76.5249 20.8165C75.9558 19.7841 75.6351 18.5777 75.5628 17.1974ZM85.6274 16.6941C85.5736 15.6669 85.2422 14.8715 84.6333 14.3079C84.0404 13.7435 83.3347 13.4828 82.5161 13.5257C81.6976 13.5686 81.015 13.9021 80.4683 14.5262C79.9368 15.1334 79.698 15.9507 79.7518 16.9779C79.8057 18.0051 80.1294 18.8089 80.7232 19.3894C81.3321 19.953 82.0458 20.2133 82.8644 20.1704C83.6829 20.1275 84.3575 19.7944 84.8882 19.1711C85.4348 18.547 85.6813 17.7213 85.6274 16.6941Z" fill="white"/>
<path d="M105.636 8.91007L106.34 22.344L102.223 22.5598L102.127 20.7301C101.741 21.3458 101.197 21.8571 100.494 22.2641C99.806 22.6543 99.0288 22.872 98.1621 22.9174C97.1349 22.9713 96.2163 22.7941 95.4063 22.3859C94.5954 21.9617 93.9506 21.3276 93.4718 20.4836C92.9931 19.6396 92.723 18.6318 92.6616 17.4601L92.2502 9.61159L96.343 9.3971L96.7253 16.6919C96.7724 17.5907 97.0417 18.2767 97.5333 18.7498C98.0248 19.223 98.6638 19.439 99.4503 19.3977C100.253 19.3557 100.874 19.0737 101.313 18.5517C101.752 18.0298 101.949 17.3194 101.901 16.4206L101.519 9.12583L105.636 8.91007Z" fill="white"/>
<path d="M108.127 15.515C108.053 14.1186 108.27 12.8841 108.777 11.8114C109.301 10.7378 110.053 9.8937 111.035 9.27895C112.032 8.66337 113.189 8.32108 114.506 8.25211C116.191 8.16379 117.618 8.53157 118.788 9.35544C119.974 10.1785 120.785 11.3832 121.223 12.9698L116.841 13.1994C116.418 12.1915 115.677 11.7154 114.618 11.7709C113.863 11.8104 113.277 12.1389 112.859 12.7563C112.439 13.3576 112.258 14.204 112.316 15.2954C112.373 16.3868 112.642 17.2177 113.122 17.788C113.602 18.3422 114.219 18.5996 114.973 18.5601C116.033 18.5045 116.72 17.9535 117.035 16.907L121.417 16.6773C121.146 18.2687 120.465 19.5437 119.372 20.5022C118.28 21.4608 116.899 21.9838 115.23 22.0713C113.914 22.1402 112.727 21.9208 111.671 21.4128C110.63 20.9041 109.793 20.1432 109.161 19.1302C108.545 18.1164 108.2 16.9113 108.127 15.515Z" fill="white"/>
<path d="M125.167 6.48629C124.445 6.52414 123.84 6.34662 123.353 5.95371C122.881 5.54391 122.628 5.02603 122.595 4.40007C122.562 3.75807 122.759 3.21664 123.186 2.77578C123.629 2.31804 124.212 2.07024 124.934 2.03239C125.64 1.99538 126.229 2.18177 126.701 2.59157C127.189 2.98448 127.449 3.50194 127.483 4.14394C127.516 4.7699 127.311 5.31175 126.868 5.76949C126.44 6.21035 125.873 6.44928 125.167 6.48629ZM127.287 7.77541L127.991 21.2093L123.874 21.4251L123.17 7.99116L127.287 7.77541Z" fill="white"/>
<path d="M138.448 7.04561C140.021 6.96318 141.3 7.41117 142.285 8.38959C143.285 9.35112 143.831 10.7227 143.925 12.5042L144.336 20.3527L140.243 20.5672L139.861 13.2725C139.814 12.3736 139.544 11.6877 139.053 11.2145C138.561 10.7413 137.922 10.5254 137.136 10.5666C136.349 10.6078 135.737 10.8894 135.297 11.4113C134.858 11.9333 134.662 12.6437 134.709 13.5425L135.091 20.8372L130.974 21.053L130.27 7.61905L134.387 7.40329L134.48 9.18486C134.867 8.56913 135.404 8.07424 136.092 7.70018C136.78 7.31006 137.565 7.09188 138.448 7.04561Z" fill="white"/>
<path d="M151.587 6.30878C152.534 6.25915 153.37 6.40843 154.097 6.75662C154.839 7.10397 155.419 7.58053 155.837 8.1863L155.738 6.28436L159.854 6.06861L160.557 19.4785C160.622 20.7143 160.432 21.8428 159.986 22.864C159.558 23.9004 158.853 24.742 157.873 25.3889C156.909 26.0349 155.681 26.397 154.188 26.4752C152.198 26.5795 150.56 26.1906 149.275 25.3084C147.99 24.4423 147.218 23.2113 146.957 21.6156L151.026 21.4023C151.181 21.9092 151.507 22.2945 152.004 22.5581C152.501 22.8379 153.103 22.9592 153.809 22.9222C154.66 22.8776 155.321 22.5935 155.792 22.0699C156.281 21.5615 156.497 20.7696 156.44 19.6942L156.341 17.7923C155.972 18.4393 155.445 18.9819 154.76 19.4202C154.074 19.8424 153.258 20.0783 152.311 20.1279C151.203 20.186 150.185 19.9577 149.257 19.443C148.328 18.9123 147.571 18.1392 146.987 17.1237C146.418 16.0913 146.097 14.885 146.025 13.5047C145.953 12.1243 146.146 10.8991 146.605 9.82893C147.08 8.75792 147.752 7.91798 148.621 7.30912C149.491 6.70026 150.479 6.36681 151.587 6.30878ZM156.09 13.0013C156.036 11.9741 155.704 11.1787 155.095 10.6152C154.503 10.0507 153.797 9.78999 152.978 9.83289C152.16 9.87579 151.477 10.2093 150.93 10.8334C150.399 11.4407 150.16 12.2579 150.214 13.2851C150.268 14.3123 150.592 15.1162 151.185 15.6966C151.794 16.2602 152.508 16.5205 153.327 16.4776C154.145 16.4347 154.82 16.1016 155.35 15.4783C155.897 14.8542 156.143 14.0285 156.09 13.0013Z" fill="white"/>
<defs>
<filter id="filter0_dd" x="0.811676" y="30.6056" width="500.377" height="347.142" filterUnits="userSpaceOnUse" color-interpolation-filters="sRGB">
<feFlood flood-opacity="0" result="BackgroundImageFix"/>
<feColorMatrix in="SourceAlpha" type="matrix" values="0 0 0 0 0 0 0 0 0 0 0 0 0 0 0 0 0 0 127 0" result="hardAlpha"/>
<feOffset dy="-2.37665"/>
<feGaussianBlur stdDeviation="0.594162"/>
<feColorMatrix type="matrix" values="0 0 0 0 0 0 0 0 0 0 0 0 0 0 0 0 0 0 0.06 0"/>
<feBlend mode="normal" in2="BackgroundImageFix" result="effect1_dropShadow"/>
<feColorMatrix in="SourceAlpha" type="matrix" values="0 0 0 0 0 0 0 0 0 0 0 0 0 0 0 0 0 0 127 0" result="hardAlpha"/>
<feOffset dy="2.37665"/>
<feGaussianBlur stdDeviation="0.594162"/>
<feColorMatrix type="matrix" values="0 0 0 0 0 0 0 0 0 0 0 0 0 0 0 0 0 0 0.2 0"/>
<feBlend mode="normal" in2="effect1_dropShadow" result="effect2_dropShadow"/>
<feBlend mode="normal" in="SourceGraphic" in2="effect2_dropShadow" result="shape"/>
</filter>
</defs>
</svg>
