<svg width="45" height="45" viewBox="0 0 45 45" fill="none" xmlns="http://www.w3.org/2000/svg">
<path fill-rule="evenodd" clip-rule="evenodd" d="M32 13.1566C31.9505 13.3514 31.9007 13.5461 31.851 13.7409C31.7439 14.1603 31.6368 14.5797 31.5316 14.9997C31.1729 16.4338 30.8145 17.868 30.456 19.3022C29.9673 21.258 29.4785 23.2137 28.9891 25.1693C28.8506 25.7224 28.4872 26.0002 27.9178 26.0002H11.2163H11.0169L11.7628 28.9999H11.9331L14.4524 28.9998C18.6486 28.9997 22.8451 28.9996 27.0413 29.0017C27.2063 29.0017 27.3781 29.007 27.5347 29.0524C28.0141 29.1914 28.2956 29.6692 28.2172 30.1745C28.145 30.637 27.7262 30.997 27.2378 30.9983C26.0425 31.0011 24.8474 31.0007 23.6522 31.0004H23.6522L22.4569 31.0001H11.0984C10.4756 31.0001 10.1337 30.7355 9.98219 30.1273C9.27039 27.271 8.55913 24.4145 7.84788 21.5581L6.71781 17.02C6.145 14.7194 5.57188 12.4188 4.99844 10.1182C4.99278 10.0956 4.98543 10.0732 4.97688 10.0472C4.97221 10.033 4.96718 10.0177 4.96187 10.0007H4.81063H1.12344C0.5225 10.0007 0.211875 9.77757 0.0209375 9.21007C0.0190064 9.20407 0.013245 9.19938 0.00749699 9.19471C0.00487336 9.19258 0.00225252 9.19045 0 9.1882V8.8132C0.00274203 8.80961 0.00585597 8.8061 0.00897826 8.80259L0.00897865 8.80259C0.0161755 8.79448 0.0234167 8.78633 0.02625 8.77695C0.1925 8.24977 0.526875 8.00071 1.07594 8.00071C2.61688 8.00009 4.15812 8.00009 5.69938 8.00071C6.22438 8.00071 6.59562 8.28321 6.72469 8.78633C6.83796 9.22728 6.94784 9.66904 7.0577 10.1107L7.05772 10.1108L7.05784 10.1112C7.101 10.2847 7.14415 10.4582 7.1875 10.6316C7.2567 10.9082 7.32568 11.1849 7.39512 11.4634L7.39574 11.4659L7.52906 12.0004H7.69219H25.8897L27.5715 12.0002H27.5716C28.6927 12.0001 29.8138 11.9999 30.935 12.0004C31.4697 12.0004 31.8206 12.2638 31.9722 12.7725C31.9771 12.7892 31.9839 12.8052 31.9907 12.8213C31.9938 12.8287 31.997 12.8362 32 12.8438V13.1563V13.1566ZM8.04313 14.006C8.04313 14.013 8.04276 14.0196 8.04241 14.0257V14.0257C8.04175 14.0375 8.04118 14.0478 8.04344 14.0572C8.13298 14.4162 8.22269 14.7752 8.31241 15.1342L8.31249 15.1345C8.54274 16.0559 8.77298 16.9772 9.00031 17.8994C9.0255 18.0018 9.08423 18.0013 9.1556 18.0007L9.17281 18.0006C10.2225 18 11.2724 18 12.3221 18H12.3269H12.4906L12.1902 15.5964L11.9913 14.0056H8.04313V14.006ZM29.7162 14.0122H25.7559C25.5897 15.3438 25.4247 16.6641 25.2588 17.9919H28.7213L29.3163 15.6119L29.7162 14.0122ZM17.8631 17.9934V14.0081H14.0072L14.5056 17.9934H17.8631ZM23.74 14.0106H19.8869V17.9906H23.2428L23.7403 14.0106H23.74ZM9.53031 20.0071L10.1325 22.4145L10.5266 23.9899H13.2391L12.7409 20.0071H9.53031ZM27.22 23.994C27.5519 22.6665 27.8834 21.3396 28.2159 20.0087H25.0056L24.5078 23.994H27.2197H27.22ZM14.7566 20.0068L15.2553 23.9918H17.865V20.0068H14.7566ZM19.8853 20.0059V23.9915H22.4922L22.99 20.0059H19.8853ZM10.7486 33.9894C10.7529 32.8813 11.6554 31.9925 12.7692 32C13.8648 32.0075 14.7561 32.916 14.7479 34.0178C14.7401 35.115 13.8351 36.0053 12.7329 36C11.6345 35.9947 10.7442 35.0928 10.7486 33.9897V33.9894ZM25.0042 32C23.9001 31.9975 23.002 32.8881 22.9985 33.9884C22.9951 35.0934 23.8839 35.995 24.9817 36C26.091 36.005 26.9954 35.1093 26.9979 34.0031C27.0004 32.9041 26.1032 32.0028 25.0042 32Z" fill="#2EB77D"/>
</svg>
