<svg width="45" height="45" viewBox="0 0 45 45" fill="none" xmlns="http://www.w3.org/2000/svg">
<path d="M13.5802 26.2781H8.50211C8.2016 26.2781 7.95825 26.5214 7.95825 26.8219V34.7063C7.95825 35.0068 8.2016 35.2501 8.50211 35.2501H13.5802C13.8807 35.2501 14.1237 35.0068 14.1237 34.7063V26.8216C14.1237 26.5211 13.8803 26.2781 13.5802 26.2781Z" fill="#2EB77D"/>
<path d="M21.4979 10H16.4198C16.1193 10 15.876 10.2434 15.876 10.5439V34.7059C15.876 35.0064 16.1193 35.2497 16.4198 35.2497H21.4979C21.7984 35.2497 22.0417 35.0064 22.0417 34.7059V10.5439C22.0417 10.2434 21.7984 10 21.4979 10V10Z" fill="#2EB77D"/>
<path d="M29.4564 17.3406H24.3783C24.0778 17.3406 23.8345 17.5839 23.8345 17.8844V34.706C23.8345 35.0065 24.0778 35.2498 24.3783 35.2498H29.456C29.7565 35.2498 29.9999 35.0065 29.9999 34.706V17.8844C29.9999 17.5843 29.7565 17.3406 29.4564 17.3406V17.3406Z" fill="#2EB77D"/>
<path d="M5.62191 17.3406H0.543859C0.243352 17.3406 0 17.5839 0 17.8844V34.706C0 35.0065 0.243352 35.2498 0.543859 35.2498H5.62191C5.92242 35.2498 6.16577 35.0065 6.16577 34.706V17.8844C6.16577 17.5843 5.92242 17.3406 5.62191 17.3406V17.3406Z" fill="#2EB77D"/>
</svg>
