<svg width="45" height="45" viewBox="0 0 45 45" fill="none" xmlns="http://www.w3.org/2000/svg">
<path d="M7.02057 14.0872L10.1743 17.2272L8.22723 19.1743L5.08717 16.0206L1.94711 19.1743L0 17.2272L3.15377 14.0872L0 10.9471L1.94711 9L5.08717 12.1538L8.22723 9L10.1743 10.9471L7.02057 14.0872ZM28 28.7728L26.0529 26.8257L22.9128 29.9794L19.7728 26.8257L17.8257 28.7728L20.9794 31.9128L17.8257 35.0529L19.7728 37L22.9128 33.8462L26.0529 37L28 35.0529L24.8462 31.9128L28 28.7728ZM25.5181 15.9109L21.1028 21.6288L18.9363 19.8874L20.5406 17.8306C18.4944 18.2462 16.5855 19.1699 14.9897 20.5165C13.3938 21.8631 12.1623 23.5895 11.4084 25.5367C12.6019 26.3974 13.4485 27.6562 13.7956 29.0861C14.1427 30.5161 13.9673 32.0229 13.3012 33.335C12.6351 34.647 11.522 35.6778 10.1628 36.2414C8.80354 36.805 7.28766 36.8643 5.88854 36.4087C4.48943 35.953 3.2992 35.0124 2.53255 33.7565C1.7659 32.5005 1.47331 31.0119 1.70756 29.5593C1.9418 28.1066 2.68746 26.7854 3.81002 25.8341C4.93259 24.8828 6.35816 24.364 7.82958 24.3712C8.18883 24.3727 8.54706 24.4094 8.89912 24.4809C9.84911 22.1233 11.366 20.0364 13.3153 18.4052C15.2647 16.774 17.5863 15.6488 20.0744 15.1293L18.1136 13.6484L19.855 11.4819L25.5181 15.9109ZM11.2576 30.5416C11.2576 29.8636 11.0565 29.2009 10.6799 28.6371C10.3032 28.0734 9.76781 27.634 9.14142 27.3746C8.51504 27.1151 7.82578 27.0472 7.16081 27.1795C6.49584 27.3118 5.88503 27.6382 5.40561 28.1177C4.92619 28.5971 4.59971 29.2079 4.46744 29.8729C4.33517 30.5378 4.40305 31.2271 4.66251 31.8535C4.92197 32.4799 5.36134 33.0152 5.92508 33.3919C6.48881 33.7686 7.15158 33.9696 7.82958 33.9696C8.73875 33.9696 9.61067 33.6085 10.2536 32.9656C10.8964 32.3227 11.2576 31.4508 11.2576 30.5416Z" fill="#2EB77D"/>
</svg>
