<svg width="45" height="45" viewBox="0 0 45 45" fill="none" xmlns="http://www.w3.org/2000/svg">
<path d="M22 19C22 18.7348 22.1054 18.4804 22.2929 18.2929C22.4804 18.1054 22.7348 18 23 18H25C25.2652 18 25.5196 18.1054 25.7071 18.2929C25.8946 18.4804 26 18.7348 26 19V21C26 21.2652 25.8946 21.5196 25.7071 21.7071C25.5196 21.8946 25.2652 22 25 22H23C22.7348 22 22.4804 21.8946 22.2929 21.7071C22.1054 21.5196 22 21.2652 22 21V19ZM16 19C16 18.7348 16.1054 18.4804 16.2929 18.2929C16.4804 18.1054 16.7348 18 17 18H19C19.2652 18 19.5196 18.1054 19.7071 18.2929C19.8946 18.4804 20 18.7348 20 19V21C20 21.2652 19.8946 21.5196 19.7071 21.7071C19.5196 21.8946 19.2652 22 19 22H17C16.7348 22 16.4804 21.8946 16.2929 21.7071C16.1054 21.5196 16 21.2652 16 21V19ZM6 25C6 24.7348 6.10536 24.4804 6.29289 24.2929C6.48043 24.1054 6.73478 24 7 24H9C9.26522 24 9.51957 24.1054 9.70711 24.2929C9.89464 24.4804 10 24.7348 10 25V27C10 27.2652 9.89464 27.5196 9.70711 27.7071C9.51957 27.8946 9.26522 28 9 28H7C6.73478 28 6.48043 27.8946 6.29289 27.7071C6.10536 27.5196 6 27.2652 6 27V25ZM12 25C12 24.7348 12.1054 24.4804 12.2929 24.2929C12.4804 24.1054 12.7348 24 13 24H15C15.2652 24 15.5196 24.1054 15.7071 24.2929C15.8946 24.4804 16 24.7348 16 25V27C16 27.2652 15.8946 27.5196 15.7071 27.7071C15.5196 27.8946 15.2652 28 15 28H13C12.7348 28 12.4804 27.8946 12.2929 27.7071C12.1054 27.5196 12 27.2652 12 27V25Z" fill="#2EB77D"/>
<path d="M7 6C7.26522 6 7.51957 6.10536 7.70711 6.29289C7.89464 6.48043 8 6.73478 8 7V8H24V7C24 6.73478 24.1054 6.48043 24.2929 6.29289C24.4804 6.10536 24.7348 6 25 6C25.2652 6 25.5196 6.10536 25.7071 6.29289C25.8946 6.48043 26 6.73478 26 7V8H28C29.0609 8 30.0783 8.42143 30.8284 9.17157C31.5786 9.92172 32 10.9391 32 12V34C32 35.0609 31.5786 36.0783 30.8284 36.8284C30.0783 37.5786 29.0609 38 28 38H4C2.93913 38 1.92172 37.5786 1.17157 36.8284C0.421427 36.0783 0 35.0609 0 34V12C0 10.9391 0.421427 9.92172 1.17157 9.17157C1.92172 8.42143 2.93913 8 4 8H6V7C6 6.73478 6.10536 6.48043 6.29289 6.29289C6.48043 6.10536 6.73478 6 7 6V6ZM2 14V34C2 34.5304 2.21071 35.0391 2.58579 35.4142C2.96086 35.7893 3.46957 36 4 36H28C28.5304 36 29.0391 35.7893 29.4142 35.4142C29.7893 35.0391 30 34.5304 30 34V14H2Z" fill="#2EB77D"/>
</svg>
