<svg width="45" height="45" viewBox="0 0 45 45" fill="none" xmlns="http://www.w3.org/2000/svg">
<path d="M6.85725 26.4285H4.57153V24.1428C4.57244 23.2338 4.93396 22.3622 5.57674 21.7194C6.21953 21.0767 7.09107 20.7151 8.0001 20.7142H13.7144V22.9999H8.0001C7.69709 23.0003 7.40658 23.1208 7.19232 23.335C6.97805 23.5493 6.85755 23.8398 6.85725 24.1428V26.4285Z" fill="#2EB77D"/>
<path d="M11.4286 19.5714C10.5245 19.5714 9.64063 19.3033 8.88886 18.801C8.13709 18.2987 7.55116 17.5847 7.20516 16.7494C6.85916 15.9141 6.76863 14.9949 6.94502 14.1082C7.12141 13.2214 7.55679 12.4069 8.19612 11.7675C8.83545 11.1282 9.65 10.6928 10.5368 10.5164C11.4235 10.34 12.3427 10.4306 13.178 10.7766C14.0133 11.1226 14.7273 11.7085 15.2296 12.4603C15.7319 13.212 16 14.0959 16 15C15.9985 16.212 15.5164 17.3739 14.6594 18.2308C13.8024 19.0878 12.6406 19.5699 11.4286 19.5714ZM11.4286 12.7143C10.9765 12.7143 10.5346 12.8484 10.1587 13.0995C9.78285 13.3507 9.48988 13.7077 9.31688 14.1253C9.14388 14.543 9.09862 15.0026 9.18681 15.4459C9.27501 15.8893 9.4927 16.2966 9.81237 16.6163C10.132 16.9359 10.5393 17.1536 10.9827 17.2418C11.4261 17.33 11.8857 17.2847 12.3033 17.1117C12.721 16.9387 13.078 16.6458 13.3291 16.2699C13.5803 15.894 13.7143 15.4521 13.7143 15C13.7137 14.394 13.4727 13.813 13.0442 13.3844C12.6157 12.9559 12.0346 12.7149 11.4286 12.7143V12.7143Z" fill="#2EB77D"/>
<path d="M20.5714 27.5714C19.6673 27.5714 18.7834 27.3033 18.0317 26.801C17.2799 26.2987 16.694 25.5847 16.348 24.7494C16.002 23.9141 15.9115 22.9949 16.0878 22.1082C16.2642 21.2214 16.6996 20.4069 17.3389 19.7675C17.9783 19.1282 18.7928 18.6928 19.6796 18.5164C20.5664 18.34 21.4855 18.4306 22.3208 18.7766C23.1562 19.1226 23.8701 19.7085 24.3724 20.4603C24.8748 21.212 25.1429 22.0959 25.1429 23C25.1413 24.212 24.6592 25.3739 23.8022 26.2308C22.9453 27.0878 21.7834 27.5699 20.5714 27.5714V27.5714ZM20.5714 20.7143C20.1194 20.7143 19.6774 20.8484 19.3016 21.0995C18.9257 21.3507 18.6327 21.7077 18.4597 22.1253C18.2867 22.543 18.2414 23.0026 18.3296 23.4459C18.4178 23.8893 18.6355 24.2966 18.9552 24.6163C19.2749 24.9359 19.6821 25.1536 20.1255 25.2418C20.5689 25.33 21.0285 25.2847 21.4461 25.1117C21.8638 24.9387 22.2208 24.6458 22.4719 24.2699C22.7231 23.894 22.8571 23.4521 22.8571 23C22.8565 22.394 22.6155 21.813 22.187 21.3844C21.7585 20.9559 21.1775 20.7149 20.5714 20.7143Z" fill="#2EB77D"/>
<path d="M27.4286 34.4285H25.1429V32.1428C25.1426 31.8398 25.0221 31.5493 24.8079 31.335C24.5936 31.1208 24.3031 31.0003 24.0001 30.9999H17.1429C16.8399 31.0003 16.5494 31.1208 16.3351 31.335C16.1209 31.5493 16.0004 31.8398 16.0001 32.1428V34.4285H13.7144V32.1428C13.7153 31.2338 14.0768 30.3622 14.7196 29.7194C15.3623 29.0767 16.2339 28.7151 17.1429 28.7142H24.0001C24.9091 28.7151 25.7806 29.0767 26.4234 29.7194C27.0662 30.3622 27.4277 31.2338 27.4286 32.1428V34.4285Z" fill="#2EB77D"/>
<path d="M6.85714 39H2.28571C1.67969 38.9994 1.09866 38.7584 0.670139 38.3299C0.241615 37.9013 0.000605116 37.3203 0 36.7143V9.28571C0.000605116 8.67969 0.241615 8.09866 0.670139 7.67014C1.09866 7.24162 1.67969 7.00061 2.28571 7H6.85714V9.28571H2.28571V36.7143H6.85714V39Z" fill="#2EB77D"/>
<path d="M29.7143 39H25.1428V36.7143H29.7143V9.28571H25.1428V7H29.7143C30.3203 7.00061 30.9013 7.24162 31.3298 7.67014C31.7584 8.09866 31.9994 8.67969 32 9.28571V36.7143C31.9994 37.3203 31.7584 37.9013 31.3298 38.3299C30.9013 38.7584 30.3203 38.9994 29.7143 39Z" fill="#2EB77D"/>
</svg>
