<svg width="131" height="26" viewBox="0 0 131 26" fill="none" xmlns="http://www.w3.org/2000/svg">
<g clip-path="url(#clip0)">
<path fill-rule="evenodd" clip-rule="evenodd" d="M127.698 19.7762C127.777 20.6813 128.5 21.8336 129.751 21.8336H130.483C130.767 21.8336 131 21.6004 131 21.3157V5.17359H130.997C130.982 4.90166 130.758 4.68385 130.483 4.68385H128.214C127.94 4.68385 127.716 4.90166 127.701 5.17359H127.698V6.48523C126.308 4.76761 124.116 4.05469 121.918 4.05469C116.923 4.05469 112.873 8.11731 112.873 13.1291C112.873 18.1412 116.923 22.2039 121.918 22.2039V22.2043C124.116 22.2043 126.511 21.349 127.698 19.7741L127.698 19.7762ZM121.927 19.0279C118.75 19.0279 116.174 16.3872 116.174 13.1291C116.174 9.87158 118.75 7.23068 121.927 7.23068C125.104 7.23068 127.68 9.87158 127.68 13.1291C127.68 16.3872 125.104 19.0279 121.927 19.0279Z" fill="#283343"/>
<path fill-rule="evenodd" clip-rule="evenodd" d="M110.004 20.3314L110.003 11.9786H110.004C110.004 7.27014 107.043 4.09375 102.321 4.09375C100.067 4.09375 98.219 5.40125 97.5665 6.52442C97.4254 5.64619 96.9606 4.72304 95.5192 4.72304H94.7846C94.5004 4.72304 94.2683 4.95641 94.2683 5.24118V19.8167V19.8189V21.3846H94.2712C94.2861 21.6561 94.5105 21.8742 94.7848 21.8742H97.0538C97.0885 21.8742 97.1225 21.87 97.1554 21.8636C97.1705 21.8607 97.1845 21.8548 97.199 21.8506C97.2159 21.8453 97.2335 21.8414 97.2495 21.8348C97.2698 21.8264 97.288 21.8151 97.3069 21.8046C97.316 21.799 97.3256 21.7949 97.3345 21.789C97.3572 21.7744 97.378 21.7568 97.398 21.7387C97.4013 21.7354 97.4052 21.7332 97.4085 21.7302C97.431 21.7084 97.4516 21.6842 97.4699 21.6591C97.4701 21.6587 97.4701 21.6587 97.4701 21.6587C97.5269 21.5805 97.5614 21.4862 97.567 21.3846H97.5699V11.8491C97.5699 9.32032 99.6136 7.27014 102.135 7.27014C104.656 7.27014 106.699 9.32032 106.699 11.8491L106.701 19.8194L106.702 19.8167C106.702 19.8238 106.703 19.831 106.703 19.8386V21.3846H106.706C106.721 21.6561 106.945 21.8742 107.219 21.8742H109.489C109.523 21.8742 109.557 21.87 109.59 21.8636C109.604 21.8611 109.616 21.8557 109.629 21.852C109.648 21.8467 109.667 21.8419 109.685 21.8348C109.703 21.8271 109.72 21.8163 109.738 21.8065C109.748 21.8003 109.76 21.796 109.77 21.789C109.791 21.7752 109.81 21.7585 109.829 21.7421C109.834 21.7377 109.839 21.7344 109.844 21.7298C109.865 21.709 109.884 21.6866 109.902 21.663C109.903 21.6612 109.904 21.6598 109.906 21.6581C109.962 21.5805 109.996 21.487 110.002 21.386C110.002 21.3852 110.002 21.3846 110.002 21.3846H110.005V20.3317L110.004 20.3314Z" fill="#283343"/>
<path fill-rule="evenodd" clip-rule="evenodd" d="M86.3748 19.7762C86.4542 20.6813 87.1765 21.8336 88.4278 21.8336H89.1601C89.444 21.8336 89.6763 21.6004 89.6763 21.3157V5.17359H89.6734C89.6586 4.90166 89.4342 4.68385 89.1601 4.68385H86.8912C86.6169 4.68385 86.3928 4.90166 86.3774 5.17359H86.3748V6.48523C84.9845 4.76761 82.7929 4.05469 80.595 4.05469C75.5993 4.05469 71.5496 8.11731 71.5496 13.1291C71.5496 18.1412 75.5993 22.2039 80.595 22.2039V22.2043C82.7929 22.2043 85.1882 21.349 86.3745 19.7741L86.3748 19.7762ZM80.6037 19.0279C77.4267 19.0279 74.8509 16.3872 74.8509 13.1291C74.8509 9.87158 77.4267 7.23068 80.6037 7.23068C83.7811 7.23068 86.3565 9.87158 86.3565 13.1291C86.3565 16.3872 83.7811 19.0279 80.6037 19.0279Z" fill="#283343"/>
<path fill-rule="evenodd" clip-rule="evenodd" d="M58.1319 17.4645C59.6465 18.5171 61.2999 19.0283 62.8887 19.0283C64.4022 19.0283 65.967 18.2412 65.967 16.8711C65.967 15.0419 62.5574 14.7574 60.415 14.0269C58.2723 13.2965 56.427 11.7866 56.427 9.34145C56.427 5.59997 59.7502 4.05469 62.8518 4.05469C64.8171 4.05469 66.8449 4.70478 68.1594 5.63605C68.6122 5.98018 68.3364 6.37529 68.3364 6.37529L67.0816 8.17323C66.9405 8.37574 66.6939 8.55069 66.3398 8.33152C65.9859 8.11247 64.7441 7.2308 62.8518 7.2308C60.9594 7.2308 59.8195 8.10751 59.8195 9.19418C59.8195 10.4973 61.3011 10.9071 63.0364 11.3513C66.0606 12.169 69.3595 13.1519 69.3595 16.8711C69.3595 20.1676 66.2857 22.2049 62.8887 22.2049C60.3142 22.2049 58.1225 21.4686 56.2842 20.1155C55.9013 19.731 56.1688 19.3739 56.1688 19.3739L57.4174 17.5852C57.6715 17.2506 57.9919 17.3673 58.1319 17.4645Z" fill="#283343"/>
<path fill-rule="evenodd" clip-rule="evenodd" d="M49.4096 19.7771C49.489 20.6823 50.2113 21.8346 51.4628 21.8346H52.1951C52.4788 21.8346 52.7115 21.6013 52.7115 21.3167V5.17457H52.7083C52.6935 4.90263 52.4694 4.68482 52.1951 4.68482H49.9261C49.6518 4.68482 49.4277 4.90263 49.4124 5.17457H49.4096V6.4862C48.0196 4.76859 45.8278 4.05566 43.63 4.05566C38.6343 4.05566 34.5845 8.11828 34.5845 13.1301C34.5845 18.1422 38.6343 22.2049 43.63 22.2049V22.2052C45.8278 22.2052 48.223 21.35 49.4093 19.775L49.4096 19.7771ZM43.6389 19.0289C40.4617 19.0289 37.8858 16.3882 37.8858 13.1301C37.8858 9.87256 40.4617 7.23166 43.6389 7.23166C46.8161 7.23166 49.3915 9.87256 49.3915 13.1301C49.3915 16.3882 46.8161 19.0289 43.6389 19.0289Z" fill="#283343"/>
<path fill-rule="evenodd" clip-rule="evenodd" d="M21.9028 13.7489C18.5408 13.7489 15.8155 16.4807 15.8155 19.851C15.8155 23.221 18.5408 25.9528 21.9028 25.9528C25.2648 25.9528 27.9901 23.221 27.9901 19.851C27.9901 16.4807 25.2648 13.7489 21.9028 13.7489ZM6.08735 13.7494C2.72543 13.7494 0 16.4808 0 19.851C0 23.221 2.72543 25.953 6.08735 25.953C9.44941 25.953 12.175 23.221 12.175 19.851C12.175 16.4808 9.44941 13.7494 6.08735 13.7494ZM20.0823 6.1213C20.0823 9.49153 17.357 12.2237 13.9951 12.2237C10.633 12.2237 7.90772 9.49153 7.90772 6.1213C7.90772 2.75174 10.633 0.0195312 13.9951 0.0195312C17.357 0.0195312 20.0823 2.75174 20.0823 6.1213Z" fill="#F06A6A"/>
</g>
<defs>
<clipPath id="clip0">
<rect width="131" height="26" fill="white"/>
</clipPath>
</defs>
</svg>
