<svg width="160" height="160" viewBox="0 0 160 160" fill="none" xmlns="http://www.w3.org/2000/svg">
<path d="M56.8817 151.322C53.7161 150.476 51.092 148.815 49.2613 146.023C48.1346 144.306 47.1341 142.428 46.3486 140.411C43.6254 133.448 40.6871 126.626 36.7292 120.239C36.6589 120.132 36.6589 120.132 36.5883 120.025C29.7146 106.264 22.4292 92.6962 16.3785 78.5516C14.2628 73.5691 13.1998 68.436 12.478 63.0034C12.0264 59.3879 13.0687 56.1772 15.727 53.6748C17.3436 52.1593 19.2084 50.7885 21.1771 49.8098C34.7792 42.9225 47.6957 34.8725 60.8421 27.056C69.8325 21.7997 78.9451 16.8467 88.0578 11.8938C90.2599 10.6861 92.6214 9.60419 95.0163 8.80738C101.63 6.48274 107.428 8.06491 111.767 13.5121C113.691 15.8599 115.273 18.5069 116.552 21.276C121.721 32.0856 126.085 43.1903 129.931 54.5574C132.228 61.3383 134.703 68.1564 137.215 74.797C139.972 82.0448 142.316 89.4844 144.091 96.99C144.883 100.306 145.48 103.674 145.416 107.089C145.33 111.055 143.877 114.458 140.825 117.064C138.816 118.682 136.628 120.264 134.356 121.365C128.861 124.108 123.155 126.53 117.502 129.148C111.152 131.99 104.731 134.726 98.4503 137.677C89.1633 142.129 79.492 145.761 69.8194 149.392C67.102 150.4 64.2289 150.819 61.3375 151.327C59.9807 151.599 58.3608 151.353 56.8817 151.322Z" fill="#2EB77D"/>
<path d="M38.0064 85.892C39.2664 95.3295 38.2312 105.328 40.4909 114.488C44.129 122.177 47.7257 129.871 51.1035 137.683C52.1624 140.691 55.9011 144.656 51.772 147.056C47.3294 148.403 46.6195 141.802 44.8626 139.078C42.8572 134.722 40.763 130.42 38.8523 126.018C36.699 120.705 33.1851 115.93 33.3389 109.908C33.4868 106.256 32.9071 102.581 32.6527 98.9166C32.2978 89.7037 31.7891 80.4966 31.02 71.3191C30.5527 63.7844 38.3495 57.6681 45.531 58.525C46.0338 58.5722 46.2941 58.4659 46.3947 58.0049C47.1401 54.6424 49.3998 52.58 52.2216 50.8485C54.647 49.3534 57.4806 48.3133 60.3378 48.9102C60.7105 48.9811 61.1009 49.1465 61.2074 48.4906C62.6804 41.6119 71.6544 37.0852 78.0728 39.9986C78.6348 40.2941 79.0548 40.2881 79.0548 39.3426C80.0013 30.366 76.1443 12.7497 82.7402 6.76928C90.1998 -1.05494 105.711 4.03317 105.415 15.3086C105.083 33.3622 104.995 51.4158 104.782 69.4635C104.782 71.2718 104.841 71.3723 106.604 71.6855C113.052 73.5884 120.429 74.5162 125.475 79.3147C135.549 94.5495 123.517 115.416 116.69 129.8C112.951 137.606 108.171 145.058 107.408 153.875C106.894 157.681 101.558 158.272 100.759 154.188C101.12 151.116 102.297 148.031 102.676 144.916C108.816 126.278 124.078 109.962 122.753 89.3432C122.925 81.7494 114.365 80.5971 108.668 78.8242C105.385 78.576 94.95 73.1865 93.6427 77.1282C92.6489 79.3797 92.0573 81.6371 93.4356 84.0187C96.5887 88.0667 101.658 90.0346 105.616 93.2021C107.598 94.8686 106.219 97.8529 105.752 99.933C105.024 101.936 105.237 105.323 102.972 106.209C98.4047 107.775 94.1514 110.056 90.3536 113.046C78.2858 121.509 83.9766 131.738 76.8423 129.995C70.4594 124.794 81.7937 111.055 86.8456 107.799C90.1406 105.464 93.5066 103.136 97.3163 101.747C99.0141 101.322 99.227 99.8149 99.576 98.4557C99.1265 93.8108 86.3901 92.3157 86.3606 81.6726C86.3428 81.383 86.6268 80.6798 85.9169 80.928C85.4969 81.0757 84.4912 80.4966 84.7456 81.9267C86.6031 89.745 78.3567 96.9842 70.8439 96.2869C70.0867 96.1037 69.8856 96.4228 69.7554 97.0197C68.2825 102.575 62.1302 106.321 56.4631 105.931C47.1992 105.21 43.8451 92.0852 38.2726 85.762C38.1838 85.8034 38.0892 85.8506 38.0004 85.892H38.0064ZM98.9431 42.1792C98.8839 42.1792 98.8188 42.1792 98.7597 42.1792C98.7597 33.2617 98.7597 24.3442 98.7597 15.4327C98.7597 11.5974 94.9086 9.13309 91.2705 9.72996C88.1707 9.58813 85.4673 12.1588 85.4732 15.4858C85.491 26.1703 85.4791 36.8547 85.4732 47.5451C88.1412 54.9911 95.867 60.611 96.8134 68.8075C96.843 70.0249 97.9552 69.7826 98.6236 69.8417C99.2743 69.8949 98.9194 69.168 98.9253 68.8312C98.9549 59.9492 98.949 51.073 98.949 42.191L98.9431 42.1792ZM64.3013 93.9762C64.3367 91.116 61.7457 89.0536 60.4916 86.6248C56.4157 80.1007 52.0323 73.742 47.9978 67.2061C45.4659 61.9466 35.2497 66.5737 37.7816 71.8037C40.065 75.574 42.5555 79.2201 44.9395 82.9254C48.0392 87.7771 51.2692 92.558 54.2802 97.4629C55.2681 99.1175 57.8414 100.317 59.6634 99.5903C61.9054 98.3907 64.597 96.996 64.3072 93.9762H64.3013ZM79.2382 84.3792C79.179 81.4126 76.5702 79.3502 75.251 76.8682C71.3113 70.6395 67.3537 64.4227 63.3548 58.2354C60.6986 51.6167 49.3407 56.8939 53.2331 63.0458C54.6411 65.1436 55.9662 67.2888 57.3267 69.4162C61.0772 75.4203 65.1413 81.2235 68.8326 87.263C71.2698 92.5757 79.0311 89.3609 79.2382 84.3792ZM73.5119 45.4885C67.6968 45.9258 65.2123 51.1676 69.5307 55.7888C71.3231 58.8618 73.3817 61.7634 75.2688 64.7654C78.1438 68.187 80.0959 76.1531 85.7868 74.4039C95.7309 70.4977 86.8752 62.833 83.8109 57.1894C80.8886 53.9273 78.4041 45.1871 73.5059 45.4944L73.5119 45.4885Z" fill="black"/>
</svg>
