<svg width="60" height="62" viewBox="0 0 60 62" fill="none" xmlns="http://www.w3.org/2000/svg">
<g filter="url(#filter0_d)">
<path d="M22.1139 47.3562C20.9398 46.619 19.1809 44.8975 16.4921 42.9322C14.9724 41.8677 11.5279 40.0481 10.2757 38.9186C9.43067 38.2629 8.89832 37.2837 8.80745 36.2179C8.58437 34.2099 9.88896 32.3491 11.8528 31.8744C13.4186 31.6364 15.0199 31.8635 16.4579 32.5275C17.4483 32.9537 18.4015 33.4617 19.3076 34.0461C19.9726 34.4511 20.17 34.638 20.9234 35.1079C21.6767 35.5778 22.2587 36.11 21.648 35.2323C20.9282 33.8768 19.712 31.6019 18.4466 29.6362C17.4825 28.143 17.3033 27.9171 16.5134 26.8135C15.7235 25.7099 15.1492 24.7543 14.2683 23.4897C13.4283 22.2379 12.6546 20.9429 11.9504 19.61C10.9371 17.9463 10.5206 15.9869 10.7696 14.0548C11.4261 12.7528 12.8 11.9721 14.2546 12.0747C15.8515 12.546 17.2623 13.5022 18.2916 14.811C19.706 16.3679 20.9051 18.1077 21.8565 19.9837C23.3533 22.6741 25.757 26.5225 26.0974 27.3691C25.7127 26.3121 24.7018 24.1567 24.5378 23.0841C24.3566 21.9696 24.7662 20.8409 25.62 20.1021C26.3757 19.5314 27.2543 19.1452 28.1858 18.9741C29.1388 18.8369 30.1088 19.0608 30.9053 19.6019C32.1737 21.0275 33.1848 22.6627 33.8936 24.4345C33.3988 22.8371 33.1018 21.1852 33.0091 19.5155C33.2416 18.6692 33.7622 17.9305 34.4811 17.4269C35.3626 16.9105 36.3305 16.5582 37.3378 16.3871C38.2064 16.3642 39.0616 16.6058 39.7898 17.0799C40.9462 18.3747 41.8947 19.8412 42.6013 21.4269C42.7469 21.8268 42.3958 20.24 42.6604 19.0114C42.6341 17.923 43.1904 16.9032 44.1199 16.3362C45.0493 15.7692 46.2107 15.7411 47.1665 16.2626C48.1222 16.784 48.7272 17.7757 48.7535 18.8642C49.4293 20.721 49.3981 20.6353 49.8556 21.8923C50.3131 23.1492 50.7186 24.2633 51.1033 25.3203C51.6077 27.0298 51.9833 28.7748 52.2269 30.5405C52.257 32.1701 52.0653 33.7962 51.6569 35.3741C50.8313 37.4215 50.3197 39.5818 50.1394 41.782C50.2653 42.7967 50.5187 43.7914 50.8935 44.7427C51.2136 45.6311 51.6506 46.473 52.1929 47.2461C51.0698 47.7947 49.8921 48.2233 48.6791 48.525C47.5026 48.7591 45.3204 47.0299 44.6995 46.4795C44.3818 46.1783 43.921 46.0825 43.5096 46.2323C43.0981 46.382 42.8067 46.7515 42.757 47.1865C42.5236 48.5008 41.8413 50.9814 40.9116 51.4492C39.0808 52.3744 35.0554 53.5807 31.9416 54.714C31.9416 54.714 31.416 51.6702 29.8705 51.0681C28.3249 50.4659 26.6884 49.7028 25.5117 49.2253L22.1139 47.3562Z" fill="#FFFAF5"/>
<path fill-rule="evenodd" clip-rule="evenodd" d="M52.1962 24.9975C51.5866 23.3162 51.5866 23.3162 50.9263 21.5022L49.8829 18.6355C49.7807 17.2196 48.9661 15.9459 47.7119 15.2617C46.3986 14.5452 44.8028 14.5837 43.5256 15.3628C42.6555 15.8936 42.0233 16.7133 41.7202 17.6548C41.3813 17.1921 41.021 16.7475 40.6395 16.3204C39.4893 15.5241 38.4068 15.2183 37.3071 15.2474C36.0032 15.4572 34.9048 15.857 33.9043 16.4431C32.9352 17.1176 32.273 18.0261 31.9518 19.0673C31.8873 18.9923 31.8222 18.9179 31.7564 18.8439C30.5136 17.9579 29.2573 17.6679 28.0228 17.8456C26.8732 18.0558 25.8299 18.5145 24.9325 19.1922C24.373 19.6747 23.9539 20.2594 23.6889 20.897C23.3683 20.3447 23.0948 19.8653 22.8522 19.4293C21.8751 17.5009 20.6179 15.6767 19.1348 14.0443C18.0117 12.6115 16.4005 11.5194 14.5767 10.9811C12.4213 10.8024 10.6144 11.8291 9.75111 13.5415L9.63842 13.909C9.3563 16.098 9.82814 18.3179 10.9762 20.2029C11.6647 21.5106 12.4589 22.8399 13.3212 24.1248C13.7044 24.6753 13.7062 24.678 14.5688 25.9851L14.5695 25.9862C14.6796 26.153 14.6799 26.1533 14.7913 26.3211C15.0818 26.7575 15.3273 27.1157 15.5858 27.4769C16.0264 28.0904 16.1968 28.328 16.3473 28.542C16.3697 28.5739 16.3809 28.5899 16.3921 28.6059C16.4033 28.6219 16.4145 28.638 16.437 28.6702C16.7162 29.0713 17.0061 29.5076 17.4883 30.2544C17.932 30.9437 18.3568 31.6439 18.7993 32.4114C18.1895 32.0713 17.5563 31.7592 16.908 31.4802C15.2946 30.7348 13.4676 30.4756 11.6809 30.7471C9.06261 31.3758 7.3874 33.7651 7.67385 36.3436C7.78892 37.6975 8.47971 38.9682 9.57623 39.8191C10.1342 40.3266 11.0867 40.956 12.734 41.9498L12.9901 42.104C14.9 43.2512 15.2435 43.4572 15.5739 43.6824C15.6549 43.7377 15.7352 43.7941 15.8376 43.8658C16.4756 44.3323 17.6358 45.2641 18.7545 46.1627C20.0053 47.1673 21.2043 48.1303 21.5639 48.355L24.9617 50.224C25.381 50.3998 26.5007 50.8849 27.2691 51.2177C27.6481 51.3819 27.9417 51.5091 28.0236 51.5439C28.3944 51.7014 28.7334 51.842 29.0567 51.972C29.2564 52.0519 29.2565 52.052 29.4558 52.1301L29.4561 52.1301C29.6812 52.2179 29.9609 52.5407 30.2203 53.0666C30.4403 53.5128 30.615 54.0363 30.7407 54.5539C30.7821 54.7245 30.8074 54.8486 30.8176 54.9078C30.9385 55.6079 31.6633 56.0281 32.3309 55.7851C33.0998 55.5053 33.8981 55.2289 35.1701 54.7978L35.6091 54.6492C39.0556 53.4828 40.3371 53.0164 41.4252 52.4665C42.6696 51.8404 43.4643 49.7205 43.9146 47.3066C45.5835 48.787 47.4516 49.9313 48.9011 49.6429C50.2444 49.3102 51.4976 48.854 52.6927 48.2703C53.3224 47.9627 53.5281 47.165 53.1256 46.5913C52.6414 45.901 52.2513 45.1493 51.9654 44.3561C51.6139 43.4625 51.3843 42.5611 51.2702 41.6415C51.4459 39.7892 51.9309 37.7412 52.7136 35.8004C53.1943 33.9816 53.3982 32.2522 53.3661 30.5192C53.1042 28.5624 52.7167 26.7617 52.1962 24.9975ZM28.3933 49.221C27.6439 48.8967 26.3349 48.3301 25.9389 48.1694L22.6974 46.3774C22.4475 46.2114 21.5758 45.5089 20.5633 44.6929C19.3596 43.7227 17.9568 42.5922 17.1634 42.0122C16.8009 41.7581 16.3668 41.4807 15.7825 41.124C15.5554 40.9853 15.3937 40.8877 14.9886 40.6445L14.9834 40.6414C14.5781 40.3988 14.5764 40.3977 14.1633 40.1501L13.9108 39.9981C12.3992 39.0862 11.5104 38.4988 11.0377 38.0725C10.3796 37.5578 10.0057 36.87 9.94184 36.1215C9.77929 34.6549 10.7133 33.3228 12.1192 32.9829C13.3677 32.7974 14.7432 32.9925 15.9785 33.5629C16.938 33.9763 17.8353 34.4544 18.6882 35.0045C18.9486 35.1636 19.1158 35.2731 19.3827 35.4565C19.8422 35.7725 19.9722 35.8596 20.3186 36.0756C20.3432 36.091 20.4111 36.136 20.5008 36.1955C20.7473 36.3589 21.1579 36.6312 21.2838 36.6945C21.4472 36.7959 21.4472 36.7959 22.1019 36.822C23.1605 35.9266 23.1636 35.9141 22.9902 35.3269C22.9221 35.0961 22.8096 34.9083 22.5824 34.5817C21.3871 32.3136 20.4549 30.6526 19.4036 29.0195C18.9075 28.2511 18.6039 27.7941 18.3072 27.368C18.2593 27.2993 18.2593 27.2993 18.2116 27.2313C18.0539 27.007 17.8759 26.7588 17.4389 26.1504C17.1972 25.8127 16.9657 25.4749 16.6883 25.0582L16.6882 25.058C16.5799 24.895 16.5798 24.8949 16.4709 24.73C15.5942 23.4015 15.5904 23.3957 15.2023 22.8385C14.3957 21.6363 13.6425 20.3756 12.9569 19.0779C12.0814 17.6365 11.7134 16.015 11.8752 14.407C12.3524 13.6128 13.2384 13.1464 14.1729 13.2123C15.3005 13.5728 16.5109 14.3933 17.394 15.5161C18.7921 17.0594 19.933 18.7148 20.8383 20.4998C21.2458 21.234 21.7047 22.0289 22.2989 23.0389C22.4307 23.2627 22.4307 23.2629 22.5622 23.4856L22.5624 23.486C24.8769 27.406 24.8932 27.4341 25.0383 27.7949C25.5961 29.1818 27.6785 28.3844 27.1672 26.9796C27.0546 26.6702 26.9881 26.5063 26.6108 25.5922C26.4622 25.2316 26.3993 25.0777 26.3145 24.8663C25.9389 23.9289 25.7192 23.2782 25.6633 22.9123C25.5438 22.1776 25.8099 21.4445 26.3645 20.9646C26.9195 20.5486 27.6334 20.2348 28.3902 20.0958C29.0184 20.0062 29.7019 20.164 30.2632 20.5453C31.2328 21.6871 32.1739 23.2091 32.8336 24.8583C33.376 26.2141 35.4131 25.4925 34.9811 24.0976C34.5337 22.6532 34.2575 21.1615 34.158 19.6532C34.3387 19.1319 34.6795 18.6792 35.1337 18.361C35.8185 17.9642 36.6558 17.6595 37.5272 17.5115C38.0041 17.5103 38.6318 17.6877 39.1663 18.0357C40.0159 19.0466 40.8999 20.4134 41.5586 21.8914C41.513 21.8944 41.513 21.8944 42.093 22.4958C43.7548 22.1982 43.7548 22.1982 43.7594 21.6724L43.7594 21.6722C43.7786 21.4947 43.7786 21.4946 43.7762 21.423C43.7741 21.3353 43.7639 21.2209 43.7439 21.0144C43.7035 20.5716 43.6871 20.2214 43.7021 19.8662C43.7118 19.6342 43.7356 19.4271 43.7733 19.2518C43.7821 18.303 44.1303 17.6647 44.7121 17.3098C45.2938 16.9549 46.0208 16.9374 46.619 17.2637C47.2172 17.5901 47.5959 18.2109 47.6123 18.8921L47.6808 19.2545L50.0306 25.7106C50.4967 27.2982 50.8602 28.9874 51.0961 30.6967C51.1138 32.0882 50.9342 33.6111 50.5518 35.0889C49.7296 37.102 49.1913 39.3747 49.0017 41.6894C49.1443 43.0326 49.4214 44.1206 49.8314 45.1611C50.0233 45.6946 50.2596 46.2219 50.536 46.733C49.8415 47.0092 49.1287 47.2385 48.4025 47.4191C48.0351 47.4909 46.4876 46.543 45.4543 45.6269C44.8511 45.0541 43.9357 44.8639 43.1182 45.1614C42.3007 45.459 41.7217 46.1931 41.6229 47.0574C41.3581 48.536 40.7058 50.2762 40.3977 50.4313C39.4498 50.9103 38.1835 51.3711 34.8773 52.49L34.4374 52.639C33.7587 52.869 33.2124 53.0558 32.7318 53.2231C32.6025 52.8238 32.4479 52.4311 32.2642 52.0587C31.7769 51.0704 31.1462 50.3426 30.2828 50.0062L30.2817 50.0058C30.0953 49.9328 30.095 49.9326 29.9062 49.8571C29.5976 49.7331 29.272 49.5979 28.9139 49.4459C28.855 49.4208 28.6595 49.3362 28.3933 49.221Z" fill="black"/>
<path d="M46.9066 40.0978L43.3176 30.2371C43.1028 29.6469 42.449 29.343 41.8574 29.5583C41.2658 29.7737 40.9603 30.4267 41.1751 31.017L44.7641 40.8776C44.9789 41.4679 45.6327 41.7718 46.2243 41.5564C46.816 41.3411 47.1214 40.688 46.9066 40.0978Z" fill="black"/>
<path d="M41.2495 42.1527L37.6016 32.3078C37.3838 31.7202 36.7287 31.4212 36.1383 31.6399C35.5479 31.8587 35.2458 32.5123 35.4636 33.0999L39.1115 42.9448C39.3292 43.5324 39.9844 43.8314 40.5747 43.6127C41.1651 43.394 41.4673 42.7403 41.2495 42.1527Z" fill="black"/>
<path d="M29.7525 35.1903L33.393 45.0148C33.6128 45.608 34.2696 45.9116 34.86 45.6928C35.4503 45.474 35.7507 44.8157 35.5309 44.2225L31.8904 34.398C31.6706 33.8048 31.0138 33.5013 30.4234 33.7201C29.833 33.9389 29.5327 34.5971 29.7525 35.1903Z" fill="black"/>
</g>
<defs>
<filter id="filter0_d" x="7.6416" y="10.9609" width="47.7273" height="46.8934" filterUnits="userSpaceOnUse" color-interpolation-filters="sRGB">
<feFlood flood-opacity="0" result="BackgroundImageFix"/>
<feColorMatrix in="SourceAlpha" type="matrix" values="0 0 0 0 0 0 0 0 0 0 0 0 0 0 0 0 0 0 127 0" result="hardAlpha"/>
<feOffset dx="2" dy="2"/>
<feColorMatrix type="matrix" values="0 0 0 0 0 0 0 0 0 0 0 0 0 0 0 0 0 0 1 0"/>
<feBlend mode="normal" in2="BackgroundImageFix" result="effect1_dropShadow"/>
<feBlend mode="normal" in="SourceGraphic" in2="effect1_dropShadow" result="shape"/>
</filter>
</defs>
</svg>
