<svg width="45" height="45" viewBox="0 0 45 45" fill="none" xmlns="http://www.w3.org/2000/svg">
<path d="M27.467 9C23.329 13.0978 17.2471 15.6061 11.3878 15.9588H2.68664C1.31621 15.9777 0.07728 17.1427 0 18.6795V22.603C0.0186933 23.9728 1.14848 25.2462 2.68531 25.3235H6.17387C5.24155 28.4853 6.24301 31.6861 7.32453 34.8279C8.92896 36.3429 12.5988 36.1544 13.7949 34.1827C11.2476 32.1803 10.0069 26.7922 13.0778 25.4633C18.3121 26.0572 23.4978 28.7169 27.467 32.2824C28.8315 32.2637 30.0725 31.1425 30.1523 29.6141V23.1789C32.8843 22.2087 32.332 18.7987 30.1523 18.1048V11.6866C30.1341 10.3169 29.0037 9.07867 27.467 9.00131V9H27.467ZM27.5362 12.4703V28.8291C23.7007 25.8404 18.9619 23.8349 14.0731 22.9347V18.366C18.8703 17.6441 23.562 15.4306 27.5362 12.4703V12.4703Z" fill="#2EB77D"/>
</svg>
