<svg width="200" height="180" viewBox="0 0 200 180" fill="none" xmlns="http://www.w3.org/2000/svg">
<path d="M55.1665 168.162L120.886 177.398C129.898 178.665 138.252 172.371 139.519 163.357L158.097 31.1651C159.364 22.1527 153.07 13.7991 144.056 12.5322L78.3368 3.29599C69.3245 2.02939 60.9708 8.3229 59.704 17.3369L41.1256 149.529C40.0214 158.757 46.1541 166.895 55.1665 168.162ZM65.1231 18.2897C65.9677 12.2804 71.5355 8.08442 77.5452 8.92902L143.265 18.1653C149.274 19.0098 153.47 24.5776 152.625 30.5873L134.047 162.779C133.202 168.789 127.634 172.985 121.625 172.14L55.9054 162.904C49.8961 162.059 45.7001 156.491 46.5448 150.482L65.1231 18.2897ZM54.9997 142.096L128.042 152.361C129.545 152.572 130.829 151.604 131.04 150.102L146.214 42.132C146.425 40.6296 145.458 39.3454 143.955 39.1343L70.9126 28.8688C69.4103 28.6576 68.126 29.6254 67.9149 31.1277L52.7407 139.098C52.5561 140.411 53.4973 141.884 54.9997 142.096ZM72.9912 34.5214L140.776 44.048L126.368 146.57L58.5826 137.044L72.9912 34.5214ZM98.6565 23.5759C98.8677 22.0735 100.152 21.1058 101.654 21.3169L115.925 23.3225C117.427 23.5337 118.395 24.8179 118.184 26.3203C117.973 27.8226 116.689 28.7903 115.186 28.5792L100.915 26.5736C99.5742 26.5762 98.4454 25.0782 98.6565 23.5759ZM91.1907 148.903C86.4962 148.244 81.9988 151.633 81.3391 156.327C80.6793 161.022 84.0684 165.519 88.7628 166.179C93.4572 166.839 97.9547 163.449 98.6144 158.755C99.3005 153.873 95.8851 149.563 91.1907 148.903ZM89.5281 160.733C87.651 160.47 86.5472 158.782 86.7846 157.093C87.0485 155.215 88.7356 154.112 90.4254 154.349C92.1151 154.587 93.4064 156.3 93.1689 157.99C92.9051 159.867 91.2179 160.971 89.5281 160.733ZM82.8023 68.2583C71.6664 76.6498 68.5111 92.2909 75.4555 104.182C74.5196 105.392 73.209 106.547 71.7884 107.113C70.1805 107.653 69.2182 109.05 69.1945 110.579C69.1707 112.107 70.3009 113.607 71.7769 114.006C73.2529 114.404 78.2429 115.68 83.7623 113.201C87.4152 115.821 91.6014 117.367 95.7337 117.947C102.869 118.95 110.4 117.136 116.397 112.618C128.604 103.42 131.058 85.9555 121.886 73.5616C112.659 61.5392 95.0089 59.0587 82.8023 68.2583ZM112.981 108.306C104.843 114.439 93.5526 114.384 85.6539 107.912C85.3054 107.672 84.768 107.405 84.3917 107.353C83.8279 107.273 83.2394 107.382 82.6227 107.679C81.1495 108.62 79.5679 108.973 78.2016 109.164C79.111 108.144 80.047 106.935 81.0093 105.538C81.516 104.652 81.4871 103.498 81.0305 102.668C74.5716 92.7606 76.8216 79.4813 86.2441 72.381C96.0957 64.9572 110.179 66.9366 117.603 76.7882C124.785 86.988 122.833 100.882 112.981 108.306Z" fill="black"/>
<path d="M108.686 89.0424C109.944 88.2621 110.182 86.5708 109.214 85.2866C108.434 84.0271 106.556 83.7629 105.462 84.759L97.7507 90.5695L95.8139 87.9993C95.0336 86.7414 93.3422 86.5037 92.058 87.4714C90.8001 88.2518 90.5624 89.9431 91.5302 91.2273L95.0803 95.9385C95.5897 96.3939 96.1008 96.848 96.8519 96.9535C97.6031 97.0591 98.1917 96.9507 98.8347 96.4662L108.686 89.0424Z" fill="#2EB77D"/>
</svg>
