<svg width="45" height="45" viewBox="0 0 45 45" fill="none" xmlns="http://www.w3.org/2000/svg">
<path fill-rule="evenodd" clip-rule="evenodd" d="M16.5231 15.3894C16.6026 15.2815 16.6832 15.172 16.7626 15.059C16.7743 15.0787 16.7825 15.0916 16.7883 15.1005C16.7964 15.1133 16.7994 15.118 16.7998 15.1229C16.8011 15.1368 16.8006 15.1508 16.8 15.1649L16.7995 15.1826C16.7676 16.6903 16.5012 18.1586 15.9524 19.5685C14.4869 23.334 11.8391 26.0094 8.02651 27.5818C6.35073 28.2729 4.58871 28.5867 2.7696 28.612C2.56304 28.615 2.34758 28.6386 2.15299 28.7015C1.32891 28.9684 0.870377 29.7374 1.01217 30.5802C1.14384 31.3626 1.88628 31.9504 2.7432 31.9436C4.27903 31.9314 5.79306 31.7509 7.27333 31.3483C11.5441 30.1862 14.9181 27.8088 17.3667 24.2196C19.1803 21.5612 20.1155 18.6179 20.2278 15.4292C20.2291 15.3988 20.2322 15.3684 20.2353 15.3381C20.2368 15.3243 20.2382 15.3104 20.2395 15.2965L20.2837 15.2879L20.4832 15.5872L20.4834 15.5875C20.5913 15.7493 20.6991 15.911 20.8073 16.0726C21.4199 16.9882 22.6841 17.2573 23.6309 16.6736C24.5839 16.0863 24.8896 14.8542 24.2902 13.9394C23.0576 12.058 21.4748 10.5098 19.5335 9.3188C18.8384 8.89229 18.1005 8.89706 17.3992 9.31314C16.5328 9.82733 15.7455 10.4465 15.0092 11.1263C14.0474 12.0145 13.2316 13.0184 12.5158 14.1014C12.2881 14.4459 12.1779 14.8247 12.1917 15.2321C12.2224 16.1451 12.8706 16.8988 13.7923 17.1052C14.683 17.3044 15.5912 16.8809 16.0463 16.0893C16.1851 15.8482 16.3516 15.6222 16.5231 15.3894L16.5231 15.3894ZM5.64487 13.5482C8.75795 13.5458 11.2854 15.999 11.29 19.0266C11.2943 22.0483 8.76747 24.511 5.65469 24.5182C2.54774 24.525 -0.00306643 22.048 2.7668e-06 19.0266C0.00307196 16.0008 2.52749 13.5506 5.64487 13.5482ZM5.64057 16.8839C4.41549 16.8853 3.43075 17.8465 3.4329 19.0388C3.43535 20.2185 4.42824 21.1824 5.64088 21.1827C6.86395 21.1827 7.85592 20.2199 7.85653 19.0311C7.85745 17.8419 6.86764 16.8827 5.64057 16.8839ZM23.3928 29.0516C23.382 29.0701 23.3709 29.0892 23.3583 29.1081L23.358 29.1075C23.3283 29.0805 23.304 29.0587 23.2831 29.0399C23.247 29.0075 23.2213 28.9845 23.1966 28.9605C22.947 28.7179 22.6975 28.4753 22.448 28.2326C21.8661 27.6665 21.2842 27.1004 20.7007 26.5359C20.0132 25.8708 18.9365 25.8666 18.2629 26.5222C17.5876 27.1793 17.5953 28.2247 18.2803 28.8904C19.1121 29.6987 19.9438 30.507 20.7756 31.3156C20.8025 31.3415 20.8284 31.3683 20.8555 31.3964C20.8677 31.409 20.8802 31.4219 20.8932 31.4352C20.8835 31.4459 20.8747 31.4561 20.8663 31.4658C20.8496 31.4851 20.8345 31.5026 20.818 31.5187C20.566 31.7634 20.3144 32.0084 20.0627 32.2534C19.4219 32.8773 18.781 33.5011 18.1358 34.1207C17.4523 34.7769 17.4305 35.8282 18.099 36.4918C18.7662 37.1543 19.8585 37.1591 20.5377 36.5017C21.0433 36.0121 21.5486 35.5223 22.054 35.0325C22.4323 34.6659 22.8105 34.2993 23.1889 33.9328C23.2176 33.9051 23.2472 33.8782 23.2778 33.8504C23.2923 33.8372 23.3071 33.8237 23.3221 33.8099C23.3347 33.8207 23.3462 33.8303 23.3568 33.8392C23.3777 33.8567 23.3952 33.8714 23.4117 33.8874C23.6577 34.1267 23.9039 34.3657 24.1501 34.6046C24.7978 35.2333 25.4454 35.862 26.089 36.4945C26.7618 37.1558 27.8498 37.1716 28.5293 36.5199C29.2076 35.8691 29.2055 34.8052 28.5293 34.1493C27.8737 33.5133 27.2199 32.8755 26.5661 32.2377C26.3283 32.0058 26.0905 31.7738 25.8527 31.5419C25.8294 31.5193 25.8076 31.4956 25.7831 31.469C25.7711 31.4558 25.7584 31.4421 25.7446 31.4274C25.7633 31.4107 25.781 31.3953 25.7977 31.3806C25.8318 31.3508 25.8623 31.3241 25.8913 31.2959C26.1143 31.0794 26.3374 30.8631 26.5604 30.6468C27.1737 30.0522 27.787 29.4575 28.3967 28.8594C28.7982 28.4657 28.9529 27.9804 28.8605 27.4382C28.7478 26.7787 28.351 26.3215 27.6979 26.119C27.0343 25.9132 26.4352 26.0629 25.9368 26.5461C25.1111 27.3463 24.2871 28.148 23.4639 28.9509C23.4353 28.9787 23.4147 29.014 23.3928 29.0516Z" fill="#2EB77D"/>
</svg>
