<svg width="200" height="180" viewBox="0 0 200 180" fill="none" xmlns="http://www.w3.org/2000/svg">
<path d="M94.1558 162.88H63.0221C60.1317 162.88 56.6331 163.978 53.2549 165.042C50.5634 165.89 47.7764 166.765 46.4964 166.806C45.466 166.437 42.662 163.434 40.8076 161.442C36.273 156.59 33.2981 153.62 30.2331 153.233C24.7321 152.572 23.2868 160.468 21.7517 168.871C21.5527 169.958 21.32 171.243 21.0967 172.341C20.5449 171.288 19.9311 169.913 19.3793 168.314C16.046 158.625 14.0883 153.552 9.38485 153.216C7.65623 153.068 4.45223 152.857 0.0885108 169.924C-0.298127 171.448 0.61781 172.996 2.13618 173.383C3.66021 173.775 5.20861 172.853 5.59525 171.335C6.81899 166.556 8.50817 161.682 9.63994 159.52C11.0288 161.534 13.1272 167.638 13.998 170.164C15.4264 174.311 17.8212 179.373 21.1322 179.914C21.3537 179.948 21.5639 179.965 21.7741 179.965C23.0091 179.965 24.1521 179.379 24.9817 178.298C26.0121 176.962 26.4719 174.623 27.3371 169.89C27.8833 166.92 28.9588 161.038 30.0736 159.109C31.7234 160.058 34.8578 163.408 36.6389 165.315C40.8882 169.867 43.4314 172.444 46.1678 172.444C48.6472 172.444 51.7082 171.483 54.9515 170.458C57.9207 169.525 60.9988 168.559 63.0125 168.559H94.1462C95.7171 168.559 96.9897 167.284 96.9897 165.715C96.9897 164.142 95.7265 162.879 94.1556 162.879L94.1558 162.88Z" fill="#2EB77D"/>
<path d="M190.862 71.8672C190.868 71.8672 190.868 71.8616 190.868 71.8616L195.938 66.792C200.994 61.7282 200.994 53.5039 195.932 48.4454L192.154 44.6804C187.261 39.7703 178.7 39.7761 173.807 44.6804L168.732 49.7499L100.326 118.156C98.8811 119.607 97.8919 121.335 97.282 123.156L88.9375 136.222C88.8005 136.438 88.6935 136.671 88.6128 136.917L83.4812 153.574C83.1678 154.58 83.4418 155.678 84.187 156.423C84.7275 156.964 85.4557 157.255 86.2009 157.255C86.4861 157.255 86.7639 157.215 87.038 157.129L103.695 151.997C103.939 151.919 104.174 151.815 104.384 151.673L117.462 143.328C119.311 142.698 121.028 141.695 122.451 140.273L190.862 71.8672ZM177.835 48.6989C180.577 45.9399 185.367 45.9343 188.126 48.7045L191.915 52.4752C194.748 55.313 194.748 59.9337 191.915 62.7772L188.854 65.8384L174.768 51.7656L177.835 48.6989ZM170.748 55.786L184.834 69.8588L118.427 136.252C115.684 138.994 110.884 138.999 108.136 136.252L104.352 132.481C101.52 129.637 101.514 125.017 104.346 122.179L170.748 55.786ZM101.645 146.669L96.3096 148.313L100.741 143.882C101.85 142.772 101.85 140.969 100.741 139.86C99.6317 138.75 97.828 138.75 96.7188 139.86L92.2874 144.285L93.9316 138.955L97.8336 132.857C98.4417 134.165 99.245 135.411 100.326 136.498L104.116 140.276C105.185 141.34 106.413 142.153 107.74 142.78L101.645 146.669Z" fill="black"/>
<path d="M191.237 75.3891L159.084 107.542C157.975 108.651 157.975 110.455 159.084 111.564C159.641 112.121 160.37 112.396 161.098 112.396C161.826 112.396 162.554 112.116 163.112 111.564L195.264 79.4112C196.374 78.302 196.374 76.4983 195.264 75.3891C194.155 74.2799 192.346 74.2742 191.237 75.3891Z" fill="black"/>
</svg>
