<svg width="45" height="45" viewBox="0 0 45 45" fill="none" xmlns="http://www.w3.org/2000/svg">
<path fill-rule="evenodd" clip-rule="evenodd" d="M17.5 5C18.3284 5 19 5.67157 19 6.5V37.6578C19 38.4863 18.3284 39.1578 17.5 39.1578C16.6716 39.1578 16 38.4863 16 37.6578V6.5C16 5.67157 16.6716 5 17.5 5Z" fill="#2EB77D"/>
<path fill-rule="evenodd" clip-rule="evenodd" d="M16 9.86853C16 9.0401 16.6716 8.36853 17.5 8.36853H31.3178C31.8263 8.36853 32.3002 8.62617 32.5767 9.05295L34.7589 12.4214C35.0804 12.9176 35.0804 13.5563 34.7589 14.0525L32.5767 17.4209C32.3002 17.8477 31.8263 18.1054 31.3178 18.1054H17.5C16.6716 18.1054 16 17.4338 16 16.6054V9.86853ZM19 11.3685V15.1054H30.5023L31.7127 13.2369L30.5023 11.3685H19Z" fill="#2EB77D"/>
<path fill-rule="evenodd" clip-rule="evenodd" d="M2.42332 20.8423C2.69981 20.4155 3.1737 20.1578 3.68222 20.1578H17.5C18.3284 20.1578 19 20.8294 19 21.6578V28.3947C19 29.2231 18.3284 29.8947 17.5 29.8947H3.68222C3.1737 29.8947 2.69981 29.637 2.42332 29.2102L0.241098 25.8418C-0.080366 25.3456 -0.080366 24.7069 0.241098 24.2107L2.42332 20.8423ZM4.49772 23.1578L3.28727 25.0263L4.49772 26.8947H16V23.1578H4.49772Z" fill="#2EB77D"/>
<path fill-rule="evenodd" clip-rule="evenodd" d="M8.88892 38.5C8.88892 37.6716 9.56049 37 10.3889 37H24.6111C25.4396 37 26.1111 37.6716 26.1111 38.5C26.1111 39.3284 25.4396 40 24.6111 40H10.3889C9.56049 40 8.88892 39.3284 8.88892 38.5Z" fill="#2EB77D"/>
</svg>
