<svg width="34" height="34" viewBox="0 0 34 34" fill="none" xmlns="http://www.w3.org/2000/svg">
<path d="M29.75 2.125C30.3136 2.125 30.8541 2.34888 31.2526 2.7474C31.6511 3.14591 31.875 3.68641 31.875 4.25V21.25C31.875 21.8136 31.6511 22.3541 31.2526 22.7526C30.8541 23.1511 30.3136 23.375 29.75 23.375H24.4375C23.7777 23.375 23.127 23.5286 22.5368 23.8237C21.9467 24.1188 21.4334 24.5472 21.0375 25.075L17 30.4576L12.9625 25.075C12.5666 24.5472 12.0533 24.1188 11.4632 23.8237C10.873 23.5286 10.2223 23.375 9.5625 23.375H4.25C3.68641 23.375 3.14591 23.1511 2.7474 22.7526C2.34888 22.3541 2.125 21.8136 2.125 21.25V4.25C2.125 3.68641 2.34888 3.14591 2.7474 2.7474C3.14591 2.34888 3.68641 2.125 4.25 2.125H29.75ZM4.25 0C3.12283 0 2.04183 0.447767 1.2448 1.2448C0.447767 2.04183 0 3.12283 0 4.25L0 21.25C0 22.3772 0.447767 23.4582 1.2448 24.2552C2.04183 25.0522 3.12283 25.5 4.25 25.5H9.5625C9.8924 25.5 10.2178 25.5768 10.5128 25.7243C10.8079 25.8719 11.0646 26.0861 11.2625 26.35L15.3 31.7326C15.4979 31.9965 15.7546 32.2107 16.0497 32.3583C16.3447 32.5058 16.6701 32.5826 17 32.5826C17.3299 32.5826 17.6553 32.5058 17.9503 32.3583C18.2454 32.2107 18.5021 31.9965 18.7 31.7326L22.7375 26.35C22.9354 26.0861 23.1921 25.8719 23.4872 25.7243C23.7822 25.5768 24.1076 25.5 24.4375 25.5H29.75C30.8772 25.5 31.9582 25.0522 32.7552 24.2552C33.5522 23.4582 34 22.3772 34 21.25V4.25C34 3.12283 33.5522 2.04183 32.7552 1.2448C31.9582 0.447767 30.8772 0 29.75 0L4.25 0Z" fill="white"/>
<path d="M15.0153 10.1149C14.6014 9.47028 13.9894 8.97742 13.2713 8.7104C12.5533 8.44338 11.768 8.41663 11.0334 8.63417C10.2989 8.85171 9.65479 9.30178 9.19795 9.91674C8.74111 10.5317 8.4962 11.2783 8.50004 12.0444C8.50043 12.6788 8.67116 13.3014 8.99441 13.8473C9.31766 14.3931 9.78156 14.8422 10.3377 15.1475C10.8937 15.4528 11.5216 15.6031 12.1557 15.5828C12.7897 15.5626 13.4067 15.3724 13.9422 15.0321C13.6638 15.8588 13.1453 16.7406 12.291 17.6246C12.1276 17.7937 12.038 18.0208 12.042 18.2559C12.046 18.491 12.1432 18.715 12.3123 18.8784C12.4814 19.0418 12.7084 19.1314 12.9436 19.1274C13.1787 19.1234 13.4026 19.0262 13.566 18.8571C16.7238 15.5846 16.3137 12.0274 15.0153 10.1192V10.1149ZM23.5153 10.1149C23.1014 9.47028 22.4894 8.97742 21.7713 8.7104C21.0533 8.44338 20.268 8.41663 19.5334 8.63417C18.7989 8.85171 18.1548 9.30178 17.6979 9.91674C17.2411 10.5317 16.9962 11.2783 17 12.0444C17.0004 12.6788 17.1712 13.3014 17.4944 13.8473C17.8177 14.3931 18.2816 14.8422 18.8377 15.1475C19.3937 15.4528 20.0216 15.6031 20.6557 15.5828C21.2897 15.5626 21.9067 15.3724 22.4422 15.0321C22.1638 15.8588 21.6453 16.7406 20.791 17.6246C20.6276 17.7937 20.538 18.0208 20.542 18.2559C20.546 18.491 20.6432 18.715 20.8123 18.8784C20.9814 19.0418 21.2084 19.1314 21.4436 19.1274C21.6787 19.1234 21.9026 19.0262 22.066 18.8571C25.2238 15.5846 24.8137 12.0274 23.5153 10.1192V10.1149Z" fill="white"/>
</svg>
