<svg width="160" height="160" viewBox="0 0 160 160" fill="none" xmlns="http://www.w3.org/2000/svg">
<path d="M9 79.2808C9.49173 58.9482 16.938 40.5924 32.6031 25.8371C38.7146 20.1186 45.7394 15.6002 53.1154 11.7173C60.2103 8.04609 67.8672 6.35171 75.8052 6.06931C88.239 5.57512 100.11 7.69309 111.21 13.4116C132.073 24.1427 145.069 41.2984 150.197 64.1726C155.887 89.3766 147.879 115.992 129.404 133.925C117.813 145.15 103.975 151.716 87.958 153.551C60.9128 156.657 34.57 143.456 20.0288 119.734C12.7231 107.662 9.1405 94.4596 9 79.2808Z" fill="#F788CD"/>
<path d="M36.372 88.8068C36.5624 96.5563 37.3416 104.231 37.7918 111.969C38.5999 115.077 40.4469 117.931 41.6417 120.929C44.3026 126.586 46.7902 132.317 49.4857 137.956C50.467 140.251 52.9027 143.168 50.2707 145.279C44.8624 149.465 41.8957 133.954 39.4368 130.743C37.0069 124.343 32.3489 118.323 31.6794 111.473C30.8713 100.829 30.5019 90.1445 29.6246 79.5005C27.8122 71.4396 29.7804 65.2931 37.6879 61.7124C39.1021 61.0608 40.5335 61.0724 41.9938 61.1185C42.5248 61.1358 42.5883 61.1819 42.5075 60.5592C40.0775 51.1952 36.7471 42.0043 34.2941 32.6634C30.8021 19.8167 50.5593 12.7534 56.7872 24.1528C59.5462 30.8529 60.7063 38.1411 63.575 44.7489C63.4249 35.2754 63.1074 25.8018 62.7496 16.3283C62.7034 14.0565 63.0209 11.9116 64.1118 9.8589C65.7106 6.85482 67.9616 4.65222 71.2516 3.71813C73.7508 3.00891 76.3309 2.79557 78.9398 3.21072C82.755 3.81615 85.4101 6.01299 87.2975 9.2477C89.9988 14.8522 88.5616 21.4658 89.4331 27.4855C89.9584 33.6205 89.739 39.7786 90.6337 45.8732C93.3811 39.8651 94.3796 32.6691 96.5095 26.2516C97.5484 22.2442 98.3565 17.8448 102.027 15.3308C108.382 10.5393 119.43 13.1109 122.246 20.8085C124.44 27.1165 120.919 33.4418 119.967 39.6863C118.177 47.2686 116.451 54.8682 114.674 62.4562C113.929 66.0196 112.884 69.5542 112.33 73.1464C112.209 73.9594 113.104 73.9305 113.594 74.0689C120.977 75.8621 129.594 78.8835 130.304 87.6651C133.427 112.684 112.359 131.683 108.573 155.289C107.961 157.191 105.069 157.416 103.747 156.413C100.648 153.87 104.694 146.899 104.758 143.261C107.857 135.056 112.325 127.468 116.07 119.545C121.179 109.38 126.783 96.9022 122.916 85.5086C119.707 80.6191 104.111 78.4049 98.0968 76.433C95.1185 76.3003 94.7664 80.7171 94.9857 82.9485C95.2743 85.1223 96.7519 86.4197 98.4084 87.5556C107.851 94.3248 110.091 91.8397 106.322 104.352C106.102 105.24 105.462 105.92 104.619 106.203C99.6956 108.013 94.9049 110.493 90.928 113.923C82.149 120.301 85.2312 130.114 80.0942 129.624C71.7191 126.937 83.9671 110.377 88.5846 107.944C91.6553 105.557 95.055 103.729 98.5123 101.988C99.8687 101.527 101.271 101.106 101.064 99.3124C103.736 94.3998 85.5313 93.114 88.7463 78.8143C90.0392 70.027 97.5311 68.6143 104.792 71.5088C106.726 72.5063 108.059 58.1548 109.127 56.0156C111.118 45.2274 114.679 34.4912 115.626 23.6108C114.789 19.6957 109.929 18.2311 106.472 19.1998C102.778 20.3126 102.506 24.4295 101.595 27.6066C97.9871 40.7934 94.2584 53.9399 90.5356 67.0978C89.8083 70.4594 84.0595 70.2691 84.3538 66.4636C83.6324 54.3262 82.9686 42.183 82.224 30.0514C81.9527 24.5737 81.7045 19.1018 81.3755 13.6299C80.8849 6.65301 68.5503 7.52945 68.4869 14.2295C68.7697 33.165 69.976 52.0832 70.1549 71.0187C70.2415 73.5327 66.7149 74.8127 65.0468 72.9157C63.0324 69.8655 62.7496 66.0311 61.5433 62.6234C58.2302 51.276 54.8132 39.9112 51.4078 28.5868C50.0687 24.0317 43.1886 23.9913 40.6951 27.843C38.4441 31.3833 45.5897 47.5108 46.4901 52.8732C47.8061 57.0131 49.024 61.1762 50.1668 65.368C51.9215 69.7041 55.1133 73.2732 57.4452 77.3152C60.8275 83.9518 68.1405 89.7351 67.5229 97.6749C66.6052 104.536 58.8131 109.576 52.1928 107.852C44.822 105.961 41.5378 93.9385 36.3777 88.8241L36.372 88.8068ZM55.7136 101.838C58.6515 101.763 61.9935 98.8915 61.5606 95.6683C59.8059 90.8537 56.1811 86.9559 53.6357 82.5276C51.073 78.2781 47.9793 74.2996 45.5147 70.0097C44.493 67.9685 41.6648 66.896 39.7081 67.9685C31.0791 71.8951 38.2651 78.059 41.2261 83.2484C44.3256 86.7714 51.6213 102.974 55.7136 101.838Z" fill="black"/>
</svg>
