<svg width="16" height="12" viewBox="0 0 16 12" fill="none" xmlns="http://www.w3.org/2000/svg">
<path d="M16 1.42623C15.4153 1.67213 14.7774 1.81967 14.1395 1.91803C14.8306 1.52459 15.309 0.934426 15.5748 0.245902C14.9369 0.590164 14.2458 0.836066 13.5017 0.983607C12.8638 0.344262 12.0133 0 11.1096 0C9.30233 0 7.81395 1.37705 7.81395 3.04918C7.81395 3.29508 7.86711 3.54098 7.92027 3.7377C5.2093 3.59016 2.76412 2.40984 1.16944 0.540984C0.903654 0.983607 0.744186 1.52459 0.744186 2.06557C0.744186 3.09836 1.3289 4.03279 2.1794 4.57377C1.64784 4.57377 1.11628 4.42623 0.69103 4.22951V4.27869C0.69103 5.7541 1.80731 6.98361 3.29568 7.22951C3.0299 7.27869 2.71096 7.32787 2.44518 7.32787C2.23256 7.32787 2.01993 7.32787 1.80731 7.27869C2.23256 8.45902 3.45515 9.34426 4.83721 9.39344C3.72093 10.2295 2.28571 10.6721 0.797342 10.6721C0.531561 10.6721 0.265781 10.6721 0 10.623C1.43522 11.459 3.18937 12 4.99668 12C11.0033 12 14.299 7.37705 14.299 3.39344C14.299 3.2459 14.299 3.14754 14.299 3C14.99 2.55738 15.5747 2.01639 16 1.42623Z" fill="#0094FF"/>
</svg>