<svg width="260" height="15" viewBox="0 0 260 15" fill="none" xmlns="http://www.w3.org/2000/svg">
<path fill-rule="evenodd" clip-rule="evenodd" d="M165.801 0.116975C166.709 -0.110107 167.668 -0.00392529 168.501 0.412501L168.844 0.584118C169.259 0.791337 169.623 1.07457 169.921 1.41413C169.963 1.46168 170.037 1.46168 170.079 1.41413C170.377 1.07457 170.741 0.791337 171.156 0.584118L171.499 0.412501C172.332 -0.00392529 173.291 -0.110107 174.199 0.116975C175.072 0.335201 175.834 0.844888 176.363 1.54996L176.555 1.80682C177.171 2.62707 177.5 3.61989 177.5 4.6363V4.92317C177.5 5.37799 177.444 5.83129 177.334 6.27303L177.267 6.54171C177.014 7.55255 176.561 8.50474 175.933 9.34191L175.542 9.86374C175.227 10.2833 174.883 10.6803 174.512 11.0517L174.115 11.4486C173.162 12.401 172.061 13.1951 170.852 13.7993C170.317 14.0669 169.683 14.0669 169.148 13.7993C167.939 13.1951 166.838 12.401 165.885 11.4486L165.488 11.0517C165.117 10.6803 164.773 10.2833 164.458 9.86374L164.067 9.34191C163.439 8.50474 162.986 7.55255 162.733 6.54171L162.666 6.27303C162.556 5.83129 162.5 5.37799 162.5 4.92317V4.6363C162.5 3.61989 162.829 2.62707 163.445 1.80682L163.637 1.54996C164.166 0.844888 164.928 0.335201 165.801 0.116975ZM167.921 1.42404C167.36 1.14377 166.722 1.07469 166.119 1.22544C165.538 1.37074 165.015 1.71404 164.645 2.20805L164.452 2.46491C163.985 3.08738 163.73 3.84931 163.73 4.6363V4.92317C163.73 5.29055 163.775 5.65634 163.864 6.01226L163.931 6.28095C164.149 7.15217 164.538 7.96901 165.074 8.68382L165.465 9.20565C165.747 9.58165 166.056 9.93686 166.387 10.2686L166.784 10.6656C167.647 11.528 168.641 12.2442 169.728 12.7878C169.901 12.874 170.099 12.874 170.272 12.7878C171.359 12.2442 172.353 11.528 173.216 10.6656L173.613 10.2686C173.944 9.93686 174.253 9.58165 174.535 9.20565L174.926 8.68382C175.462 7.96901 175.851 7.15217 176.069 6.28095L176.136 6.01226C176.225 5.65634 176.27 5.29055 176.27 4.92317V4.6363C176.27 3.84931 176.015 3.08738 175.548 2.46491L175.355 2.20805C174.985 1.71404 174.462 1.37074 173.881 1.22544C173.278 1.07469 172.64 1.14377 172.079 1.42404L171.736 1.59566C171.292 1.8176 170.924 2.18181 170.695 2.64068C170.285 3.46022 169.712 3.45495 169.305 2.64068C169.076 2.18181 168.708 1.8176 168.264 1.59566L167.921 1.42404Z" fill="#687684"/>
<path fill-rule="evenodd" clip-rule="evenodd" d="M6.5 10.25C6.77614 10.25 7 10.4739 7 10.75V12.7079C9.74874 11.1024 11.4025 9.96659 12.3999 8.97494C12.9787 8.39946 13.2971 7.9087 13.482 7.44074C13.6679 6.97021 13.75 6.44448 13.75 5.75C13.75 3.26472 11.7353 1.25 9.25 1.25H5.75C3.26472 1.25 1.25 3.26472 1.25 5.75C1.25 8.23528 3.26472 10.25 5.75 10.25H6.5ZM7 14.1529C13.6641 10.3177 15 8.74691 15 5.75C15 2.57436 12.4256 0 9.25 0H5.75C2.57436 0 0 2.57436 0 5.75C0 8.92564 2.57436 11.5 5.75 11.5V14.0086C5.75 14.3911 6.16196 14.6318 6.4943 14.4424C6.66618 14.3445 6.83473 14.248 7 14.1529Z" fill="#687684"/>
<path d="M82.8536 0.969689C82.6583 0.774427 82.3417 0.774427 82.1464 0.969689L79.5581 3.55808C79.314 3.80216 79.314 4.19788 79.5581 4.44196C79.8021 4.68604 80.1979 4.68604 80.4419 4.44196L81.875 3.0089V10.5C81.875 12.2259 83.2741 13.625 85 13.625H89C89.3452 13.625 89.625 13.3452 89.625 13C89.625 12.6548 89.3452 12.375 89 12.375H85C83.9645 12.375 83.125 11.5356 83.125 10.5V3.0089L84.5581 4.44196C84.8021 4.68604 85.1979 4.68604 85.4419 4.44196C85.686 4.19788 85.686 3.80216 85.4419 3.55808L82.8536 0.969689Z" fill="#687684"/>
<path d="M93.7714 13.6553C93.9667 13.8506 94.2833 13.8506 94.4786 13.6553L97.0669 11.0669C97.311 10.8228 97.311 10.4271 97.0669 10.183C96.8229 9.93896 96.4271 9.93896 96.1831 10.183L94.75 11.6161V4.12498C94.75 2.39909 93.3509 0.999981 91.625 0.999981H87.625C87.2798 0.999981 87 1.2798 87 1.62498C87 1.97016 87.2798 2.24998 87.625 2.24998H91.625C92.6605 2.24998 93.5 3.08945 93.5 4.12498V11.6161L92.0669 10.183C91.8229 9.93896 91.4271 9.93896 91.1831 10.183C90.939 10.4271 90.939 10.8228 91.1831 11.0669L93.7714 13.6553Z" fill="#687684"/>
<path fill-rule="evenodd" clip-rule="evenodd" d="M251.771 0.146447C251.967 -0.0488154 252.283 -0.0488157 252.479 0.146446L256.067 3.73484C256.311 3.97891 256.311 4.37464 256.067 4.61872C255.823 4.8628 255.427 4.8628 255.183 4.61872L252.75 2.18566V9.67678C252.75 10.022 252.47 10.3018 252.125 10.3018C251.78 10.3018 251.5 10.022 251.5 9.67678V2.18566L249.067 4.61872C248.823 4.8628 248.427 4.8628 248.183 4.61872C247.939 4.37464 247.939 3.97891 248.183 3.73484L251.771 0.146447ZM245.125 8.05178C245.47 8.05178 245.75 8.3316 245.75 8.67678V12.6768C245.75 13.16 246.142 13.5518 246.625 13.5518H257.625C258.108 13.5518 258.5 13.16 258.5 12.6768V8.67678C258.5 8.3316 258.78 8.05178 259.125 8.05178C259.47 8.05178 259.75 8.3316 259.75 8.67678V12.6768C259.75 13.8504 258.799 14.8018 257.625 14.8018H246.625C245.451 14.8018 244.5 13.8504 244.5 12.6768V8.67678C244.5 8.3316 244.78 8.05178 245.125 8.05178Z" fill="#687684"/>
<path d="M21.4648 11V3.7168H21.3711L19.2207 5.27539V4.16211L21.4707 2.54492H22.5195V11H21.4648Z" fill="#687684"/>
</svg>