<svg width="160" height="160" viewBox="0 0 160 160" fill="none" xmlns="http://www.w3.org/2000/svg">
<path d="M10.5802 82.1819C10.9767 75.346 11.3236 68.5102 11.8191 61.6743C12.3147 55.2347 13.6032 48.9933 16.3289 43.0491C19.1041 37.0058 23.1678 31.9532 28.2227 27.6436C38.2829 19.0245 49.7803 13.0803 62.6157 9.76142C70.7928 7.68102 79.0689 6.29402 87.4937 6.04632C99.388 5.65002 110.835 7.78002 121.589 13.0803C132.343 18.3806 139.777 26.7025 143.89 37.8974C146.269 44.3865 148.202 50.9747 149.342 57.8106C150.432 64.2997 150.135 70.7888 148.697 77.1788C146.467 86.9868 142.75 96.2995 137.993 105.167C135.019 110.715 131.749 116.114 127.685 120.968C124.612 124.634 121.193 127.903 117.427 130.826C111.48 135.482 104.888 139.148 98.248 142.665C91.9539 145.984 85.4618 148.807 78.5733 150.59C74.1131 151.73 69.6529 152.72 65.1432 153.612C60.6334 154.504 56.2228 154.207 51.7131 153.166C45.9148 151.829 40.5626 149.6 35.6068 146.38C29.0652 142.07 24.0103 136.324 20.1944 129.538C17.9147 125.427 16.0811 121.167 14.743 116.659C14.4953 115.916 14.297 115.123 13.9501 114.43C10.828 107.891 9.78727 100.907 10.0351 93.7235C10.1342 89.8598 10.3324 86.0456 10.5802 82.1819C10.5306 82.1819 10.5306 82.1819 10.5802 82.1819Z" fill="#F97242"/>
<path d="M89.7389 47.2797C90.3904 37.4989 89.7326 27.5285 89.9666 17.6908C89.9793 11.7389 92.5598 7.20859 97.8727 4.4601C104.02 1.22509 112.338 3.56921 115.956 9.4832C117.309 11.5304 118.093 13.8555 118.093 16.3829C118.131 33.4109 117.992 50.4389 117.866 67.4606C117.859 68.0482 118.03 68.2314 118.669 68.402C133.975 69.6973 134.962 88.1596 132.837 99.9812C131.426 112.195 125.399 123.17 120.693 134.378C119.308 137.462 117.758 140.488 116.62 143.66C116 147.116 117.657 153.157 111.674 151.735C110.775 151.47 109.542 149.776 109.529 148.797C109.738 145.758 108.758 142.327 110.611 139.692C114.033 132.167 117.467 124.654 120.554 116.978C124.956 108.366 132.678 78.4925 118.897 75.8008C110.301 74.0317 101.592 73.0713 92.9203 71.8834C91.3012 71.8961 88.164 71.062 87.3608 72.8754C86.8485 74.7393 86.1274 76.6033 86.7852 78.6125C88.3854 84.9309 102.427 86.4789 108.018 89.7202C111.566 92.0517 108.511 96.7589 107.834 99.8991C107.543 100.752 106.645 101.106 105.893 101.453C102.452 103.039 99.4666 105.289 96.5571 107.671C91.5858 111.885 87.0445 117.445 86.5449 124.187C87.9237 129.248 80.4414 132.344 79.6318 126.272C79.3788 112.46 90.5801 102.268 101.585 95.7416C103.641 94.1115 97.664 93.3785 96.6836 92.5824C96.1144 92.355 96.146 92.7088 96.0385 93.0437C94.2991 98.7239 89.3152 102.894 83.2876 103.109C77.4054 103.52 72.7566 100.114 69.9484 95.3688C60.6255 102.003 46.6982 95.3941 47.1915 83.4461C47.1472 68.3894 47.1725 53.3327 47.1788 38.2697C47.6342 33.8405 43.9342 29.8157 39.2854 30.4602C35.7878 30.7382 33.144 33.7837 33.0111 37.1893C34.1433 65.4703 30.6077 94.5095 34.5354 122.411C35.7878 126.897 39.7788 128.9 43.0044 131.756C49.1396 137.234 46.6476 146.124 47.3117 153.428C47.6659 158.293 40.4112 158.053 40.4429 153.529C39.7155 147.805 42.2518 140.305 37.5208 135.964C28.2738 130.726 25.4719 119.796 26.0791 109.806C26.0601 85.8281 26.0854 61.8499 26.0538 37.8716C26.0538 33.4804 27.4326 29.6957 30.6962 26.7703C36.7555 21.0016 47.1725 22.4043 51.8656 29.1333C55.9008 34.0048 54.2437 40.8729 54.5536 46.7363C54.5473 47.5767 54.6169 47.7157 55.4771 47.2797C60.6888 44.4617 67.6019 45.6622 71.7004 49.8892C72.2253 50.382 72.4847 50.3504 72.9084 49.9145C77.3232 45.2073 84.1098 44.904 89.7516 47.2671L89.7389 47.2797ZM111.294 41.9217C111.294 35.6286 111.262 29.3355 111.294 23.0424C111.313 19.1566 111.749 14.6011 108.024 12.1811C104.299 9.76121 99.5172 11.2713 97.3667 14.9044C95.425 18.1836 95.4756 22.221 95.5831 26.0247C95.5831 34.049 95.6274 42.0734 95.8171 50.0914C95.9057 53.9456 95.3238 58.7223 96.2282 62.4691C97.4426 67.4985 106.367 66.6013 110.402 67.1131C110.63 67.1447 110.889 67.1636 111.073 67.0246C111.294 66.8603 111.319 66.5318 111.319 66.2538C111.307 58.141 111.307 50.0219 111.307 41.9091L111.294 41.9217ZM68.4873 71.8708C68.4873 71.8708 68.5126 71.8708 68.5253 71.8708C68.3608 67.2205 68.8605 62.3617 68.3355 57.7808C65.9068 50.382 54.326 52.0058 54.3133 60.0112C54.3576 67.846 54.3386 75.6808 54.3133 83.5219C54.3133 84.9688 54.8003 86.2451 55.4961 87.414C57.6718 91.0723 62.036 91.78 65.3882 89.7707C71.0046 86.0619 67.6272 77.5889 68.4937 71.8771L68.4873 71.8708ZM75.4131 74.7141C76.4567 81.6453 72.1368 92.0833 79.967 95.9312C83.7366 97.5803 88.7902 94.7243 89.4164 90.8133C89.5049 90.2762 89.4163 90.0993 88.9104 89.8908C77.241 87.0412 75.5079 65.2112 88.9862 64.4088C89.5934 64.4151 89.8022 64.175 89.7895 63.5874C92.3511 51.4056 75.6661 48.5244 75.4004 61.2812C75.4384 65.7609 75.4131 70.2343 75.4131 74.7141Z" fill="black"/>
</svg>
