<svg width="45" height="45" viewBox="0 0 45 45" fill="none" xmlns="http://www.w3.org/2000/svg">
<path d="M6.05226 33.0254C6.05216 33.0253 6.05212 33.0251 6.05215 33.025C6.10324 32.7925 6.18206 32.4074 6.27282 32.0251C6.69065 30.2654 7.11514 28.5076 7.52991 26.7474C7.71232 25.9736 7.5041 25.3124 6.90553 24.7883C6.149 24.1258 5.38524 23.4716 4.62455 22.8134C3.83247 22.128 3.04013 21.4429 2.24833 20.7571C1.87021 20.4299 1.65699 20.0196 1.60813 19.5176C1.51651 18.5732 2.22002 17.6583 3.16034 17.5443C3.78889 17.4682 4.42215 17.4295 5.0532 17.3765C6.13151 17.2857 7.21037 17.1973 8.28867 17.107C8.72177 17.0708 9.15737 17.0512 9.58741 16.9905C10.279 16.8929 10.7651 16.5069 11.0347 15.8577C11.7668 14.0941 12.4967 12.3293 13.2277 10.5652C13.2987 10.394 13.3645 10.2201 13.4453 10.0534C13.7824 9.35959 14.3471 8.99833 15.1064 9.00001C15.8604 9.00168 16.4426 9.35345 16.7496 10.0534C17.2502 11.1948 17.7158 12.3522 18.1958 13.5028C18.5187 14.2772 18.8393 15.0524 19.1642 15.8259C19.4696 16.5526 20.0273 16.9236 20.8013 16.9871C21.8708 17.0749 22.9399 17.1647 24.0093 17.2533C24.9449 17.3311 25.8802 17.4144 26.8164 17.4844C27.6229 17.5446 28.249 18.0068 28.4972 18.7455C28.7456 19.4852 28.5405 20.2192 27.923 20.7549C26.3966 22.0789 24.8688 23.4013 23.3377 24.7198C22.8297 25.1571 22.5526 25.6982 22.6203 26.3716C22.6562 26.729 22.7642 27.0796 22.8477 27.4314C23.2619 29.1774 23.6823 30.9221 24.094 32.669C24.3416 33.7187 23.6973 34.7169 22.6431 34.9235C22.2081 35.0085 21.7947 34.9293 21.4149 34.7021C20.1642 33.954 18.9157 33.2014 17.6664 32.4505C17.1308 32.1285 16.5969 31.8043 16.06 31.4852C15.4115 31.0997 14.7629 31.1055 14.1191 31.4997C12.4889 32.4973 10.8589 33.4952 9.22844 34.4925C8.90139 34.6927 8.58268 34.9051 8.1915 34.9734C7.09353 35.1649 6.05969 34.3042 6.05238 33.0257C6.05238 33.0256 6.05234 33.0255 6.05226 33.0254V33.0254Z" stroke="#2EB77D" stroke-width="3"/>
</svg>
