<svg width="32" height="24" viewBox="0 0 32 24" fill="none" xmlns="http://www.w3.org/2000/svg">
<path d="M4.4735 0C3.28706 0 2.1492 0.471314 1.31026 1.31026C0.471314 2.1492 0 3.28706 0 4.4735V18.9264C0 20.1128 0.471314 21.2507 1.31026 22.0896C2.1492 22.9286 3.28706 23.3999 4.4735 23.3999H17.5499C18.7363 23.3999 19.8742 22.9286 20.7131 22.0896C21.5521 21.2507 22.0234 20.1128 22.0234 18.9264V4.4735C22.0234 3.28706 21.5521 2.1492 20.7131 1.31026C19.8742 0.471314 18.7363 0 17.5499 0H4.4735ZM29.075 20.8438L24.0881 15.9573V7.57054L29.0599 2.57674C30.1432 1.48933 32 2.25602 32 3.79078V19.6146C32 21.1397 30.1638 21.9105 29.075 20.8438Z" fill="#2EB77D"/>
</svg>
