<svg width="179" height="45" viewBox="0 0 179 45" fill="none" xmlns="http://www.w3.org/2000/svg">
<g clip-path="url(#clip0)">
<path d="M57.7718 17.5971C57.7718 14.3876 54.6508 10.9788 49.2499 10.9788C43.1849 10.9788 36.5224 15.4279 35.5042 24.304C34.4638 33.2686 40.0418 37.2528 45.664 37.2528C51.2863 37.2528 54.2302 35.0615 57.2405 32.1397C54.6508 28.8859 51.3084 30.391 50.6665 30.7231C49.9582 31.0772 49.0507 31.5642 47.1913 31.5642C45.0221 31.5642 42.8087 30.5903 42.8087 26.5396C56.7093 25.1672 57.7718 20.8067 57.7718 17.5971ZM50.8878 18.1284C50.7993 19.1244 50.4009 20.8288 43.362 21.7806C44.8451 16.5125 47.6783 16.1141 48.9843 16.1141C50.2017 16.1141 50.9764 17.0659 50.8878 18.1284ZM27.3364 18.9916C27.3364 18.9916 24.3483 28.3768 24.1048 29.1515C24.0162 28.3546 21.8249 11.5101 21.8249 11.5101C16.7339 11.5101 14.0113 15.1402 12.5726 18.9695C12.5726 18.9695 8.94245 28.3768 8.63256 29.1736C8.61043 28.4432 8.07919 19.0802 8.07919 19.0802C7.76931 14.3876 3.47516 11.5322 0 11.5322L4.20561 37.0536C9.54009 37.0315 12.4176 33.4235 13.9228 29.5942C13.9228 29.5942 17.1323 21.2937 17.2651 20.9174C17.2873 21.2715 19.5671 37.0536 19.5671 37.0536C24.9238 37.0536 27.8013 33.667 29.3507 29.9705L36.8544 11.5322C31.5642 11.5322 28.7752 15.1402 27.3364 18.9916ZM77.4274 10.9346C74.1294 10.9346 71.606 12.7275 69.4811 15.3615V15.3394L71.3846 0C67.002 0 63.4383 3.80718 62.7521 9.47368L59.4319 36.8544C61.9552 36.8544 64.6335 36.124 66.0723 34.2646C67.3561 35.9247 69.2818 37.2528 72.1372 37.2528C79.5302 37.2528 84.5991 28.6645 84.5991 20.6075C84.5548 13.2587 80.9911 10.9346 77.4274 10.9346ZM76.7413 24.1048C75.9665 28.5981 73.4653 31.6527 71.0526 31.6527C68.6178 31.6527 67.5775 30.5681 67.5775 30.5681C68.0423 26.6281 68.33 24.2154 69.2154 22.1348C70.1008 20.0541 72.2036 16.7339 74.395 16.7339C76.542 16.7339 77.516 19.5893 76.7413 24.1048ZM103.06 11.5322H97.9021L97.9242 11.2666C98.2784 7.90212 99.0752 6.13133 101.709 5.84358C103.502 5.6665 104.299 4.73684 104.498 3.71864C104.653 2.92179 105.14 0.154943 105.14 0.154943C94.7811 0.0885391 91.5273 4.55976 90.6862 11.3773L90.664 11.5322H90.5534C88.8711 11.5322 87.0118 13.4358 86.7019 15.8485L86.5912 16.7339H90.0443L87.1446 40.6837L86.2592 44.9779C86.3699 44.9779 86.5027 45 86.6134 45C91.4609 44.8229 94.5597 40.9936 95.2459 35.4378L97.5037 16.7339H99.1195C100.713 16.7339 102.573 15.1402 102.905 12.484L103.06 11.5322ZM129.887 11.0895C123.933 11.0895 118.31 15.4722 116.584 22.3561C114.857 29.24 117.469 37.3856 126.235 37.3856C134.978 37.3856 140.025 28.908 140.025 21.847C140.025 14.8303 135.266 11.0895 129.887 11.0895ZM132.3 23.8834C131.99 27.0044 130.617 31.7413 126.854 31.7413C123.069 31.7413 123.601 26.2076 123.977 23.5735C124.375 20.7624 125.947 16.756 129.333 16.756C132.366 16.756 132.654 20.364 132.3 23.8834ZM169.442 18.9916C169.442 18.9916 166.454 28.3768 166.21 29.1515C166.121 28.3546 163.93 11.5101 163.93 11.5101C158.839 11.5101 156.117 15.1402 154.678 18.9695C154.678 18.9695 151.048 28.3768 150.738 29.1736C150.716 28.4432 150.184 19.0802 150.184 19.0802C149.875 14.3876 145.58 11.5322 142.105 11.5322L146.289 37.0536C151.623 37.0315 154.501 33.4235 156.006 29.5942C156.006 29.5942 159.215 21.2937 159.326 20.9174C159.37 21.2715 161.628 37.0536 161.628 37.0536C166.985 37.0536 169.862 33.667 171.412 29.9705L178.915 11.5322C173.647 11.5322 170.858 15.1402 169.442 18.9916ZM107.929 0.154943L103.591 35.15L102.705 39.4663C102.816 39.4663 102.949 39.4884 103.06 39.4884C107.73 39.422 111.05 35.3271 111.67 30.1697L114.171 10.0935C114.924 3.96212 111.272 0.154943 107.929 0.154943Z" fill="#4353FF"/>
</g>
<defs>
<clipPath id="clip0">
<rect width="178.915" height="45" fill="white"/>
</clipPath>
</defs>
</svg>
