<svg width="34" height="16" viewBox="0 0 34 16" fill="none" xmlns="http://www.w3.org/2000/svg">
<path d="M33.9971 2.04953C33.9993 1.88587 33.9864 1.72234 33.9585 1.56088C33.7913 0.68481 32.9719 -0.00278378 31.9082 8.47408e-06C26.9394 0.0118756 21.9713 0.00559205 17.0033 0.00559205H9.20471C6.84173 0.00559205 4.47851 0.00559205 2.11505 0.00559205C1.79005 0.00559205 1.47304 0.0384012 1.17858 0.17592C0.378804 0.55078 -0.000726027 1.17694 1.04261e-06 2.02439C1.04261e-06 3.54292 1.04261e-06 5.06121 1.04261e-06 6.57926C1.04261e-06 8.71441 1.04261e-06 10.8493 1.04261e-06 12.984C1.04261e-06 14.1707 0.835404 14.9937 2.0467 14.9958C4.8212 15.0014 7.59594 15.0028 10.3709 15H20.8553C24.5391 14.9958 28.2229 14.9937 31.9067 14.9937C32.1182 14.9972 32.3292 14.9737 32.5342 14.9239C33.4496 14.6831 33.9963 13.9396 33.9971 12.9554C33.999 9.32033 33.999 5.68504 33.9971 2.04953ZM13.4406 5.04631C13.6718 6.21278 13.9038 7.38413 14.1313 8.53663C14.4302 7.38622 14.7341 6.21836 15.0402 5.04213C15.4321 5.04213 15.8072 5.03863 16.1817 5.04701C16.2099 5.05383 16.2359 5.0672 16.2574 5.08595C16.279 5.10469 16.2954 5.12824 16.3053 5.15451C16.5782 6.23791 16.8472 7.32247 17.1123 8.40819C17.1224 8.46241 17.1431 8.5143 17.1734 8.56107C17.2243 8.2595 17.265 7.95515 17.3275 7.65358C17.5035 6.81591 17.6874 5.97823 17.8736 5.14614C17.8823 5.10495 17.9426 5.04492 17.9797 5.04422C18.4509 5.03724 18.9249 5.03933 19.4128 5.03933C19.3939 5.10914 19.3815 5.1573 19.3662 5.20617C18.8878 6.70468 18.4106 8.20389 17.9346 9.7038C17.8954 9.82945 17.8358 9.86365 17.7071 9.86086C17.3253 9.85318 16.9436 9.85458 16.5619 9.86086C16.4521 9.86086 16.4027 9.83224 16.3765 9.72613C16.1366 8.74256 15.8908 7.76039 15.6495 6.77821C15.6444 6.75797 15.632 6.73842 15.6378 6.75168C15.3608 7.77295 15.0794 8.81167 14.7973 9.85039H13.301C12.8182 8.25392 12.3355 6.65605 11.8469 5.04631H13.4406ZM8.9226 9.86296C8.50527 9.85318 8.0872 9.85946 7.63714 9.85946L6.83737 6.74261C6.77702 7.0337 6.73049 7.33596 6.65051 7.62915C6.45711 8.33629 6.24989 9.04064 6.04123 9.74428C6.02814 9.78966 5.9627 9.85388 5.9198 9.85458C5.46611 9.86226 5.01242 9.85946 4.54273 9.85946L3.08859 5.0491H4.6816C4.91209 6.21627 5.14402 7.38832 5.37159 8.53943C5.66969 7.39088 5.97215 6.22464 6.27898 5.04073C6.67596 5.04073 7.04458 5.03654 7.41393 5.04562C7.44414 5.0532 7.47194 5.0678 7.49489 5.08813C7.51784 5.10846 7.53523 5.13389 7.54553 5.16219C7.81891 6.24559 8.08575 7.33038 8.35331 8.41447C8.36567 8.46543 8.38021 8.51499 8.40348 8.60295C8.47182 8.21134 8.52344 7.85602 8.59688 7.5049C8.76119 6.71888 8.93496 5.93495 9.11164 5.15172C9.12134 5.12568 9.13755 5.10232 9.15885 5.0837C9.18015 5.06508 9.20588 5.05176 9.23379 5.04492C9.69911 5.03724 10.1652 5.04003 10.6538 5.04003C10.6196 5.1594 10.5912 5.26341 10.5585 5.36603C10.099 6.80404 9.63659 8.24065 9.18362 9.67936C9.13927 9.82317 9.07383 9.86505 8.9226 9.86156V9.86296ZM27.7588 6.35937C27.4062 7.46441 27.0506 8.56805 26.7031 9.67448C26.6602 9.81409 26.6035 9.86924 26.4443 9.86365C26.0691 9.85039 25.6932 9.85528 25.318 9.86365C25.2053 9.86365 25.161 9.83154 25.1348 9.72404C24.8963 8.74675 24.652 7.76946 24.4077 6.79217C24.4012 6.76495 24.3888 6.73982 24.3757 6.70352C24.266 7.16982 24.1722 7.62636 24.05 8.07591C23.9002 8.63436 23.725 9.18234 23.5651 9.73591C23.5411 9.81898 23.5098 9.86086 23.408 9.86016C22.966 9.85388 22.5239 9.86016 22.0608 9.86016C21.5751 8.25462 21.0938 6.66024 20.6066 5.0519H22.1982L22.8882 8.53873C23.1897 7.37529 23.4919 6.21185 23.7948 5.04841H25.049L25.9135 8.50522C26.1462 7.38832 26.3883 6.22046 26.6311 5.0505H28.1725C28.0329 5.49447 27.8962 5.92657 27.7588 6.35797V6.35937ZM29.9945 9.96487C29.4638 9.96487 29.077 9.59071 29.0733 9.06716C29.0697 8.54362 29.4565 8.14851 29.9931 8.14711C30.5297 8.14572 30.9136 8.52197 30.9099 9.06367C30.9063 9.5935 30.5333 9.96138 29.9945 9.96348V9.96487Z" fill="#2C2D36"/>
</svg>
